<svg xmlns="http://www.w3.org/2000/svg" width="300" height="300" viewBox="0 0 300 300"><path d="M149.637 161.863c-.996 0-1.99.051-2.78.155-3.742.504-5.146 1.479-6.458 3.963-.854 1.597-2.567 6.452-3.938 12.64-2.878-.104-5.651-.239-8.046-.403-.934-8.683-3.087-44.833-3.142-57.244 1.512-.1 3.122-.229 4.896-.307 1.074 5.735 4.648 25.713 7.571 31.992 1.3 2.801 3.563 3.754 6.336 3.967 2.767.194 8.346.194 11.126 0 2.768-.213 5.029-1.166 6.33-3.967 2.922-6.279 6.499-26.257 7.57-31.992 1.771.077 3.388.208 4.901.307-.059 12.411-2.206 48.562-3.149 57.244-2.399.162-5.165.299-8.042.403-1.372-6.188-3.084-11.043-3.938-12.64-1.312-2.483-2.715-3.459-6.459-3.963-.792-.104-1.782-.155-2.778-.155m0 26.145c-7.46 0-24.512-.458-30.126-1.512-5.966-1.118-9.99-4.539-11.964-10.164-1.692-4.798-2.932-13.712-3.699-26.487-.479-8.003-.472-15.192.023-21.348.847-10.476 5.686-14.657 15.807-15.8 6.765-.764 21.879-1.125 29.961-1.125 8.08 0 23.196.361 29.952 1.125 10.125 1.143 14.966 5.322 15.808 15.8.497 6.155.504 13.345.025 21.347-.764 12.774-2.005 21.69-3.692 26.488-1.979 5.625-5.999 9.043-11.973 10.164-5.607 1.053-22.661 1.512-30.122 1.512zm29.269-6.065c4.583-.858 7.439-4.241 8.456-7.144 1.061-3.026 2.521-9.847 3.438-25.233.473-7.791.466-14.757-.019-20.701-.569-7.111-4.158-10.713-11.708-11.565-6.589-.747-21.458-1.093-29.437-1.093-7.978 0-22.85.346-29.438 1.093-7.549.853-11.133 4.454-11.712 11.565-.477 5.944-.479 12.91-.018 20.701.922 15.387 2.384 22.207 3.443 25.233 1.021 2.902 3.869 6.285 8.449 7.144 4.723.888 20.229 1.436 29.273 1.436 9.05 0 24.553-.551 29.273-1.436"/></svg>