<svg xmlns="http://www.w3.org/2000/svg" width="300" height="300" viewBox="0 0 300 300"><path d="M198.098 154.22c.185-3.097.044-6.233-.374-9.371-1.511-11.339-8.169-19.35-8.178-19.377l-.016-.048-.038-.034c-1.407-1.263-2.823-2.646-4.575-4.013-1.76-1.372-3.857-2.727-6.618-3.925-5.52-2.395-13.678-4.154-27.072-4.186-23.553-.638-34.12 6.338-38.027 10.017-1.36 1.28-2.935 3.086-3.363 3.586-3.12 3.64-7.402 12.094-7.477 21.42v.124l-.001.061v.062c0 2.021.083 3.914.235 5.687h.222-.222c.84 9.834 3.78 15.938 6.23 19.423 1.95 2.776 5.941 6.558 10.256 9.158 1.597.928 3.41 1.812 5.51 2.672 4.765 1.953 10.561 2.853 15.425 3.274 4.862.421 8.81.365 9.889.399 1.081.034 8.126.343 16.426-1.238 8.296-1.578 17.884-5.053 24.015-12.604 4.96-6.396 7.307-13.62 7.753-21.084h-.147v-.002h.147v-.001zm-11.003.001h.027l-.001.001-.026-.001c-.189 2.325-.621 4.615-1.272 6.987-.907 3.301-2.499 9.062-7.678 13.837-5.174 4.77-13.961 8.579-29.311 7.899-19.76-.874-27.799-2.591-34.71-25.702-.195-1.131-.337-2.159-.439-3.021-.194-1.634-.247-2.669-.255-2.669.068-3.897.473-7.193.576-7.349l.09-.131.071-.073.051-.015.138.051c1.785 1.035 3.682 1.849 5.531 2.493l.203.071 1.31.425c.806.259 1.788.571 2.604.821 1.711.521 5.608 1.378 9.41 2.756 2.147.778 4.299 2.001 6.392 3.619h.305l.002.001h-.307c1.581 1.222 3.129 2.67 4.618 4.321 1.724 1.913 2.797 3.647 3.509 5.084.716 1.443 1.071 2.593 1.355 3.326.218.563.454.992.688 1.201.228.395.905.219 1.053.013.124-.173.923-1.343 1.344-2.729.404-1.334 1.667-4.069 3.876-6.851 1.352-1.702 2.788-3.124 4.447-4.366h-.252v-.001h.252c3.349-2.508 7.601-4.29 13.893-6.186 9.462-2.851 11.414-4.062 11.414-4.062l.238-.21c.177.704.422 1.772.656 3.108.332 2.569.39 4.979.198 7.352zm-13.64-16.903c-5.279 1.96-12.422 5.246-15.399 8.036-3.049 2.856-5.193 5.912-5.899 7.062-.319.521-.666 1.155-.989 1.675l-.082.129h.271v.001h-.271c-.13.203-.252.379-.365.515-.145.174-.243.244-.328.26-.144-.037-.406-.309-.743-.774l-.073-.104c-.356-.506-.731-1.127-1.05-1.646-.703-1.145-2.7-4.258-5.753-7.118-2.976-2.789-10.12-6.076-15.397-8.036-2.252-.837-4.014-1.63-5.293-2.265-.288-.173-1.865-1.112-2.917-1.796-.521-.338-.81-.643-.555-1.354l.431-.87c.178-.364.46-.886.881-1.511.844-1.253 2.249-2.931 4.49-4.609 4.479-3.356 12.31-6.733 25.699-6.733 8.645 0 15.028 1.423 19.709 3.346 2.351 1.041 4.146 1.99 5.386 2.847 2.669 1.795 4.365 3.646 5.394 5.045.515.699.863 1.286 1.082 1.699.215.404.309.645.309.645.075.16.219.477.346.969-1.928 1.271-4.078 2.542-6.25 3.544-.79.332-1.667.684-2.634 1.043z"/></svg>