<svg xmlns="http://www.w3.org/2000/svg" width="300" height="300" viewBox="0 0 300 300"><path d="M149.9 106.966c23.802 0 43.099 19.304 43.099 43.117 0 23.814-19.297 43.117-43.099 43.117-23.804 0-43.101-19.303-43.101-43.117 0-23.813 19.297-43.117 43.101-43.117m0-.8c-24.207 0-43.9 19.702-43.9 43.917 0 24.217 19.693 43.917 43.9 43.917 24.205 0 43.898-19.702 43.898-43.917s-19.693-43.917-43.898-43.917zM174.544 117.412c-.361-.269-.709-.578-1.052-.912-6.673-4.701-14.812-7.465-23.592-7.465-22.659 0-41.029 18.378-41.029 41.047 0 9.188 3.021 17.671 8.119 24.515 13.729-4.055 25.708-11.106 35.974-21.303 10.253-10.145 17.457-22.153 21.58-35.882zM149.9 191.13c22.657 0 41.027-18.38 41.027-41.049 0-8.023-2.303-15.506-6.28-21.827-.105-.106-.2-.218-.28-.343.825 2.726 1.254 5.56 1.254 8.498 0 4.658-1.076 9.066-3.19 13.194-2.115 3.942-4.982 7.274-8.604 9.964-2.868 2.116-6.309 3.907-10.361 5.378-3.225 1.181-7.42 2.4-12.617 3.581l-14.985 3.373c-6.371 1.459-12.173 3.022-17.341 4.622 7.525 8.935 18.788 14.609 31.377 14.609z"/></svg>