<?xml version="1.0" encoding="utf-8"?>
<!-- Generator: Adobe Illustrator 16.0.0, SVG Export Plug-In . SVG Version: 6.00 Build 0)  -->
<!DOCTYPE svg PUBLIC "-//W3C//DTD SVG 1.1//EN" "http://www.w3.org/Graphics/SVG/1.1/DTD/svg11.dtd">
<svg version="1.1" id="Layer_1" xmlns="http://www.w3.org/2000/svg" xmlns:xlink="http://www.w3.org/1999/xlink" x="0px" y="0px"
	 width="144px" height="144px" viewBox="0 0 144 144" enable-background="new 0 0 144 144" xml:space="preserve">
<g id="g2995" transform="translate(76.1162,130.9785)">
	<path id="path2997" d="M-29.971-116.202l-37.038,24.183L-41.4-71.512L-4.056-94.57L-29.971-116.202z"/>
</g>
<g id="g2999" transform="translate(46.4863,78.8198)">
	<path id="path3001" d="M-37.378,1.155l37.038,24.184L25.574,3.706L-11.77-19.353L-37.378,1.155z"/>
</g>
<g id="g3003" transform="translate(96.8486,76.7798)">
	<path id="path3005" d="M-24.788,5.746L1.128,27.378L38.165,3.195L12.556-17.313L-24.788,5.746z"/>
</g>
<g id="g3007" transform="translate(147.2109,111.6328)">
	<path id="path3009" d="M-12.197-72.674l-37.036-24.183L-75.15-75.225l37.343,23.059L-12.197-72.674z"/>
</g>
<g id="g3011" transform="translate(96.9092,73.0566)">
	<path id="path3013" d="M-24.772,14.123l-25.991,21.566l-11.122-7.261v8.142l37.113,22.256L12.341,36.57v-8.142L1.222,35.689
		L-24.772,14.123z"/>
</g>
</svg>
