<?xml version="1.0" encoding="utf-8"?>
<!-- Generator: Adobe Illustrator 16.0.0, SVG Export Plug-In . SVG Version: 6.00 Build 0)  -->
<!DOCTYPE svg PUBLIC "-//W3C//DTD SVG 1.1//EN" "http://www.w3.org/Graphics/SVG/1.1/DTD/svg11.dtd">
<svg version="1.1"
	 id="Layer_1" shape-rendering="geometricPrecision" text-rendering="geometricPrecision" image-rendering="optimizeQuality"
	 xmlns="http://www.w3.org/2000/svg" xmlns:xlink="http://www.w3.org/1999/xlink" x="0px" y="0px" width="539.785px"
	 height="191.585px" viewBox="0 0 539.785 191.585" enable-background="new 0 0 539.785 191.585" xml:space="preserve">
<path d="M233.667,91.328c0,11.367-3.94,21.316-11.792,29.791c-8.56,9.213-19.756,13.833-33.589,13.833
	c-13.322,0-24.179-4.536-32.512-13.634c-7.37-8.135-11.083-17.717-11.083-28.714c0-11.961,4.365-22.222,13.124-30.783
	c8.759-8.56,19.785-12.84,33.135-12.84c12.614,0,23.045,4.365,31.265,13.096c7.625,8.135,11.423,17.886,11.423,29.252H233.667z
	 M192.425,129.566c7.738,0,13.804-3.062,18.226-9.156c3.571-4.902,5.357-11.535,5.357-19.926c0-10.403-2.154-20.04-6.434-28.912
	c-5.584-11.367-13.322-17.064-23.215-17.064c-6.179,0-11.537,2.041-16.072,6.094c-5.471,4.904-8.22,12.217-8.22,21.911
	c0,10.885,2.381,20.948,7.143,30.16c5.726,11.253,13.464,16.865,23.215,16.865V129.566z"/>
<path id="_x31_" d="M329.672,91.328c0,11.367-3.94,21.316-11.792,29.791c-8.561,9.213-19.756,13.833-33.589,13.833
	c-13.322,0-24.178-4.536-32.512-13.634c-7.37-8.135-11.083-17.717-11.083-28.714c0-11.961,4.365-22.222,13.124-30.783
	c8.759-8.56,19.785-12.84,33.136-12.84c12.613,0,23.045,4.365,31.264,13.096c7.625,8.135,11.424,17.886,11.424,29.252H329.672z
	 M288.43,129.566c7.738,0,13.804-3.062,18.226-9.156c3.572-4.902,5.357-11.535,5.357-19.926c0-10.403-2.154-20.04-6.434-28.912
	c-5.584-11.367-13.322-17.064-23.215-17.064c-6.18,0-11.537,2.041-16.072,6.094c-5.471,4.904-8.22,12.217-8.22,21.911
	c0,10.885,2.381,20.948,7.143,30.16c5.726,11.253,13.464,16.865,23.215,16.865V129.566z"/>
<path id="_x32_" d="M233.667,91.328c0,11.367-3.94,21.316-11.792,29.791c-8.56,9.213-19.756,13.833-33.589,13.833
	c-13.322,0-24.179-4.536-32.512-13.634c-7.37-8.135-11.083-17.717-11.083-28.714c0-11.961,4.365-22.222,13.124-30.783
	c8.759-8.56,19.785-12.84,33.135-12.84c12.614,0,23.045,4.365,31.265,13.096c7.625,8.135,11.423,17.886,11.423,29.252H233.667z
	 M192.425,129.566c7.738,0,13.804-3.062,18.226-9.156c3.571-4.902,5.357-11.535,5.357-19.926c0-10.403-2.154-20.04-6.434-28.912
	c-5.584-11.367-13.322-17.064-23.215-17.064c-6.179,0-11.537,2.041-16.072,6.094c-5.471,4.904-8.22,12.217-8.22,21.911
	c0,10.885,2.381,20.948,7.143,30.16c5.726,11.253,13.464,16.865,23.215,16.865V129.566z"/>
<path id="_x33_" d="M329.672,91.328c0,11.367-3.94,21.316-11.792,29.791c-8.561,9.213-19.756,13.833-33.589,13.833
	c-13.322,0-24.178-4.536-32.512-13.634c-7.37-8.135-11.083-17.717-11.083-28.714c0-11.961,4.365-22.222,13.124-30.783
	c8.759-8.56,19.785-12.84,33.136-12.84c12.613,0,23.045,4.365,31.264,13.096c7.625,8.135,11.424,17.886,11.424,29.252H329.672z
	 M288.43,129.566c7.738,0,13.804-3.062,18.226-9.156c3.572-4.902,5.357-11.535,5.357-19.926c0-10.403-2.154-20.04-6.434-28.912
	c-5.584-11.367-13.322-17.064-23.215-17.064c-6.18,0-11.537,2.041-16.072,6.094c-5.471,4.904-8.22,12.217-8.22,21.911
	c0,10.885,2.381,20.948,7.143,30.16c5.726,11.253,13.464,16.865,23.215,16.865V129.566z"/>
<path d="M108.948,35.687l17.262-17.999C69.945-18.481,0.925,13.634,1.974,69.871c0.935,49.802,43.084,83.589,124.492,58.306
	l0.51-35.262l7.738-7.738H92.479l-7.738,7.256h24.009v32.994c-43.539,12.273-84.469-9.779-87.247-58.504
	C19.462,11.82,75.586-5.442,108.948,24.122l0.057,11.565H108.948z"/>
<path d="M397.162,122.99c-1.332-0.766-2.352-1.842-3.203-3.033c-0.85-1.189-1.473-2.494-2.012-3.685
	c-0.652-3.714,2.041-8.192,4.678-9.893c20.748-13.266,22.107-33.532,4.307-49.859h0.029h9.75l6.746-7.256h-42.12
	c-42.036-0.312-50.511,64.854,0.878,63.493c-2.551,6.52-2.125,12.557,3.998,17.744c-74.066,7.285-50.625,56.01-18,56.974
	c11.311,0.822,7.852,0.624,14.994,0.794c22.932-0.709,35.035-10.318,40.053-23.867C421.539,152.837,418.308,135.178,397.162,122.99z
	 M379.39,107.003l0.027-0.029c-7.171,0-12.925-3.883-17.29-11.649c-3.656-6.434-5.471-13.351-5.471-20.749
	c0-4.592,0.907-8.418,2.722-11.451c3.033-5.329,7.682-7.994,14.002-7.994c6.916,0,12.613,3.94,17.092,11.82
	c3.884,6.803,5.811,14.003,5.811,21.656c0,5.839-1.502,10.262-4.535,13.294C388.375,105.302,384.237,107.003,379.39,107.003z
	 M399.968,174.437c-4.875,3.77-11.564,5.668-20.097,5.668c-9.638,0-17.403-2.068-23.3-6.207c-5.924-4.139-8.872-9.496-8.872-16.072
	c0-8.9,5.244-15.164,15.704-18.82c5.725-1.957,12.131-2.92,19.189-2.92c1.813,0,3.23,0.057,4.195,0.17
	c7.681,5.499,12.727,9.553,15.164,12.245c3.174,3.543,4.762,7.483,4.762,11.876C406.714,166.216,404.476,170.893,399.968,174.437z"
	/>
<path d="M430.978,14.853H419.47l7.512-7.994h29.762l-7.256,8.249v107.995c0.482,4.365,4.535,5.896,13.236,6.236l-4.252,5.754
	h-35.488l7.994-7.512V14.825V14.853z"/>
<path d="M480.751,94.163h0.029l54.99-22.251c-2.863-20.805-33.902-28.374-51.76-18.254c-53.062,31.463-0.766,118.37,54.848,66.752
	C510.912,132.089,491.353,123.812,480.751,94.163z M495.208,55.613c6.916-1.928,17.715,2.608,21.258,11.253
	c1.984,4.139,0.709,6.35-3.004,7.994l-34.07,13.18C477.322,73.641,479.109,61.311,495.208,55.613z"/>
</svg>
