<?xml version="1.0" encoding="utf-8"?>
<!-- Generator: Adobe Illustrator 16.0.0, SVG Export Plug-In . SVG Version: 6.00 Build 0)  -->
<!DOCTYPE svg PUBLIC "-//W3C//DTD SVG 1.1//EN" "http://www.w3.org/Graphics/SVG/1.1/DTD/svg11.dtd">
<svg version="1.1" id="Layer_1" xmlns:svg="http://www.w3.org/2000/svg"
	 xmlns="http://www.w3.org/2000/svg" xmlns:xlink="http://www.w3.org/1999/xlink" x="0px" y="0px" width="200px" height="72px"
	 viewBox="0 0 200 72" enable-background="new 0 0 200 72" xml:space="preserve">
<path d="M23.621,70.898c-5.84-0.231-10.619-1.83-14.354-4.798c-0.713-0.567-2.412-2.267-2.981-2.984
	c-1.516-1.904-2.545-3.759-3.232-5.815c-2.114-6.332-1.025-14.642,3.111-23.76c3.543-7.808,9.011-15.551,18.549-26.274
	c1.404-1.578,5.589-6.193,5.615-6.193c0.011,0-0.217,0.396-0.504,0.876c-2.48,4.154-4.603,9.048-5.759,13.283
	c-1.856,6.797-1.633,12.63,0.656,17.153c1.579,3.116,4.286,5.814,7.33,7.307c5.329,2.611,13.131,2.827,22.659,0.632
	c0.656-0.151,33.162-8.78,72.236-19.176C166.021,10.753,197.996,2.254,198,2.261c0.012,0.009-90.779,38.859-137.91,59.014
	c-7.465,3.191-9.461,3.997-12.969,5.229C38.15,69.653,30.115,71.156,23.621,70.898z"/>
</svg>
