<?xml version="1.0" encoding="utf-8"?>
<!-- Generator: Adobe Illustrator 16.0.0, SVG Export Plug-In . SVG Version: 6.00 Build 0)  -->
<!DOCTYPE svg PUBLIC "-//W3C//DTD SVG 1.1//EN" "http://www.w3.org/Graphics/SVG/1.1/DTD/svg11.dtd">
<svg version="1.1" id="Layer_1" xmlns="http://www.w3.org/2000/svg" xmlns:xlink="http://www.w3.org/1999/xlink" x="0px" y="0px"
	 width="200px" height="200.395px" viewBox="0 0 200 200.395" enable-background="new 0 0 200 200.395" xml:space="preserve">
<path id="inner" fill="#FFFFFF" d="M44.437,99.808c0-31.435,25.481-56.917,56.915-56.917c31.432,0,56.91,25.482,56.91,56.917
	c0,31.432-25.479,56.909-56.91,56.909C69.918,156.717,44.437,131.24,44.437,99.808"/>
<path id="inner_artwork" fill="#010101" d="M101.107,65.479c1.883,1.085,3.879,2.482,5.398,3.962l-0.597,0.602
	c-3-0.319-6.16,0.078-9.004,0.122c-0.317-0.319-0.956-0.802-0.361-1.202L101.107,65.479z M154.154,102.745
	c0.039,1.354,0.166,2.518-0.361,3.902c-5.48,1.561-9.081-4.244-14.398-3.369l0.602,3.01c4.92,0.161,7.993,4.88,13.076,4.677
	c-0.723,1.441,0.322,5.242-2.877,3.723c-3.321-0.798-5.723-3.723-9.361-3.723c-0.438,0.806-0.161,1.922-0.238,2.876
	c3.84,0.602,6.602,3.847,10.438,4.445c-0.361,1.318-0.72,2.797-1.8,3.601c-3.123-0.76-5.562-3.563-8.885-3.484l-0.594,2.764
	c3.159,0.08,5.2,2.875,8.039,3.715c0.078,1.165-0.963,2.206-1.562,3.246c-2.521-0.758-4.441-2.923-7.321-2.763
	c-0.04-1.086,0.604-2.316,0.36-3.478c-3.233,0.962-5.402-2.043-7.799-3.847c-0.07-5.898-6.279-9.77-6.607-15.295
	c-0.063-1.103,0.104-2.277,0.607-3.542c2.039-4.72,1.398-10.847-0.84-15.245c-0.68-1.158-1.885-2.072-3.008-2.754
	c1.645,3.481,3.646,7.597,2.646,11.877c-0.117,3.305-2.066,6.479-2.088,9.664c-0.01,1.137,0.233,2.271,0.887,3.42
	c2.603,4.686,7.283,9.121,5.522,14.998c-0.483,1.806-1.925,3.201-2.284,5.038c3.045,2.521,5.922,5.361,9.961,5.521
	c1.438-0.919,0.641-4.995,3.601-3.115l4.323,2.162c-0.315,1.157-1.284,2.194-2.161,2.991c-1.64-0.798-3.24-1.755-5.285-1.677
	c-0.603,0.64-1.122,1.356-1.076,2.274c1.438,0.237,2.761,0.845,3.961,1.688c-0.558,1.202-1.646,1.955-2.646,2.876l-3.354-1.199
	c-0.56,0.801-1.723,1.644-1.313,2.521c0.757,0.323,1.596,0.763,2.152,1.322c-1.479,1.602-3.355,2.629-5.16,3.716
	c-1.557-5.082-6.68-8.646-6.238-14.521l-0.238-0.238c-1.204,1.354-0.802,3.521-0.725,5.276c1.44,3.681,4.88,6.522,5.399,10.561
	c-0.602,1.039-1.959,1.246-3,1.688c0.121-7.278-10.919-12.798-3.839-20.16c2.361-3.604,6.316-7.045,4.915-12.008
	c-1.438-4.792-6.528-7.762-6.483-13.134l0.008-0.419c1.16-5.603,4.682-11.562,1.801-17.521c-0.803-2.396-2.598-5.121-5.037-6.123
	c3.639,4.164,5.08,10.958,2.999,16.562c-1.049,2.229-2.493,4.885-2.638,7.505h-0.01c-0.076,1.367,0.201,2.729,1.086,4.019
	c2.762,4.482,7.56,9.405,4.799,15.246c-3.119,4.678-8.561,9.438-5.521,15.599c2.2,3.682,5.604,7.354,4.686,11.876l-3.601,1.199
	c2.4-8.438-9.36-13.396-4.438-21.837c3.041-4.521,8.478-8.761,5.398-14.76c-1.84-3.717-5.642-5.917-5.521-10.562l0.132-0.779
	c1.239-6.588,6.247-12.823,2.745-19.863c-0.92-2.079-2.76-4.198-4.801-5.399l-0.123,0.123c4.082,3.96,5.324,10.478,3.123,15.715
	c-1.026,3.072-3.28,6.134-3.738,9.427c-0.219,1.554-0.034,3.162,0.863,4.856c2.6,4.117,7.158,8.484,4.312,13.808
	c-2.996,4.396-7.998,8.675-6,14.392c2.201,5.002,6.796,9.768,4.314,15.969l-3.715,0.839c2.959-6.044-1.479-12.042-4.076-17.283
	c-3.162-7.521,6.793-11.122,6.953-17.998c-0.039-4.438-4.758-6.958-5.754-11.038c-2.041-1.724-4.158,0.686-6.601,0.238
	c-1.802,0.361-4.57-2.48-5.646,0.602c-1.281,4.518-7.118,7.839-4.554,13.197c2.441,4.763,8.315,8.244,6.354,14.406
	c-1.757,5.757-7.562,11.237-3.961,17.876c-1.479-0.479-4.24,0.438-4.2-1.924c-2.279-8.04,7.44-12.725,4.438-20.76
	c-1.396-4.922-7.762-7.642-6.36-13.562c1.036-4.873,6.504-8.28,5.736-13.618c-0.062-0.446-0.172-0.903-0.328-1.381
	c-2.041-5.761-6.205-11.521-3.724-18.245c0.682-1.92,2.042-3.561,3.238-5.275c-3.96,2.119-5.958,6.602-5.876,11.16
	c-0.173,4.958,3.49,9.204,4.011,13.741c0.205,1.831-0.095,3.706-1.373,5.694c-2.598,3.525-5.996,7.242-4.438,11.885
	c1.48,4.683,7.32,7.52,6.961,12.961c-0.04,6.438-7.521,10.445-5.4,17.646l-3.723-1.208c-1.479-6.397,5.321-9.671,5.398-15.591
	c0.962-6.808-7.72-9.333-7.198-15.97c-0.037-5.042,4.4-8.234,6.36-12.477c0.336-1.031,0.448-2.007,0.403-2.941
	c-0.24-4.688-4.465-8.354-3.764-13.627c0.235-3.88,1.556-7.281,4.076-10.199c-3.478,1.396-4.914,5.401-5.876,8.763
	c-1.667,5.39,2.313,10.235,2.713,15.063c0.177,2.133-0.345,4.252-2.351,6.419c-2.882,3.396-5.804,7.682-3.724,12.245
	c2.203,5.036,9.125,8.956,6.123,15.236c-1.639,3.961-5.561,6.959-5.399,11.639c-1.039-0.439-2.117-0.879-3-1.678
	c0-5.959,8.478-9.681,4.438-15.961c-0.358,1.239-0.436,2.924-0.716,4.323c-1.401,3.643-4.4,6.558-5.522,10.322
	c-1.877-0.726-3.839-2.246-5.4-3.847l2.162-1.323c-0.24-0.802-0.879-1.48-1.438-2.16c-1.404-0.197-2.326,0.724-3.484,1.085
	c-1-0.883-1.965-1.683-2.762-2.763c0.718-2.044,6.326-0.354,3.484-3.715c-1.918-1.199-3.843,0.514-5.522,1.313l-2.277-2.876
	c1.96-1.199,3.915-2.884,6.354-2.4c0.601,1.082,0.643,2.674,1.8,3.238c4.121-0.08,7.041-3.197,10.2-5.639
	c-2.202-3.275-3.994-7.799-2.038-11.761c1.566-3.971,5.649-7.313,5.835-11.703c0.042-0.999-0.114-2.051-0.551-3.182
	c-2.159-5.562-2.922-13.077,1.199-17.999c-2.24,0.603-3.562,3.396-4.322,5.516c-2.478,5.431,0.655,10.461,0.764,15.665
	c0.015,0.937-0.061,1.874-0.288,2.818c-2.121,4.28-5.557,8.035-6.115,12.96c-2.44,1.558-4.444,4.28-7.923,3.361
	c-0.122,0.919,0.158,2.319,0.478,3.36c-2.759-0.116-4.64,1.917-6.961,2.877c-1.237-0.396-1.56-1.995-2.038-3.114
	c2.718-0.918,4.679-3.644,7.8-3.601c0.362-1.006-0.203-1.927-0.362-2.886c-3.882-1.723-10.036,8.519-10.553-0.36
	c3.879-0.239,6.357-3.842,10.2-4.2l0.114-2.875c-4.359-0.44-7.165,4.041-11.522,3.6l-0.961-3.838
	c5.041,0.314,8.045-4.203,12.846-4.446c0.638-0.839,0.715-2.078,0.838-3.237c-5.241-0.684-8.837,5.125-14.398,3.36
	c0,0-0.192-2.417-0.296-3.779h0.008c-0.038-0.533-0.074-0.903-0.074-0.903c4.96,1.924,9.318-1.639,13.561-3.478
	c1.079-0.323,2.763,0.236,3.246-0.963c-0.042-0.92,1.637-1.995,0.239-2.638c-6.203-0.842-10.324,6.641-16.685,3.238l-0.478-0.963
	c1.322-18.078,11.519-35.558,28.438-44.157c6.852-3.916,15.364-5.912,23.951-5.983c10.359-0.086,20.828,2.633,28.616,8.146
	c7.563,4.639,14.798,12.283,18.724,20.045c3.756,6.8,5.482,14.43,6,22.553c-6.562,4.958-10.965-4.671-17.646-2.517
	c0.359,1.043,0.561,2.12,1.323,3c5.922-0.041,10,6.159,16.198,3.716L154.154,102.745z M78.78,80.481
	c-4.161-2.721-9.437-0.158-13.314,1.323c-0.359-3.643-1.839-6.96-4.923-9.36c-0.299-0.147-0.713-0.462-1.085-0.483
	c-0.223-0.016-0.435,0.075-0.6,0.359c1.397,8.601-4.192,14.601-8.153,21.122c1.319,1.078,3.438,0.917,5.038,0.602
	c4.199-1.681,8.199-4.604,13.199-3.602c1.479-2.52,3.963-4.961,6-6.961C76.188,82.404,77.897,81.72,78.78,80.481z M91.503,85.881
	c-0.08,0.518,0.04,1.439,0.838,1.084c1.242-1.72,3.441-0.359,4.801-0.238v-0.483c-0.746-1.172-2.28-1.76-3.839-1.7
	c-0.359,0.013-0.725,0.063-1.076,0.146C91.705,84.805,91.342,85.281,91.503,85.881z M111.062,80.728
	c-1.117-2.479-3.678-3.484-6-4.085c-1.14-0.14-2.32-0.234-3.492-0.246c-0.221-0.002-0.439-0.005-0.658,0
	c-3.279,0.066-6.412,0.908-8.326,3.607c-0.274,0.762-1.482,1.832-0.36,2.515c2.52-0.161,5.396-0.477,7.075,1.687
	c0,1.923,1.241,4.479-0.838,5.398c-1.723-1.595-3.763,0.68-5.638-0.601c-0.881-0.521-1.439,0.087-1.8,0.847
	c-0.521,4.959,2.076,10.433,6.715,13.19c1.88,0.679,4.408,1.322,6.369,0.36c4.721-2.197,6.676-7.233,7.555-11.876
	c-0.118-0.883-0.076-2.604-1.314-2.646c-1.398,0.885-3.439,0.361-4.924,0c-0.877,0.283-0.917,1.564-1.914,1.809l-0.607-0.483
	c-0.521-2.197-0.842-5.318,1.199-6.839c2.281-0.921,4.963-1.321,7.321-0.601C111.866,82.006,111.188,81.407,111.062,80.728z
	 M108.654,84.672c-0.158,0.004-0.312,0.012-0.469,0.017c-0.838,0.561-3.281,0.157-2.398,2.038c1.521-1.203,3.641-0.359,5.161,0.238
	c0.562-0.279,0.44-0.839,0.477-1.322C110.938,84.735,109.771,84.65,108.654,84.672z M126.07,67.759
	c-2.961-0.157-5.439,1.523-8.16,2.284c-0.237-2.315,1.521-4.761,1.923-7.084c-4.397,0.282-7.883,2.931-11.521,5.046
	c-0.844-2.035-1.688-4.08-2.523-6.123l4.8-4.562l0.123-0.601l-6.483-0.361c-1.117-1.957-1.558-4.312-2.877-6.112
	c-1.08,2.039-1.807,4.197-2.886,6.235l-6.476,0.362v0.477l4.915,4.438c-0.602,2.281-1.159,4.76-2.639,6.483
	c-2.88-1.726-5.719-3.603-8.876-4.801c-0.76-0.245-1.843-0.644-2.522-0.123c0.999,2.201,2.396,4.568,2.162,6.972
	c-1.321-0.243-2.359-1.091-3.601-1.446c-1.483-0.405-3.245-1.196-4.685-0.715c2.401,3.356,4.36,6.873,5.038,10.914
	c7.964-3.846,17.251-5.958,26.892-4.315c4.52,0.719,8.674,2.562,12.715,4.076C121.547,74.567,124.229,71.161,126.07,67.759z
	 M139.747,90.803c4.077,1.079,8.167,5.521,12.483,2.639c-3.76-6.238-9.355-12.001-7.799-20.159c0.161-0.558-0.197-1.12-0.717-1.199
	c-2.438,0.997-4.326,3.398-5.293,5.762c-0.396,1.396-0.632,2.882-1.189,4.199c-2.922-1.521-6.041-2.994-9.602-2.64
	c-1.283,0.16-3.124,0.244-3.359,1.562c4.039,2.159,7.36,5.762,9.838,9.599C135.833,90.284,137.947,90.525,139.747,90.803z
	 M97.026,96.442l0.115,0.725c1.562,1.041,2.044,2.806,4.208,2.646c1.918,0.114,3.357-1.684,4.313-3.123
	C103.066,96.329,99.907,96.884,97.026,96.442z M99.188,93.204c0.078,0.318-0.198,0.8,0.237,0.962c1.28-0.278,3.601,0.681,4.314-0.84
	c-0.499-0.56-1.314-0.812-2.169-0.812C100.715,92.514,99.828,92.763,99.188,93.204z"/>
</svg>
