<?xml version="1.0" encoding="utf-8"?>
<!-- Generator: Adobe Illustrator 16.0.0, SVG Export Plug-In . SVG Version: 6.00 Build 0)  -->
<!DOCTYPE svg PUBLIC "-//W3C//DTD SVG 1.1//EN" "http://www.w3.org/Graphics/SVG/1.1/DTD/svg11.dtd">
<svg version="1.1" id="Layer_1" xmlns="http://www.w3.org/2000/svg" xmlns:xlink="http://www.w3.org/1999/xlink" x="0px" y="0px"
	 width="235.5px" height="282.377px" viewBox="0 0 235.5 282.377" enable-background="new 0 0 235.5 282.377" xml:space="preserve">
<path fill-rule="evenodd" clip-rule="evenodd" d="M15.402,42.202c2.921-1.397,5.817-2.85,8.768-4.183
	c13.076-5.908,26.727-10.012,40.76-12.905c20.134-4.152,40.495-5.776,61.019-5.165c25.79,0.769,51.057,4.66,75.329,13.721
	c6.322,2.36,12.38,5.428,18.567,8.151c0.712,0.313,0.962,0.743,0.962,1.54c-0.022,39.102,0.01,78.204-0.041,117.306
	c-0.017,12.681-2.481,24.857-8.275,36.234c-6.128,12.034-15.005,21.561-26.436,28.726c-10.982,6.885-22.534,12.715-34.253,18.202
	c-10.819,5.065-21.756,9.88-32.658,14.765c-0.539,0.241-1.349,0.317-1.87,0.093c-21.074-9.095-41.994-18.515-61.962-29.902
	c-8.202-4.678-15.713-10.208-21.911-17.418c-9.452-10.995-14.961-23.747-17.032-38.032c-0.368-2.542-0.515-5.115-0.772-7.673
	c-0.039-0.386-0.128-0.767-0.194-1.15C15.402,123.742,15.402,82.972,15.402,42.202z M218.488,106.294c0.004,0,0.009,0,0.013,0
	c0-20.462-0.006-40.925,0.02-61.388c0.001-0.91-0.252-1.401-1.09-1.83c-14.727-7.548-30.354-12.443-46.5-15.784
	c-18.718-3.874-37.65-5.489-56.752-5.222c-17.065,0.239-33.958,2.018-50.654,5.604c-15.541,3.338-30.568,8.151-44.758,15.416
	c-0.784,0.401-1.056,0.853-1.056,1.725c0.022,38.669,0.018,77.339,0.024,116.009c0.001,5.276,0.477,10.512,1.466,15.698
	c2.853,14.953,9.651,27.766,20.661,38.333c6.236,5.985,13.553,10.383,21.05,14.509c18.255,10.045,37.215,18.622,56.326,26.876
	c0.498,0.215,1.253,0.197,1.756-0.02c5.306-2.284,10.605-4.582,15.865-6.969c15.641-7.1,31.159-14.439,46.036-23.071
	c9.502-5.513,17.788-12.363,24.189-21.361c9.172-12.892,13.254-27.409,13.371-43.072
	C218.594,143.263,218.488,124.778,218.488,106.294z"/>
<path fill-rule="evenodd" clip-rule="evenodd" d="M210.471,107.225c0,18.167,0.094,36.335-0.032,54.501
	c-0.093,13.393-3.438,25.91-10.956,37.149c-5.212,7.792-11.935,13.993-19.906,18.887c-11.284,6.928-23.141,12.766-35.107,18.379
	c-8.381,3.932-16.864,7.643-25.291,11.476c-0.738,0.335-1.349,0.36-2.115,0.023c-15.765-6.913-31.426-14.046-46.664-22.071
	c-6.757-3.56-13.525-7.138-19.607-11.8c-12.944-9.922-20.842-23.018-23.698-39.032c-0.871-4.882-1.291-9.904-1.322-14.866
	c-0.139-21.887-0.057-43.774-0.075-65.662c-0.001-0.777,0.225-1.302,0.82-1.831C47.778,73.495,72.22,60.47,99.509,52.68
	c16.737-4.777,33.827-7.441,51.176-8.573c19.561-1.276,39.08-0.582,58.586,1.084c1.095,0.094,1.236,0.538,1.235,1.476
	c-0.022,20.186-0.018,40.371-0.018,60.557C210.483,107.225,210.477,107.225,210.471,107.225z M114.589,179.782
	c0.612,0.111,1,0.172,1.383,0.251c4.686,0.969,9.362,0.942,13.997-0.262c8.189-2.128,13.832-7.385,17.734-14.688
	c3.478-6.507,5.006-13.559,5.55-20.845c0.635-8.509,0.211-16.938-2.437-25.131c-4.521-13.993-14.698-21.778-28.972-22.101
	c-8.405-0.19-16.479,1.185-23.882,5.462c-0.762,0.44-1.114,0.898-1.113,1.841c0.028,36.89,0.027,73.779,0.005,110.668
	c0,0.961,0.228,1.297,1.243,1.287c5.105-0.05,10.211-0.023,15.318-0.028c0.345,0,0.691-0.041,1.172-0.07
	C114.589,204.055,114.589,192.004,114.589,179.782z M52.45,98.721c-0.606,0-1.033,0-1.459,0c-4.907,0-9.814-0.001-14.721,0
	c-1.56,0-1.562,0.003-1.562,1.523c0,17.293-0.03,34.587,0.028,51.88c0.01,2.957,0.209,5.939,0.639,8.863
	c1.5,10.2,7.317,16.675,17.003,19.048c5.223,1.279,10.526,1.133,15.82,0.568c6.563-0.698,12.807-2.451,18.509-5.886
	c0.66-0.397,1.15-0.771,1.149-1.723c-0.033-24.377-0.03-48.754-0.01-73.131c0-0.872-0.24-1.167-1.137-1.161
	c-5.144,0.037-10.289,0.044-15.433-0.002c-0.978-0.009-1.193,0.337-1.187,1.234c0.034,4.867,0.016,9.735,0.016,14.602
	c0,16.106-0.011,32.212,0.021,48.319c0.002,1.025-0.326,1.572-1.25,1.981c-2.407,1.067-4.925,1.435-7.525,1.37
	c-3.994-0.098-6.84-2.074-7.949-5.908c-0.585-2.022-0.903-4.194-0.911-6.301c-0.07-17.847-0.041-35.695-0.042-53.542
	C52.45,99.948,52.45,99.439,52.45,98.721z M200.693,117.651c0-4.896-0.022-9.403,0.02-13.909c0.008-0.854-0.246-1.394-0.974-1.832
	c-9.251-5.574-18.977-6.847-28.932-2.415c-13.648,6.074-17.821,23.396-8.63,34.771c2.236,2.767,4.959,5,7.916,6.934
	c3.111,2.034,6.328,3.905,9.441,5.936c2.065,1.347,3.906,2.967,5.119,5.187c3.358,6.148-0.047,13.118-6.96,14.104
	c-1.471,0.209-3.013,0.23-4.486,0.051c-5.159-0.632-9.676-2.833-13.783-5.945c-0.301-0.228-0.611-0.442-1.003-0.725
	c-0.067,0.275-0.132,0.417-0.132,0.56c-0.007,4.827-0.029,9.655,0.028,14.481c0.005,0.418,0.451,1.001,0.85,1.217
	c6.731,3.648,13.902,5.432,21.578,4.788c6.677-0.56,12.457-3.026,17.004-8.133c7.188-8.072,9.224-25.688-3.261-35.53
	c-3.875-3.055-8.127-5.469-12.309-8.029c-1.939-1.188-3.844-2.542-5.46-4.13c-3.639-3.574-3.456-11.752,3.673-13.82
	c1.055-0.306,2.165-0.52,3.26-0.571c6.115-0.287,11.238,2.13,15.821,5.95C199.796,116.855,200.104,117.137,200.693,117.651z"/>
<path fill-rule="evenodd" clip-rule="evenodd" fill="#FFFFFF" d="M114.589,179.782c0,12.222,0,24.272,0,36.385
	c-0.481,0.029-0.827,0.07-1.172,0.07c-5.106,0.005-10.212-0.021-15.318,0.028c-1.015,0.01-1.244-0.326-1.243-1.287
	c0.022-36.89,0.023-73.779-0.005-110.668c-0.001-0.943,0.352-1.4,1.113-1.841c7.403-4.277,15.477-5.652,23.882-5.462
	c14.273,0.323,24.45,8.108,28.972,22.101c2.647,8.193,3.071,16.622,2.437,25.131c-0.544,7.286-2.072,14.338-5.55,20.845
	c-3.902,7.304-9.545,12.561-17.734,14.688c-4.635,1.204-9.312,1.23-13.997,0.262C115.589,179.954,115.202,179.894,114.589,179.782z
	 M114.62,138.834c0.002,0,0.003,0,0.005,0c0,8.508-0.009,17.016,0.026,25.523c0.002,0.448,0.269,1.152,0.605,1.302
	c5.325,2.362,12.142,0.373,15.433-4.432c1.823-2.663,2.824-5.658,3.453-8.779c1.536-7.635,1.485-15.338,0.839-23.053
	c-0.342-4.08-1.047-8.091-2.909-11.799c-1.546-3.079-3.864-5.292-7.282-6.153c-2.985-0.751-5.955-0.593-8.909,0.259
	c-0.923,0.267-1.296,0.686-1.29,1.728C114.643,121.898,114.62,130.367,114.62,138.834z"/>
<path fill-rule="evenodd" clip-rule="evenodd" fill="#FFFFFF" d="M52.45,98.721c0,0.719,0,1.228,0,1.736
	c0,17.847-0.029,35.695,0.042,53.542c0.008,2.106,0.325,4.278,0.911,6.301c1.109,3.834,3.955,5.811,7.949,5.908
	c2.601,0.064,5.118-0.303,7.525-1.37c0.924-0.409,1.252-0.956,1.25-1.981c-0.032-16.106-0.021-32.212-0.021-48.319
	c0-4.867,0.018-9.735-0.016-14.602c-0.006-0.896,0.209-1.243,1.187-1.234c5.144,0.046,10.289,0.039,15.433,0.002
	c0.896-0.006,1.137,0.289,1.137,1.161c-0.021,24.376-0.023,48.754,0.01,73.131c0.001,0.952-0.489,1.325-1.149,1.723
	c-5.702,3.435-11.946,5.188-18.509,5.886c-5.293,0.564-10.597,0.711-15.82-0.568c-9.686-2.373-15.503-8.848-17.003-19.048
	c-0.43-2.924-0.629-5.906-0.639-8.863c-0.058-17.293-0.029-34.586-0.028-51.88c0-1.52,0.003-1.523,1.562-1.523
	c4.907-0.001,9.814,0,14.721,0C51.417,98.721,51.843,98.721,52.45,98.721z"/>
<path fill-rule="evenodd" clip-rule="evenodd" fill="#FFFFFF" d="M200.693,117.651c-0.589-0.515-0.897-0.796-1.219-1.063
	c-4.583-3.819-9.706-6.236-15.821-5.95c-1.095,0.051-2.205,0.265-3.26,0.571c-7.129,2.068-7.312,10.247-3.673,13.82
	c1.616,1.588,3.521,2.942,5.46,4.13c4.182,2.56,8.434,4.974,12.309,8.029c12.484,9.842,10.449,27.458,3.261,35.53
	c-4.547,5.106-10.327,7.573-17.004,8.133c-7.676,0.644-14.847-1.14-21.578-4.788c-0.398-0.216-0.845-0.799-0.85-1.217
	c-0.058-4.826-0.035-9.654-0.028-14.481c0-0.143,0.064-0.284,0.132-0.56c0.392,0.282,0.702,0.497,1.003,0.725
	c4.107,3.112,8.624,5.313,13.783,5.945c1.474,0.18,3.016,0.158,4.486-0.051c6.913-0.986,10.318-7.956,6.96-14.104
	c-1.213-2.22-3.054-3.84-5.119-5.187c-3.113-2.03-6.33-3.901-9.441-5.936c-2.957-1.933-5.68-4.167-7.916-6.934
	c-9.191-11.374-5.019-28.696,8.63-34.771c9.955-4.432,19.681-3.159,28.932,2.415c0.728,0.438,0.981,0.978,0.974,1.832
	C200.671,108.249,200.693,112.755,200.693,117.651z"/>
<path fill-rule="evenodd" clip-rule="evenodd" d="M114.62,138.834c0-8.468,0.022-16.937-0.028-25.404
	c-0.006-1.042,0.366-1.461,1.29-1.728c2.954-0.853,5.923-1.011,8.909-0.259c3.418,0.86,5.736,3.074,7.282,6.153
	c1.862,3.708,2.567,7.719,2.909,11.799c0.646,7.715,0.697,15.418-0.839,23.053c-0.629,3.121-1.63,6.116-3.453,8.779
	c-3.291,4.805-10.107,6.794-15.433,4.432c-0.337-0.149-0.604-0.854-0.605-1.302c-0.036-8.507-0.026-17.015-0.026-25.523
	C114.624,138.834,114.622,138.834,114.62,138.834z"/>
</svg>
