<?xml version="1.0" encoding="utf-8"?>
<!-- Generator: Adobe Illustrator 16.0.0, SVG Export Plug-In . SVG Version: 6.00 Build 0)  -->
<!DOCTYPE svg PUBLIC "-//W3C//DTD SVG 1.1//EN" "http://www.w3.org/Graphics/SVG/1.1/DTD/svg11.dtd">
<svg version="1.1" id="Layer_1" xmlns="http://www.w3.org/2000/svg" xmlns:xlink="http://www.w3.org/1999/xlink" x="0px" y="0px"
	 width="144px" height="144px" viewBox="0 0 144 144" enable-background="new 0 0 144 144" xml:space="preserve">
<path d="M71.5,15.033c-31.738,0-57.467,25.73-57.467,57.467c0,31.738,25.729,57.468,57.467,57.468
	c31.737,0,57.467-25.729,57.467-57.468C128.967,40.763,103.237,15.033,71.5,15.033z M71.5,124.814
	c-28.893,0-52.314-23.422-52.314-52.314c0-28.892,23.421-52.314,52.314-52.314c28.892,0,52.314,23.422,52.314,52.314
	C123.814,101.393,100.392,124.814,71.5,124.814z"/>
<path d="M60.046,33.415c3.633-1.062,7.477-1.632,11.454-1.632c3.971,0,7.811,0.568,11.44,1.629L71.5,58.771L60.046,33.415z"/>
<path d="M93.356,38.139c4.291,2.736,8.035,6.252,11.031,10.35L85.61,90.043l-7.246-16.112H64.635L57.39,90.043L38.639,48.45
	c2.992-4.081,6.725-7.583,11.002-10.31l14.994,33.264h13.776L93.356,38.139z"/>
<path d="M32.158,61.961c-0.898,3.362-1.377,6.895-1.377,10.539c0,15.957,9.178,29.77,22.543,36.448L32.158,61.961z"/>
<path d="M60.235,111.641c3.577,1.028,7.357,1.578,11.265,1.578c3.902,0,7.678-0.549,11.251-1.574L71.5,86.658L60.235,111.641z"/>
<path d="M89.675,108.948c13.365-6.679,22.543-20.491,22.543-36.448c0-3.612-0.47-7.114-1.353-10.449L89.675,108.948z"/>
</svg>
