<?xml version="1.0" encoding="utf-8"?>
<!-- Generator: Adobe Illustrator 16.0.0, SVG Export Plug-In . SVG Version: 6.00 Build 0)  -->
<!DOCTYPE svg PUBLIC "-//W3C//DTD SVG 1.1//EN" "http://www.w3.org/Graphics/SVG/1.1/DTD/svg11.dtd">
<svg version="1.1" xmlns="http://www.w3.org/2000/svg" xmlns:xlink="http://www.w3.org/1999/xlink" x="0px" y="0px" width="300px"
	 height="300px" viewBox="0 0 300 300" style="enable-background:new 0 0 300 300;" xml:space="preserve">
<g id="Guides">
</g>
<g id="ABC">
</g>
<g id="Apple">
</g>
<g id="CBS">
</g>
<g id="CNN">
</g>
<g id="Coke">
</g>
<g id="Dropbox">
</g>
<g id="ESPN">
</g>
<g id="GE">
</g>
<g id="Google">
</g>
<g id="Honda">
</g>
<g id="Hyundai">
</g>
<g id="IBM">
</g>
<g id="Intel">
</g>
<g id="John_Deere">
</g>
<g id="Jumpman">
</g>
<g id="Chase">
</g>
<g id="Girl_Scouts">
</g>
<g id="Mazda">
	<path d="M198.098,154.22c0.185-3.097,0.044-6.233-0.374-9.371c-1.511-11.339-8.169-19.35-8.178-19.377l-0.016-0.048l-0.038-0.034
		c-1.407-1.263-2.823-2.646-4.575-4.013c-1.76-1.372-3.857-2.727-6.618-3.925c-5.52-2.395-13.678-4.154-27.072-4.186
		c-23.553-0.638-34.12,6.338-38.027,10.017c-1.36,1.28-2.935,3.086-3.363,3.586c-3.12,3.64-7.402,12.094-7.477,21.42v0.062v0.062
		l-0.001,0.061v0.062c0,2.021,0.083,3.914,0.235,5.687h0.222l0,0h-0.222c0.84,9.834,3.78,15.938,6.23,19.423
		c1.95,2.776,5.941,6.558,10.256,9.158c1.597,0.928,3.41,1.812,5.51,2.672c4.765,1.953,10.561,2.853,15.425,3.274
		c4.862,0.421,8.81,0.365,9.889,0.399c1.081,0.034,8.126,0.343,16.426-1.238c8.296-1.578,17.884-5.053,24.015-12.604
		c4.96-6.396,7.307-13.62,7.753-21.084h-0.147v-0.002H198.098L198.098,154.22z M187.095,154.221h0.027l-0.001,0.001L187.095,154.221
		c-0.189,2.325-0.621,4.615-1.272,6.987c-0.907,3.301-2.499,9.062-7.678,13.837c-5.174,4.77-13.961,8.579-29.311,7.899
		c-19.76-0.874-27.799-2.591-34.71-25.702c-0.195-1.131-0.337-2.159-0.439-3.021c-0.194-1.634-0.247-2.669-0.255-2.669
		c0.068-3.897,0.473-7.193,0.576-7.349c0.028-0.043,0.057-0.089,0.09-0.131c0.028-0.038,0.051-0.062,0.071-0.073
		c0.017-0.011,0.03-0.016,0.051-0.015c0.022,0,0.067,0.01,0.138,0.051c1.785,1.035,3.682,1.849,5.531,2.493l0.203,0.071
		c0.274,0.09,0.75,0.244,1.31,0.425c0.806,0.259,1.788,0.571,2.604,0.821c1.711,0.521,5.608,1.378,9.41,2.756
		c2.147,0.778,4.299,2.001,6.392,3.619h0.305l0.002,0.001h-0.307c1.581,1.222,3.129,2.67,4.618,4.321
		c1.724,1.913,2.797,3.647,3.509,5.084c0.716,1.443,1.071,2.593,1.355,3.326c0.218,0.563,0.454,0.992,0.688,1.201
		c0.228,0.395,0.905,0.219,1.053,0.013c0.124-0.173,0.923-1.343,1.344-2.729c0.404-1.334,1.667-4.069,3.876-6.851
		c1.352-1.702,2.788-3.124,4.447-4.366h-0.252v-0.001h0.252c3.349-2.508,7.601-4.29,13.893-6.186
		c9.462-2.851,11.414-4.062,11.414-4.062s0.21-0.182,0.238-0.21c0.177,0.704,0.422,1.772,0.656,3.108
		C187.229,149.438,187.287,151.848,187.095,154.221L187.095,154.221z M173.455,137.318c-5.279,1.96-12.422,5.246-15.399,8.036
		c-3.049,2.856-5.193,5.912-5.899,7.062c-0.319,0.521-0.666,1.155-0.989,1.675c-0.027,0.045-0.054,0.088-0.082,0.129h0.271v0.001
		h-0.271c-0.13,0.203-0.252,0.379-0.365,0.515c-0.145,0.174-0.243,0.244-0.328,0.26c-0.144-0.037-0.406-0.309-0.743-0.774l0,0
		l-0.073-0.104c-0.356-0.506-0.731-1.127-1.05-1.646c-0.703-1.145-2.7-4.258-5.753-7.118c-2.976-2.789-10.12-6.076-15.397-8.036
		c-2.252-0.837-4.014-1.63-5.293-2.265c-0.288-0.173-1.865-1.112-2.917-1.796c-0.521-0.338-0.81-0.643-0.555-1.354
		c0,0,0.258-0.513,0.431-0.87c0.178-0.364,0.46-0.886,0.881-1.511c0.844-1.253,2.249-2.931,4.49-4.609
		c4.479-3.356,12.31-6.733,25.699-6.733c8.645,0,15.028,1.423,19.709,3.346c2.351,1.041,4.146,1.99,5.386,2.847
		c2.669,1.795,4.365,3.646,5.394,5.045c0.515,0.699,0.863,1.286,1.082,1.699c0.215,0.404,0.309,0.645,0.309,0.645
		c0.075,0.16,0.219,0.477,0.346,0.969c-1.928,1.271-4.078,2.542-6.25,3.544C175.299,136.607,174.422,136.959,173.455,137.318
		L173.455,137.318z"/>
</g>
<g id="McDonalds">
</g>
<g id="Mercedes">
</g>
<g id="Motorola">
</g>
<g id="MTV">
</g>
<g id="NBC">
</g>
<g id="Nike">
</g>
<g id="PBS">
</g>
<g id="Pepsi">
</g>
<g id="Shell">
</g>
<g id="Starbucks">
</g>
<g id="Taco_Bell">
</g>
<g id="Target">
</g>
<g id="Toyota">
</g>
<g id="Twitter">
</g>
<g id="Univision">
</g>
<g id="UPS">
</g>
<g id="Visa">
</g>
<g id="Volkswagen">
</g>
</svg>
