<?xml version="1.0" encoding="utf-8"?>
<!-- Generator: Adobe Illustrator 16.0.0, SVG Export Plug-In . SVG Version: 6.00 Build 0)  -->
<!DOCTYPE svg PUBLIC "-//W3C//DTD SVG 1.1//EN" "http://www.w3.org/Graphics/SVG/1.1/DTD/svg11.dtd">
<svg version="1.1" xmlns="http://www.w3.org/2000/svg" xmlns:xlink="http://www.w3.org/1999/xlink" x="0px" y="0px" width="300px"
	 height="300px" viewBox="0 0 300 300" style="enable-background:new 0 0 300 300;" xml:space="preserve">
<g id="Guides">
</g>
<g id="ABC">
</g>
<g id="Apple">
</g>
<g id="CBS">
</g>
<g id="CNN">
</g>
<g id="Coke">
</g>
<g id="Dropbox">
</g>
<g id="ESPN">
</g>
<g id="GE">
</g>
<g id="Google">
	<path d="M137.233,149.774c0,4.033-1.4,7.564-4.186,10.571c-3.038,3.271-7.013,4.91-11.922,4.91c-4.728,0-8.581-1.609-11.538-4.84
		c-2.615-2.886-3.934-6.286-3.934-10.19c0-4.245,1.55-7.887,4.658-10.924c3.108-3.039,7.021-4.558,11.76-4.558
		c4.477,0,8.178,1.549,11.096,4.648c2.706,2.886,4.055,6.347,4.055,10.382H137.233L137.233,149.774z M122.596,163.344
		c2.746,0,4.898-1.087,6.468-3.248c1.269-1.741,1.901-4.094,1.901-7.073c0-3.692-0.764-7.112-2.283-10.26
		c-1.981-4.036-4.729-6.057-8.239-6.057c-2.192,0-4.094,0.725-5.704,2.162c-1.94,1.74-2.917,4.336-2.917,7.776
		c0,3.863,0.845,7.436,2.535,10.704c2.032,3.993,4.778,5.985,8.239,5.985V163.344L122.596,163.344z"/>
	<path d="M171.305,149.774c0,4.033-1.398,7.564-4.186,10.571c-3.038,3.271-7.011,4.91-11.92,4.91c-4.729,0-8.581-1.609-11.539-4.84
		c-2.615-2.886-3.934-6.286-3.934-10.19c0-4.245,1.55-7.887,4.658-10.924c3.108-3.039,7.022-4.558,11.76-4.558
		c4.477,0,8.179,1.549,11.096,4.648c2.706,2.886,4.055,6.347,4.055,10.382H171.305L171.305,149.774z M156.668,163.344
		c2.746,0,4.899-1.087,6.469-3.248c1.268-1.741,1.9-4.094,1.9-7.073c0-3.692-0.764-7.112-2.283-10.26
		c-1.982-4.036-4.728-6.057-8.238-6.057c-2.194,0-4.095,0.725-5.704,2.162c-1.942,1.74-2.917,4.336-2.917,7.776
		c0,3.863,0.845,7.436,2.535,10.704c2.031,3.993,4.778,5.985,8.238,5.985V163.344L156.668,163.344z"/>
	<path d="M137.233,149.774c0,4.033-1.4,7.564-4.186,10.571c-3.038,3.271-7.013,4.91-11.922,4.91c-4.728,0-8.581-1.609-11.538-4.84
		c-2.615-2.886-3.934-6.286-3.934-10.19c0-4.245,1.55-7.887,4.658-10.924c3.108-3.039,7.021-4.558,11.76-4.558
		c4.477,0,8.178,1.549,11.096,4.648c2.706,2.886,4.055,6.347,4.055,10.382H137.233L137.233,149.774z M122.596,163.344
		c2.746,0,4.898-1.087,6.468-3.248c1.269-1.741,1.901-4.094,1.901-7.073c0-3.692-0.764-7.112-2.283-10.26
		c-1.981-4.036-4.729-6.057-8.239-6.057c-2.192,0-4.094,0.725-5.704,2.162c-1.94,1.74-2.917,4.336-2.917,7.776
		c0,3.863,0.845,7.436,2.535,10.704c2.032,3.993,4.778,5.985,8.239,5.985V163.344L122.596,163.344z"/>
	<path d="M171.305,149.774c0,4.033-1.398,7.564-4.186,10.571c-3.038,3.271-7.011,4.91-11.92,4.91c-4.729,0-8.581-1.609-11.539-4.84
		c-2.615-2.886-3.934-6.286-3.934-10.19c0-4.245,1.55-7.887,4.658-10.924c3.108-3.039,7.022-4.558,11.76-4.558
		c4.477,0,8.179,1.549,11.096,4.648c2.706,2.886,4.055,6.347,4.055,10.382H171.305L171.305,149.774z M156.668,163.344
		c2.746,0,4.899-1.087,6.469-3.248c1.268-1.741,1.9-4.094,1.9-7.073c0-3.692-0.764-7.112-2.283-10.26
		c-1.982-4.036-4.728-6.057-8.238-6.057c-2.194,0-4.095,0.725-5.704,2.162c-1.942,1.74-2.917,4.336-2.917,7.776
		c0,3.863,0.845,7.436,2.535,10.704c2.031,3.993,4.778,5.985,8.238,5.985V163.344L156.668,163.344z"/>
	<path d="M92.969,128.836l6.127-6.388c-19.969-12.836-44.464-1.439-44.092,18.52c0.332,17.676,15.291,29.666,44.183,20.693
		l0.182-12.516l2.745-2.746H87.124l-2.746,2.576h8.521v11.71c-15.452,4.355-29.979-3.471-30.964-20.764
		c-0.726-19.557,19.194-25.683,31.033-15.19l0.021,4.104H92.969z M195.258,159.82c-0.474-0.272-0.835-0.653-1.138-1.077
		c-0.302-0.422-0.522-0.886-0.714-1.308c-0.231-1.318,0.725-2.907,1.66-3.511c7.364-4.708,7.846-11.9,1.529-17.695h3.471
		l2.394-2.575h-14.948c-14.919-0.111-17.927,23.017,0.312,22.534c-0.905,2.313-0.755,4.456,1.419,6.298
		c-26.287,2.585-17.968,19.878-6.389,20.22c4.015,0.291,2.786,0.222,5.321,0.282c8.14-0.252,12.435-3.662,14.216-8.471
		C203.908,170.413,202.762,164.146,195.258,159.82z M188.949,154.146l0.01-0.011c-2.545,0-4.586-1.378-6.136-4.134
		c-1.298-2.284-1.941-4.739-1.941-7.364c0-1.63,0.321-2.988,0.966-4.063c1.076-1.892,2.726-2.838,4.969-2.838
		c2.455,0,4.478,1.398,6.066,4.194c1.378,2.415,2.062,4.971,2.062,7.687c0,2.072-0.532,3.643-1.608,4.718
		C192.139,153.542,190.671,154.146,188.949,154.146z M196.253,178.078c-1.729,1.338-4.104,2.012-7.132,2.012
		c-3.421,0-6.178-0.733-8.27-2.203c-2.103-1.468-3.148-3.369-3.148-5.704c0-3.158,1.861-5.381,5.573-6.679
		c2.031-0.695,4.305-1.037,6.811-1.037c0.644,0,1.146,0.021,1.488,0.061c2.727,1.952,4.517,3.391,5.382,4.347
		c1.127,1.258,1.69,2.655,1.69,4.214C198.647,175.161,197.853,176.82,196.253,178.078L196.253,178.078z M207.258,121.441h-4.083
		l2.666-2.836h10.562l-2.575,2.927v38.328c0.172,1.549,1.61,2.092,4.698,2.213l-1.51,2.042h-12.594l2.836-2.666v-40.018V121.441
		L207.258,121.441z M224.923,149.589h0.011l19.516-7.896c-1.016-7.384-12.031-10.07-18.37-6.479
		c-18.831,11.166-0.271,42.01,19.467,23.69C235.627,163.05,228.686,160.111,224.923,149.589L224.923,149.589z M230.055,135.908
		c2.454-0.685,6.286,0.925,7.544,3.993c0.704,1.469,0.252,2.254-1.066,2.837l-12.091,4.678
		C223.706,142.306,224.34,137.93,230.055,135.908L230.055,135.908z"/>
</g>
<g id="Honda">
</g>
<g id="Hyundai">
</g>
<g id="IBM">
</g>
<g id="Intel">
</g>
<g id="John_Deere">
</g>
<g id="Jumpman">
</g>
<g id="Chase">
</g>
<g id="Girl_Scouts">
</g>
<g id="Mazda">
</g>
<g id="McDonalds">
</g>
<g id="Mercedes">
</g>
<g id="Motorola">
</g>
<g id="MTV">
</g>
<g id="NBC">
</g>
<g id="Nike">
</g>
<g id="PBS">
</g>
<g id="Pepsi">
</g>
<g id="Shell">
</g>
<g id="Starbucks">
</g>
<g id="Taco_Bell">
</g>
<g id="Target">
</g>
<g id="Toyota">
</g>
<g id="Twitter">
</g>
<g id="Univision">
</g>
<g id="UPS">
</g>
<g id="Visa">
</g>
<g id="Volkswagen">
</g>
</svg>
