<?xml version="1.0" encoding="utf-8"?>
<!-- Generator: Adobe Illustrator 16.0.0, SVG Export Plug-In . SVG Version: 6.00 Build 0)  -->
<!DOCTYPE svg PUBLIC "-//W3C//DTD SVG 1.1//EN" "http://www.w3.org/Graphics/SVG/1.1/DTD/svg11.dtd">
<svg version="1.1" xmlns="http://www.w3.org/2000/svg" xmlns:xlink="http://www.w3.org/1999/xlink" x="0px" y="0px" width="300px"
	 height="300px" viewBox="0 0 300 300" style="enable-background:new 0 0 300 300;" xml:space="preserve">
<g id="Guides">
</g>
<g id="ABC">
</g>
<g id="Apple">
</g>
<g id="CBS">
</g>
<g id="CNN">
</g>
<g id="Coke">
</g>
<g id="Dropbox">
</g>
<g id="ESPN">
</g>
<g id="GE">
</g>
<g id="Google">
</g>
<g id="Honda">
	<path d="M149.637,161.863c-0.996,0-1.99,0.051-2.78,0.155c-3.742,0.504-5.146,1.479-6.458,3.963
		c-0.854,1.597-2.567,6.452-3.938,12.64c-2.878-0.104-5.651-0.239-8.046-0.403c-0.934-8.683-3.087-44.833-3.142-57.244
		c1.512-0.1,3.122-0.229,4.896-0.307c1.074,5.735,4.648,25.713,7.571,31.992c1.3,2.801,3.563,3.754,6.336,3.967
		c2.767,0.194,8.346,0.194,11.126,0c2.768-0.213,5.029-1.166,6.33-3.967c2.922-6.279,6.499-26.257,7.57-31.992
		c1.771,0.077,3.388,0.208,4.901,0.307c-0.059,12.411-2.206,48.562-3.149,57.244c-2.399,0.162-5.165,0.299-8.042,0.403
		c-1.372-6.188-3.084-11.043-3.938-12.64c-1.312-2.483-2.715-3.459-6.459-3.963C151.623,161.914,150.633,161.863,149.637,161.863
		 M149.637,188.008c-7.46,0-24.512-0.458-30.126-1.512c-5.966-1.118-9.99-4.539-11.964-10.164
		c-1.692-4.798-2.932-13.712-3.699-26.487c-0.479-8.003-0.472-15.192,0.023-21.348c0.847-10.476,5.686-14.657,15.807-15.8
		c6.765-0.764,21.879-1.125,29.961-1.125c8.08,0,23.196,0.361,29.952,1.125c10.125,1.143,14.966,5.322,15.808,15.8
		c0.497,6.155,0.504,13.345,0.025,21.347c-0.764,12.774-2.005,21.69-3.692,26.488c-1.979,5.625-5.999,9.043-11.973,10.164
		C174.152,187.549,157.098,188.008,149.637,188.008z M178.906,181.943c4.583-0.858,7.439-4.241,8.456-7.144
		c1.061-3.026,2.521-9.847,3.438-25.233c0.473-7.791,0.466-14.757-0.019-20.701c-0.569-7.111-4.158-10.713-11.708-11.565
		c-6.589-0.747-21.458-1.093-29.437-1.093c-7.978,0-22.85,0.346-29.438,1.093c-7.549,0.853-11.133,4.454-11.712,11.565
		c-0.477,5.944-0.479,12.91-0.018,20.701c0.922,15.387,2.384,22.207,3.443,25.233c1.021,2.902,3.869,6.285,8.449,7.144
		c4.723,0.888,20.229,1.436,29.273,1.436C158.683,183.379,174.186,182.828,178.906,181.943"/>
</g>
<g id="Hyundai">
</g>
<g id="IBM">
</g>
<g id="Intel">
</g>
<g id="John_Deere">
</g>
<g id="Jumpman">
</g>
<g id="Chase">
</g>
<g id="Girl_Scouts">
</g>
<g id="Mazda">
</g>
<g id="McDonalds">
</g>
<g id="Mercedes">
</g>
<g id="Motorola">
</g>
<g id="MTV">
</g>
<g id="NBC">
</g>
<g id="Nike">
</g>
<g id="PBS">
</g>
<g id="Pepsi">
</g>
<g id="Shell">
</g>
<g id="Starbucks">
</g>
<g id="Taco_Bell">
</g>
<g id="Target">
</g>
<g id="Toyota">
</g>
<g id="Twitter">
</g>
<g id="Univision">
</g>
<g id="UPS">
</g>
<g id="Visa">
</g>
<g id="Volkswagen">
</g>
</svg>
