<?xml version="1.0" encoding="utf-8"?>
<!-- Generator: Adobe Illustrator 16.0.0, SVG Export Plug-In . SVG Version: 6.00 Build 0)  -->
<!DOCTYPE svg PUBLIC "-//W3C//DTD SVG 1.1//EN" "http://www.w3.org/Graphics/SVG/1.1/DTD/svg11.dtd">
<svg version="1.1" xmlns="http://www.w3.org/2000/svg" xmlns:xlink="http://www.w3.org/1999/xlink" x="0px" y="0px" width="300px"
	 height="300px" viewBox="0 0 300 300" style="enable-background:new 0 0 300 300;" xml:space="preserve">
<g id="Guides">
</g>
<g id="ABC">
</g>
<g id="Apple">
</g>
<g id="CBS">
</g>
<g id="CNN">
</g>
<g id="Coke">
</g>
<g id="Dropbox">
</g>
<g id="ESPN">
</g>
<g id="GE">
</g>
<g id="Google">
</g>
<g id="Honda">
</g>
<g id="Hyundai">
</g>
<g id="IBM">
</g>
<g id="Intel">
</g>
<g id="John_Deere">
</g>
<g id="Jumpman">
</g>
<g id="Chase">
</g>
<g id="Girl_Scouts">
</g>
<g id="Mazda">
</g>
<g id="McDonalds">
</g>
<g id="Mercedes">
</g>
<g id="Motorola">
</g>
<g id="MTV">
</g>
<g id="NBC">
</g>
<g id="Nike">
</g>
<g id="PBS">
</g>
<g id="Pepsi">
</g>
<g id="Shell">
</g>
<g id="Starbucks">
</g>
<g id="Taco_Bell">
	<path d="M189.329,161.635c-9.529,9.809-23.591,18.734-29.728,21.895c-2.742,1.394-5.508,2.627-8.274,3.719h38.002V161.635z"/>
	<path d="M188.252,140.045c-7.391-0.906-10.343-3.858-10.343-3.858c-9.763-10.249-16.897-18.64-26.055-21.011
		c-3.393-0.859-7.299-0.767-10.97-0.187c-1.302-1.649-3.858-3.998-7.414-4.438c3.347-0.675,6.832-1.046,10.412-1.046
		C165.336,109.505,183.302,122.52,188.252,140.045"/>
	<path d="M113.832,170.27c1.092-3.742,0.093-9.111,0.093-9.111c-0.187-2.975-6.322-25.032,7.53-36.863c0,0-1.953-7.158,3.742-11.342
		c-16.061,6.252-27.193,20.406-27.193,36.862v37.305h8.646c-0.419-2.302,0.674-5.346,3.044-8.763
		C109.694,178.357,112.762,174.011,113.832,170.27"/>
	<path d="M129.623,166.274c-5.974,5.926-9.251,11.97-7.577,15.456c2.929,6.089,19.802,3.765,36.723-4.37
		c16.897-8.112,30.052-20.338,26.961-26.334c-3.277-6.345-20.012-3.951-36.654,4.462l-0.557,0.188
		c7.415-4.673,20.29-11.041,33.516-12.97c0,0,11.343-1.767,13.573,3.556c3.091,7.205-12.342,21.547-36.096,32.981
		c-23.754,11.412-44.045,14.363-47.438,7.298c-2.627-5.485,6.555-18.548,20.313-27.589c0,0,18.85-13.736,42.882-17.152l-0.162,0.115
		C175.107,141.915,148.704,147.379,129.623,166.274"/>
	<path d="M182.184,152.707c-2.162-4.463-16.572-1.952-32.214,5.602c-15.643,7.554-26.59,17.246-24.428,21.708
		c2.138,4.463,16.571,1.953,32.214-5.577C173.375,166.885,184.345,157.169,182.184,152.707z M139.709,177.015
		c-4.788,0.349-7.693-1.673-9.855-3.904l0.046-0.023c0,0,1.302-1.162,1.859-1.581c5.323,5.903,12.784,2.093,12.784,2.093
		c-7.623,1.255-8.089-5.439-8.089-5.439c3.673-2.37,8.74-5.02,14.736-6.717c0.581,1.464,0.65,2.255,0.743,3.858
		C152.259,171.715,146.564,176.48,139.709,177.015L139.709,177.015z"/>
	<path d="M123.094,157.195c0,0,0.42,2.185,0.675,4.463c-4.509,4.021-6.74,8.995-6.74,8.995c1.441-3.65-0.116-10.482-0.116-10.482
		c-1.023-6.393-6.392-24.289,6.159-35.771c-0.906-3.208-0.465-5.113,0.257-7.182c0.812-1.859,2.695-3.928,4.484-4.695
		c0,0-5.321,2.674-2.301,9.879c3.463-2.488,7.229-4.185,11.946-5.532l-0.278,0.209c-17.99,6.856-19.57,16.921-14.899,35.84
		C122.699,154.615,122.932,156.08,123.094,157.195"/>
</g>
<g id="Target">
</g>
<g id="Toyota">
</g>
<g id="Twitter">
</g>
<g id="Univision">
</g>
<g id="UPS">
</g>
<g id="Visa">
</g>
<g id="Volkswagen">
</g>
</svg>
