<?xml version="1.0" encoding="utf-8"?>
<!-- Generator: Adobe Illustrator 16.0.0, SVG Export Plug-In . SVG Version: 6.00 Build 0)  -->
<!DOCTYPE svg PUBLIC "-//W3C//DTD SVG 1.1//EN" "http://www.w3.org/Graphics/SVG/1.1/DTD/svg11.dtd">
<svg version="1.1" xmlns="http://www.w3.org/2000/svg" xmlns:xlink="http://www.w3.org/1999/xlink" x="0px" y="0px" width="300px"
	 height="300px" viewBox="0 0 300 300" style="enable-background:new 0 0 300 300;" xml:space="preserve">
<g id="Guides">
</g>
<g id="ABC">
</g>
<g id="Apple">
</g>
<g id="CBS">
</g>
<g id="CNN">
</g>
<g id="Coke">
</g>
<g id="Dropbox">
</g>
<g id="ESPN">
</g>
<g id="GE">
</g>
<g id="Google">
</g>
<g id="Honda">
</g>
<g id="Hyundai">
</g>
<g id="IBM">
</g>
<g id="Intel">
	<path d="M211.414,131.877c-5.907-28.795-61.624-30.618-97.539-8.68v2.423c35.868-18.515,86.764-18.397,91.395,8.128
		c1.561,8.786-3.354,17.925-12.167,23.184v6.881C203.711,159.921,214.557,147.321,211.414,131.877 M146.104,182.292
		c-24.787,2.295-50.612-1.315-54.229-20.761c-1.796-9.575,2.576-19.737,8.341-26.043v-3.375
		c-10.396,9.151-16.043,20.726-12.782,34.394c4.157,17.538,26.321,27.466,60.158,24.16c13.398-1.294,30.931-5.623,43.099-12.337
		v-9.542C179.634,175.411,161.344,180.882,146.104,182.292L146.104,182.292z"/>
	<path d="M188.707,127.715h-6.498v29.067c0,3.415,1.631,6.383,6.498,6.854"/>
	<path d="M111.3,138.338h-6.499v18.985c0,3.415,1.631,6.384,6.499,6.855"/>
	<path d="M104.801,128.598h6.499v6.184h-6.499V128.598z"/>
	<path d="M150.238,163.873c-5.27,0-7.489-3.676-7.489-7.303v-25.216h6.426v6.983h4.868v5.229h-4.868v12.613
		c0,1.483,0.709,2.298,2.245,2.298h2.623v5.395H150.238"/>
	<path d="M167.322,143.25c-2.197,0-3.898,1.143-4.607,2.686c-0.425,0.93-0.566,1.636-0.637,2.779h9.947
		C171.884,145.924,170.63,143.25,167.322,143.25 M162.078,153.119c0,3.31,2.077,5.746,5.716,5.746c2.86,0,4.278-0.801,5.932-2.437
		l3.971,3.828c-2.552,2.52-5.223,4.05-9.948,4.05c-6.166,0-12.073-3.379-12.073-13.225c0-8.422,5.149-13.18,11.932-13.18
		c6.876,0,10.821,5.571,10.821,12.886v2.331H162.078"/>
	<path d="M128.809,143.567c1.889,0,2.67,0.931,2.67,2.449v17.891h6.45v-17.914c0-3.639-1.938-7.655-7.585-7.655h-13.303v25.569
		h6.428v-20.34"/>
</g>
<g id="John_Deere">
</g>
<g id="Jumpman">
</g>
<g id="Chase">
</g>
<g id="Girl_Scouts">
</g>
<g id="Mazda">
</g>
<g id="McDonalds">
</g>
<g id="Mercedes">
</g>
<g id="Motorola">
</g>
<g id="MTV">
</g>
<g id="NBC">
</g>
<g id="Nike">
</g>
<g id="PBS">
</g>
<g id="Pepsi">
</g>
<g id="Shell">
</g>
<g id="Starbucks">
</g>
<g id="Taco_Bell">
</g>
<g id="Target">
</g>
<g id="Toyota">
</g>
<g id="Twitter">
</g>
<g id="Univision">
</g>
<g id="UPS">
</g>
<g id="Visa">
</g>
<g id="Volkswagen">
</g>
</svg>
