<?xml version="1.0" encoding="utf-8"?>
<!-- Generator: Adobe Illustrator 16.0.0, SVG Export Plug-In . SVG Version: 6.00 Build 0)  -->
<!DOCTYPE svg PUBLIC "-//W3C//DTD SVG 1.1//EN" "http://www.w3.org/Graphics/SVG/1.1/DTD/svg11.dtd">
<svg version="1.1" xmlns="http://www.w3.org/2000/svg" xmlns:xlink="http://www.w3.org/1999/xlink" x="0px" y="0px" width="300px"
	 height="300px" viewBox="0 0 300 300" style="enable-background:new 0 0 300 300;" xml:space="preserve">
<g id="Guides">
</g>
<g id="ABC">
</g>
<g id="Apple">
</g>
<g id="CBS">
</g>
<g id="CNN">
</g>
<g id="Coke">
</g>
<g id="Dropbox">
</g>
<g id="ESPN">
</g>
<g id="GE">
</g>
<g id="Google">
</g>
<g id="Honda">
</g>
<g id="Hyundai">
</g>
<g id="IBM">
	<path d="M81.777,122.711v3.734h26.559v-3.734H81.777z M112.1,122.711v3.734h37.847c0,0-3.866-3.734-8.985-3.734H112.1
		L112.1,122.711z M157.37,122.711v3.734h22.899l-1.36-3.734H157.37z M196.685,122.711l-1.358,3.734h22.689v-3.734H196.685z
		 M81.777,129.973v3.734h26.559v-3.734H81.777L81.777,129.973z M112.1,129.978v3.729h42.239c0,0-0.494-2.874-1.354-3.729H112.1
		L112.1,129.978z M157.37,129.978v3.729h25.409l-1.259-3.729H157.37z M193.966,129.978l-1.258,3.729h25.308v-3.729H193.966z
		 M89.41,137.235v3.739h11.501v-3.739H89.41z M119.73,137.235v3.739h11.504v-3.739H119.73z M142.42,137.235v3.739h11.503
		c0,0,0.731-1.975,0.731-3.739H142.42z M165.004,137.235v3.739h20.392l-1.358-3.739H165.004z M191.461,137.235l-1.363,3.739h20.492
		v-3.739H191.461z M89.41,144.503v3.733h11.501v-3.733H89.41z M119.73,144.503v3.733h29.381c0,0,2.457-1.916,3.239-3.733H119.73z
		 M165.004,144.503v3.733h11.501v-2.079l0.731,2.079h21.068l0.784-2.079v2.079h11.501v-3.733h-21.591l-1.146,3.162l-1.15-3.162
		H165.004z M89.41,151.765v3.732h11.501v-3.732H89.41z M119.73,151.765v3.732h32.62c-0.783-1.812-3.239-3.732-3.239-3.732H119.73z
		 M165.004,151.765v3.732h11.501v-3.732H165.004z M178.594,151.765l1.393,3.732h15.797l1.322-3.732H178.594z M199.089,151.765v3.732
		h11.501v-3.732H199.089z M89.41,159.025v3.734h11.501v-3.734H89.41z M119.73,159.025v3.734h11.504v-3.734H119.73z M142.42,159.025
		v3.734h12.234c0-1.763-0.731-3.734-0.731-3.734H142.42L142.42,159.025z M165.004,159.025v3.734h11.501v-3.734H165.004z
		 M181.207,159.025l1.348,3.734h10.591l1.36-3.734H181.207z M199.089,159.025v3.734h11.501v-3.734H199.089z M81.984,166.287v3.74
		h26.56v-3.74H81.984z M112.1,166.287v3.74h40.885c0.86-0.856,1.354-3.74,1.354-3.74H112.1L112.1,166.287z M157.58,166.287v3.74
		h18.925v-3.74H157.58z M183.823,166.287l1.386,3.74h5.389l1.302-3.74H183.823z M199.089,166.287v3.74h19.134v-3.74H199.089z
		 M81.984,173.555v3.734h26.56v-3.734H81.984z M112.1,173.555v3.729h28.861c5.119,0,8.985-3.729,8.985-3.729H112.1L112.1,173.555z
		 M157.58,173.555v3.734h18.925v-3.734H157.58z M186.45,173.555l1.334,3.725l0.229,0.005l1.354-3.729H186.45z M199.089,173.555
		v3.734h19.134v-3.734H199.089z"/>
</g>
<g id="Intel">
</g>
<g id="John_Deere">
</g>
<g id="Jumpman">
</g>
<g id="Chase">
</g>
<g id="Girl_Scouts">
</g>
<g id="Mazda">
</g>
<g id="McDonalds">
</g>
<g id="Mercedes">
</g>
<g id="Motorola">
</g>
<g id="MTV">
</g>
<g id="NBC">
</g>
<g id="Nike">
</g>
<g id="PBS">
</g>
<g id="Pepsi">
</g>
<g id="Shell">
</g>
<g id="Starbucks">
</g>
<g id="Taco_Bell">
</g>
<g id="Target">
</g>
<g id="Toyota">
</g>
<g id="Twitter">
</g>
<g id="Univision">
</g>
<g id="UPS">
</g>
<g id="Visa">
</g>
<g id="Volkswagen">
</g>
</svg>
