<?xml version="1.0" encoding="utf-8"?>
<!-- Generator: Adobe Illustrator 16.0.0, SVG Export Plug-In . SVG Version: 6.00 Build 0)  -->
<!DOCTYPE svg PUBLIC "-//W3C//DTD SVG 1.1//EN" "http://www.w3.org/Graphics/SVG/1.1/DTD/svg11.dtd">
<svg version="1.1" xmlns="http://www.w3.org/2000/svg" xmlns:xlink="http://www.w3.org/1999/xlink" x="0px" y="0px" width="300px"
	 height="300px" viewBox="0 0 300 300" style="enable-background:new 0 0 300 300;" xml:space="preserve">
<g id="Guides">
</g>
<g id="ABC">
</g>
<g id="Apple">
</g>
<g id="CBS">
</g>
<g id="CNN">
</g>
<g id="Coke">
</g>
<g id="Dropbox">
</g>
<g id="ESPN">
</g>
<g id="GE">
</g>
<g id="Google">
</g>
<g id="Honda">
</g>
<g id="Hyundai">
</g>
<g id="IBM">
</g>
<g id="Intel">
</g>
<g id="John_Deere">
</g>
<g id="Jumpman">
</g>
<g id="Chase">
</g>
<g id="Girl_Scouts">
</g>
<g id="Mazda">
</g>
<g id="McDonalds">
</g>
<g id="Mercedes">
</g>
<g id="Motorola">
</g>
<g id="MTV">
</g>
<g id="NBC">
</g>
<g id="Nike">
</g>
<g id="PBS">
</g>
<g id="Pepsi">
</g>
<g id="Shell">
</g>
<g id="Starbucks">
	<path style="fill:#010101;" d="M150.142,120.369c1.669,0.962,3.438,2.2,4.785,3.512l-0.529,0.534
		c-2.659-0.282-5.461,0.069-7.982,0.108c-0.281-0.283-0.847-0.711-0.32-1.065L150.142,120.369z M197.168,153.406
		c0.034,1.199,0.146,2.231-0.32,3.458c-4.858,1.385-8.051-3.763-12.765-2.986l0.534,2.669c4.361,0.143,7.086,4.326,11.592,4.146
		c-0.642,1.278,0.285,4.647-2.551,3.301c-2.943-0.708-5.073-3.301-8.298-3.301c-0.389,0.715-0.144,1.704-0.211,2.55
		c3.404,0.533,5.853,3.41,9.253,3.941c-0.32,1.167-0.639,2.479-1.597,3.191c-2.769-0.674-4.93-3.158-7.876-3.089l-0.526,2.451
		c2.801,0.07,4.61,2.548,7.127,3.293c0.069,1.032-0.854,1.956-1.386,2.878c-2.234-0.672-3.937-2.592-6.489-2.449
		c-0.035-0.964,0.535-2.054,0.318-3.084c-2.865,0.853-4.788-1.811-6.913-3.41c-0.062-5.229-5.566-8.661-5.856-13.559
		c-0.057-0.979,0.092-2.02,0.537-3.141c1.808-4.185,1.24-9.616-0.744-13.515c-0.603-1.026-1.671-1.837-2.667-2.441
		c1.458,3.086,3.232,6.734,2.347,10.529c-0.104,2.93-1.832,5.743-1.852,8.567c-0.009,1.008,0.206,2.013,0.786,3.031
		c2.308,4.154,6.457,8.086,4.896,13.296c-0.428,1.601-1.707,2.837-2.024,4.467c2.699,2.234,5.25,4.752,8.83,4.894
		c1.274-0.814,0.568-4.428,3.192-2.762l3.832,1.917c-0.279,1.025-1.138,1.945-1.915,2.651c-1.454-0.707-2.873-1.556-4.686-1.486
		c-0.534,0.567-0.995,1.201-0.954,2.016c1.275,0.21,2.447,0.75,3.511,1.496c-0.494,1.066-1.458,1.733-2.345,2.55l-2.974-1.062
		c-0.496,0.71-1.527,1.458-1.164,2.235c0.671,0.285,1.415,0.676,1.907,1.171c-1.311,1.421-2.974,2.331-4.574,3.295
		c-1.38-4.505-5.922-7.665-5.529-12.873l-0.211-0.212c-1.067,1.201-0.711,3.122-0.644,4.678c1.277,3.264,4.327,5.781,4.786,9.362
		c-0.533,0.921-1.736,1.104-2.659,1.497c0.107-6.453-9.68-11.346-3.403-17.872c2.094-3.194,5.6-6.245,4.357-10.646
		c-1.275-4.248-5.787-6.881-5.747-11.643l0.007-0.372c1.028-4.967,4.15-10.25,1.597-15.532c-0.712-2.124-2.304-4.54-4.465-5.429
		c3.227,3.692,4.503,9.715,2.658,14.683c-0.93,1.977-2.21,4.331-2.339,6.653h-0.009c-0.067,1.212,0.179,2.419,0.963,3.562
		c2.449,3.974,6.702,8.338,4.254,13.516c-2.765,4.147-7.589,8.367-4.894,13.828c1.95,3.265,4.968,6.521,4.154,10.529l-3.192,1.062
		c2.127-7.48-8.298-11.875-3.935-19.358c2.696-4.008,7.516-7.767,4.785-13.085c-1.631-3.295-5.001-5.245-4.894-9.363l0.116-0.69
		c1.099-5.84,5.538-11.367,2.434-17.608c-0.815-1.844-2.446-3.722-4.256-4.787l-0.109,0.109c3.619,3.511,4.721,9.289,2.769,13.932
		c-0.909,2.723-2.907,5.438-3.313,8.357c-0.194,1.377-0.03,2.803,0.766,4.304c2.304,3.65,6.346,7.521,3.821,12.242
		c-2.655,3.896-7.09,7.689-5.318,12.758c1.951,4.435,6.024,8.66,3.824,14.156l-3.294,0.744c2.623-5.357-1.311-10.675-3.613-15.321
		c-2.804-6.668,6.022-9.859,6.164-15.955c-0.035-3.935-4.218-6.168-5.101-9.785c-1.81-1.528-3.687,0.607-5.852,0.211
		c-1.598,0.319-4.051-2.199-5.005,0.533c-1.136,4.006-6.312,6.949-4.038,11.699c2.164,4.223,7.372,7.309,5.633,12.771
		c-1.557,5.104-6.703,9.961-3.512,15.847c-1.311-0.425-3.758,0.389-3.723-1.706c-2.021-7.127,6.596-11.28,3.934-18.403
		c-1.236-4.363-6.88-6.774-5.637-12.022c0.917-4.32,5.766-7.341,5.085-12.072c-0.056-0.396-0.153-0.801-0.291-1.225
		c-1.81-5.107-5.501-10.214-3.302-16.174c0.604-1.702,1.811-3.157,2.871-4.677c-3.511,1.879-5.282,5.854-5.21,9.894
		c-0.152,4.396,3.094,8.159,3.556,12.182c0.182,1.623-0.084,3.285-1.217,5.048c-2.303,3.124-5.315,6.419-3.934,10.536
		c1.312,4.151,6.489,6.666,6.171,11.489c-0.037,5.707-6.668,9.26-4.788,15.643l-3.3-1.07c-1.312-5.671,4.717-8.573,4.786-13.821
		c0.852-6.035-6.845-8.273-6.383-14.157c-0.032-4.47,3.901-7.3,5.639-11.062c0.298-0.913,0.397-1.779,0.357-2.606
		c-0.213-4.156-3.958-7.406-3.336-12.08c0.207-3.439,1.379-6.455,3.613-9.042c-3.084,1.238-4.356,4.788-5.21,7.769
		c-1.478,4.778,2.051,9.073,2.405,13.354c0.157,1.891-0.306,3.77-2.084,5.69c-2.555,3.01-5.146,6.81-3.301,10.855
		c1.952,4.464,8.089,7.939,5.428,13.506c-1.454,3.513-4.931,6.169-4.787,10.318c-0.921-0.39-1.877-0.779-2.659-1.487
		c0-5.282,7.516-8.582,3.935-14.15c-0.317,1.099-0.387,2.594-0.635,3.833c-1.242,3.229-3.901,5.814-4.896,9.15
		c-1.664-0.644-3.403-1.991-4.787-3.41l1.917-1.173c-0.213-0.711-0.779-1.312-1.274-1.915c-1.245-0.175-2.062,0.642-3.089,0.962
		c-0.887-0.782-1.742-1.491-2.448-2.449c0.636-1.812,5.607-0.314,3.089-3.293c-1.701-1.063-3.408,0.455-4.896,1.163l-2.019-2.549
		c1.737-1.063,3.471-2.557,5.634-2.128c0.532,0.959,0.569,2.371,1.595,2.87c3.653-0.071,6.242-2.834,9.043-4.999
		c-1.953-2.903-3.541-6.913-1.808-10.426c1.389-3.521,5.008-6.483,5.174-10.374c0.036-0.886-0.102-1.818-0.488-2.821
		c-1.915-4.931-2.591-11.593,1.062-15.957c-1.984,0.535-3.157,3.012-3.83,4.891c-2.197,4.814,0.58,9.273,0.677,13.888
		c0.013,0.83-0.054,1.661-0.256,2.497c-1.88,3.795-4.927,7.123-5.421,11.489c-2.163,1.382-3.939,3.794-7.023,2.979
		c-0.108,0.814,0.141,2.057,0.424,2.979c-2.446-0.104-4.113,1.699-6.171,2.55c-1.097-0.352-1.383-1.769-1.808-2.761
		c2.41-0.813,4.148-3.229,6.916-3.191c0.32-0.893-0.181-1.709-0.321-2.56c-3.441-1.527-8.897,7.553-9.355-0.318
		c3.438-0.212,5.635-3.406,9.043-3.724l0.101-2.549l-10.214,3.191l-0.853-3.402c4.469,0.278,7.132-3.726,11.388-3.941
		c0.566-0.744,0.634-1.842,0.743-2.869c-4.646-0.606-7.834,4.543-12.765,2.978c0,0-0.169-2.143-0.261-3.349h0.007
		c-0.034-0.474-0.066-0.801-0.066-0.801c4.397,1.705,8.261-1.453,12.021-3.083c0.957-0.287,2.45,0.208,2.878-0.854
		c-0.037-0.816,1.451-1.77,0.212-2.34c-5.499-0.746-9.152,5.888-14.791,2.871l-0.424-0.854c1.172-16.026,10.212-31.523,25.21-39.146
		c6.075-3.472,13.621-5.241,21.232-5.305c9.184-0.076,18.465,2.335,25.368,7.222c6.705,4.112,13.119,10.89,16.599,17.771
		c3.33,6.028,4.86,12.792,5.319,19.993c-5.816,4.395-9.721-4.141-15.643-2.231c0.317,0.925,0.498,1.88,1.173,2.659
		c5.25-0.036,8.865,5.461,14.359,3.295L197.168,153.406L197.168,153.406z M130.348,133.668c-3.688-2.412-8.365-0.139-11.803,1.174
		c-0.317-3.229-1.63-6.17-4.364-8.299c-0.265-0.129-0.632-0.409-0.962-0.428c-0.198-0.015-0.385,0.067-0.532,0.318
		c1.239,7.625-3.716,12.944-7.227,18.725c1.169,0.956,3.047,0.812,4.466,0.534c3.722-1.491,7.268-4.082,11.7-3.193
		c1.312-2.233,3.514-4.398,5.319-6.171C128.05,135.373,129.564,134.767,130.348,133.668z M141.627,138.456
		c-0.071,0.458,0.035,1.274,0.743,0.961c1.101-1.524,3.051-0.319,4.257-0.212v-0.428c-0.662-1.039-2.022-1.561-3.404-1.507
		c-0.318,0.012-0.643,0.056-0.954,0.129C141.807,137.502,141.484,137.924,141.627,138.456L141.627,138.456z M158.967,133.888
		c-0.99-2.197-3.262-3.089-5.319-3.622c-1.011-0.123-2.057-0.207-3.096-0.218h-0.583c-2.907,0.059-5.685,0.805-7.382,3.198
		c-0.242,0.675-1.313,1.624-0.318,2.229c2.233-0.143,4.783-0.422,6.271,1.496c0,1.705,1.101,3.971-0.743,4.785
		c-1.527-1.414-3.335,0.604-4.998-0.532c-0.781-0.462-1.274,0.077-1.595,0.75c-0.463,4.396,1.84,9.25,5.952,11.693
		c1.667,0.603,3.908,1.172,5.646,0.319c4.185-1.947,5.918-6.412,6.697-10.528c-0.104-0.782-0.067-2.308-1.165-2.346
		c-1.239,0.784-3.049,0.32-4.365,0c-0.777,0.251-0.812,1.387-1.697,1.604l-0.538-0.428c-0.461-1.947-0.746-4.715,1.063-6.062
		c2.022-0.817,4.399-1.171,6.49-0.533C159.679,135.021,159.077,134.49,158.967,133.888z M156.832,137.384l-0.416,0.015
		c-0.742,0.498-2.908,0.14-2.126,1.807c1.349-1.066,3.228-0.317,4.575,0.212c0.498-0.248,0.391-0.744,0.423-1.173
		C158.855,137.439,157.822,137.364,156.832,137.384z M172.271,122.391c-2.625-0.14-4.822,1.351-7.234,2.024
		c-0.21-2.052,1.349-4.22,1.705-6.279c-3.898,0.25-6.988,2.598-10.213,4.473c-0.749-1.804-1.497-3.616-2.237-5.428l4.255-4.045
		l0.109-0.532l-5.748-0.32c-0.99-1.735-1.381-3.822-2.551-5.418l-2.558,5.527l-5.741,0.32v0.423l4.356,3.935
		c-0.533,2.022-1.026,4.22-2.339,5.748c-2.552-1.531-5.069-3.194-7.867-4.257c-0.675-0.218-1.635-0.57-2.236-0.109
		c0.886,1.951,2.123,4.05,1.916,6.182c-1.171-0.216-2.091-0.967-3.191-1.282c-1.316-0.359-2.878-1.061-4.154-0.634
		c2.128,2.975,3.865,6.093,4.467,9.675c7.06-3.409,15.293-5.281,23.84-3.825c4.006,0.638,7.688,2.271,11.271,3.613
		C168.261,128.426,170.639,125.406,172.271,122.391z M184.396,142.819c3.614,0.956,7.24,4.895,11.066,2.339
		c-3.333-5.529-8.293-10.639-6.913-17.87c0.142-0.495-0.175-0.993-0.637-1.063c-2.162,0.884-3.834,3.012-4.692,5.107
		c-0.351,1.238-0.56,2.556-1.054,3.723c-2.59-1.349-5.355-2.654-8.513-2.341c-1.137,0.143-2.77,0.217-2.977,1.386
		c3.58,1.914,6.523,5.107,8.721,8.509C180.926,142.359,182.8,142.572,184.396,142.819L184.396,142.819z M146.522,147.817
		l0.103,0.644c1.385,0.923,1.812,2.487,3.731,2.346c1.7,0.101,2.976-1.493,3.823-2.77
		C151.878,147.718,149.077,148.21,146.522,147.817z M148.439,144.948c0.069,0.281-0.175,0.709,0.21,0.853
		c1.136-0.247,3.192,0.604,3.825-0.745c-0.442-0.497-1.165-0.72-1.923-0.72C149.793,144.336,149.008,144.557,148.439,144.948
		L148.439,144.948z"/>
</g>
<g id="Taco_Bell">
</g>
<g id="Target">
</g>
<g id="Toyota">
</g>
<g id="Twitter">
</g>
<g id="Univision">
</g>
<g id="UPS">
</g>
<g id="Visa">
</g>
<g id="Volkswagen">
</g>
</svg>
