<?xml version="1.0" encoding="utf-8"?>
<!-- Generator: Adobe Illustrator 16.0.0, SVG Export Plug-In . SVG Version: 6.00 Build 0)  -->
<!DOCTYPE svg PUBLIC "-//W3C//DTD SVG 1.1//EN" "http://www.w3.org/Graphics/SVG/1.1/DTD/svg11.dtd">
<svg version="1.1" xmlns="http://www.w3.org/2000/svg" xmlns:xlink="http://www.w3.org/1999/xlink" x="0px" y="0px" width="300px"
	 height="300px" viewBox="0 0 300 300" style="enable-background:new 0 0 300 300;" xml:space="preserve">
<g id="Guides">
</g>
<g id="ABC">
</g>
<g id="Apple">
</g>
<g id="CBS">
</g>
<g id="CNN">
</g>
<g id="Coke">
</g>
<g id="Dropbox">
</g>
<g id="ESPN">
</g>
<g id="GE">
</g>
<g id="Google">
</g>
<g id="Honda">
</g>
<g id="Hyundai">
</g>
<g id="IBM">
</g>
<g id="Intel">
</g>
<g id="John_Deere">
</g>
<g id="Jumpman">
</g>
<g id="Chase">
</g>
<g id="Girl_Scouts">
</g>
<g id="Mazda">
</g>
<g id="McDonalds">
</g>
<g id="Mercedes">
</g>
<g id="Motorola">
</g>
<g id="MTV">
</g>
<g id="NBC">
</g>
<g id="Nike">
</g>
<g id="PBS">
</g>
<g id="Pepsi">
	<path d="M150.5,104.033c-25.663,0-46.467,20.805-46.467,46.467s20.804,46.468,46.467,46.468c25.662,0,46.467-20.804,46.467-46.468
		C196.967,124.838,176.162,104.033,150.5,104.033z M150.5,192.801c-23.362,0-42.3-18.938-42.3-42.301s18.938-42.301,42.3-42.301
		c23.362,0,42.301,18.938,42.301,42.301S173.862,192.801,150.5,192.801z M141.238,118.896c2.938-0.858,6.046-1.318,9.262-1.318
		c3.21,0,6.315,0.458,9.25,1.316l-9.25,20.504L141.238,118.896z M168.172,122.716c3.47,2.214,6.498,5.056,8.92,8.37l-15.183,33.599
		l-5.859-13.026h-11.1l-5.858,13.026l-15.162-33.632c2.419-3.299,5.437-6.131,8.896-8.336l12.124,26.898h11.139L168.172,122.716z
		 M118.689,141.979c-0.727,2.719-1.114,5.575-1.114,8.521c0,12.902,7.421,24.072,18.228,29.471L118.689,141.979z M141.391,182.148
		c2.893,0.832,5.949,1.275,9.109,1.275c3.155,0,6.208-0.443,9.097-1.271l-9.097-20.204L141.391,182.148z M165.196,179.971
		c10.807-5.398,18.228-16.568,18.228-29.471c0-2.92-0.38-5.752-1.094-8.449L165.196,179.971z"/>
</g>
<g id="Shell">
</g>
<g id="Starbucks">
</g>
<g id="Taco_Bell">
</g>
<g id="Target">
</g>
<g id="Toyota">
</g>
<g id="Twitter">
</g>
<g id="Univision">
</g>
<g id="UPS">
</g>
<g id="Visa">
</g>
<g id="Volkswagen">
</g>
</svg>
