<?xml version="1.0" encoding="utf-8"?>
<!-- Generator: Adobe Illustrator 16.0.0, SVG Export Plug-In . SVG Version: 6.00 Build 0)  -->
<!DOCTYPE svg PUBLIC "-//W3C//DTD SVG 1.1//EN" "http://www.w3.org/Graphics/SVG/1.1/DTD/svg11.dtd">
<svg version="1.1" xmlns="http://www.w3.org/2000/svg" xmlns:xlink="http://www.w3.org/1999/xlink" x="0px" y="0px" width="300px"
	 height="300px" viewBox="0 0 300 300" style="enable-background:new 0 0 300 300;" xml:space="preserve">
<g id="Guides">
</g>
<g id="ABC">
</g>
<g id="Apple">
</g>
<g id="CBS">
</g>
<g id="CNN">
</g>
<g id="Coke">
</g>
<g id="Dropbox">
</g>
<g id="ESPN">
</g>
<g id="GE">
</g>
<g id="Google">
</g>
<g id="Honda">
</g>
<g id="Hyundai">
	<path d="M125.136,124.282c1.39-0.269,2.309-0.262,2.636,0.088c0.205,0.217,0.262,0.589-0.004,1.055
		c-0.144,0.248-0.295,0.464-0.577,0.798c-11.806,13.91-20.798,34.443-23.354,40.365c-0.194,0.415-0.388,0.82-0.539,1.087
		c-0.232,0.418-0.551,0.755-1.117,0.798c-0.312,0.011-0.745-0.058-1.397-0.45c-7.837-4.837-12.486-10.848-12.486-17.383
		C88.298,138.842,103.461,128.715,125.136,124.282 M137.234,133.154c1.109-2.575,3.03-8.094,7.431-10.28
		c1.337-0.669,2.981-0.979,4.455-1.025h0.672c12.318,0,23.779,1.709,33.389,4.633c0.077,0.029,0.297,0.117,0.361,0.137
		c0.893,0.3,1.34,0.706,1.34,1.207c0,0.448-0.228,0.775-0.54,1.09c-0.144,0.141-0.341,0.312-0.61,0.54
		c-2.214,1.853-8.894,6.679-21.471,11.486c-4.413,1.687-9.934,3.786-15.702,5.013C143.169,146.672,130.6,148.585,137.234,133.154
		 M195.902,133.594c0.229-0.418,0.551-0.764,1.113-0.805c0.323-0.012,0.741,0.064,1.397,0.456c7.83,4.829,12.49,10.853,12.49,17.387
		c0,11.795-15.167,21.919-36.838,26.347c-1.397,0.269-2.309,0.269-2.639-0.079c-0.205-0.233-0.262-0.598,0.007-1.06
		c0.136-0.244,0.292-0.464,0.574-0.798c11.806-13.914,20.805-34.445,23.357-40.366C195.553,134.259,195.747,133.859,195.902,133.594
		 M162.167,168.059c-1.113,2.578-3.026,8.092-7.439,10.287c-1.322,0.652-2.974,0.979-4.458,1.014
		c-0.323,0.019-0.559,0.012-0.657,0.012c-12.319,0-23.783-1.71-33.397-4.633c-0.072-0.027-0.285-0.115-0.354-0.145
		c-0.896-0.297-1.348-0.694-1.348-1.2c0-0.444,0.231-0.778,0.555-1.086c0.128-0.142,0.334-0.314,0.604-0.532
		c2.21-1.859,8.89-6.694,21.466-11.502c4.416-1.686,9.938-3.789,15.706-5.013C156.232,154.548,168.801,152.637,162.167,168.059
		 M149.602,184.827c36.872,0,66.757-15.308,66.757-34.175c0-18.901-29.886-34.188-66.757-34.188
		c-36.865,0-66.757,15.286-66.757,34.188C82.845,169.52,112.737,184.827,149.602,184.827"/>
</g>
<g id="IBM">
</g>
<g id="Intel">
</g>
<g id="John_Deere">
</g>
<g id="Jumpman">
</g>
<g id="Chase">
</g>
<g id="Girl_Scouts">
</g>
<g id="Mazda">
</g>
<g id="McDonalds">
</g>
<g id="Mercedes">
</g>
<g id="Motorola">
</g>
<g id="MTV">
</g>
<g id="NBC">
</g>
<g id="Nike">
</g>
<g id="PBS">
</g>
<g id="Pepsi">
</g>
<g id="Shell">
</g>
<g id="Starbucks">
</g>
<g id="Taco_Bell">
</g>
<g id="Target">
</g>
<g id="Toyota">
</g>
<g id="Twitter">
</g>
<g id="Univision">
</g>
<g id="UPS">
</g>
<g id="Visa">
</g>
<g id="Volkswagen">
</g>
</svg>
