<?xml version="1.0" encoding="utf-8"?>
<!-- Generator: Adobe Illustrator 16.0.0, SVG Export Plug-In . SVG Version: 6.00 Build 0)  -->
<!DOCTYPE svg PUBLIC "-//W3C//DTD SVG 1.1//EN" "http://www.w3.org/Graphics/SVG/1.1/DTD/svg11.dtd">
<svg version="1.1" xmlns="http://www.w3.org/2000/svg" xmlns:xlink="http://www.w3.org/1999/xlink" x="0px" y="0px" width="300px"
	 height="300px" viewBox="0 0 300 300" style="enable-background:new 0 0 300 300;" xml:space="preserve">
<g id="Guides">
</g>
<g id="ABC">
</g>
<g id="Apple">
</g>
<g id="CBS">
</g>
<g id="CNN">
	<path d="M138.503,119.061c-5.394,0.386-9.968,4.92-9.968,11.318v30.439c0.002,1.099-0.819,2.049-2.008,2.049h-9.503
		c-20.579,0.024-18.753-26.276-1.235-26.308h10.506v-7.647h-10.894c-6.977,0-12.153,2.604-15.646,6.489
		c-3.492,3.886-5.243,9.114-5.254,14.331c-0.008,5.218,1.719,10.416,5.295,14.292c3.573,3.879,8.973,6.492,16.376,6.492h17.926
		c1.182,0,2.163-1.021,2.163-2.203v-37.121c-0.008-1.913,1.069-3.391,2.471-3.825c1.405-0.434,3.051,0.118,4.018,1.505l0.039,0.042
		c5.098,8.342,25.345,40.814,25.379,40.87c0.554,0.794,1.218,0.935,1.699,0.774c0.482-0.162,0.97-0.683,0.965-1.972v-37.392
		c-0.005-1.911,1.071-3.391,2.473-3.825c1.401-0.431,3.013,0.117,3.979,1.507v0.042h0.079c5.097,8.339,25.343,40.812,25.38,40.87
		c0.549,0.784,1.189,0.937,1.7,0.771c0.507-0.166,1.007-0.652,1.004-1.932v-49.367h-7.688v28.816c0,0-4.583-7.83-12.438-21.323
		c-7.692-13.215-22.209-7.744-22.212,3.631v17.692c0,0-4.504-7.83-12.359-21.323c-3.366-5.778-8.049-7.986-12.245-7.687v-0.002
		V119.061z M116.754,119.254c-42.777,0-42.365,60.963,0.58,60.994h16.803c7.223,0,11.833-4.276,11.82-12.167v-15.45
		c0,0,9.438,15.597,13.134,21.708c6.282,10.386,21.477,8.343,21.44-4.636V152.63c0,0,9.397,15.595,13.094,21.71
		c6.282,10.385,21.516,8.341,21.478-4.637v-50.448h-7.687v49.368c0.007,1.893-0.987,3.299-2.356,3.748
		c-1.37,0.443-2.944-0.112-3.901-1.47h-0.039v-0.073c0,0-20.255-32.388-25.418-40.831h-0.038v-0.042
		c-0.533-0.708-1.218-0.868-1.778-0.695c-0.577,0.18-1.123,0.676-1.119,1.932v37.392c0.006,1.885-0.962,3.372-2.318,3.823
		c-1.358,0.454-2.911-0.147-3.863-1.504v-0.042h-0.039c0,0-20.269-32.448-25.42-40.87c-0.534-0.767-1.231-0.95-1.812-0.771
		c-0.582,0.179-1.125,0.675-1.121,1.932v37.163c0,2.25-1.852,4.133-4.094,4.133h-17.926c-7.864,0-13.828-2.833-17.768-7.107
		c-3.941-4.275-5.883-9.948-5.872-15.607c0.01-5.657,1.948-11.366,5.794-15.644c3.846-4.281,9.612-7.097,17.074-7.109h10.893v-7.724
		h-9.541v-0.002L116.754,119.254z"/>
</g>
<g id="Coke">
</g>
<g id="Dropbox">
</g>
<g id="ESPN">
</g>
<g id="GE">
</g>
<g id="Google">
</g>
<g id="Honda">
</g>
<g id="Hyundai">
</g>
<g id="IBM">
</g>
<g id="Intel">
</g>
<g id="John_Deere">
</g>
<g id="Jumpman">
</g>
<g id="Chase">
</g>
<g id="Girl_Scouts">
</g>
<g id="Mazda">
</g>
<g id="McDonalds">
</g>
<g id="Mercedes">
</g>
<g id="Motorola">
</g>
<g id="MTV">
</g>
<g id="NBC">
</g>
<g id="Nike">
</g>
<g id="PBS">
</g>
<g id="Pepsi">
</g>
<g id="Shell">
</g>
<g id="Starbucks">
</g>
<g id="Taco_Bell">
</g>
<g id="Target">
</g>
<g id="Toyota">
</g>
<g id="Twitter">
</g>
<g id="Univision">
</g>
<g id="UPS">
</g>
<g id="Visa">
</g>
<g id="Volkswagen">
</g>
</svg>
