<?xml version="1.0" encoding="utf-8"?>
<!-- Generator: Adobe Illustrator 16.0.0, SVG Export Plug-In . SVG Version: 6.00 Build 0)  -->
<!DOCTYPE svg PUBLIC "-//W3C//DTD SVG 1.1//EN" "http://www.w3.org/Graphics/SVG/1.1/DTD/svg11.dtd">
<svg version="1.1" xmlns="http://www.w3.org/2000/svg" xmlns:xlink="http://www.w3.org/1999/xlink" x="0px" y="0px" width="300px"
	 height="300px" viewBox="0 0 300 300" style="enable-background:new 0 0 300 300;" xml:space="preserve">
<g id="Guides">
</g>
<g id="ABC">
</g>
<g id="Apple">
</g>
<g id="CBS">
</g>
<g id="CNN">
</g>
<g id="Coke">
</g>
<g id="Dropbox">
</g>
<g id="ESPN">
</g>
<g id="GE">
</g>
<g id="Google">
</g>
<g id="Honda">
</g>
<g id="Hyundai">
</g>
<g id="IBM">
</g>
<g id="Intel">
</g>
<g id="John_Deere">
</g>
<g id="Jumpman">
</g>
<g id="Chase">
</g>
<g id="Girl_Scouts">
	<path id="path3" d="M179.895,117.925c1.384,4.657-0.377,10.577,1.947,14.856l3.338,5.916c-0.188,2.082-4.785,2.016-2.392,4.721
		c0.377,2.396-2.328,2.582-3.652,3.465c0.881,0.379,2.519-0.254,2.706,1.196c0.19,1.951-2.579,1.762-2.894,3.648
		c0.569,2.077-0.062,4.283-2.077,5.165c-4.976,2.016-11.079-2.329-15.486,1.951c-10.641,9.819-17.188,22.098-24.551,33.679
		c-1.95,0.061-3.652-1.764-5.039-3.211c-2.197-2.205-4.09-5.165-2.829-8.308c3.838-8.309,9.44-15.865,16.363-22.915
		c4.976-5.226,13.538-1.824,19.708-4.092c3.021-1.951-1.199-6.485,3.461-7.114c0.311-0.694,0.25-1.887-0.754-1.95h-1.828v-0.629
		c1.445-0.38,3.366-0.833,3.777-2.396c-0.314-1.006-0.881-1.857-0.201-3.061c0,0,2.168-1.286,2.43-2.025
		c0.433-1.238-4.849-6-4.493-12.354c0.149-2.709-1.637-11.705-5.289-16.361c-1.323,21.337-17.753,35.312-32.738,50.924
		c-5.348,6.487-9.881,13.283-13.656,20.458c-6.862-0.562-12.842-4.596-16.493-10.636c-4.284-7.931-3.966-18.886-2.582-28.014
		c1.573-6.989,6.103-15.233,13.914-16.684c2.706-0.628,5.412-1.255,8.372-1.192c1.193-1.7,0.69-4.093,1.638-5.918
		c5.729-13.158,20.019-15.737,33.239-15.169C164.406,102.694,176.116,107.097,179.895,117.925"/>
	<path id="path5" d="M192.654,126.343c-1.198,5.598,2.329,10.068,4.53,14.665c-0.187,0.568-0.819,0.878-1.319,1.07
		c-3.97,0.755,0.755,4.028-2.27,5.475c-0.753,0.759-2.578,0.189-2.578,1.511c0.815,0.126,2.012-0.374,2.578,0.567
		c0.191,0.441,0.319,1.199-0.187,1.577c-4.22,0.814-0.505,5.476-3.778,7.236c-4.529,1.573-9.504-0.692-13.785,1.387
		c-10.955,8.368-17.565,20.209-24.428,31.036c-1.006,2.266-2.325,4.591-2.138,7.176c11.392,0.628,19.641-8.689,25.812-17.439
		c6.289,0.124,12.274-0.444,17.436-3.021c6.985-3.341,10.387-10.577,11.329-17.626C204.424,147.553,205.243,132.008,192.654,126.343
		"/>
</g>
<g id="Mazda">
</g>
<g id="McDonalds">
</g>
<g id="Mercedes">
</g>
<g id="Motorola">
</g>
<g id="MTV">
</g>
<g id="NBC">
</g>
<g id="Nike">
</g>
<g id="PBS">
</g>
<g id="Pepsi">
</g>
<g id="Shell">
</g>
<g id="Starbucks">
</g>
<g id="Taco_Bell">
</g>
<g id="Target">
</g>
<g id="Toyota">
</g>
<g id="Twitter">
</g>
<g id="Univision">
</g>
<g id="UPS">
</g>
<g id="Visa">
</g>
<g id="Volkswagen">
</g>
</svg>
