<?xml version="1.0" encoding="utf-8"?>
<!-- Generator: Adobe Illustrator 16.0.0, SVG Export Plug-In . SVG Version: 6.00 Build 0)  -->
<!DOCTYPE svg PUBLIC "-//W3C//DTD SVG 1.1//EN" "http://www.w3.org/Graphics/SVG/1.1/DTD/svg11.dtd">
<svg version="1.1" xmlns="http://www.w3.org/2000/svg" xmlns:xlink="http://www.w3.org/1999/xlink" x="0px" y="0px" width="300px"
	 height="300px" viewBox="0 0 300 300" style="enable-background:new 0 0 300 300;" xml:space="preserve">
<g id="Guides">
</g>
<g id="ABC">
</g>
<g id="Apple">
</g>
<g id="CBS">
</g>
<g id="CNN">
</g>
<g id="Coke">
</g>
<g id="Dropbox">
</g>
<g id="ESPN">
</g>
<g id="GE">
</g>
<g id="Google">
</g>
<g id="Honda">
</g>
<g id="Hyundai">
</g>
<g id="IBM">
</g>
<g id="Intel">
</g>
<g id="John_Deere">
</g>
<g id="Jumpman">
</g>
<g id="Chase">
</g>
<g id="Girl_Scouts">
</g>
<g id="Mazda">
</g>
<g id="McDonalds">
</g>
<g id="Mercedes">
</g>
<g id="Motorola">
</g>
<g id="MTV">
</g>
<g id="NBC">
</g>
<g id="Nike">
</g>
<g id="PBS">
	<path d="M104.637,150.529c0-25.256,20.469-45.717,45.717-45.717c25.247,0,45.717,20.461,45.717,45.717
		c0,25.24-20.469,45.709-45.717,45.709C125.104,196.238,104.637,175.77,104.637,150.529 M176.565,150.854h4.941l-11.102-25.317
		h-7.271l11.141,25.317h-5.073v6.723c0.016,4.071-1.696,5.812-7.231,5.735v12.968h7.208v-12.968h2.382
		c2.104,0.062,4.965-1.649,5.004-4.979L176.565,150.854L176.565,150.854z M141.643,125.536c-11.133,0-20.3,7.771-20.3,19.304
		c0,9.698,5.844,16.622,14.556,17.946v13.492h18.133v-12.968h2.521c2.944-0.277,4.934-2.22,4.965-4.957v-7.5h4.941l-11.241-25.317
		H141.643z M151.655,147.5c2.584,0,4.673-2.09,4.673-4.68c0-2.583-2.089-4.673-4.673-4.673c-2.582,0-4.679,2.089-4.679,4.673
		C146.977,145.41,149.073,147.5,151.655,147.5"/>
</g>
<g id="Pepsi">
</g>
<g id="Shell">
</g>
<g id="Starbucks">
</g>
<g id="Taco_Bell">
</g>
<g id="Target">
</g>
<g id="Toyota">
</g>
<g id="Twitter">
</g>
<g id="Univision">
</g>
<g id="UPS">
</g>
<g id="Visa">
</g>
<g id="Volkswagen">
</g>
</svg>
