<?xml version="1.0" encoding="utf-8"?>
<!-- Generator: Adobe Illustrator 16.0.0, SVG Export Plug-In . SVG Version: 6.00 Build 0)  -->
<!DOCTYPE svg PUBLIC "-//W3C//DTD SVG 1.1//EN" "http://www.w3.org/Graphics/SVG/1.1/DTD/svg11.dtd">
<svg version="1.1" xmlns="http://www.w3.org/2000/svg" xmlns:xlink="http://www.w3.org/1999/xlink" x="0px" y="0px" width="300px"
	 height="300px" viewBox="0 0 300 300" style="enable-background:new 0 0 300 300;" xml:space="preserve">
<g id="Guides">
</g>
<g id="ABC">
</g>
<g id="Apple">
</g>
<g id="CBS">
</g>
<g id="CNN">
</g>
<g id="Coke">
</g>
<g id="Dropbox">
</g>
<g id="ESPN">
</g>
<g id="GE">
</g>
<g id="Google">
</g>
<g id="Honda">
</g>
<g id="Hyundai">
</g>
<g id="IBM">
</g>
<g id="Intel">
</g>
<g id="John_Deere">
</g>
<g id="Jumpman">
</g>
<g id="Chase">
</g>
<g id="Girl_Scouts">
</g>
<g id="Mazda">
</g>
<g id="McDonalds">
</g>
<g id="Mercedes">
</g>
<g id="Motorola">
</g>
<g id="MTV">
</g>
<g id="NBC">
</g>
<g id="Nike">
	<path d="M91.546,176.707c-4.469-0.176-8.127-1.4-10.985-3.672c-0.545-0.434-1.845-1.734-2.281-2.283
		c-1.161-1.457-1.947-2.877-2.473-4.451c-1.619-4.846-0.785-11.205,2.38-18.184c2.712-5.975,6.896-11.9,14.196-20.107
		c1.074-1.207,4.277-4.738,4.297-4.738c0.009,0-0.166,0.303-0.385,0.67c-1.897,3.178-3.523,6.926-4.408,10.164
		c-1.421,5.203-1.249,9.666,0.503,13.129c1.207,2.385,3.278,4.449,5.608,5.592c4.078,1.998,10.05,2.164,17.341,0.484
		c0.502-0.117,25.379-6.721,55.283-14.676c29.904-7.957,54.373-14.461,54.377-14.455c0.009,0.006-69.474,29.738-105.544,45.164
		c-5.712,2.441-7.239,3.059-9.924,4.002C102.666,175.754,96.516,176.904,91.546,176.707z"/>
</g>
<g id="PBS">
</g>
<g id="Pepsi">
</g>
<g id="Shell">
</g>
<g id="Starbucks">
</g>
<g id="Taco_Bell">
</g>
<g id="Target">
</g>
<g id="Toyota">
</g>
<g id="Twitter">
</g>
<g id="Univision">
</g>
<g id="UPS">
</g>
<g id="Visa">
</g>
<g id="Volkswagen">
</g>
</svg>
