<?xml version="1.0" encoding="utf-8"?>
<!-- Generator: Adobe Illustrator 16.0.0, SVG Export Plug-In . SVG Version: 6.00 Build 0)  -->
<!DOCTYPE svg PUBLIC "-//W3C//DTD SVG 1.1//EN" "http://www.w3.org/Graphics/SVG/1.1/DTD/svg11.dtd">
<svg version="1.1" xmlns="http://www.w3.org/2000/svg" xmlns:xlink="http://www.w3.org/1999/xlink" x="0px" y="0px" width="300px"
	 height="300px" viewBox="0 0 300 300" style="enable-background:new 0 0 300 300;" xml:space="preserve">
<g id="Guides">
</g>
<g id="ABC">
</g>
<g id="Apple">
</g>
<g id="CBS">
</g>
<g id="CNN">
</g>
<g id="Coke">
</g>
<g id="Dropbox">
</g>
<g id="ESPN">
</g>
<g id="GE">
</g>
<g id="Google">
</g>
<g id="Honda">
</g>
<g id="Hyundai">
</g>
<g id="IBM">
</g>
<g id="Intel">
</g>
<g id="John_Deere">
</g>
<g id="Jumpman">
</g>
<g id="Chase">
</g>
<g id="Girl_Scouts">
</g>
<g id="Mazda">
</g>
<g id="McDonalds">
</g>
<g id="Mercedes">
</g>
<g id="Motorola">
</g>
<g id="MTV">
</g>
<g id="NBC">
</g>
<g id="Nike">
</g>
<g id="PBS">
</g>
<g id="Pepsi">
	<path id="path5_1_" inkscape:connector-curvature="0" style="fill:#FFFFFF;" d="M149.9,193.601c-23.986,0-43.5-19.522-43.5-43.517
		c0-23.995,19.514-43.518,43.5-43.518c23.985,0,43.498,19.522,43.498,43.518C193.398,174.078,173.885,193.601,149.9,193.601
		L149.9,193.601z"/>
	<path id="path7_1_" inkscape:connector-curvature="0" d="M149.9,106.966c23.802,0,43.099,19.304,43.099,43.117
		c0,23.814-19.297,43.117-43.099,43.117c-23.804,0-43.101-19.303-43.101-43.117C106.799,126.27,126.096,106.966,149.9,106.966
		 M149.9,106.166c-24.207,0-43.9,19.702-43.9,43.917C106,174.3,125.693,194,149.9,194c24.205,0,43.898-19.702,43.898-43.917
		S174.105,106.166,149.9,106.166L149.9,106.166z"/>
	<path id="path31" inkscape:connector-curvature="0" d="M174.544,117.412c-0.361-0.269-0.709-0.578-1.052-0.912
		c-6.673-4.701-14.812-7.465-23.592-7.465c-22.659,0-41.029,18.378-41.029,41.047c0,9.188,3.021,17.671,8.119,24.515
		c13.729-4.055,25.708-11.106,35.974-21.303C163.217,143.149,170.421,131.141,174.544,117.412z"/>
	<path id="path33" inkscape:connector-curvature="0" d="M149.9,191.13c22.657,0,41.027-18.38,41.027-41.049
		c0-8.023-2.303-15.506-6.28-21.827c-0.105-0.106-0.2-0.218-0.28-0.343c0.825,2.726,1.254,5.56,1.254,8.498
		c0,4.658-1.076,9.066-3.19,13.194c-2.115,3.942-4.982,7.274-8.604,9.964c-2.868,2.116-6.309,3.907-10.361,5.378
		c-3.225,1.181-7.42,2.4-12.617,3.581l-14.985,3.373c-6.371,1.459-12.173,3.022-17.341,4.622
		C126.048,185.456,137.311,191.13,149.9,191.13z"/>
</g>
<g id="Shell">
</g>
<g id="Starbucks">
</g>
<g id="Taco_Bell">
</g>
<g id="Target">
</g>
<g id="Toyota">
</g>
<g id="Twitter">
</g>
<g id="Univision">
</g>
<g id="UPS">
</g>
<g id="Visa">
</g>
<g id="Volkswagen">
</g>
</svg>
