<?xml version="1.0" encoding="utf-8"?>
<!-- Generator: Adobe Illustrator 16.0.0, SVG Export Plug-In . SVG Version: 6.00 Build 0)  -->
<!DOCTYPE svg PUBLIC "-//W3C//DTD SVG 1.1//EN" "http://www.w3.org/Graphics/SVG/1.1/DTD/svg11.dtd">
<svg version="1.1" xmlns="http://www.w3.org/2000/svg" xmlns:xlink="http://www.w3.org/1999/xlink" x="0px" y="0px" width="300px"
	 height="300px" viewBox="0 0 300 300" style="enable-background:new 0 0 300 300;" xml:space="preserve">
<g id="Guides">
</g>
<g id="ABC">
</g>
<g id="Apple">
</g>
<g id="CBS">
</g>
<g id="CNN">
</g>
<g id="Coke">
	<g>
		<path d="M128.426,172.676c-6.921-4.458-16.313-5.241-31.462-1.038c-16.149,3.795-21.533,6.228-28.604,1.344
			c-2.716-2.398-3.689-6.261-2.963-11.825c1.687-9.07,6.244-17.798,14.342-27.48c4.521-5.036,8.712-9.358,14.248-11.094
			c4.242-1.089,3.846,2.246,3.333,2.723c-0.542,0-1.452,0.085-2.155,0.544c-0.571,0.443-2.138,1.873-2.222,3.795
			c-0.122,2.943,2.925,2.331,4.238,0.715c1.417-1.821,3.51-5.309,1.863-8.559c-0.69-1.157-1.883-1.957-3.362-2.229
			c-5.07-0.29-9.791,2.126-14.146,4.798c-9.53,6.619-17.151,15.791-21.464,25.83c-2.486,6.057-4.736,14.734-1.365,21.796
			c2.608,4.9,8.021,7.503,14.479,6.959c4.53-0.476,10.008-1.94,13.691-2.824c3.684-0.886,22.542-7.368,28.738,3.914
			c0,0,2.061-4,7.21-4.085c4.233-0.391,10.341,1.226,14.788,4.492C136.131,178.224,131.931,174.94,128.426,172.676L128.426,172.676z
			"/>
		<path d="M98.887,134.817c-3.527-2.314-10.615,2.11-16.294,9.698c-5.191,6.807-7.434,14.719-4.994,18.377
			c3.63,4.304,10.368-1.957,13.233-5.309l0.369-0.392c1.948-2.093,3.454-4.611,4.91-7.028c0,0,1.34-2.212,1.404-2.314
			c0.826-0.153,1.825-0.391,2.948-0.714c-0.017,0.051-4.299,7.248-3.861,10.821c0.136,1.09,0.031,5.072,3.919,6.279
			c5.182,0.868,9.318-3.148,12.968-6.721c0,0,0.622-0.595,0.974-0.935c-0.089,0.356-0.205,0.832-0.205,0.832
			c-1.516,5.275,0.528,6.382,1.807,6.79c3.866,1.124,8.484-4.491,8.499-4.491c-0.12,1.768-0.47,3.231,1.394,4.406
			c1.76,0.63,3.542-0.33,4.896-1.232c4.877-3.437,8.806-8.816,11.979-13.466h-2.023c-0.024,0-4.994,7.205-8.223,8.771
			c-0.005,0-0.593,0.301-0.931,0.062c-0.42-0.357-0.254-1.101,0.005-1.627c0.016-0.034,12.462-21.622,12.462-21.622h-5.876
			c0,0-0.642,1.039-0.693,1.106c-0.04-0.034-0.134-0.212-0.2-0.298c-3.641-5.037-11.886,2.71-18.094,11.694
			c-2.389,3.455-5.433,7.344-8.587,10.152c0,0-4.674,4.284-6.671,1.206c-0.73-1.293-0.507-3.185-0.095-4.426
			c2.326-6.619,6.333-12.626,10.892-16.251c1.287-1.002,2.686-1.293,3.381-0.868c0.662,0.392,0.769,1.361,0.35,2.025
			c-1.062-0.034-1.913,0.288-2.604,1.003c-1.363,1.43-1.836,2.808-1.403,4.102c2.105,2.995,6.302-2.927,6.099-6.535
			c-0.072-1.293-0.763-2.518-1.792-3.114c-1.535-0.918-3.876-0.681-5.392,0.051c-2.028,0.766-5.238,3.437-7.113,5.513
			c-2.359,2.604-6.406,5.497-7.671,5.172C99.064,144.431,102.482,137.437,98.887,134.817L98.887,134.817z M127.22,145.163
			c1.144-1.582,4.471-5.819,5.282-6.534c2.727-2.4,3.817-1.344,3.912-0.596c-2.546,4.56-5.551,9.784-8.376,14.48
			c0.005-0.017-0.884,1.344-0.884,1.344c-1.248,1.906-2.505,3.539-4.555,4.679c-0.292,0.086-0.774,0.12-1.094-0.119
			c-0.387-0.255-0.538-0.681-0.496-1.123C121.133,155.831,122.623,151.356,127.22,145.163L127.22,145.163z M95.249,147.901
			c0,0-0.051,0.154-0.075,0.205c-0.008,0-2.563,4.168-2.563,4.168c-1.542,2.059-3.467,4.646-5.875,5.888
			c-0.714,0.238-1.699,0.392-2.202-0.237c-1.065-1.276-0.517-3.046-0.07-4.475l0.158-0.511c1.278-3.471,3.309-6.534,5.284-9.376
			c0.024-0.017,0.08-0.034,0.1-0.034l0.017,0.051c1.239,2.381,3.564,3.487,5.302,3.998c0.011,0,0.022,0.018,0.022,0.051
			C95.346,147.681,95.317,147.75,95.249,147.901z M97.671,142.985c-0.011,0.034-1.139,2.621-1.139,2.621
			c-0.162,0.136-0.421,0.068-0.716,0l-0.506-0.086c-1.588-0.493-2.787-1.549-3.156-2.808c-0.51-2.45,1.584-4.373,2.506-5.07
			c0.885-0.613,2.261-0.937,3.061-0.307c0.491,0.579,0.678,1.328,0.678,2.145C98.398,140.585,98.059,141.828,97.671,142.985
			L97.671,142.985z"/>
		<path d="M171.964,150.879c-0.566-1.225-1.912-2.007-3.345-1.922c-4.655,0.425-9.209,4.254-11.601,9.749
			c-1.254,2.825-1.939,5.156-2.388,8.865c1.448-1.667,4.4-4.406,7.752-5.904c0,0,0.455-3.556,2.78-6.721
			c0.88-1.311,2.64-3.42,4.617-2.859c1.727,0.579,1.12,5.36-1.176,9.988c-1.698,3.403-4.298,6.807-6.928,9.155
			c-2.325,1.974-5.766,4.356-8.775,2.519c-1.896-1.123-2.863-3.471-2.659-6.5c0.906-8.592,4.817-15.909,10.415-24.247
			c5.772-7.742,12.134-15.688,20.704-19.926c1.749-0.885,3.367-1.089,4.767-0.545c0,0-8.046,4.424-11.881,12.609
			c-0.976,2.076-2.332,4.883-0.966,7.367c0.714,1.293,1.982,1.395,3.002,1.327c4.701-1.089,7.739-5.479,10.22-9.494
			c1.44-3.046,2.718-6.075,2.718-9.444c0-0.408-0.021-0.952-0.056-1.361c2.245-1.191,6.851,0.918,6.851,0.918
			c3.6,1.191,11.263,7.062,13.849,8.185c1.261-1.463,3.332-3.675,4.499-4.781l-1.689-1.039c-2.703-1.65-5.562-3.216-8.375-4.764
			c-6.389-3.488-11.589-2.263-14.235-1.31c-1.041,0.374-1.991,0.697-1.991,0.697c-1.964-2.144-5.186-1.94-7.56-1.361
			c-8.536,2.45-16.461,8.422-24.958,18.785c-6.246,8.117-10.121,15.127-12.187,22.052c-1.592,4.662-2.076,11.519,1.81,15.586
			c3.303,3.454,7.685,2.705,10.778,1.464c6.701-3.301,12.726-10.414,15.728-18.598C172.407,156.938,173.212,153.5,171.964,150.879
			L171.964,150.879z M187.375,125.237c-0.886,10.176-8.797,16.148-10.753,16.625c-1.186,0.238-3.209-0.29-1.403-4.56
			c2.66-5.751,7.202-10.635,12.076-13.136C187.413,124.591,187.411,124.863,187.375,125.237L187.375,125.237z"/>
		<path d="M234.294,126.53c-4.255,2.417-8.665,3.982-14.004,3.437c-1.479,1.668-2.92,3.386-4.248,5.156
			c7.494,1.906,15.438-2.331,19.867-6.363c4.687-4.067,7.091-9.188,7.091-9.188S239.487,123.587,234.294,126.53L234.294,126.53z"/>
		<path d="M153.89,135.004h-5.582l-3.147,5.115h5.58L153.89,135.004z"/>
		<path d="M220.269,173.149c-0.601,0.409-1.443,0.095-1.129-0.84c0.785-2.383,3.907-7.237,3.907-7.237l8.694-15.421h-5.955
			c-0.283,0.465-0.89,1.533-0.89,1.533c-0.275-0.458-1.099-1.479-1.438-1.7c-1.456-0.92-3.59-0.485-5.062,0.349
			c-6.403,3.744-11.075,11.141-14.76,16.909c0,0-3.878,6.413-6.03,6.89c-1.682,0.136-1.507-2.128-1.435-2.656
			c0.649-3.812,2.158-7.436,3.68-10.72c3.092-2.144,6.621-4.952,9.829-8.031c6.961-6.653,12.828-14.191,13.686-15.876
			c0,0-0.928,0.188-2.024,0.221c-5.354,7.47-16.313,18.326-19.635,19.942c1.471-3.54,10.979-20.436,19.072-28.518l1.273-1.226
			c1.969-1.922,4.008-3.896,5.599-4.22c0.167-0.018,0.384,0,0.569,0.392c0.072,1.497-0.485,2.604-1.125,3.862l-0.896,1.838
			c0,0,1.269-0.239,2.103-0.512c0.967-1.819,2.038-3.862,1.644-6.294c-0.133-0.783-0.699-1.378-1.439-1.515
			c-2.414-0.459-5.044,1.327-7.161,2.773l-0.085,0.051c-10.882,8.525-20.069,20.81-28.103,37.588
			c-0.583,0.441-2.832,0.969-3.215,0.714c0.793-1.633,1.792-3.829,2.292-6.211c0.087-0.681,0.167-1.378,0.167-2.059
			c0-1.464-0.352-2.842-1.663-3.794c-1.538-0.766-3.439-0.408-4.722,0.17c-5.742,2.382-10.034,8.27-13.131,13.119
			c-1.666,3.08-3.327,6.38-3.786,10.158c-0.324,2.96,0.335,4.866,2.018,5.819c1.731,0.885,3.911-0.035,4.767-0.477
			c5.817-3.063,9.881-9.205,13.086-14.82c0.127-0.017,1.877-0.068,3.2-0.408c0.017,0,0.024,0,0.055,0.018
			c-0.077,0.254-0.761,2.297-0.761,2.297c-2.029,5.955-2.97,10.005-1.052,12.404c2.741,3.386,7.279-0.118,10.972-4.747
			c-0.793,5.546,2.082,6.415,4.272,5.99c2.518-0.681,5.323-3.37,6.625-4.748c-0.419,1.616-0.306,4.509,1.985,4.798
			c1.569,0.29,2.743-0.563,4.103-1.295c4.876-2.655,10.712-11.501,12.227-14.058h-1.986
			C226.456,166.856,223.715,171.125,220.269,173.149L220.269,173.149z M176.507,172.558c-0.309-0.459-0.411-0.962-0.421-1.505
			c-0.06-3.337,3.529-9.312,6.063-12.566h0.006c1.062,2.325,3.466,3.819,4.918,4.449
			C185.27,166.952,179.087,175.552,176.507,172.558L176.507,172.558z M188.09,161.14c-0.172,0.12-3.204-0.901-3.79-3.709
			c-0.497-2.417,1.167-4.306,2.777-5.257c0.692-0.545,1.733-0.731,2.497-0.46c0.708,0.477,0.9,1.329,0.9,2.246
			c0,0.562-0.074,1.141-0.141,1.668l-0.015,0.119C189.814,157.634,189.042,159.49,188.09,161.14z M212.408,171.486
			c-0.002,0-0.575,0.51-0.575,0.51c-0.818,0.731-1.659,1.514-2.676,1.122c-0.28-0.102-0.479-0.475-0.524-0.766
			c-0.046-2.093,0.896-4.032,1.81-5.921l0.233-0.494c2.631-4.39,5.686-9.562,10.174-13.152c0.757-0.546,1.577-1.005,2.444-0.647
			c0.198,0.187,0.431,0.511,0.431,0.834c0,0.102-0.091,0.374-0.143,0.458c-1.255,2.026-2.448,4.152-3.608,6.194
			C217.704,163.659,215.351,167.827,212.408,171.486L212.408,171.486z"/>
	</g>
</g>
<g id="Dropbox">
</g>
<g id="ESPN">
</g>
<g id="GE">
</g>
<g id="Google">
</g>
<g id="Honda">
</g>
<g id="Hyundai">
</g>
<g id="IBM">
</g>
<g id="Intel">
</g>
<g id="John_Deere">
</g>
<g id="Jumpman">
</g>
<g id="Chase">
</g>
<g id="Girl_Scouts">
</g>
<g id="Mazda">
</g>
<g id="McDonalds">
</g>
<g id="Mercedes">
</g>
<g id="Motorola">
</g>
<g id="MTV">
</g>
<g id="NBC">
</g>
<g id="Nike">
</g>
<g id="PBS">
</g>
<g id="Pepsi">
</g>
<g id="Shell">
</g>
<g id="Starbucks">
</g>
<g id="Taco_Bell">
</g>
<g id="Target">
</g>
<g id="Toyota">
</g>
<g id="Twitter">
</g>
<g id="Univision">
</g>
<g id="UPS">
</g>
<g id="Visa">
</g>
<g id="Volkswagen">
</g>
</svg>
