<?xml version="1.0" encoding="utf-8"?>
<!-- Generator: Adobe Illustrator 16.0.0, SVG Export Plug-In . SVG Version: 6.00 Build 0)  -->
<!DOCTYPE svg PUBLIC "-//W3C//DTD SVG 1.1//EN" "http://www.w3.org/Graphics/SVG/1.1/DTD/svg11.dtd">
<svg version="1.1" xmlns="http://www.w3.org/2000/svg" xmlns:xlink="http://www.w3.org/1999/xlink" x="0px" y="0px" width="300px"
	 height="300px" viewBox="0 0 300 300" style="enable-background:new 0 0 300 300;" xml:space="preserve">
<g id="Guides">
</g>
<g id="ABC">
</g>
<g id="Apple">
	<g>
		<path d="M178.794,158.718c-2.467-3.544-3.699-7.523-3.699-11.935c0-4.03,1.164-7.713,3.492-11.049
			c1.284-1.841,3.317-3.943,6.098-6.306c-1.842-2.259-3.701-4.048-5.577-5.368c-3.336-2.293-7.14-3.44-11.414-3.44
			c-2.605,0-5.681,0.609-9.225,1.825c-3.545,1.216-6.098,1.824-7.661,1.824c-1.217,0-3.684-0.539-7.401-1.616
			c-3.684-1.077-6.828-1.615-9.434-1.615c-6.115,0-11.188,2.571-15.219,7.714c-3.996,5.143-5.993,11.796-5.993,19.961
			c0,8.791,2.623,17.755,7.869,26.895c5.247,9.243,10.598,13.861,16.053,13.861c1.808,0,4.152-0.608,7.036-1.823
			c2.919-1.178,5.473-1.772,7.661-1.772c2.189,0,4.865,0.571,8.026,1.72c3.197,1.149,5.699,1.72,7.506,1.72
			c4.552,0,9.138-3.492,13.759-10.475c3.058-4.654,5.246-9.123,6.568-13.396C184.076,164.502,181.262,162.262,178.794,158.718z"/>
		<path d="M161.31,116.7c2.259-2.258,3.909-4.708,4.951-7.348c1.042-2.641,1.563-5.073,1.563-7.297c0-0.347-0.018-0.694-0.052-1.042
			c-0.035-0.347-0.121-0.747-0.261-1.198c-6.22,1.424-10.685,4.064-13.395,7.921c-2.676,3.857-4.048,8.426-4.117,13.708
			c2.467-0.208,4.309-0.503,5.524-0.886C157.436,119.897,159.364,118.612,161.31,116.7z"/>
	</g>
</g>
<g id="CBS">
</g>
<g id="CNN">
</g>
<g id="Coke">
</g>
<g id="Dropbox">
</g>
<g id="ESPN">
</g>
<g id="GE">
</g>
<g id="Google">
</g>
<g id="Honda">
</g>
<g id="Hyundai">
</g>
<g id="IBM">
</g>
<g id="Intel">
</g>
<g id="John_Deere">
</g>
<g id="Jumpman">
</g>
<g id="Chase">
</g>
<g id="Girl_Scouts">
</g>
<g id="Mazda">
</g>
<g id="McDonalds">
</g>
<g id="Mercedes">
</g>
<g id="Motorola">
</g>
<g id="MTV">
</g>
<g id="NBC">
</g>
<g id="Nike">
</g>
<g id="PBS">
</g>
<g id="Pepsi">
</g>
<g id="Shell">
</g>
<g id="Starbucks">
</g>
<g id="Taco_Bell">
</g>
<g id="Target">
</g>
<g id="Toyota">
</g>
<g id="Twitter">
</g>
<g id="Univision">
</g>
<g id="UPS">
</g>
<g id="Visa">
</g>
<g id="Volkswagen">
</g>
</svg>
