<?xml version="1.0" encoding="utf-8"?>
<!-- Generator: Adobe Illustrator 16.0.0, SVG Export Plug-In . SVG Version: 6.00 Build 0)  -->
<!DOCTYPE svg PUBLIC "-//W3C//DTD SVG 1.1//EN" "http://www.w3.org/Graphics/SVG/1.1/DTD/svg11.dtd">
<svg version="1.1" xmlns="http://www.w3.org/2000/svg" xmlns:xlink="http://www.w3.org/1999/xlink" x="0px" y="0px" width="300px"
	 height="300px" viewBox="0 0 300 300" style="enable-background:new 0 0 300 300;" xml:space="preserve">
<g id="Guides">
</g>
<g id="ABC">
</g>
<g id="Apple">
</g>
<g id="CBS">
</g>
<g id="CNN">
</g>
<g id="Coke">
</g>
<g id="Dropbox">
</g>
<g id="ESPN">
</g>
<g id="GE">
</g>
<g id="Google">
</g>
<g id="Honda">
</g>
<g id="Hyundai">
</g>
<g id="IBM">
</g>
<g id="Intel">
</g>
<g id="John_Deere">
</g>
<g id="Jumpman">
</g>
<g id="Chase">
</g>
<g id="Girl_Scouts">
</g>
<g id="Mazda">
</g>
<g id="McDonalds">
</g>
<g id="Mercedes">
</g>
<g id="Motorola">
</g>
<g id="MTV">
	<path d="M130.602,157.248v28.753l4.85-3.655v-20.199L130.602,157.248L130.602,157.248z"/>
	<path d="M141.02,163.962l6.314-1.441l2.55-2.094v-3.791L141.02,163.962L141.02,163.962z"/>
	<path d="M140.227,118.237l-8.92-4.112l8.063,9.037l3.053-3.014L140.227,118.237L140.227,118.237z"/>
	<path d="M201.879,122.878c-0.813-0.556-2.271-0.834-3.715-0.707c-1.372,0.114-2.284,0.786-3.035,1.408
		c0.01-0.007-1.955,1.938-1.955,1.938l-0.525,0.84c-0.007,0.01-1.753,2.193-1.753,2.193l-0.021,0.023v-12.105l-5.357-3.223
		l0.003,21.989l-0.069,0.105l-1.284,1.509v-23.604h-33.121l-11.782,11.722l-10.465-11.722H96.13v72.674h33.225v-32.014l9.78,10.088
		l12.01-10.236v32.162h33.03l-0.003-30.667c0.258-0.439,0.469-0.79,0.469-0.79c0.004-0.011,0.281-0.411,0.281-0.411
		c0.017-0.019,0.298-0.469,0.605-0.958l0.003,32.826l5.346-3.69v-38.722l0.585-0.873c0.05-0.083,0.823-1.24,0.823-1.24
		c0-0.004,1.231-1.81,1.231-1.81c0.013-0.03,0.47-0.608,0.47-0.608l1.138-1.611c0.224-0.519,0.866-0.863,1.11-0.991l0.116-0.063
		l0.156-0.112l0.592-0.6c0.009-0.013,1.028-0.873,1.028-0.873l1.74-0.81l1.624-0.894c0.006-0.003,1.488-1.828,1.488-1.828
		l0.791-2.455c0.003-0.003,0.23-2.378,0.23-2.378C203.95,125.154,203.038,123.659,201.879,122.878 M162.076,142.645
		c0.037,0.231,0.162,2.381,0.156,2.735c-0.007,1.065,0.066,2.239,0.033,2.713c-0.027,0.36,0.022,1.604,0.022,1.604
		c0.09,0.982,0.302,2.058,0.321,2.249c0.043,0.503-0.146,2.412-0.09,2.845c0.007,0.09,0.162,0.887,0.13,1.075
		c-0.086,0.496,0.059,1.095,0.043,1.319c-0.026,0.395-0.043,0.844-0.057,1.323c-0.026,0.711-0.05,1.445-0.116,2.087
		c-0.02,0.163,0.004,1.283,0.004,1.283c-0.129,1.128-0.268,2.293-0.076,3.46c0.037,0.234-0.01,1.006,0.011,1.142
		c0.029,0.175,0.277,1.081,0.313,1.279c0.053,0.298,0.165,1.678,0.314,1.995c0.146,0.321,0.737,1.727,0.79,1.895
		c0.176,0.533,0.443,1.816,0.202,2.472c-0.229,0.618-0.572,2.09-0.813,2.457c-0.208,0.321-0.522,0.51-0.671,0.741
		c-0.143,0.215-0.424,0.413-0.658,0.506c-0.729,0.284-2.019,0.483-3.137,0.143c-0.453-0.135-1.138-0.093-1.908-0.559
		c-0.628-0.381-0.844-1.423-0.933-1.982c-0.043-0.261,0.033-0.959,0.017-1.067c-0.02-0.159-0.258-1.191-0.258-1.522
		c-0.004-0.165,0.057-0.863-0.02-1.322c-0.096-0.592-0.385-1.555-0.385-1.555c-0.079-0.394-0.29-1.247-0.3-1.273
		c-0.229-0.639-0.341-1.261-0.407-1.789c-0.123-0.973,0.119-1.783,0.334-2.5c0.123-0.414,0.238-0.801,0.288-1.191
		c0.032-0.281-0.186-1.613-0.143-2.061c0.013-0.182,0.162-0.761,0.169-0.837c0.056-0.377,0.069-1.383,0.072-1.538
		c0.004-0.202,0.139-1.049,0.122-1.925c-0.006-0.345-0.043-0.701,0-1.062c0.044-0.385,0.076-1.364,0.004-1.816
		c-0.116-0.691-0.069-1.31-0.073-1.34c-0.049-0.724-0.093-1.485-0.049-2.133c0.006-0.104-0.119-1.201-0.123-1.542
		c-0.006-0.215-0.02-1.561-0.033-1.72c-0.287-3.351-0.74-3.992-0.923-4.115c-0.182-0.119-0.675-0.111-0.956,0.021
		c-0.215,0.1-0.773,0.585-1.247,0.84c-0.462,0.245-1.326,0.655-1.621,0.873c-0.34,0.259-0.899,0.691-1.987,1.287
		c-0.274,0.148-0.483,0.403-0.73,0.628c-0.36,0.318-1.035,1-2.127,1.552c-0.536,0.268-1.012,0.582-1.396,0.956
		c-0.158,0.159-0.743,1.138-1.121,1.505c-0.367,0.351-0.599,0.844-0.665,0.995c-0.191,0.411-0.399,0.87-0.804,1.171
		c-0.625,0.467-1.987,0.554-2.812,0.209c-0.525-0.218-1.574-0.923-2.03-2.144c-0.46-1.217-0.076-2.778,0.833-3.79
		c0.599-0.666,1.532-0.933,2.438-1.188c0.56-0.158,1.092-0.311,1.502-0.538c0.202-0.112,0.847-0.596,0.982-0.685
		c0.205-0.136,0.936-0.489,1.078-0.582c0.133-0.09,0.903-0.761,1.419-1.053c0.854-0.476,1.532-0.859,1.932-1.111
		c0,0,1.175-0.661,1.936-1.382c0.172-0.166,0.902-0.438,1.703-0.891c0.202-0.115,1.038-0.396,1.25-0.489
		c0.146-0.069,0.728-0.496,0.9-0.586c0.75-0.39,1.128-0.856,0.916-2.017c-0.076-0.404-0.199-0.814-0.156-1.301
		c0.014-0.118,0.185-0.85,0.463-1.353c0.139-0.258,0.357-0.251,0.48-0.489c0.122-0.245,0.552-0.45,0.836-0.522
		c0.199-0.191,0.608-0.397,1.089-0.48c1.052-0.175,2.404,0.596,2.6,0.635c0.37,0.084,0.999,0.027,1.329-0.068
		c0.066-0.014,0.497-0.295,0.655-0.354c0.212-0.079,0.89-0.265,1.028-0.313c0.209-0.073,1.175-0.579,1.419-0.672
		c0.252-0.097,0.834-0.201,1.122-0.268c0.46-0.328,1.322-0.609,1.653-0.894c0.374-0.327,0.879-1.111,0.985-1.25
		c0.195-0.258,1.148-0.899,1.284-1.003c0.311-0.244,1.021-0.743,1.505-0.883c0.231-0.066,0.909,0.073,1.322,0.069
		c0.464,0,1.111,0.026,1.602,0.768c0.244,0.374,0.655,0.754,0.761,1.271c0.317,1.609-0.887,3.207-1.8,3.777
		c-0.092,0.056-0.535,0.186-0.808,0.273c-0.38,0.126-0.767,0.404-1.024,0.474c-0.513,0.136-0.765,0.492-0.977,0.605
		c-0.207,0.109-0.916,0.545-1.144,0.672c-0.176,0.093-0.464,0.502-0.982,0.654c-0.351,0.105-1.082,0.314-1.664,0.827
		c-0.241,0.212-1.224,0.413-1.505,0.477c-0.105,0.025-1.359,0.556-1.485,1.29c-0.132,0.771-0.022,0.975-0.169,2.08
		C161.977,141.408,162.023,142.218,162.076,142.645 M202.918,128.562c-0.096,0.449-0.347,1.561-0.704,2.212
		c-0.156,0.288-0.774,1.201-1.244,1.552c-0.456,0.337-1.117,0.671-1.396,0.771c-0.258,0.092-1.521,0.682-1.862,0.864
		c-0.611,0.33-0.939,0.7-1.26,1.054c-0.166,0.186-0.328,0.358-0.522,0.53c-0.076,0.066-1.197,0.525-1.604,1.475
		c-0.248,0.576-1.366,1.77-1.555,2.113c-0.277,0.496-0.688,1.244-1.098,1.645c-0.123,0.119-0.255,0.301-0.394,0.513
		c-0.129,0.191-0.262,0.406-0.403,0.642l-0.112,0.179c-0.266,0.437-0.562,0.933-0.734,1.114c-0.428,0.46-0.675,1.056-0.876,1.541
		c-0.08,0.188-0.781,1.191-1.046,1.89c-0.116,0.313-0.725,1.332-0.79,1.488c-0.13,0.327-0.913,1.088-0.989,1.236
		c-0.112,0.229-0.215,0.539-0.321,0.863c-0.093,0.295-0.334,0.873-0.417,1.098l-0.374,0.612l-0.016,0.022
		c-0.103,0.17-0.205,0.338-0.314,0.514c-0.245,0.396-0.493,0.787-0.655,1.038c-0.108,0.139-0.218,0.301-0.313,0.446
		c-0.156,0.229-1.294,2.171-1.555,2.633c-0.116,0.212-0.258,0.421-0.403,0.645c-0.348,0.52-0.705,1.049-0.877,1.711
		c-0.109,0.409-0.423,1.088-0.446,1.147c-0.447,1.098-0.619,2.278-0.665,2.613c-0.07,0.546-0.053,1.095-0.03,1.627
		c0.023,0.572,0.044,1.114-0.049,1.595c-0.173,0.889-0.52,1.766-0.979,2.467c-0.122,0.191-0.556,0.784-1.068,1.261
		c-0.374,0.347-0.985,0.489-2.107,0.499c-1.518,0.006-2.169-0.556-2.977-1.743c-0.132-0.191-0.391-0.69-0.704-1.362
		c-0.403-0.857-0.734-1.642-1.021-2.674c-0.09-0.311-0.216-0.653-0.332-0.987c-0.132-0.364-0.416-1.39-0.439-1.558
		c-0.026-0.17-0.384-1.363-0.406-1.479c-0.139-0.731-0.331-1.41-0.52-2.064c-0.191-0.675-0.374-1.312-0.486-1.971
		c-0.109-0.632-0.446-1.654-0.695-2.396c0,0-0.476-1.51-0.628-2.05c-0.208-0.731-0.89-2.748-0.89-2.748
		c-0.255-0.688-0.857-2.303-0.9-2.561c-0.356-2.097-0.354-3.787,0.023-4.524c0.169-0.338,0.748-0.658,1.214-0.916
		c0.155-0.09,0.923-0.586,1.088-0.629c0.477-0.129,1.273-0.169,1.945-0.1c0.089,0.01,0.912,0.018,1.211,0.229
		c1.107,0.771,1.187,1.767,1.332,3.575c0,0,0.191,1.945,0.284,2.676c0.066,0.54,0.14,1.099,0.196,1.65
		c0.035,0.381,0.056,0.798,0.072,1.198c0.026,0.724,0.277,2.105,0.277,2.105c0.248,0.831,0.486,1.622,1.459,2.032
		c0.265,0.109,0.565,0.089,0.851-0.069c0.664-0.354,1.27-1.433,1.501-2.677c0.014-0.068,0.112-0.212,0.208-0.35
		c0.232-0.321,0.547-0.765,0.708-1.492c0.05-0.182,0.496-0.797,0.761-1.164c0.271-0.374,0.523-0.725,0.672-0.989
		c0.049-0.089,1.154-1.812,1.154-1.812s0.427-0.949,0.608-1.304c0.182-0.36,0.341-0.79,0.357-0.862
		c0.089-0.371,0.271-1.148,0.635-1.578c0.496-0.585,1.035-1.901,1.062-1.957c0.119-0.226,0.443-0.785,0.745-1.277l0.065-0.089
		v-0.004l0.022-0.026c0.133-0.176,0.305-0.407,0.438-0.566l0.952-1.128c0.194-0.211,0.391-0.43,0.565-0.667
		c0.186-0.245,0.579-0.824,0.927-1.337c0.212-0.321,0.823-1.117,1.012-1.316c0.186-0.191,1.575-2.061,1.79-2.345
		c0.089-0.115,0.658-0.695,1.002-1.041l0.003-0.008c0.477-0.479,0.651-0.655,0.715-0.737c0.277-0.374,0.579-0.737,0.87-1.091
		c0.291-0.354,0.588-0.715,0.873-1.096c0.125-0.158,0.446-0.734,0.531-0.847c0.302-0.396,1.773-1.756,1.817-1.792
		c0.685-0.566,1.441-1.119,2.553-1.214c1.218-0.106,2.514,0.125,3.155,0.562c0.92,0.619,1.697,1.876,1.736,2.799
		C203.169,127.285,203.103,127.645,202.918,128.562"/>
</g>
<g id="NBC">
</g>
<g id="Nike">
</g>
<g id="PBS">
</g>
<g id="Pepsi">
</g>
<g id="Shell">
</g>
<g id="Starbucks">
</g>
<g id="Taco_Bell">
</g>
<g id="Target">
</g>
<g id="Toyota">
</g>
<g id="Twitter">
</g>
<g id="Univision">
</g>
<g id="UPS">
</g>
<g id="Visa">
</g>
<g id="Volkswagen">
</g>
</svg>
