<?xml version="1.0" encoding="utf-8"?>
<!-- Generator: Adobe Illustrator 16.0.0, SVG Export Plug-In . SVG Version: 6.00 Build 0)  -->
<!DOCTYPE svg PUBLIC "-//W3C//DTD SVG 1.1//EN" "http://www.w3.org/Graphics/SVG/1.1/DTD/svg11.dtd">
<svg version="1.1" xmlns="http://www.w3.org/2000/svg" xmlns:xlink="http://www.w3.org/1999/xlink" x="0px" y="0px" width="300px"
	 height="300px" viewBox="0 0 300 300" style="enable-background:new 0 0 300 300;" xml:space="preserve">
<g id="Guides">
</g>
<g id="ABC">
</g>
<g id="Apple">
</g>
<g id="CBS">
</g>
<g id="CNN">
</g>
<g id="Coke">
</g>
<g id="Dropbox">
</g>
<g id="ESPN">
</g>
<g id="GE">
</g>
<g id="Google">
</g>
<g id="Honda">
</g>
<g id="Hyundai">
</g>
<g id="IBM">
</g>
<g id="Intel">
</g>
<g id="John_Deere">
</g>
<g id="Jumpman">
</g>
<g id="Chase">
</g>
<g id="Girl_Scouts">
</g>
<g id="Mazda">
</g>
<g id="McDonalds">
</g>
<g id="Mercedes">
</g>
<g id="Motorola">
</g>
<g id="MTV">
</g>
<g id="NBC">
</g>
<g id="Nike">
</g>
<g id="PBS">
</g>
<g id="Pepsi">
</g>
<g id="Shell">
</g>
<g id="Starbucks">
</g>
<g id="Taco_Bell">
</g>
<g id="Target">
</g>
<g id="Toyota">
</g>
<g id="Twitter">
</g>
<g id="Univision">
</g>
<g id="UPS">
</g>
<g id="Visa">
	<path d="M116.078,125.584l-12.592,33.945l-1.346-6.903c-3.539-9.827-12.341-15.243-16.782-16.812l10.488,39.479l13.61-0.032
		l20.243-49.675h-13.622V125.584z M126.865,175.33l8.033-49.785h12.865l-8.045,49.785H126.865z M186.356,126.767
		c-2.548-1.001-6.554-2.089-11.536-2.089c-12.699,0-21.652,6.755-21.725,16.43c-0.081,7.153,6.381,11.142,11.267,13.523
		c5.003,2.439,6.694,3.998,6.669,6.178c-0.036,3.338-3.996,4.86-7.697,4.86c-5.147,0-7.88-0.75-12.107-2.606l-1.654-0.791
		l-1.799,11.135c3.002,1.39,8.555,2.596,14.317,2.662c13.522,0,22.292-6.676,22.397-17.016c0.038-5.672-3.395-9.971-10.794-13.521
		c-4.509-2.305-7.258-3.835-7.226-6.17c0-2.075,2.324-4.29,7.361-4.29c4.207-0.067,7.251,0.904,9.622,1.911l1.15,0.573
		L186.356,126.767L186.356,126.767z M219.324,125.592h-9.935c-3.082,0-5.386,0.88-6.73,4.127l-19.104,45.628h13.506
		c0,0,2.212-6.133,2.704-7.489c1.481,0,14.6,0.026,16.468,0.026c0.387,1.737,1.565,7.463,1.565,7.463h11.925L219.324,125.592z
		 M203.462,157.678c1.066-2.865,5.121-13.916,5.121-13.916c-0.073,0.132,1.063-2.882,1.708-4.751l0.881,4.294
		c0,0,2.452,11.88,2.968,14.371C212.135,157.678,205.981,157.678,203.462,157.678L203.462,157.678z M91.81,125.562H71.083
		l-0.164,1.031c18.036,4.615,26.557,13.424,31.229,26.044l-4.507-22.877C96.864,126.605,94.606,125.671,91.81,125.562z"/>
</g>
<g id="Volkswagen">
</g>
</svg>
