<svg xmlns="http://www.w3.org/2000/svg" width="300" height="300" viewBox="0 0 300 300"><path d="M148.189 105.296c8.982-.684 18.149 1.415 25.945 5.924 6.236 3.596 11.629 8.669 15.532 14.724 4.848 7.402 7.41 16.264 7.337 25.111-.058 9.246-3 18.459-8.379 25.988-5.456 7.723-13.387 13.669-22.339 16.712-7.949 2.75-16.662 3.183-24.867 1.346-8.601-1.919-16.593-6.442-22.705-12.789-6.479-6.71-10.864-15.445-12.204-24.685-1.318-8.232-.229-16.817 2.986-24.499 2.986-7.145 7.848-13.477 13.932-18.255 7.054-5.562 15.798-8.955 24.762-9.577m-.01 2.185c-5.337.381-10.586 1.81-15.41 4.117-7.764 3.742-14.402 9.821-18.707 17.293-6.413 10.779-7.65 24.418-3.447 36.218 2.696 7.672 7.62 14.517 13.986 19.566 7.396 5.869 16.754 9.249 26.203 9.33 6.899.15 13.831-1.416 19.992-4.523 7.848-3.884 14.442-10.235 18.656-17.906 4.211-7.615 6.061-16.536 5.123-25.193-1.247-14.049-10.023-27.067-22.407-33.74-7.264-4.003-15.72-5.836-23.989-5.162zm-7.661 4.118c7.564-2.111 15.752-2.021 23.234.394.325.103.575.343.831.556-1.235-.091-2.367-.648-3.581-.857-3.06-.611-6.229-.913-9.329-.452-1.943.351-3.98 1.101-5.213 2.725-.927 1.204-1.026 3.098.05 4.241 1.193 1.263 3.311 1.194 4.636.175 1.562-1.148 3.076-2.517 5.028-2.942 3.964-.982 8.121-.193 11.96.949 4.611 1.257 8.972 3.533 12.51 6.76 5.895 5.206 9.438 12.684 10.782 20.352 1.173 6.542.82 13.378-1.209 19.716-.072.298-.261.471-.568.519 1.177-4.317 2.051-8.897 1.171-13.354-.462-2.151-1.521-4.577-3.785-5.312-1.733-.614-3.843.578-3.983 2.462-.331 2.016 1.317 3.469 2.345 4.979 2.203 3.164 1.931 7.266 1.393 10.895-1.013 4.914-2.653 9.806-5.63 13.897-4.594 6.595-11.912 10.947-19.646 12.807-6.72 1.606-13.842 1.597-20.551-.058-.883-.264-1.889-.383-2.572-1.059 1.278-.003 2.464.552 3.716.75 3.42.623 6.993 1.007 10.409.151 1.55-.427 3.117-1.164 4.091-2.489.902-1.238.884-3.133-.225-4.238-.961-1.014-2.56-1.224-3.786-.584-1.458.789-2.571 2.087-4.061 2.833-3.001 1.458-6.483 1.244-9.687.704-5.309-1.042-10.555-2.968-14.836-6.354-5.684-4.369-9.621-10.739-11.549-17.601-2.041-7.183-2.055-14.902-.193-22.123.323-.748.199-1.93 1.051-2.284-1.088 4.127-1.949 8.451-1.287 12.727.337 1.897 1.003 3.908 2.573 5.141 1.089.9 2.792 1.229 3.997.367 1.284-.752 1.708-2.534 1.111-3.853-.627-1.484-1.901-2.566-2.631-3.997-1.575-2.88-1.403-6.318-.984-9.472.88-5.051 2.595-10.041 5.574-14.255 4.423-6.415 11.385-10.802 18.844-12.816m1.023 15.337c-2.466 1.328-4.159 3.703-5.4 6.152-1.317 2.516-1.862 5.328-2.12 8.128-1.217-.162-2.196-1.105-2.476-2.288-.568-1.729.032-3.506.341-5.213.137-.496-.24-.9-.441-1.307-1.034-.063-2.091.445-2.562 1.395-1.408 2.633-1.284 6.184.664 8.52 1.116 1.413 2.88 2.113 4.633 2.301.592 1.821 1.747 3.598 3.604 4.312 2.271.917 4.768-.044 6.742-1.238-.072.733-.109 1.483-.366 2.182-.693.559-1.538.886-2.313 1.318-3.811 2.007-7.691 4.03-10.893 6.955-2.334 2.189-4.168 5.102-4.52 8.329-.173 2.537.839 5.319 3.062 6.715 2.32 1.537 5.384 1.452 7.914.499 3.191-1.216 5.57-3.924 7.145-6.878 2.327-4.182 2.727-9.06 3.064-13.738.094-.547-.022-1.323.621-1.561 3.802-2.138 7.496-4.465 11.029-7.026.417.516.83 1.032 1.224 1.562-1.818 1.085-3.631 2.254-5.003 3.896-5.135 5.614-5.22 15.252.162 20.73 2.75 2.903 6.979 4.144 10.894 3.562 3.599-.511 6.872-2.774 8.688-5.911 2.42-3.995 2.024-9.581-1.122-13.067-2.944-3.251-8.675-3.188-11.551.114-2.265 2.382-2.339 6.593.023 8.926.958.955 2.625 1.531 3.827.709.775-.559.701-1.751.076-2.398-.808-.977-1.766-2.108-1.523-3.472.241-1.774 2.226-2.86 3.896-2.483 1.431.223 2.572 1.34 3.103 2.648 1.253 2.979.542 6.671-1.705 8.991-2.383 2.483-6.525 2.874-9.4 1.034-2.553-1.571-4.005-4.485-4.454-7.376-.47-3.485.199-7.246 2.36-10.089 1.393-1.798 3.335-3.275 5.568-3.81 1.876.144 3.821.481 5.659-.118.863-.295 1.705-1.263 1.266-2.208-.476-.973-1.646-1.264-2.62-1.467-1.454-.289-2.902.099-4.324.37-.993-.341-1.519-1.383-1.887-2.302 2.762-2.063 5.49-4.306 7.367-7.241 1.09-1.763 1.8-3.928 1.287-5.999-.404-1.373-1.529-2.539-2.965-2.801-2.394-.604-4.842.605-6.469 2.319-2.612 2.836-3.939 6.767-3.818 10.602-.035.793.273 1.624.048 2.385-1.959 1.58-4.148 2.851-6.259 4.215-1.214.705-2.369 1.517-3.656 2.085.021-1.221.085-2.459.436-3.635.927-1.27 2.092-2.372 2.83-3.78.539-.973 1.048-2.202.487-3.274-.516-.796-1.654-.719-2.399-.322-1.59.799-2.462 2.482-3.103 4.061-.44 1.009-.49 2.262-1.432 2.977-1.309 1.144-2.889 2.296-4.709 2.229-1.04.006-1.733-.974-1.953-1.893 2.877-1.117 5.279-3.201 7.226-5.557 1.804-2.317 3.235-5.052 3.479-8.017.135-1.493-.398-3.186-1.763-3.967-1.709-.93-3.847-.665-5.519.215zm1.648 2.741c.669-.507 1.771-.292 2.088.525.244 1.006-.127 2.026-.557 2.926-1.218 2.487-3.037 4.646-5.116 6.455-.515.47-1.115.835-1.75 1.116.086-2.211.845-4.345 1.785-6.328.876-1.757 1.888-3.564 3.55-4.694zm21.504.863c.592-.682 1.609-1.364 2.511-.899.991.585.474 1.897.083 2.701-1.362 2.512-3.38 4.63-5.57 6.438-.032-2.98 1.035-5.979 2.976-8.24zm-29.45 28.899c2.568-2.16 5.415-4.014 8.463-5.423-.322 3.37-1.111 6.71-2.385 9.846-1.093 2.526-2.713 5.125-5.398 6.159-1.393.522-3.207.851-4.412-.25-1.142-1.012-1.064-2.729-.731-4.088.692-2.533 2.555-4.53 4.463-6.244z"/></svg>