<svg xmlns="http://www.w3.org/2000/svg" width="300" height="300" viewBox="0 0 300 300"><path d="M125.136 124.282c1.39-.269 2.309-.262 2.636.088.205.217.262.589-.004 1.055-.144.248-.295.464-.577.798-11.806 13.91-20.798 34.443-23.354 40.365-.194.415-.388.82-.539 1.087-.232.418-.551.755-1.117.798-.312.011-.745-.058-1.397-.45-7.837-4.837-12.486-10.848-12.486-17.383 0-11.798 15.163-21.925 36.838-26.358m12.098 8.872c1.109-2.575 3.03-8.094 7.431-10.28 1.337-.669 2.981-.979 4.455-1.025h.672c12.318 0 23.779 1.709 33.389 4.633l.361.137c.893.3 1.34.706 1.34 1.207 0 .448-.228.775-.54 1.09-.144.141-.341.312-.61.54-2.214 1.853-8.894 6.679-21.471 11.486-4.413 1.687-9.934 3.786-15.702 5.013-3.39.717-15.959 2.63-9.325-12.801m58.668.44c.229-.418.551-.764 1.113-.805.323-.012.741.064 1.397.456 7.83 4.829 12.49 10.853 12.49 17.387 0 11.795-15.167 21.919-36.838 26.347-1.397.269-2.309.269-2.639-.079-.205-.233-.262-.598.007-1.06.136-.244.292-.464.574-.798 11.806-13.914 20.805-34.445 23.357-40.366.19-.417.384-.817.539-1.082m-33.735 34.465c-1.113 2.578-3.026 8.092-7.439 10.287-1.322.652-2.974.979-4.458 1.014-.323.019-.559.012-.657.012-12.319 0-23.783-1.71-33.397-4.633l-.354-.145c-.896-.297-1.348-.694-1.348-1.2 0-.444.231-.778.555-1.086.128-.142.334-.314.604-.532 2.21-1.859 8.89-6.694 21.466-11.502 4.416-1.686 9.938-3.789 15.706-5.013 3.387-.713 15.956-2.624 9.322 12.798m-12.565 16.768c36.872 0 66.757-15.308 66.757-34.175 0-18.901-29.886-34.188-66.757-34.188-36.865 0-66.757 15.286-66.757 34.188 0 18.868 29.892 34.175 66.757 34.175"/></svg>