<svg xmlns="http://www.w3.org/2000/svg" width="300" height="300" viewBox="0 0 300 300"><g><path d="M104.195 135.72c-5.02 4.533-6.848 14.805 2.202 20.81l36.1 24.706-17.504-40.004c-3.668-9.439-13.701-11.499-20.798-5.512M135.27 116.27c-5.868.119-14.68 7.09-10.758 17.735l18.104 42.592 6.36-44.799c1.472-11.131-6.971-16.271-13.706-15.528M151.801 130.089h3.424s1.828 0 2.076.86c-1.347 1.098-5.014 1.235-4.527 7.098l5.755 38.544 17.979-42.704c3.679-9.535-4.042-17.498-10.889-17.742-.32-.023-.641-.041-.973-.041-6.146 0-13.189 4.456-12.845 13.985M175.785 141.595l-17.006 39.524 36.088-24.838c8.319-5.887 6.978-15.297 2.32-19.949-1.952-2.189-5.536-3.881-9.332-3.881-4.487-.001-9.287 2.373-12.07 9.144M190.827 161.905l-33.893 23.616h41.73c8.562 0 14.063-8.807 11.618-16.888-1.638-5.079-6.485-9.066-12.11-9.072-2.367.001-4.877.712-7.345 2.344M103.223 185.521h41.114l-33.899-23.616c-7.832-5.021-16.638-2.083-19.817 6.247-2.696 9.537 4.033 17.369 12.602 17.369"/></g></svg>