<svg xmlns="http://www.w3.org/2000/svg" width="300" height="300" viewBox="0 0 300 300"><path d="M104.637 150.529c0-25.256 20.469-45.717 45.717-45.717 25.247 0 45.717 20.461 45.717 45.717 0 25.24-20.469 45.709-45.717 45.709-25.25 0-45.717-20.468-45.717-45.709m71.928.325h4.941l-11.102-25.317h-7.271l11.141 25.317h-5.073v6.723c.016 4.071-1.696 5.812-7.231 5.735v12.968h7.208v-12.968h2.382c2.104.062 4.965-1.649 5.004-4.979l.001-7.479zm-34.922-25.318c-11.133 0-20.3 7.771-20.3 19.304 0 9.698 5.844 16.622 14.556 17.946v13.492h18.133v-12.968h2.521c2.944-.277 4.934-2.22 4.965-4.957v-7.5h4.941l-11.241-25.317h-13.575zm10.012 21.964c2.584 0 4.673-2.09 4.673-4.68 0-2.583-2.089-4.673-4.673-4.673-2.582 0-4.679 2.089-4.679 4.673.001 2.59 2.097 4.68 4.679 4.68"/></svg>