<svg xmlns="http://www.w3.org/2000/svg" width="300" height="300" viewBox="0 0 300 300"><path d="M103.23 107.308c-.734.107-1.442 2.815-2.863 4.228-1.037 1.017-2.337.955-3.023 2.213-.264.469-.178 1.272-.474 2.041-.582 1.541-2.623 1.679-2.623 3.357-.007 1.813 1.701 2.158 3.184 3.448 1.156 1.033 1.268 1.747 2.667 2.251 1.197.404 2.975-.922 4.575-.444 1.312.39 2.571.671 2.869 2.021.263 1.247-.02 3.173-1.612 2.951-.537-.062-2.869-.845-5.728-.54-3.455.394-7.394 1.52-7.78 5.371-.213 2.148 2.45 4.687 5.021 4.171 1.775-.347.937-2.444 1.901-3.461 1.271-1.306 8.461 4.552 15.142 4.552 2.813 0 4.906-.712 6.985-2.889.192-.167.431-.521.73-.545.283.023.777.303.94.421 5.38 4.324 9.449 13.003 29.229 13.103 2.784.017 5.95 1.346 8.539 3.705 2.309 2.133 3.656 5.456 4.969 8.822 1.981 5.055 5.525 9.971 10.906 15.439.293.293 4.721 3.735 5.076 3.992.055.039.381.814.268 1.248-.131 3.281-.608 12.818 6.503 13.251 1.737.088 1.283-1.134 1.283-1.974-.004-1.662-.307-3.313.568-5.016 1.196-2.339-2.54-3.414-2.431-8.473.077-3.771-3.092-3.129-4.697-6.002-.926-1.665-1.749-2.547-1.69-4.582.362-11.457-2.438-18.986-3.832-20.836-1.092-1.395-1.991-1.948-.996-2.594 5.935-3.923 7.28-7.566 7.28-7.566 3.157-7.418 5.994-14.193 9.908-17.178.786-.616 2.809-2.125 4.048-2.717 3.653-1.721 5.574-2.767 6.636-3.798 1.677-1.634 3.005-5.046 1.395-7.112-2-2.553-5.46-.527-6.984.379-10.91 6.474-12.519 17.895-16.298 24.454-3.015 5.24-7.917 9.091-12.301 9.405-3.282.243-6.827-.422-10.353-1.971-8.577-3.76-13.268-8.614-14.38-9.473-2.303-1.778-20.189-19.34-34.686-20.057 0 0-1.799-3.604-2.251-3.66-1.06-.138-2.145 2.148-2.922 2.416-.731.244-1.959-2.473-2.698-2.351"/></svg>