<svg xmlns="http://www.w3.org/2000/svg" width="300" height="300" viewBox="0 0 300 300"><path d="M150.142 120.369c1.669.962 3.438 2.2 4.785 3.512l-.529.534c-2.659-.282-5.461.069-7.982.108-.281-.283-.847-.711-.32-1.065l4.046-3.089zm47.026 33.037c.034 1.199.146 2.231-.32 3.458-4.858 1.385-8.051-3.763-12.765-2.986l.534 2.669c4.361.143 7.086 4.326 11.592 4.146-.642 1.278.285 4.647-2.551 3.301-2.943-.708-5.073-3.301-8.298-3.301-.389.715-.144 1.704-.211 2.55l9.253 3.941c-.32 1.167-.639 2.479-1.597 3.191-2.769-.674-4.93-3.158-7.876-3.089l-.526 2.451c2.801.07 4.61 2.548 7.127 3.293.069 1.032-.854 1.956-1.386 2.878-2.234-.672-3.937-2.592-6.489-2.449-.035-.964.535-2.054.318-3.084-2.865.853-4.788-1.811-6.913-3.41-.062-5.229-5.566-8.661-5.856-13.559-.057-.979.092-2.02.537-3.141 1.808-4.185 1.24-9.616-.744-13.515-.603-1.026-1.671-1.837-2.667-2.441 1.458 3.086 3.232 6.734 2.347 10.529-.104 2.93-1.832 5.743-1.852 8.567-.009 1.008.206 2.013.786 3.031 2.308 4.154 6.457 8.086 4.896 13.296-.428 1.601-1.707 2.837-2.024 4.467 2.699 2.234 5.25 4.752 8.83 4.894 1.274-.814.568-4.428 3.192-2.762l3.832 1.917c-.279 1.025-1.138 1.945-1.915 2.651-1.454-.707-2.873-1.556-4.686-1.486-.534.567-.995 1.201-.954 2.016 1.275.21 2.447.75 3.511 1.496-.494 1.066-1.458 1.733-2.345 2.55l-2.974-1.062c-.496.71-1.527 1.458-1.164 2.235.671.285 1.415.676 1.907 1.171-1.311 1.421-2.974 2.331-4.574 3.295-1.38-4.505-5.922-7.665-5.529-12.873l-.211-.212c-1.067 1.201-.711 3.122-.644 4.678 1.277 3.264 4.327 5.781 4.786 9.362-.533.921-1.736 1.104-2.659 1.497.107-6.453-9.68-11.346-3.403-17.872 2.094-3.194 5.6-6.245 4.357-10.646-1.275-4.248-5.787-6.881-5.747-11.643l.007-.372c1.028-4.967 4.15-10.25 1.597-15.532-.712-2.124-2.304-4.54-4.465-5.429 3.227 3.692 4.503 9.715 2.658 14.683-.93 1.977-2.21 4.331-2.339 6.653h-.009c-.067 1.212.179 2.419.963 3.562 2.449 3.974 6.702 8.338 4.254 13.516-2.765 4.147-7.589 8.367-4.894 13.828 1.95 3.265 4.968 6.521 4.154 10.529l-3.192 1.062c2.127-7.48-8.298-11.875-3.935-19.358 2.696-4.008 7.516-7.767 4.785-13.085-1.631-3.295-5.001-5.245-4.894-9.363l.116-.69c1.099-5.84 5.538-11.367 2.434-17.608-.815-1.844-2.446-3.722-4.256-4.787l-.109.109c3.619 3.511 4.721 9.289 2.769 13.932-.909 2.723-2.907 5.438-3.313 8.357-.194 1.377-.03 2.803.766 4.304 2.304 3.65 6.346 7.521 3.821 12.242-2.655 3.896-7.09 7.689-5.318 12.758 1.951 4.435 6.024 8.66 3.824 14.156l-3.294.744c2.623-5.357-1.311-10.675-3.613-15.321-2.804-6.668 6.022-9.859 6.164-15.955-.035-3.935-4.218-6.168-5.101-9.785-1.81-1.528-3.687.607-5.852.211-1.598.319-4.051-2.199-5.005.533-1.136 4.006-6.312 6.949-4.038 11.699 2.164 4.223 7.372 7.309 5.633 12.771-1.557 5.104-6.703 9.961-3.512 15.847-1.311-.425-3.758.389-3.723-1.706-2.021-7.127 6.596-11.28 3.934-18.403-1.236-4.363-6.88-6.774-5.637-12.022.917-4.32 5.766-7.341 5.085-12.072-.056-.396-.153-.801-.291-1.225-1.81-5.107-5.501-10.214-3.302-16.174.604-1.702 1.811-3.157 2.871-4.677-3.511 1.879-5.282 5.854-5.21 9.894-.152 4.396 3.094 8.159 3.556 12.182.182 1.623-.084 3.285-1.217 5.048-2.303 3.124-5.315 6.419-3.934 10.536 1.312 4.151 6.489 6.666 6.171 11.489-.037 5.707-6.668 9.26-4.788 15.643l-3.3-1.07c-1.312-5.671 4.717-8.573 4.786-13.821.852-6.035-6.845-8.273-6.383-14.157-.032-4.47 3.901-7.3 5.639-11.062.298-.913.397-1.779.357-2.606-.213-4.156-3.958-7.406-3.336-12.08.207-3.439 1.379-6.455 3.613-9.042-3.084 1.238-4.356 4.788-5.21 7.769-1.478 4.778 2.051 9.073 2.405 13.354.157 1.891-.306 3.77-2.084 5.69-2.555 3.01-5.146 6.81-3.301 10.855 1.952 4.464 8.089 7.939 5.428 13.506-1.454 3.513-4.931 6.169-4.787 10.318-.921-.39-1.877-.779-2.659-1.487 0-5.282 7.516-8.582 3.935-14.15-.317 1.099-.387 2.594-.635 3.833-1.242 3.229-3.901 5.814-4.896 9.15-1.664-.644-3.403-1.991-4.787-3.41l1.917-1.173c-.213-.711-.779-1.312-1.274-1.915-1.245-.175-2.062.642-3.089.962-.887-.782-1.742-1.491-2.448-2.449.636-1.812 5.607-.314 3.089-3.293-1.701-1.063-3.408.455-4.896 1.163l-2.019-2.549c1.737-1.063 3.471-2.557 5.634-2.128.532.959.569 2.371 1.595 2.87 3.653-.071 6.242-2.834 9.043-4.999-1.953-2.903-3.541-6.913-1.808-10.426 1.389-3.521 5.008-6.483 5.174-10.374.036-.886-.102-1.818-.488-2.821-1.915-4.931-2.591-11.593 1.062-15.957-1.984.535-3.157 3.012-3.83 4.891-2.197 4.814.58 9.273.677 13.888.013.83-.054 1.661-.256 2.497-1.88 3.795-4.927 7.123-5.421 11.489-2.163 1.382-3.939 3.794-7.023 2.979-.108.814.141 2.057.424 2.979-2.446-.104-4.113 1.699-6.171 2.55-1.097-.352-1.383-1.769-1.808-2.761 2.41-.813 4.148-3.229 6.916-3.191.32-.893-.181-1.709-.321-2.56-3.441-1.527-8.897 7.553-9.355-.318 3.438-.212 5.635-3.406 9.043-3.724l.101-2.549-10.214 3.191-.853-3.402c4.469.278 7.132-3.726 11.388-3.941.566-.744.634-1.842.743-2.869-4.646-.606-7.834 4.543-12.765 2.978 0 0-.169-2.143-.261-3.349h.007l-.066-.801c4.397 1.705 8.261-1.453 12.021-3.083.957-.287 2.45.208 2.878-.854-.037-.816 1.451-1.77.212-2.34-5.499-.746-9.152 5.888-14.791 2.871l-.424-.854c1.172-16.026 10.212-31.523 25.21-39.146 6.075-3.472 13.621-5.241 21.232-5.305 9.184-.076 18.465 2.335 25.368 7.222 6.705 4.112 13.119 10.89 16.599 17.771 3.33 6.028 4.86 12.792 5.319 19.993-5.816 4.395-9.721-4.141-15.643-2.231.317.925.498 1.88 1.173 2.659 5.25-.036 8.865 5.461 14.359 3.295l.009.801zm-66.82-19.738c-3.688-2.412-8.365-.139-11.803 1.174-.317-3.229-1.63-6.17-4.364-8.299-.265-.129-.632-.409-.962-.428-.198-.015-.385.067-.532.318 1.239 7.625-3.716 12.944-7.227 18.725 1.169.956 3.047.812 4.466.534 3.722-1.491 7.268-4.082 11.7-3.193 1.312-2.233 3.514-4.398 5.319-6.171 1.105-.955 2.619-1.561 3.403-2.66zm11.279 4.788c-.071.458.035 1.274.743.961 1.101-1.524 3.051-.319 4.257-.212v-.428c-.662-1.039-2.022-1.561-3.404-1.507-.318.012-.643.056-.954.129-.462.103-.785.525-.642 1.057zm17.34-4.568c-.99-2.197-3.262-3.089-5.319-3.622-1.011-.123-2.057-.207-3.096-.218h-.583c-2.907.059-5.685.805-7.382 3.198-.242.675-1.313 1.624-.318 2.229 2.233-.143 4.783-.422 6.271 1.496 0 1.705 1.101 3.971-.743 4.785-1.527-1.414-3.335.604-4.998-.532-.781-.462-1.274.077-1.595.75-.463 4.396 1.84 9.25 5.952 11.693 1.667.603 3.908 1.172 5.646.319 4.185-1.947 5.918-6.412 6.697-10.528-.104-.782-.067-2.308-1.165-2.346-1.239.784-3.049.32-4.365 0-.777.251-.812 1.387-1.697 1.604l-.538-.428c-.461-1.947-.746-4.715 1.063-6.062 2.022-.817 4.399-1.171 6.49-.533.392-.672-.21-1.203-.32-1.805zm-2.135 3.496l-.416.015c-.742.498-2.908.14-2.126 1.807 1.349-1.066 3.228-.317 4.575.212.498-.248.391-.744.423-1.173-.433-.806-1.466-.881-2.456-.861zm15.439-14.993c-2.625-.14-4.822 1.351-7.234 2.024-.21-2.052 1.349-4.22 1.705-6.279-3.898.25-6.988 2.598-10.213 4.473-.749-1.804-1.497-3.616-2.237-5.428l4.255-4.045.109-.532-5.748-.32c-.99-1.735-1.381-3.822-2.551-5.418l-2.558 5.527-5.741.32v.423l4.356 3.935c-.533 2.022-1.026 4.22-2.339 5.748-2.552-1.531-5.069-3.194-7.867-4.257-.675-.218-1.635-.57-2.236-.109.886 1.951 2.123 4.05 1.916 6.182-1.171-.216-2.091-.967-3.191-1.282-1.316-.359-2.878-1.061-4.154-.634 2.128 2.975 3.865 6.093 4.467 9.675 7.06-3.409 15.293-5.281 23.84-3.825 4.006.638 7.688 2.271 11.271 3.613.14-3.756 2.518-6.776 4.15-9.791zm12.125 20.428c3.614.956 7.24 4.895 11.066 2.339-3.333-5.529-8.293-10.639-6.913-17.87.142-.495-.175-.993-.637-1.063-2.162.884-3.834 3.012-4.692 5.107-.351 1.238-.56 2.556-1.054 3.723-2.59-1.349-5.355-2.654-8.513-2.341-1.137.143-2.77.217-2.977 1.386 3.58 1.914 6.523 5.107 8.721 8.509 1.529-.25 3.403-.037 4.999.21zm-37.874 4.998l.103.644c1.385.923 1.812 2.487 3.731 2.346 1.7.101 2.976-1.493 3.823-2.77-2.301-.319-5.102.173-7.657-.22zm1.917-2.869c.069.281-.175.709.21.853 1.136-.247 3.192.604 3.825-.745-.442-.497-1.165-.72-1.923-.72s-1.543.221-2.112.612z" fill="#010101"/></svg>