<svg xmlns="http://www.w3.org/2000/svg" width="300" height="300" viewBox="0 0 300 300"><g><path d="M178.794 158.718c-2.467-3.544-3.699-7.523-3.699-11.935 0-4.03 1.164-7.713 3.492-11.049 1.284-1.841 3.317-3.943 6.098-6.306-1.842-2.259-3.701-4.048-5.577-5.368-3.336-2.293-7.14-3.44-11.414-3.44-2.605 0-5.681.609-9.225 1.825-3.545 1.216-6.098 1.824-7.661 1.824-1.217 0-3.684-.539-7.401-1.616-3.684-1.077-6.828-1.615-9.434-1.615-6.115 0-11.188 2.571-15.219 7.714-3.996 5.143-5.993 11.796-5.993 19.961 0 8.791 2.623 17.755 7.869 26.895 5.247 9.243 10.598 13.861 16.053 13.861 1.808 0 4.152-.608 7.036-1.823 2.919-1.178 5.473-1.772 7.661-1.772 2.189 0 4.865.571 8.026 1.72 3.197 1.149 5.699 1.72 7.506 1.72 4.552 0 9.138-3.492 13.759-10.475 3.058-4.654 5.246-9.123 6.568-13.396-3.163-.941-5.977-3.181-8.445-6.725zM161.31 116.7c2.259-2.258 3.909-4.708 4.951-7.348 1.042-2.641 1.563-5.073 1.563-7.297 0-.347-.018-.694-.052-1.042-.035-.347-.121-.747-.261-1.198-6.22 1.424-10.685 4.064-13.395 7.921-2.676 3.857-4.048 8.426-4.117 13.708 2.467-.208 4.309-.503 5.524-.886 1.913-.661 3.841-1.946 5.787-3.858z"/></g></svg>