<svg xmlns="http://www.w3.org/2000/svg" width="300" height="300" viewBox="0 0 300 300"><g><path d="M130.602 157.248v28.753l4.85-3.655v-20.199l-4.85-4.899zM141.02 163.962l6.314-1.441 2.55-2.094v-3.791l-8.864 7.326zM140.227 118.237l-8.92-4.112 8.063 9.037 3.053-3.014-2.196-1.911zM201.879 122.878c-.813-.556-2.271-.834-3.715-.707-1.372.114-2.284.786-3.035 1.408.01-.007-1.955 1.938-1.955 1.938l-.525.84-1.753 2.193-.021.023v-12.105l-5.357-3.223.003 21.989-.069.105-1.284 1.509v-23.604h-33.121l-11.782 11.722-10.465-11.722h-32.67v72.674h33.225v-32.014l9.78 10.088 12.01-10.236v32.162h33.03l-.003-30.667.469-.79.281-.411.605-.958.003 32.826 5.346-3.69v-38.722l.585-.873c.05-.083.823-1.24.823-1.24l1.231-1.81c.013-.03.47-.608.47-.608l1.138-1.611c.224-.519.866-.863 1.11-.991l.116-.063.156-.112.592-.6c.009-.013 1.028-.873 1.028-.873l1.74-.81 1.624-.894c.006-.003 1.488-1.828 1.488-1.828l.791-2.455c.003-.003.23-2.378.23-2.378-.048-1.206-.96-2.701-2.119-3.482m-39.803 19.767c.037.231.162 2.381.156 2.735-.007 1.065.066 2.239.033 2.713-.027.36.022 1.604.022 1.604.09.982.302 2.058.321 2.249.043.503-.146 2.412-.09 2.845.007.09.162.887.13 1.075-.086.496.059 1.095.043 1.319-.026.395-.043.844-.057 1.323-.026.711-.05 1.445-.116 2.087-.02.163.004 1.283.004 1.283-.129 1.128-.268 2.293-.076 3.46.037.234-.01 1.006.011 1.142l.313 1.279c.053.298.165 1.678.314 1.995.146.321.737 1.727.79 1.895.176.533.443 1.816.202 2.472-.229.618-.572 2.09-.813 2.457-.208.321-.522.51-.671.741-.143.215-.424.413-.658.506-.729.284-2.019.483-3.137.143-.453-.135-1.138-.093-1.908-.559-.628-.381-.844-1.423-.933-1.982-.043-.261.033-.959.017-1.067-.02-.159-.258-1.191-.258-1.522-.004-.165.057-.863-.02-1.322-.096-.592-.385-1.555-.385-1.555-.079-.394-.29-1.247-.3-1.273-.229-.639-.341-1.261-.407-1.789-.123-.973.119-1.783.334-2.5.123-.414.238-.801.288-1.191.032-.281-.186-1.613-.143-2.061.013-.182.162-.761.169-.837.056-.377.069-1.383.072-1.538.004-.202.139-1.049.122-1.925-.006-.345-.043-.701 0-1.062.044-.385.076-1.364.004-1.816-.116-.691-.069-1.31-.073-1.34-.049-.724-.093-1.485-.049-2.133.006-.104-.119-1.201-.123-1.542-.006-.215-.02-1.561-.033-1.72-.287-3.351-.74-3.992-.923-4.115-.182-.119-.675-.111-.956.021-.215.1-.773.585-1.247.84-.462.245-1.326.655-1.621.873-.34.259-.899.691-1.987 1.287-.274.148-.483.403-.73.628-.36.318-1.035 1-2.127 1.552-.536.268-1.012.582-1.396.956-.158.159-.743 1.138-1.121 1.505-.367.351-.599.844-.665.995-.191.411-.399.87-.804 1.171-.625.467-1.987.554-2.812.209-.525-.218-1.574-.923-2.03-2.144-.46-1.217-.076-2.778.833-3.79.599-.666 1.532-.933 2.438-1.188.56-.158 1.092-.311 1.502-.538.202-.112.847-.596.982-.685.205-.136.936-.489 1.078-.582.133-.09.903-.761 1.419-1.053.854-.476 1.532-.859 1.932-1.111 0 0 1.175-.661 1.936-1.382.172-.166.902-.438 1.703-.891.202-.115 1.038-.396 1.25-.489l.9-.586c.75-.39 1.128-.856.916-2.017-.076-.404-.199-.814-.156-1.301.014-.118.185-.85.463-1.353l.48-.489c.122-.245.552-.45.836-.522.199-.191.608-.397 1.089-.48 1.052-.175 2.404.596 2.6.635.37.084.999.027 1.329-.068l.655-.354c.212-.079.89-.265 1.028-.313l1.419-.672c.252-.097.834-.201 1.122-.268.46-.328 1.322-.609 1.653-.894.374-.327.879-1.111.985-1.25.195-.258 1.148-.899 1.284-1.003.311-.244 1.021-.743 1.505-.883.231-.066.909.073 1.322.069.464 0 1.111.026 1.602.768.244.374.655.754.761 1.271.317 1.609-.887 3.207-1.8 3.777-.092.056-.535.186-.808.273-.38.126-.767.404-1.024.474-.513.136-.765.492-.977.605-.207.109-.916.545-1.144.672-.176.093-.464.502-.982.654-.351.105-1.082.314-1.664.827-.241.212-1.224.413-1.505.477-.105.025-1.359.556-1.485 1.29-.132.771-.022.975-.169 2.08-.083.686-.037 1.496.016 1.923m40.842-14.083c-.096.449-.347 1.561-.704 2.212-.156.288-.774 1.201-1.244 1.552-.456.337-1.117.671-1.396.771-.258.092-1.521.682-1.862.864-.611.33-.939.7-1.26 1.054-.166.186-.328.358-.522.53-.076.066-1.197.525-1.604 1.475-.248.576-1.366 1.77-1.555 2.113-.277.496-.688 1.244-1.098 1.645-.123.119-.255.301-.394.513-.129.191-.262.406-.403.642l-.112.179c-.266.437-.562.933-.734 1.114-.428.46-.675 1.056-.876 1.541-.08.188-.781 1.191-1.046 1.89-.116.313-.725 1.332-.79 1.488-.13.327-.913 1.088-.989 1.236-.112.229-.215.539-.321.863-.093.295-.334.873-.417 1.098l-.374.612-.016.022-.314.514c-.245.396-.493.787-.655 1.038-.108.139-.218.301-.313.446-.156.229-1.294 2.171-1.555 2.633-.116.212-.258.421-.403.645-.348.52-.705 1.049-.877 1.711-.109.409-.423 1.088-.446 1.147-.447 1.098-.619 2.278-.665 2.613-.07.546-.053 1.095-.03 1.627.023.572.044 1.114-.049 1.595-.173.889-.52 1.766-.979 2.467-.122.191-.556.784-1.068 1.261-.374.347-.985.489-2.107.499-1.518.006-2.169-.556-2.977-1.743-.132-.191-.391-.69-.704-1.362-.403-.857-.734-1.642-1.021-2.674-.09-.311-.216-.653-.332-.987-.132-.364-.416-1.39-.439-1.558-.026-.17-.384-1.363-.406-1.479-.139-.731-.331-1.41-.52-2.064-.191-.675-.374-1.312-.486-1.971-.109-.632-.446-1.654-.695-2.396 0 0-.476-1.51-.628-2.05-.208-.731-.89-2.748-.89-2.748-.255-.688-.857-2.303-.9-2.561-.356-2.097-.354-3.787.023-4.524.169-.338.748-.658 1.214-.916.155-.09.923-.586 1.088-.629.477-.129 1.273-.169 1.945-.1.089.01.912.018 1.211.229 1.107.771 1.187 1.767 1.332 3.575 0 0 .191 1.945.284 2.676.066.54.14 1.099.196 1.65.035.381.056.798.072 1.198.026.724.277 2.105.277 2.105.248.831.486 1.622 1.459 2.032.265.109.565.089.851-.069.664-.354 1.27-1.433 1.501-2.677.014-.068.112-.212.208-.35.232-.321.547-.765.708-1.492.05-.182.496-.797.761-1.164.271-.374.523-.725.672-.989.049-.089 1.154-1.812 1.154-1.812s.427-.949.608-1.304c.182-.36.341-.79.357-.862.089-.371.271-1.148.635-1.578.496-.585 1.035-1.901 1.062-1.957.119-.226.443-.785.745-1.277l.065-.089v-.004l.022-.026c.133-.176.305-.407.438-.566l.952-1.128c.194-.211.391-.43.565-.667.186-.245.579-.824.927-1.337.212-.321.823-1.117 1.012-1.316.186-.191 1.575-2.061 1.79-2.345.089-.115.658-.695 1.002-1.041l.003-.008c.477-.479.651-.655.715-.737.277-.374.579-.737.87-1.091.291-.354.588-.715.873-1.096.125-.158.446-.734.531-.847.302-.396 1.773-1.756 1.817-1.792.685-.566 1.441-1.119 2.553-1.214 1.218-.106 2.514.125 3.155.562.92.619 1.697 1.876 1.736 2.799.038.884-.028 1.244-.213 2.161"/></g></svg>