<svg xmlns="http://www.w3.org/2000/svg" width="300" height="300" viewBox="0 0 300 300"><path d="M91.546 176.707c-4.469-.176-8.127-1.4-10.985-3.672-.545-.434-1.845-1.734-2.281-2.283-1.161-1.457-1.947-2.877-2.473-4.451-1.619-4.846-.785-11.205 2.38-18.184 2.712-5.975 6.896-11.9 14.196-20.107 1.074-1.207 4.277-4.738 4.297-4.738.009 0-.166.303-.385.67-1.897 3.178-3.523 6.926-4.408 10.164-1.421 5.203-1.249 9.666.503 13.129 1.207 2.385 3.278 4.449 5.608 5.592 4.078 1.998 10.05 2.164 17.341.484.502-.117 25.379-6.721 55.283-14.676 29.904-7.957 54.373-14.461 54.377-14.455.009.006-69.474 29.738-105.544 45.164-5.712 2.441-7.239 3.059-9.924 4.002-6.865 2.408-13.015 3.558-17.985 3.361z"/></svg>