<svg xmlns="http://www.w3.org/2000/svg" width="300" height="300" viewBox="0 0 300 300"><path d="M150.145 179.354c-16.261 0-29.457-13.175-29.457-29.438 0-16.292 13.196-29.458 29.457-29.458 16.274 0 29.454 13.166 29.454 29.458 0 16.263-13.18 29.438-29.454 29.438m0-73.606c-24.378 0-44.145 19.773-44.145 44.167 0 24.377 19.767 44.143 44.145 44.143 24.387 0 44.186-19.766 44.186-44.143-.001-24.394-19.8-44.167-44.186-44.167zm0 29.032c-8.356 0-15.127 6.755-15.127 15.135 0 8.354 6.771 15.128 15.127 15.128 8.363 0 15.148-6.773 15.148-15.128 0-8.38-6.785-15.135-15.148-15.135"/></svg>