<svg xmlns="http://www.w3.org/2000/svg" width="300" height="300" viewBox="0 0 300 300"><path d="M146.718 183.028c-5.897-3.694-10.241-16.441-10.241-31.581l.016-1.65.007.004c-16.398-2.574-28.251-9.639-28.555-17.988l-.045.095c-4.016 4.985-6.307 10.753-6.307 16.896 0 18.08 19.848 32.892 45.019 34.203l.106.021zm-52.708-32.905c0-20.229 25.175-36.631 56.232-36.631 31.055 0 56.23 16.402 56.23 36.631 0 20.23-25.175 36.631-56.23 36.631-31.057 0-56.232-16.4-56.232-36.631zm56.234-31.346c5.994 0 11.091 9.091 12.983 21.781l.007-.018c11.664-1.814 19.832-6.006 19.832-10.877 0-6.546-14.696-11.84-32.822-11.84-18.128 0-32.824 5.301-32.824 11.84 0 4.874 8.166 9.061 19.83 10.88l.007.017c1.891-12.686 6.993-21.783 12.987-21.783zm3.629 64.23c25.173-1.312 45.021-16.123 45.021-34.203 0-6.144-2.293-11.911-6.307-16.896l-.047-.101c-.301 8.352-12.152 15.416-28.553 17.99l.007-.005.016 1.649c0 15.142-4.347 27.891-10.241 31.584l.104-.018zm-3.629-41.502c2.686 0 5.296-.116 7.793-.339l-.002.006c-1.244-8.137-4.263-13.876-7.791-13.876-3.531 0-6.547 5.739-7.793 13.876l-.002-.006c2.496.223 5.105.339 7.795.339zm0 30.12c4.512 0 8.192-9.391 8.39-21.171l.025.005c-2.722.251-5.537.385-8.415.385-2.883 0-5.697-.132-8.415-.385l.025-.005c.193 11.78 3.874 21.171 8.39 21.171z"/></svg>