<svg xmlns="http://www.w3.org/2000/svg" width="300" height="300" viewBox="0 0 300 300"><path d="M195.59 121.258c-3.373 1.495-6.999 2.506-10.803 2.961 3.885-2.326 6.867-6.013 8.27-10.405-3.635 2.155-7.659 3.72-11.943 4.564-3.431-3.656-8.318-5.94-13.729-5.94-10.387 0-18.809 8.422-18.809 18.809 0 1.474.167 2.909.487 4.287-15.631-.785-29.49-8.273-38.767-19.652-1.619 2.777-2.548 6.009-2.548 9.455 0 6.525 3.321 12.282 8.367 15.654-3.083-.098-5.982-.943-8.52-2.353l-.002.237c0 9.112 6.483 16.715 15.088 18.443-1.577.43-3.239.659-4.955.659-1.213 0-2.391-.118-3.539-.338 2.395 7.472 9.34 12.909 17.57 13.062-6.438 5.045-14.546 8.051-23.358 8.051-1.518 0-3.016-.088-4.487-.262 8.323 5.336 18.211 8.451 28.833 8.451 34.594 0 53.513-28.66 53.513-53.515 0-.815-.017-1.626-.054-2.434 3.677-2.65 6.863-5.963 9.386-9.734z"/></svg>