<?xml version="1.0" encoding="utf-8"?>
<!-- Generator: Adobe Illustrator 16.0.0, SVG Export Plug-In . SVG Version: 6.00 Build 0)  -->
<!DOCTYPE svg PUBLIC "-//W3C//DTD SVG 1.1//EN" "http://www.w3.org/Graphics/SVG/1.1/DTD/svg11.dtd">
<svg version="1.1" id="Layer_1" xmlns="http://www.w3.org/2000/svg" xmlns:xlink="http://www.w3.org/1999/xlink" x="0px" y="0px"
	 width="512px" height="512px" viewBox="0 0 512 512" enable-background="new 0 0 512 512" xml:space="preserve">
<path d="M442.126,8.561H70.256C36.17,8.561,8.278,36.453,8.278,70.54v371.869c0,34.092,27.892,61.979,61.978,61.979h188.075V326.604
	h-59.373v-77.45h59.373v-38.804c0-59.811,44.162-106.66,100.546-106.66h54.726v87.456h-48.961c-12.815,0-16.573,7.358-16.573,17.527
	v40.481h65.534v77.451h-65.534v177.782h94.059c34.097,0,61.979-27.887,61.979-61.979V70.539
	C504.104,36.453,476.223,8.561,442.126,8.561z"/>
</svg>
