<svg xmlns="http://www.w3.org/2000/svg" width="177.854" height="50.117" viewBox="0 0 177.854 50.117"><path fill="none" d="M63.109-.759h51.636v51.636h-51.636z"/><path d="M88.926 0c-13.783 0-24.958 11.22-24.958 25.059 0 13.84 11.175 25.059 24.958 25.059 13.784 0 24.959-11.219 24.959-25.059 0-13.84-11.175-25.059-24.959-25.059zm-12.258 32.318v-2.074c-1.051 1.195-2.247 1.991-4.01 1.981-4.17-.022-7.552-3.395-7.552-7.582s3.382-7.582 7.552-7.582c4.171 0 7.8 3.368 7.8 7.556l.004 7.675-3.794.026zm12.447.119c-4.171 0-7.799-3.367-7.799-7.556l-.004-12.758h3.788l.005 7.131c1.051-1.195 2.247-1.991 4.01-1.981 4.171.023 7.552 3.395 7.552 7.582s-3.383 7.582-7.552 7.582zm16.237-.177c-4.17 0-7.551-3.395-7.551-7.582s3.381-7.582 7.551-7.582c3.641 0 6.691 2.668 7.404 6.11l-3.797-.013c-.582-1.381-1.949-2.314-3.537-2.314-2.117 0-3.834 1.723-3.834 3.849 0 2.125 1.717 3.849 3.834 3.849 1.588 0 2.973-.923 3.555-2.305l3.797-.018c-.705 3.455-3.771 6.006-7.422 6.006z"/><path d="M89.017 20.804c-2.116 0-3.833 1.723-3.833 3.849 0 2.125 1.717 3.849 3.833 3.849 2.117 0 3.833-1.724 3.833-3.849s-1.716-3.849-3.833-3.849z"/><path d="M72.705 20.804c-2.116 0-3.833 1.723-3.833 3.849 0 2.125 1.717 3.849 3.833 3.849 2.117 0 3.834-1.724 3.834-3.849s-1.716-3.849-3.834-3.849z"/></svg>