<?xml version="1.0" encoding="utf-8"?>
<!-- Generator: Adobe Illustrator 16.0.0, SVG Export Plug-In . SVG Version: 6.00 Build 0)  -->
<!DOCTYPE svg PUBLIC "-//W3C//DTD SVG 1.1//EN" "http://www.w3.org/Graphics/SVG/1.1/DTD/svg11.dtd">
<svg version="1.1"
	 id="svg2" xmlns:dc="http://purl.org/dc/elements/1.1/" xmlns:cc="http://creativecommons.org/ns#" xmlns:rdf="http://www.w3.org/1999/02/22-rdf-syntax-ns#" xmlns:svg="http://www.w3.org/2000/svg" xmlns:sodipodi="http://sodipodi.sourceforge.net/DTD/sodipodi-0.dtd" xmlns:inkscape="http://www.inkscape.org/namespaces/inkscape" inkscape:output_extension="org.inkscape.output.svg.inkscape" sodipodi:version="0.32" sodipodi:docname="AJAX.svg" inkscape:version="0.48.1 "
	 xmlns="http://www.w3.org/2000/svg" xmlns:xlink="http://www.w3.org/1999/xlink" x="0px" y="0px" width="177.854px"
	 height="50.117px" viewBox="0 0 177.854 50.117" enable-background="new 0 0 177.854 50.117" xml:space="preserve">
<defs>
	
	
		<inkscape:perspective  id="perspective10" inkscape:persp3d-origin="372.04724 : 350.78739 : 1" inkscape:vp_x="0 : 526.18109 : 1" inkscape:vp_y="0 : 1000 : 0" sodipodi:type="inkscape:persp3d" inkscape:vp_z="744.09448 : 526.18109 : 1">
		</inkscape:perspective>
	
		<inkscape:perspective  id="perspective2390" inkscape:persp3d-origin="372.04724 : 350.78739 : 1" inkscape:vp_x="0 : 526.18109 : 1" inkscape:vp_y="0 : 1000 : 0" sodipodi:type="inkscape:persp3d" inkscape:vp_z="744.09448 : 526.18109 : 1">
		</inkscape:perspective>
</defs>
<sodipodi:namedview  inkscape:cy="19.785407" inkscape:cx="168.3727" inkscape:zoom="2.1321946" fit-margin-left="0" fit-margin-top="0" showgrid="false" guidetolerance="10" gridtolerance="10000" objecttolerance="10" borderopacity="1.0" pagecolor="#ffffff" bordercolor="#666666" id="base" inkscape:current-layer="layer1" inkscape:window-maximized="1" inkscape:window-y="-8" inkscape:window-x="-8" fit-margin-bottom="0" fit-margin-right="0" inkscape:window-height="1004" inkscape:window-width="1280" inkscape:pageshadow="2" inkscape:pageopacity="0.0" inkscape:document-units="px">
	</sodipodi:namedview>
<g>
	<polygon id="polygon2722" fill-opacity="0" points="63.109,-0.759 63.109,-0.759 114.745,-0.759 114.745,50.877 63.109,50.877 	"/>
	<path id="path2724" inkscape:connector-curvature="0" d="M88.926,0c-13.783,0-24.958,11.22-24.958,25.059
		c0,13.84,11.175,25.059,24.958,25.059c13.784,0,24.959-11.219,24.959-25.059C113.885,11.219,102.71,0,88.926,0L88.926,0L88.926,0
		L88.926,0L88.926,0z M76.668,32.318v-2.074l0,0c-1.051,1.195-2.247,1.991-4.01,1.981c-4.17-0.022-7.552-3.395-7.552-7.582
		s3.382-7.582,7.552-7.582c4.171,0,7.8,3.368,7.8,7.556l0,0l0.004,7.675L76.668,32.318L76.668,32.318L76.668,32.318L76.668,32.318z
		 M89.115,32.437c-4.171,0-7.799-3.367-7.799-7.556l0,0l-0.004-12.758H85.1l0.005,7.131l0,0c1.051-1.195,2.247-1.991,4.01-1.981
		c4.171,0.023,7.552,3.395,7.552,7.582S93.284,32.437,89.115,32.437L89.115,32.437L89.115,32.437L89.115,32.437L89.115,32.437z
		 M105.352,32.26c-4.17,0-7.551-3.395-7.551-7.582s3.381-7.582,7.551-7.582c3.641,0,6.691,2.668,7.404,6.11l0,0l-3.797-0.013l0,0
		c-0.582-1.381-1.949-2.314-3.537-2.314c-2.117,0-3.834,1.723-3.834,3.849c0,2.125,1.717,3.849,3.834,3.849
		c1.588,0,2.973-0.923,3.555-2.305l0,0l3.797-0.018l0,0C112.069,29.709,109.003,32.26,105.352,32.26L105.352,32.26L105.352,32.26
		L105.352,32.26L105.352,32.26z"/>
	<path id="path2726" inkscape:connector-curvature="0" d="M89.017,20.804c-2.116,0-3.833,1.723-3.833,3.849
		c0,2.125,1.717,3.849,3.833,3.849c2.117,0,3.833-1.724,3.833-3.849S91.134,20.804,89.017,20.804L89.017,20.804L89.017,20.804
		L89.017,20.804z"/>
	<path id="path2728" inkscape:connector-curvature="0" d="M72.705,20.804c-2.116,0-3.833,1.723-3.833,3.849
		c0,2.125,1.717,3.849,3.833,3.849c2.117,0,3.834-1.724,3.834-3.849S74.823,20.804,72.705,20.804L72.705,20.804L72.705,20.804
		L72.705,20.804z"/>
</g>
</svg>
