<svg xmlns="http://www.w3.org/2000/svg" width="240" height="70" viewBox="0 0 240 70"><path d="M87.84 34.993c0-17.76 14.395-32.155 32.155-32.155 17.765 0 32.165 14.395 32.165 32.155 0 17.765-14.4 32.169-32.165 32.169-17.76 0-32.155-14.404-32.155-32.169m62.37 0c-4.875-10.63-16.19-19.175-30.215-19.175-14.025 0-25.335 8.545-30.21 19.175 4.875 10.634 16.185 19.175 30.21 19.175 14.025 0 25.34-8.541 30.215-19.175"/><path d="M102.795 34.831c0-9.42 7.625-17.05 17.035-17.05 9.416 0 17.044 7.63 17.044 17.05 0 9.41-7.629 17.04-17.044 17.04-9.41 0-17.035-7.63-17.035-17.04"/></svg>