<?xml version="1.0" encoding="utf-8"?>
<!-- Generator: Adobe Illustrator 16.0.0, SVG Export Plug-In . SVG Version: 6.00 Build 0)  -->
<!DOCTYPE svg PUBLIC "-//W3C//DTD SVG 1.1//EN" "http://www.w3.org/Graphics/SVG/1.1/DTD/svg11.dtd">
<svg version="1.1"
	 id="svg6051" xmlns:dc="http://purl.org/dc/elements/1.1/" xmlns:cc="http://creativecommons.org/ns#" xmlns:rdf="http://www.w3.org/1999/02/22-rdf-syntax-ns#" xmlns:svg="http://www.w3.org/2000/svg"
	 xmlns="http://www.w3.org/2000/svg" xmlns:xlink="http://www.w3.org/1999/xlink" x="0px" y="0px" width="240px" height="70px"
	 viewBox="0 0 240 70" enable-background="new 0 0 240 70" xml:space="preserve">
<path id="path996" d="M87.84,34.993c0-17.76,14.395-32.155,32.155-32.155c17.765,0,32.165,14.395,32.165,32.155
	c0,17.765-14.4,32.169-32.165,32.169C102.235,67.162,87.84,52.758,87.84,34.993 M150.21,34.993
	c-4.875-10.63-16.19-19.175-30.215-19.175c-14.025,0-25.335,8.545-30.21,19.175c4.875,10.634,16.185,19.175,30.21,19.175
	C134.02,54.168,145.335,45.627,150.21,34.993"/>
<path id="path1000" d="M102.795,34.831c0-9.42,7.625-17.05,17.035-17.05c9.416,0,17.044,7.63,17.044,17.05
	c0,9.41-7.629,17.04-17.044,17.04C110.42,51.871,102.795,44.241,102.795,34.831"/>
</svg>
