<svg xmlns="http://www.w3.org/2000/svg" width="200.023" height="95.383" viewBox="0 0 200.023 95.383"><path d="M82.399.305c-8.261.59-15.268 7.535-15.268 17.337v46.629c.004 1.685-1.255 3.14-3.076 3.14h-14.558c-31.525.036-28.727-40.252-1.894-40.301h16.095v-11.715h-16.688c-10.686 0-18.616 3.989-23.966 9.941-5.35 5.952-8.033 13.961-8.047 21.953-.016 7.994 2.632 15.956 8.107 21.895 5.475 5.942 13.746 9.944 25.09 9.944h27.458c1.811 0 3.314-1.565 3.314-3.375v-56.866c-.01-2.93 1.638-5.194 3.787-5.86 2.15-.663 4.673.18 6.154 2.306l.059.063c7.81 12.779 38.825 62.523 38.877 62.608.85 1.216 1.865 1.431 2.604 1.186.739-.249 1.486-1.047 1.48-3.02v-57.281c-.011-2.928 1.639-5.195 3.787-5.86 2.146-.661 4.614.18 6.095 2.309v.064h.119c7.809 12.775 38.825 62.52 38.879 62.608.841 1.201 1.823 1.436 2.604 1.182.78-.254 1.544-1 1.538-2.96v-75.625h-11.776v44.144s-7.02-11.995-19.055-32.665c-11.784-20.244-34.024-11.863-34.025 5.563v27.102s-6.901-11.995-18.935-32.665c-5.156-8.852-12.332-12.234-18.759-11.775v-.004zm-33.315.296c-65.532 0-64.9 93.389.887 93.435h25.741c11.063 0 18.125-6.55 18.108-18.637v-23.669s14.456 23.893 20.119 33.255c9.623 15.909 32.901 12.781 32.843-7.103v-26.154s14.395 23.89 20.06 33.258c9.623 15.909 32.96 12.777 32.901-7.103v-77.282h-11.775v75.626c.01 2.9-1.511 5.055-3.61 5.741-2.098.679-4.513-.171-5.976-2.251h-.06v-.111s-31.029-49.615-38.938-62.549h-.059v-.063c-.816-1.086-1.866-1.33-2.723-1.065-.885.276-1.721 1.035-1.716 2.959v57.281c.01 2.888-1.471 5.166-3.55 5.857-2.079.694-4.461-.226-5.918-2.306v-.064h-.06s-31.05-49.707-38.938-62.608c-.823-1.175-1.891-1.456-2.781-1.181-.889.274-1.721 1.034-1.716 2.958v56.93c0 3.447-2.835 6.331-6.272 6.331h-27.458c-12.049 0-21.183-4.339-27.221-10.888-6.037-6.55-9.011-15.239-8.995-23.908.016-8.666 2.984-17.411 8.876-23.965 5.893-6.556 14.724-10.871 26.155-10.891h16.688v-11.832h-14.616v-.003z"/></svg>