<?xml version="1.0" encoding="utf-8"?>
<!-- Generator: Adobe Illustrator 16.0.0, SVG Export Plug-In . SVG Version: 6.00 Build 0)  -->
<!DOCTYPE svg PUBLIC "-//W3C//DTD SVG 1.1//EN" "http://www.w3.org/Graphics/SVG/1.1/DTD/svg11.dtd">
<svg version="1.1"
	 id="svg2985" xmlns:dc="http://purl.org/dc/elements/1.1/" xmlns:cc="http://creativecommons.org/ns#" xmlns:rdf="http://www.w3.org/1999/02/22-rdf-syntax-ns#" xmlns:svg="http://www.w3.org/2000/svg" xmlns:sodipodi="http://sodipodi.sourceforge.net/DTD/sodipodi-0.dtd" xmlns:inkscape="http://www.inkscape.org/namespaces/inkscape" sodipodi:docname="CNN.svg" inkscape:version="0.48.2 r9819"
	 xmlns="http://www.w3.org/2000/svg" xmlns:xlink="http://www.w3.org/1999/xlink" x="0px" y="0px" width="200.023px"
	 height="95.383px" viewBox="0 0 200.023 95.383" enable-background="new 0 0 200.023 95.383" xml:space="preserve">
<sodipodi:namedview  inkscape:cy="-62.849115" inkscape:cx="122.55745" inkscape:zoom="0.95353535" fit-margin-left="0.05" fit-margin-top="0.05" showgrid="false" guidetolerance="10" gridtolerance="10" objecttolerance="10" borderopacity="1" pagecolor="#ffffff" bordercolor="#666666" id="namedview2987" inkscape:current-layer="g2995" inkscape:window-maximized="1" inkscape:window-y="-8" inkscape:window-x="-8" fit-margin-bottom="0.05" fit-margin-right="0.05" inkscape:window-height="1028" inkscape:window-width="1920" inkscape:pageshadow="2" inkscape:pageopacity="0">
	</sodipodi:namedview>
<g id="g2993" transform="matrix(1.25,0,0,-1.25,-28.893659,1013.3759)" inkscape:label="LanguageArts" inkscape:groupmode="layer">
	<g id="g2995" transform="translate(-216,-15084)">
		<path id="path2997" inkscape:connector-curvature="0" d="M305.034,15894.457c-6.609-0.472-12.214-6.028-12.214-13.87v-37.303
			c0.003-1.348-1.004-2.512-2.461-2.512h-11.646c-25.22-0.029-22.982,32.202-1.515,32.241h12.876v9.372h-13.35
			c-8.549,0-14.893-3.191-19.173-7.953c-4.28-4.762-6.426-11.169-6.438-17.562c-0.013-6.395,2.106-12.765,6.486-17.516
			c4.38-4.754,10.997-7.955,20.072-7.955h21.966c1.449,0,2.651,1.252,2.651,2.7v45.493c-0.008,2.344,1.31,4.155,3.03,4.688
			c1.72,0.53,3.738-0.144,4.923-1.845l0.047-0.05c6.248-10.223,31.06-50.018,31.102-50.086c0.68-0.973,1.492-1.145,2.083-0.949
			c0.591,0.199,1.189,0.838,1.184,2.416v45.825c-0.009,2.342,1.311,4.156,3.03,4.688c1.717,0.529,3.691-0.144,4.876-1.847v-0.051
			h0.095c6.247-10.22,31.06-50.016,31.103-50.086c0.673-0.961,1.458-1.149,2.083-0.946c0.624,0.203,1.235,0.8,1.23,2.368v60.5
			h-9.421v-35.315c0,0-5.616,9.596-15.244,26.132c-9.427,16.195-27.219,9.49-27.22-4.45v-21.682c0,0-5.521,9.596-15.148,26.132
			c-4.125,7.082-9.866,9.787-15.007,9.42V15894.457z M278.382,15894.22c-52.426,0-51.92-74.711,0.71-74.748h20.593
			c8.85,0,14.5,5.24,14.486,14.91v18.935c0,0,11.565-19.114,16.095-26.604c7.698-12.727,26.321-10.225,26.274,5.682v20.923
			c0,0,11.516-19.112,16.048-26.606c7.698-12.727,26.368-10.222,26.321,5.682v61.826h-9.42v-60.501
			c0.008-2.32-1.209-4.044-2.888-4.593c-1.678-0.543-3.61,0.137-4.781,1.801h-0.048v0.089c0,0-24.823,39.692-31.15,50.039
			c-0.015,0.021-0.031-0.019-0.047,0c-0.006,0,0.006,0.05,0,0.05c-0.653,0.869-1.493,1.064-2.178,0.852
			c-0.708-0.221-1.377-0.828-1.373-2.367v-45.825c0.008-2.31-1.177-4.133-2.84-4.686c-1.663-0.555-3.569,0.181-4.734,1.845v0.051
			h-0.048c0,0-24.84,39.766-31.15,50.086c-0.658,0.94-1.513,1.165-2.225,0.945c-0.711-0.219-1.377-0.827-1.373-2.366v-0.05v-45.494
			c0-2.758-2.268-5.065-5.018-5.065h-21.966c-9.639,0-16.946,3.471-21.777,8.71c-4.83,5.24-7.209,12.191-7.196,19.126
			c0.013,6.933,2.387,13.929,7.101,19.172c4.714,5.245,11.779,8.697,20.924,8.713h13.35v9.466h-11.693V15894.22z"/>
	</g>
</g>
</svg>
