<svg xmlns="http://www.w3.org/2000/svg" width="800" height="261.953" viewBox="0 0 800 261.953"><g><path d="M307.209 228.509c-29.768-19.176-70.167-22.541-135.32-4.465-69.457 16.322-92.615 26.785-123.028 5.781-11.684-10.318-15.873-26.931-12.745-50.861 7.255-39.01 26.861-76.551 61.686-118.193 19.439-21.662 37.47-40.252 61.28-47.717 18.248-4.683 16.542 9.658 14.334 11.709-2.33 0-6.244.367-9.269 2.341-2.455 1.904-9.194 8.052-9.556 16.322-.522 12.66 12.58 10.025 18.231 3.074 6.091-7.833 15.093-22.833 8.012-36.813-2.968-4.976-8.096-8.415-14.463-9.586-21.802-1.246-42.107 9.147-60.846 20.637-40.982 28.469-73.765 67.917-92.315 111.097-10.695 26.054-20.367 63.373-5.869 93.748 11.215 21.076 34.499 32.271 62.278 29.931 19.483-2.048 43.042-8.345 58.887-12.146 15.845-3.809 96.954-31.689 123.604 16.836 0 0 8.862-17.203 31.009-17.57 18.208-1.68 44.475 5.271 63.604 19.32-6.373-9.585-24.441-23.71-39.514-33.445z"/><path d="M180.16 65.674c-15.17-9.953-45.66 9.075-70.081 41.714-22.332 29.277-31.975 63.303-21.481 79.039 15.611 18.515 44.591-8.415 56.915-22.831l1.59-1.685c8.381-9.002 14.856-19.834 21.123-30.228 0 0 5.76-9.514 6.035-9.954 3.56-.656 7.848-1.681 12.68-3.072-.069.218-18.487 31.176-16.608 46.542.585 4.688.138 21.813 16.858 27.008 22.284 3.735 40.078-13.539 55.776-28.908 0 0 2.675-2.559 4.188-4.021-.383 1.533-.882 3.578-.882 3.578-6.524 22.688 2.27 27.449 7.771 29.205 16.625 4.834 36.486-19.319 36.55-19.319-.515 7.608-2.021 13.901 5.999 18.952 7.57 2.709 15.231-1.422 21.054-5.301 20.975-14.783 37.873-37.92 51.522-57.919h-8.706c-.103 0-21.483 30.988-35.366 37.723-.022 0-2.548 1.297-4.004.271-1.802-1.537-1.091-4.734.022-6.998.07-.147 53.603-92.996 53.603-92.996h-25.276s-2.761 4.467-2.986 4.76c-.17-.146-.575-.914-.856-1.282-15.66-21.662-51.123 11.658-77.822 50.298-10.279 14.858-23.366 31.587-36.936 43.662 0 0-20.103 18.428-28.693 5.188-3.14-5.563-2.174-13.697-.403-19.037 10.001-28.469 27.234-54.307 46.844-69.896 5.536-4.315 11.553-5.563 14.539-3.733 2.845 1.686 3.304 5.854 1.504 8.709-4.567-.146-8.226 1.242-11.201 4.316-5.86 6.148-7.896 12.077-6.033 17.64 9.051 12.88 27.102-12.589 26.229-28.104-.312-5.563-3.28-10.831-7.709-13.395-6.601-3.95-16.671-2.927-23.188.222-8.724 3.292-22.534 14.781-30.595 23.711-10.148 11.199-27.552 23.639-32.995 22.246 1.783-4.758 16.484-34.836 1.019-46.105zm121.861 44.496c4.917-6.805 19.228-25.029 22.717-28.102 11.734-10.323 16.424-5.781 16.83-2.563-10.951 19.613-23.876 42.082-36.028 62.282.025-.072-3.803 5.781-3.803 5.781-5.367 8.195-10.771 15.221-19.586 20.123-1.257.369-3.329.516-4.708-.512-1.66-1.099-2.315-2.929-2.128-4.832.528-6.292 6.935-25.536 26.706-52.177zm-137.505 11.782s-.22.661-.329.877c-.028 0-11.02 17.928-11.02 17.928-6.634 8.856-14.917 19.984-25.271 25.324-3.069 1.024-7.311 1.685-9.473-1.021-4.583-5.49-2.221-13.102-.302-19.248l.679-2.196c5.502-14.928 14.232-28.104 22.729-40.326.106-.072.344-.145.43-.145l.069.22c5.332 10.244 15.33 14.999 22.807 17.198.045 0 .093.073.093.22.001.218-.121.513-.412 1.169zm10.414-21.148c-.048.146-4.896 11.269-4.896 11.269-.701.585-1.809.293-3.079 0l-2.176-.368c-6.833-2.121-11.987-6.659-13.576-12.074-2.192-10.539 6.811-18.809 10.778-21.808 3.806-2.637 9.723-4.027 13.159-1.318 2.119 2.489 2.922 5.708 2.922 9.223.001 4.756-1.467 10.098-3.132 15.076z"/><path d="M494.47 134.759c-2.437-5.268-8.223-8.635-14.389-8.27-20.023 1.831-39.608 18.297-49.891 41.934-5.396 12.15-8.342 22.175-10.272 38.129 6.226-7.17 18.926-18.952 33.338-25.393 0 0 1.961-15.296 11.961-28.908 3.784-5.638 11.357-14.711 19.86-12.297 7.429 2.489 4.817 23.055-5.056 42.957-7.307 14.639-18.486 29.28-29.799 39.377-10.001 8.489-24.798 18.735-37.743 10.832-8.154-4.828-12.313-14.931-11.435-27.957 3.896-36.957 20.719-68.427 44.794-104.287 24.824-33.299 52.188-67.476 89.051-85.702 7.52-3.805 14.482-4.683 20.501-2.341 0 0-34.604 19.028-51.099 54.231-4.196 8.93-10.032 21.002-4.155 31.688 3.071 5.561 8.524 6.001 12.914 5.708 20.219-4.685 33.282-23.566 43.955-40.836 6.188-13.1 11.688-26.127 11.688-40.618 0-1.756-.091-4.097-.24-5.855 9.66-5.121 29.468 3.952 29.468 3.952 15.479 5.125 48.438 30.375 59.557 35.203 5.423-6.293 14.335-15.806 19.353-20.564l-7.264-4.465c-11.63-7.099-23.923-13.833-36.023-20.492-27.479-15.001-49.846-9.733-61.229-5.634-4.475 1.609-8.563 3-8.563 3-8.448-9.221-22.303-8.345-32.512-5.855-36.714 10.538-70.801 36.225-107.347 80.796-26.867 34.91-43.534 65.062-52.417 94.848-6.847 20.052-8.928 49.545 7.784 67.037 14.209 14.853 33.05 11.635 46.355 6.295 28.827-14.199 54.736-44.791 67.646-79.994 3.115-10.464 6.573-25.247 1.209-36.519zm66.286-110.288c-3.815 43.765-37.835 69.455-46.252 71.501-5.101 1.023-13.805-1.244-6.035-19.611 11.443-24.739 30.979-45.741 51.94-56.5.51 1.83.497 2.998.347 4.61z"/><path d="M762.555 30.031c-18.299 10.394-37.268 17.125-60.23 14.784-6.364 7.174-12.561 14.565-18.271 22.175 32.229 8.197 66.397-10.026 85.452-27.369 20.157-17.492 30.494-39.519 30.494-39.519s-15.11 17.27-37.445 29.929z"/><path d="M416.729 66.476h-24.004l-13.54 22h23.999z"/><path d="M702.229 230.546c-2.581 1.756-6.207.406-4.852-3.618 3.377-10.246 16.803-31.126 16.803-31.126l37.396-66.326h-25.616c-1.217 2-3.821 6.592-3.821 6.592-1.185-1.973-4.729-6.363-6.188-7.312-6.258-3.955-15.44-2.085-21.774 1.5-27.539 16.103-47.632 47.918-63.478 72.729 0 0-16.682 27.58-25.941 29.631-7.229.586-6.482-9.152-6.17-11.422 2.795-16.396 9.286-31.982 15.826-46.107 13.301-9.221 28.481-21.296 42.276-34.542 29.938-28.618 55.177-61.039 58.865-68.284 0 0-3.992.806-8.708.951-23.031 32.128-70.164 78.822-84.452 85.773 6.329-15.225 47.227-87.896 82.029-122.658l5.478-5.271c8.468-8.27 17.242-16.759 24.081-18.15.722-.073 1.651 0 2.455 1.686.305 6.439-2.093 11.197-4.843 16.612l-3.854 7.905s5.459-1.025 9.044-2.199c4.16-7.827 8.767-16.612 7.069-27.075-.567-3.367-3.005-5.928-6.189-6.514-10.382-1.976-21.697 5.706-30.801 11.929l-.368.218c-46.801 36.666-86.321 89.506-120.872 161.667-2.504 1.899-12.179 4.17-13.824 3.071 3.412-7.024 7.708-16.467 9.858-26.713.372-2.929.718-5.927.718-8.854 0-6.299-1.512-12.225-7.155-16.322-6.616-3.294-14.793-1.756-20.306.731-24.698 10.246-43.157 35.57-56.477 56.425-7.164 13.25-14.308 27.441-16.285 43.691-1.394 12.732 1.442 20.93 8.682 25.029 7.445 3.803 16.815-.15 20.496-2.051 25.021-13.174 42.503-39.592 56.284-63.744.548-.072 8.072-.291 13.763-1.756.076 0 .108 0 .234.076-.326 1.094-3.268 9.879-3.268 9.879-8.733 25.612-12.772 43.032-4.522 53.35 11.789 14.564 31.306-.51 47.183-20.42-3.408 23.857 8.957 27.592 18.382 25.764 10.827-2.926 22.893-14.492 28.491-20.418-1.798 6.951-1.309 19.395 8.54 20.637 6.751 1.248 11.803-2.424 17.649-5.572 20.969-11.418 46.069-49.465 52.587-60.465h-8.545c-9.263 14.004-21.052 32.36-35.88 41.073zm-188.219-2.548c-1.33-1.977-1.771-4.137-1.814-6.473-.255-14.351 15.184-40.049 26.082-54.049h.022c4.567 10 14.909 16.428 21.152 19.137-7.754 17.274-34.347 54.265-45.442 41.385zm49.818-49.107c-.739.516-13.78-3.877-16.3-15.953-2.139-10.396 5.021-18.519 11.946-22.613 2.974-2.344 7.451-3.146 10.736-1.98 3.049 2.053 3.875 5.715 3.875 9.66 0 2.42-.321 4.906-.604 7.174l-.063.514c-2.172 8.119-5.497 16.098-9.59 23.198zm104.596 44.498c-.011 0-2.474 2.194-2.474 2.194-3.519 3.146-7.138 6.513-11.508 4.828-1.207-.438-2.057-2.047-2.261-3.295-.198-9.002 3.855-17.343 7.786-25.466l1.008-2.123c11.309-18.881 24.452-41.129 43.757-56.569 3.253-2.347 6.782-4.319 10.509-2.78.856.803 1.854 2.194 1.854 3.584 0 .44-.391 1.61-.617 1.975-5.391 8.713-10.525 17.859-15.519 26.641-9.757 17.345-19.88 35.272-32.535 51.011z"/></g></svg>