<?xml version="1.0" encoding="utf-8"?>
<!-- Generator: Adobe Illustrator 16.0.0, SVG Export Plug-In . SVG Version: 6.00 Build 0)  -->
<!DOCTYPE svg PUBLIC "-//W3C//DTD SVG 1.1//EN" "http://www.w3.org/Graphics/SVG/1.1/DTD/svg11.dtd">
<svg version="1.1" id="Layer_1" xmlns:svg="http://www.w3.org/2000/svg"
	 xmlns="http://www.w3.org/2000/svg" xmlns:xlink="http://www.w3.org/1999/xlink" x="0px" y="0px" width="800px" height="261.953px"
	 viewBox="0 0 800 261.953" enable-background="new 0 0 800 261.953" xml:space="preserve">
<g id="g3">
	<path id="path5" d="M307.209,228.509c-29.768-19.176-70.167-22.541-135.32-4.465c-69.457,16.322-92.615,26.785-123.028,5.781
		c-11.684-10.318-15.873-26.931-12.745-50.861c7.255-39.01,26.861-76.551,61.686-118.193c19.439-21.662,37.47-40.252,61.28-47.717
		c18.248-4.683,16.542,9.658,14.334,11.709c-2.33,0-6.244,0.367-9.269,2.341c-2.455,1.904-9.194,8.052-9.556,16.322
		c-0.522,12.66,12.58,10.025,18.231,3.074c6.091-7.833,15.093-22.833,8.012-36.813c-2.968-4.976-8.096-8.415-14.463-9.586
		c-21.802-1.246-42.107,9.147-60.846,20.637C64.543,49.207,31.76,88.655,13.21,131.835c-10.695,26.054-20.367,63.373-5.869,93.748
		c11.215,21.076,34.499,32.271,62.278,29.931c19.483-2.048,43.042-8.345,58.887-12.146c15.845-3.809,96.954-31.689,123.604,16.836
		c0,0,8.862-17.203,31.009-17.57c18.208-1.68,44.475,5.271,63.604,19.32C340.35,252.369,322.282,238.244,307.209,228.509
		L307.209,228.509z"/>
	<path id="path7" d="M180.16,65.674c-15.17-9.953-45.66,9.075-70.081,41.714c-22.332,29.277-31.975,63.303-21.481,79.039
		c15.611,18.515,44.591-8.415,56.915-22.831l1.59-1.685c8.381-9.002,14.856-19.834,21.123-30.228c0,0,5.76-9.514,6.035-9.954
		c3.56-0.656,7.848-1.681,12.68-3.072c-0.069,0.218-18.487,31.176-16.608,46.542c0.585,4.688,0.138,21.813,16.858,27.008
		c22.284,3.735,40.078-13.539,55.776-28.908c0,0,2.675-2.559,4.188-4.021c-0.383,1.533-0.882,3.578-0.882,3.578
		c-6.524,22.688,2.27,27.449,7.771,29.205c16.625,4.834,36.486-19.319,36.55-19.319c-0.515,7.608-2.021,13.901,5.999,18.952
		c7.57,2.709,15.231-1.422,21.054-5.301c20.975-14.783,37.873-37.92,51.522-57.919h-8.706c-0.103,0-21.483,30.988-35.366,37.723
		c-0.022,0-2.548,1.297-4.004,0.271c-1.802-1.537-1.091-4.734,0.022-6.998c0.07-0.147,53.603-92.996,53.603-92.996h-25.276
		c0,0-2.761,4.467-2.986,4.76c-0.17-0.146-0.575-0.914-0.856-1.282c-15.66-21.662-51.123,11.658-77.822,50.298
		c-10.279,14.858-23.366,31.587-36.936,43.662c0,0-20.103,18.428-28.693,5.188c-3.14-5.563-2.174-13.697-0.403-19.037
		c10.001-28.469,27.234-54.307,46.844-69.896c5.536-4.315,11.553-5.563,14.539-3.733c2.845,1.686,3.304,5.854,1.504,8.709
		c-4.567-0.146-8.226,1.242-11.201,4.316c-5.86,6.148-7.896,12.077-6.033,17.64c9.051,12.88,27.102-12.589,26.229-28.104
		c-0.312-5.563-3.28-10.831-7.709-13.395c-6.601-3.95-16.671-2.927-23.188,0.222c-8.724,3.292-22.534,14.781-30.595,23.711
		c-10.148,11.199-27.552,23.639-32.995,22.246C180.924,107.021,195.625,76.943,180.16,65.674L180.16,65.674z M302.021,110.17
		c4.917-6.805,19.228-25.029,22.717-28.102c11.734-10.323,16.424-5.781,16.83-2.563c-10.951,19.613-23.876,42.082-36.028,62.282
		c0.025-0.072-3.803,5.781-3.803,5.781c-5.367,8.195-10.771,15.221-19.586,20.123c-1.257,0.369-3.329,0.516-4.708-0.512
		c-1.66-1.099-2.315-2.929-2.128-4.832C275.843,156.055,282.25,136.811,302.021,110.17L302.021,110.17z M164.516,121.952
		c0,0-0.22,0.661-0.329,0.877c-0.028,0-11.02,17.928-11.02,17.928c-6.634,8.856-14.917,19.984-25.271,25.324
		c-3.069,1.024-7.311,1.685-9.473-1.021c-4.583-5.49-2.221-13.102-0.302-19.248l0.679-2.196
		c5.502-14.928,14.232-28.104,22.729-40.326c0.106-0.072,0.344-0.145,0.43-0.145c0.02,0.073,0.054,0.073,0.069,0.22
		c5.332,10.244,15.33,14.999,22.807,17.198c0.045,0,0.093,0.073,0.093,0.22C164.929,121.001,164.807,121.296,164.516,121.952
		L164.516,121.952z M174.93,100.804c-0.048,0.146-4.896,11.269-4.896,11.269c-0.701,0.585-1.809,0.293-3.079,0l-2.176-0.368
		c-6.833-2.121-11.987-6.659-13.576-12.074c-2.192-10.539,6.811-18.809,10.778-21.808c3.806-2.637,9.723-4.027,13.159-1.318
		c2.119,2.489,2.922,5.708,2.922,9.223C178.063,90.484,176.595,95.826,174.93,100.804L174.93,100.804z"/>
	<path id="path9" d="M494.47,134.759c-2.437-5.268-8.223-8.635-14.389-8.27c-20.023,1.831-39.608,18.297-49.891,41.934
		c-5.396,12.15-8.342,22.175-10.272,38.129c6.226-7.17,18.926-18.952,33.338-25.393c0,0,1.961-15.296,11.961-28.908
		c3.784-5.638,11.357-14.711,19.86-12.297c7.429,2.489,4.817,23.055-5.056,42.957c-7.307,14.639-18.486,29.28-29.799,39.377
		c-10.001,8.489-24.798,18.735-37.743,10.832c-8.154-4.828-12.313-14.931-11.435-27.957c3.896-36.957,20.719-68.427,44.794-104.287
		c24.824-33.299,52.188-67.476,89.051-85.702c7.52-3.805,14.482-4.683,20.501-2.341c0,0-34.604,19.028-51.099,54.231
		c-4.196,8.93-10.032,21.002-4.155,31.688c3.071,5.561,8.524,6.001,12.914,5.708c20.219-4.685,33.282-23.566,43.955-40.836
		c6.188-13.1,11.688-26.127,11.688-40.618c0-1.756-0.091-4.097-0.24-5.855c9.66-5.121,29.468,3.952,29.468,3.952
		c15.479,5.125,48.438,30.375,59.557,35.203c5.423-6.293,14.335-15.806,19.353-20.564l-7.264-4.465
		c-11.63-7.099-23.923-13.833-36.023-20.492c-27.479-15.001-49.846-9.733-61.229-5.634c-4.475,1.609-8.563,3-8.563,3
		c-8.448-9.221-22.303-8.345-32.512-5.855c-36.714,10.538-70.801,36.225-107.347,80.796c-26.867,34.91-43.534,65.062-52.417,94.848
		c-6.847,20.052-8.928,49.545,7.784,67.037c14.209,14.853,33.05,11.635,46.355,6.295c28.827-14.199,54.736-44.791,67.646-79.994
		C496.376,160.814,499.834,146.031,494.47,134.759L494.47,134.759z M560.756,24.471c-3.815,43.765-37.835,69.455-46.252,71.501
		c-5.101,1.023-13.805-1.244-6.035-19.611c11.443-24.739,30.979-45.741,51.94-56.5C560.919,21.691,560.906,22.859,560.756,24.471
		L560.756,24.471z"/>
	<path id="path11" d="M762.555,30.031c-18.299,10.394-37.268,17.125-60.23,14.784c-6.364,7.174-12.561,14.565-18.271,22.175
		c32.229,8.197,66.397-10.026,85.452-27.369C789.663,22.129,800,0.102,800,0.102S784.89,17.372,762.555,30.031L762.555,30.031z"/>
	<polygon id="polygon13" points="416.729,66.476 392.725,66.476 379.185,88.476 403.184,88.476 	"/>
	<path id="path15" d="M702.229,230.546c-2.581,1.756-6.207,0.406-4.852-3.618c3.377-10.246,16.803-31.126,16.803-31.126
		l37.396-66.326H725.96c-1.217,2-3.821,6.592-3.821,6.592c-1.185-1.973-4.729-6.363-6.188-7.312
		c-6.258-3.955-15.44-2.085-21.774,1.5c-27.539,16.103-47.632,47.918-63.478,72.729c0,0-16.682,27.58-25.941,29.631
		c-7.229,0.586-6.482-9.152-6.17-11.422c2.795-16.396,9.286-31.982,15.826-46.107c13.301-9.221,28.481-21.296,42.276-34.542
		c29.938-28.618,55.177-61.039,58.865-68.284c0,0-3.992,0.806-8.708,0.951c-23.031,32.128-70.164,78.822-84.452,85.773
		c6.329-15.225,47.227-87.896,82.029-122.658l5.478-5.271c8.468-8.27,17.242-16.759,24.081-18.15c0.722-0.073,1.651,0,2.455,1.686
		c0.305,6.439-2.093,11.197-4.843,16.612l-3.854,7.905c0,0,5.459-1.025,9.044-2.199c4.16-7.827,8.767-16.612,7.069-27.075
		c-0.567-3.367-3.005-5.928-6.189-6.514c-10.382-1.976-21.697,5.706-30.801,11.929l-0.368,0.218
		c-46.801,36.666-86.321,89.506-120.872,161.667c-2.504,1.899-12.179,4.17-13.824,3.071c3.412-7.024,7.708-16.467,9.858-26.713
		c0.372-2.929,0.718-5.927,0.718-8.854c0-6.299-1.512-12.225-7.155-16.322c-6.616-3.294-14.793-1.756-20.306,0.731
		c-24.698,10.246-43.157,35.57-56.477,56.425c-7.164,13.25-14.308,27.441-16.285,43.691c-1.394,12.732,1.442,20.93,8.682,25.029
		c7.445,3.803,16.815-0.15,20.496-2.051c25.021-13.174,42.503-39.592,56.284-63.744c0.548-0.072,8.072-0.291,13.763-1.756
		c0.076,0,0.108,0,0.234,0.076c-0.326,1.094-3.268,9.879-3.268,9.879c-8.733,25.612-12.772,43.032-4.522,53.35
		c11.789,14.564,31.306-0.51,47.183-20.42c-3.408,23.857,8.957,27.592,18.382,25.764c10.827-2.926,22.893-14.492,28.491-20.418
		c-1.798,6.951-1.309,19.395,8.54,20.637c6.751,1.248,11.803-2.424,17.649-5.572c20.969-11.418,46.069-49.465,52.587-60.465h-8.545
		C728.846,203.477,717.057,221.833,702.229,230.546L702.229,230.546z M514.01,227.998c-1.33-1.977-1.771-4.137-1.814-6.473
		c-0.255-14.351,15.184-40.049,26.082-54.049c0.022,0,0.022,0,0.022,0c4.567,10,14.909,16.428,21.152,19.137
		C551.698,203.887,525.105,240.878,514.01,227.998L514.01,227.998z M563.828,178.891c-0.739,0.516-13.78-3.877-16.3-15.953
		c-2.139-10.396,5.021-18.519,11.946-22.613c2.974-2.344,7.451-3.146,10.736-1.98c3.049,2.053,3.875,5.715,3.875,9.66
		c0,2.42-0.321,4.906-0.604,7.174c0,0-0.055,0.441-0.063,0.514C571.246,163.812,567.921,171.791,563.828,178.891L563.828,178.891z
		 M668.424,223.389c-0.011,0-2.474,2.194-2.474,2.194c-3.519,3.146-7.138,6.513-11.508,4.828c-1.207-0.438-2.057-2.047-2.261-3.295
		c-0.198-9.002,3.855-17.343,7.786-25.466l1.008-2.123c11.309-18.881,24.452-41.129,43.757-56.569
		c3.253-2.347,6.782-4.319,10.509-2.78c0.856,0.803,1.854,2.194,1.854,3.584c0,0.44-0.391,1.61-0.617,1.975
		c-5.391,8.713-10.525,17.859-15.519,26.641C691.202,189.723,681.079,207.65,668.424,223.389L668.424,223.389z"/>
</g>
</svg>
