<?xml version="1.0" encoding="utf-8"?>
<!-- Generator: Adobe Illustrator 16.0.0, SVG Export Plug-In . SVG Version: 6.00 Build 0)  -->
<!DOCTYPE svg PUBLIC "-//W3C//DTD SVG 1.1//EN" "http://www.w3.org/Graphics/SVG/1.1/DTD/svg11.dtd">
<svg version="1.1" id="Layer_1" xmlns="http://www.w3.org/2000/svg" xmlns:xlink="http://www.w3.org/1999/xlink" x="0px" y="0px"
	 width="800px" height="197.5px" viewBox="0 0 800 197.5" enable-background="new 0 0 800 197.5" xml:space="preserve">
<path d="M25.1,0.1h172.1l-7.3,56.3H18.1L25.1,0.1z M15,77.1h172.3l-5.3,45.8H74.3L71.5,144.8h107.9l-6.7,52.3H0L15,77.1z M200,56.4
	c0,0,1.2-19.2,6-29.2c4.5-9.4,10.5-16.2,20.6-21.9c6-3.2,16.7-5.2,16.7-5.2h310c0,0,13,0.2,18.601,2.5c6,2.5,14.699,6.2,19.3,17.4
	c4.5,10.7,3.6,14.2,3.6,24.9c0,10.5-0.3,11.5-0.3,11.5H200z M197.2,77.6h158.6c0,0,14.101,0,20.601,3.9
	c6.8,4.5,9.899,10,11.899,18.7c1.9,8.7-3.399,52.6-6.5,63.3C378.4,174,374.4,183.9,358,192.1c-14.7,7.5-37,5-37,5H184l8.1-52.3
	h128.3l2.6-22.2h-88.5c0,0-14.4,2-27.9-9.699c-8.2-7-9.1-17.7-9.6-22.4C196.4,87.8,197.2,77.6,197.2,77.6z M403.5,77.6h187.1
	c0,0-1.699,21.6-6.8,29.3c-5.1,8-9.6,12.3-18.1,14.199c-8.7,2-21.7,2-21.7,2h-81.4l-8.5,74h-65.3L403.5,77.6z M603.3,56.9h194.4
	c0,0,3.7-17,1.7-27.7c-2-10.7-6.801-17.9-14.7-23.1c-10.4-7.3-29.4-6-29.101-6c-0.3,0-144.399,0-144.399,0L603.3,56.9z M600.8,77.6
	h64.4l-14.7,119.5h-63.9L600.8,77.6z M730.2,78.1H794l-14.7,119h-63.5L730.2,78.1z"/>
</svg>
