<?xml version="1.0" encoding="utf-8"?>
<!-- Generator: Adobe Illustrator 16.0.0, SVG Export Plug-In . SVG Version: 6.00 Build 0)  -->
<!DOCTYPE svg PUBLIC "-//W3C//DTD SVG 1.1//EN" "http://www.w3.org/Graphics/SVG/1.1/DTD/svg11.dtd">
<svg version="1.1" id="Layer_1" xmlns="http://www.w3.org/2000/svg" xmlns:xlink="http://www.w3.org/1999/xlink" x="0px" y="0px"
	 width="350px" height="350px" viewBox="0 0 350 350" enable-background="new 0 0 350 350" xml:space="preserve">
<g id="_x23_fefffeff">
	<path fill="#FEFFFE" d="M160.47,18.62c30.059-2.45,60.799,4.21,87.2,18.76c45.02,24.26,76.92,71.58,81.45,122.65
		c3.41,31.47-3.311,63.9-18.62,91.58c-15.32,27.881-39.29,50.971-67.82,65.091c-22.39,11.29-47.59,16.989-72.67,16.44
		c-34.35-0.291-68.36-12.58-95.25-33.91c-23.14-18.36-41.04-43.24-50.84-71.131C8.64,185.21,13.14,135.63,36.45,96.45
		c15.65-27.16,39.78-49.26,68-62.86C121.99,25.2,141.07,20.01,160.47,18.62 M132.62,33.59c-27.11,7.32-52.42,23.27-68.5,46.57
		c-10.83,15.32-17.06,33.46-20.26,51.82c-1.52,11.46-2.15,23.96,3.58,34.43c2.65,5.2,7.28,9.13,9.56,14.529
		c2.17,4.791,0.63,11.271-4.04,14c-4.38,3.141-10.57,1.94-14.53-1.33c-5.71-4.479-8.13-11.789-9.35-18.689
		c-2.41-15.54,0.72-31.26,4.68-46.26c-3.1,1.29-2.65,5.58-3.82,8.3c-6.77,26.25-6.72,54.31,0.7,80.42
		c7.01,24.94,21.32,48.101,41.98,63.979c15.56,12.311,34.63,19.311,53.93,23.101c11.64,1.96,24.3,2.74,35.21-2.56
		c5.41-2.711,9.46-7.43,14.76-10.301c4.461-2.32,10.271-1.56,13.76,2.121c4.031,4.02,4.101,10.909,0.82,15.409
		c-3.539,4.82-9.24,7.5-14.869,9.05c-12.42,3.11-25.411,1.711-37.84-0.55c-4.55-0.72-8.86-2.739-13.51-2.729
		c2.49,2.459,6.14,2.89,9.35,3.85c24.39,6.01,50.28,6.05,74.709,0.21c28.11-6.76,54.711-22.58,71.41-46.55
		c10.82-14.881,16.78-32.66,20.461-50.52c1.959-13.19,2.949-28.101-5.061-39.601c-3.73-5.49-9.721-10.77-8.52-18.1
		c0.51-6.85,8.18-11.18,14.479-8.95c8.23,2.67,12.08,11.49,13.76,19.31c3.2,16.2,0.021,32.851-4.26,48.54
		c1.12-0.17,1.81-0.8,2.07-1.88c7.38-23.04,8.66-47.89,4.399-71.67c-4.89-27.87-17.77-55.05-39.199-73.98
		c-12.86-11.73-28.711-20-45.471-24.57c-13.96-4.15-29.07-7.02-43.48-3.45c-7.09,1.55-12.6,6.52-18.279,10.69
		c-4.81,3.71-12.51,3.96-16.85-0.63c-3.91-4.16-3.55-11.04-0.18-15.42c4.48-5.9,11.89-8.63,18.95-9.9
		c11.27-1.68,22.79-0.58,33.91,1.64c4.41,0.76,8.529,2.79,13.02,3.12c-0.93-0.78-1.84-1.65-3.02-2.02
		C189.88,26.24,160.12,25.91,132.62,33.59z"/>
	<path fill="#FEFFFE" d="M136.34,89.34c6.08-3.2,13.85-4.16,20.05-0.78c4.96,2.84,6.9,8.99,6.41,14.42
		c-0.88,10.78-6.09,20.72-12.64,29.14c-7.08,8.56-15.81,16.14-26.27,20.2c0.8,3.34,3.32,6.9,7.1,6.88
		c6.62,0.24,12.36-3.94,17.12-8.1c3.42-2.6,3.6-7.15,5.2-10.82c2.33-5.74,5.5-11.86,11.28-14.76c2.71-1.44,6.85-1.72,8.72,1.17
		c2.04,3.9,0.19,8.37-1.77,11.9c-2.68,5.12-6.92,9.13-10.29,13.74c-1.27,4.28-1.5,8.78-1.58,13.22c4.68-2.07,8.88-5.02,13.29-7.58
		c7.67-4.96,15.63-9.58,22.75-15.32c0.819-2.77-0.3-5.79-0.17-8.67c-0.44-13.94,4.38-28.23,13.88-38.54
		c5.91-6.23,14.811-10.62,23.51-8.43c5.221,0.95,9.311,5.19,10.78,10.18c1.86,7.53-0.72,15.4-4.681,21.81
		c-6.819,10.67-16.739,18.82-26.779,26.32c1.34,3.34,3.25,7.13,6.859,8.37c5.17-0.99,10.431-2.4,15.721-1.35
		c3.54,0.74,7.79,1.8,9.52,5.33c1.601,3.44-1.459,6.96-4.6,8.03c-6.68,2.18-13.75,0.95-20.57,0.43
		c-8.119,1.94-15.18,7.31-20.24,13.851c-7.859,10.33-10.289,24-8.58,36.67c1.631,10.51,6.91,21.1,16.19,26.81
		c10.45,6.69,25.511,5.271,34.171-3.76c8.17-8.431,10.75-21.851,6.199-32.681c-1.93-4.76-6.08-8.819-11.279-9.629
		c-6.07-1.371-13.281,2.58-14.16,9.029c-0.881,4.96,2.6,9.07,5.539,12.62c2.271,2.351,2.541,6.69-0.279,8.72
		c-4.37,2.99-10.43,0.891-13.91-2.58c-8.59-8.479-8.32-23.789-0.09-32.449c10.46-12,31.289-12.23,41.99-0.41
		c11.439,12.67,12.879,32.979,4.08,47.5c-6.601,11.4-18.5,19.63-31.58,21.49c-14.23,2.109-29.601-2.4-39.601-12.951
		c-19.56-19.92-19.25-54.949-0.59-75.359c4.989-5.97,11.58-10.22,18.19-14.16c-1.431-1.93-2.931-3.81-4.451-5.68
		c-12.84,9.31-26.27,17.77-40.089,25.54c-2.34,0.86-1.92,3.68-2.26,5.67c-1.23,17.01-2.68,34.739-11.14,49.94
		c-5.72,10.739-14.37,20.58-25.97,25c-9.2,3.469-20.33,3.779-28.77-1.811c-8.08-5.07-11.75-15.189-11.13-24.41
		c1.28-11.73,7.95-22.32,16.43-30.279c11.64-10.631,25.75-17.98,39.6-25.281c2.82-1.569,5.89-2.759,8.41-4.789
		c0.93-2.54,1.07-5.27,1.33-7.93c-7.18,4.34-16.25,7.83-24.51,4.5c-6.75-2.6-10.95-9.06-13.1-15.68
		c-6.37-0.68-12.78-3.22-16.84-8.36c-7.08-8.49-7.53-21.4-2.41-30.97c1.71-3.45,5.55-5.3,9.31-5.07c0.73,1.48,2.1,2.95,1.6,4.75
		c-1.12,6.21-3.3,12.66-1.24,18.95c1.02,4.3,4.58,7.73,9,8.32c0.94-10.18,2.92-20.4,7.71-29.55
		C121.22,102.8,127.38,94.17,136.34,89.34 M142.33,99.3c-6.04,4.11-9.72,10.68-12.9,17.07c-3.42,7.21-6.18,14.96-6.49,23
		c2.31-1.02,4.49-2.35,6.36-4.06c7.56-6.58,14.17-14.42,18.6-23.46c1.56-3.27,2.91-6.98,2.02-10.64
		C148.77,98.24,144.76,97.46,142.33,99.3 M220.5,102.44c-7.061,8.22-10.939,19.12-10.82,29.95c7.961-6.57,15.301-14.27,20.25-23.4
		c1.42-2.92,3.301-7.69-0.3-9.82C226.35,97.48,222.65,99.96,220.5,102.44 M113.45,207.49c-6.94,6.23-13.71,13.49-16.23,22.699
		c-1.21,4.94-1.49,11.181,2.66,14.86c4.38,4,10.98,2.81,16.04,0.91c9.76-3.76,15.65-13.21,19.62-22.39
		c4.63-11.4,7.5-23.541,8.67-35.791C133.13,192.9,122.78,199.641,113.45,207.49z"/>
</g>
<g id="_x23_3a73b8ff">
	<path d="M160.51,10.68c32.65-2.49,65.971,5.14,94.311,21.53c22.67,13.07,42.27,31.51,56.46,53.52
		c17.62,26.91,26.939,59.12,26.67,91.28c-0.21,33.61-10.91,67.1-30.46,94.471c-19.83,28.069-48.66,49.689-81.2,60.75
		c-28.899,10-60.57,11.569-90.39,4.89c-31.27-6.97-60.32-23.42-82.54-46.49C29.81,266.24,13.87,234.49,9,200.9
		c-4.79-29.92-0.83-61.13,10.86-89.05C30.71,85.88,48.38,62.86,70.5,45.49C96.14,25.27,127.92,12.94,160.51,10.68 M160.47,18.62
		c-19.4,1.39-38.48,6.58-56.02,14.97c-28.22,13.6-52.35,35.7-68,62.86C13.14,135.63,8.64,185.21,23.92,228.1
		c9.8,27.891,27.7,52.771,50.84,71.131c26.89,21.33,60.9,33.619,95.25,33.91c25.08,0.549,50.28-5.15,72.67-16.44
		c28.53-14.12,52.5-37.21,67.82-65.091c15.31-27.68,22.03-60.109,18.62-91.58c-4.53-51.07-36.431-98.39-81.45-122.65
		C221.27,22.83,190.529,16.17,160.47,18.62z"/>
	<path d="M132.62,33.59c27.5-7.68,57.26-7.35,84.46,1.43c1.18,0.37,2.09,1.24,3.02,2.02c-4.49-0.33-8.609-2.36-13.02-3.12
		c-11.12-2.22-22.641-3.32-33.91-1.64c-7.06,1.27-14.47,4-18.95,9.9c-3.37,4.38-3.73,11.26,0.18,15.42
		c4.34,4.59,12.04,4.34,16.85,0.63c5.68-4.17,11.189-9.14,18.279-10.69c14.41-3.57,29.521-0.7,43.48,3.45
		c16.76,4.57,32.61,12.84,45.471,24.57c21.43,18.93,34.31,46.11,39.199,73.98c4.261,23.78,2.98,48.63-4.399,71.67
		c-0.261,1.08-0.95,1.71-2.07,1.88c4.28-15.689,7.46-32.34,4.26-48.54c-1.68-7.82-5.529-16.64-13.76-19.31
		c-6.3-2.23-13.97,2.1-14.479,8.95c-1.201,7.33,4.789,12.61,8.52,18.1c8.01,11.5,7.02,26.41,5.061,39.601
		c-3.681,17.859-9.641,35.639-20.461,50.52c-16.699,23.97-43.3,39.79-71.41,46.55c-24.43,5.84-50.319,5.8-74.709-0.21
		c-3.21-0.96-6.86-1.391-9.35-3.85c4.65-0.01,8.96,2.01,13.51,2.729c12.43,2.261,25.42,3.66,37.84,0.55
		c5.629-1.55,11.33-4.229,14.869-9.05c3.28-4.5,3.211-11.39-0.82-15.409c-3.489-3.681-9.299-4.441-13.76-2.121
		c-5.299,2.871-9.35,7.59-14.76,10.301c-10.91,5.3-23.57,4.52-35.21,2.56c-19.3-3.79-38.37-10.79-53.93-23.101
		C51.96,265.48,37.65,242.32,30.64,217.38c-7.42-26.11-7.47-54.17-0.7-80.42c1.17-2.72,0.72-7.01,3.82-8.3
		c-3.96,15-7.09,30.72-4.68,46.26c1.22,6.9,3.64,14.21,9.35,18.689c3.96,3.271,10.15,4.471,14.53,1.33
		c4.67-2.729,6.21-9.209,4.04-14c-2.28-5.399-6.91-9.33-9.56-14.529c-5.73-10.47-5.1-22.97-3.58-34.43
		c3.2-18.36,9.43-36.5,20.26-51.82C80.2,56.86,105.51,40.91,132.62,33.59 M136.34,89.34c-8.96,4.83-15.12,13.46-19.63,22.36
		c-4.79,9.15-6.77,19.37-7.71,29.55c-4.42-0.59-7.98-4.02-9-8.32c-2.06-6.29,0.12-12.74,1.24-18.95c0.5-1.8-0.87-3.27-1.6-4.75
		c-3.76-0.23-7.6,1.62-9.31,5.07c-5.12,9.57-4.67,22.48,2.41,30.97c4.06,5.14,10.47,7.68,16.84,8.36
		c2.15,6.62,6.35,13.08,13.1,15.68c8.26,3.33,17.33-0.16,24.51-4.5c-0.26,2.66-0.4,5.39-1.33,7.93c-2.52,2.03-5.59,3.22-8.41,4.789
		c-13.85,7.301-27.96,14.65-39.6,25.281c-8.48,7.959-15.15,18.549-16.43,30.279c-0.62,9.221,3.05,19.34,11.13,24.41
		c8.44,5.59,19.57,5.279,28.77,1.811c11.6-4.42,20.25-14.261,25.97-25c8.46-15.201,9.91-32.931,11.14-49.94
		c0.34-1.99-0.08-4.81,2.26-5.67c13.82-7.77,27.25-16.23,40.089-25.54c1.521,1.87,3.021,3.75,4.451,5.68
		c-6.61,3.94-13.201,8.19-18.19,14.16c-18.66,20.41-18.97,55.439,0.59,75.359c10,10.551,25.37,15.061,39.601,12.951
		c13.08-1.86,24.979-10.09,31.58-21.49c8.799-14.521,7.359-34.83-4.08-47.5c-10.701-11.82-31.53-11.59-41.99,0.41
		c-8.23,8.66-8.5,23.97,0.09,32.449c3.48,3.471,9.54,5.57,13.91,2.58c2.82-2.029,2.55-6.369,0.279-8.72
		c-2.939-3.55-6.42-7.66-5.539-12.62c0.879-6.449,8.09-10.4,14.16-9.029c5.199,0.81,9.35,4.869,11.279,9.629
		c4.551,10.83,1.971,24.25-6.199,32.681c-8.66,9.03-23.721,10.45-34.171,3.76c-9.28-5.71-14.56-16.3-16.19-26.81
		c-1.709-12.67,0.721-26.34,8.58-36.67c5.061-6.541,12.121-11.911,20.24-13.851c6.82,0.52,13.891,1.75,20.57-0.43
		c3.141-1.07,6.2-4.59,4.6-8.03c-1.729-3.53-5.979-4.59-9.52-5.33c-5.29-1.05-10.551,0.36-15.721,1.35
		c-3.609-1.24-5.52-5.03-6.859-8.37c10.04-7.5,19.96-15.65,26.779-26.32c3.961-6.41,6.541-14.28,4.681-21.81
		c-1.47-4.99-5.56-9.23-10.78-10.18c-8.699-2.19-17.6,2.2-23.51,8.43c-9.5,10.31-14.32,24.6-13.88,38.54
		c-0.13,2.88,0.989,5.9,0.17,8.67c-7.12,5.74-15.08,10.36-22.75,15.32c-4.41,2.56-8.61,5.51-13.29,7.58
		c0.08-4.44,0.31-8.94,1.58-13.22c3.37-4.61,7.61-8.62,10.29-13.74c1.96-3.53,3.81-8,1.77-11.9c-1.87-2.89-6.01-2.61-8.72-1.17
		c-5.78,2.9-8.95,9.02-11.28,14.76c-1.6,3.67-1.78,8.22-5.2,10.82c-4.76,4.16-10.5,8.34-17.12,8.1c-3.78,0.02-6.3-3.54-7.1-6.88
		c10.46-4.06,19.19-11.64,26.27-20.2c6.55-8.42,11.76-18.36,12.64-29.14c0.49-5.43-1.45-11.58-6.41-14.42
		C150.19,85.18,142.42,86.14,136.34,89.34z"/>
	<path d="M142.33,99.3c2.43-1.84,6.44-1.06,7.59,1.91c0.89,3.66-0.46,7.37-2.02,10.64c-4.43,9.04-11.04,16.88-18.6,23.46
		c-1.87,1.71-4.05,3.04-6.36,4.06c0.31-8.04,3.07-15.79,6.49-23C132.61,109.98,136.29,103.41,142.33,99.3z"/>
	<path d="M220.5,102.44c2.15-2.48,5.85-4.96,9.13-3.27c3.601,2.13,1.72,6.9,0.3,9.82c-4.949,9.13-12.289,16.83-20.25,23.4
		C209.561,121.56,213.439,110.66,220.5,102.44z"/>
	<path d="M113.45,207.49c9.33-7.85,19.68-14.59,30.76-19.711c-1.17,12.25-4.04,24.391-8.67,35.791
		c-3.97,9.18-9.86,18.63-19.62,22.39c-5.06,1.899-11.66,3.09-16.04-0.91c-4.15-3.68-3.87-9.92-2.66-14.86
		C99.74,220.98,106.51,213.721,113.45,207.49z"/>
</g>
</svg>
