<svg shape-rendering="geometricPrecision" text-rendering="geometricPrecision" image-rendering="optimizeQuality" xmlns="http://www.w3.org/2000/svg" width="539.785" height="191.585" viewBox="0 0 539.785 191.585"><path d="M233.667 91.328c0 11.367-3.94 21.316-11.792 29.791-8.56 9.213-19.756 13.833-33.589 13.833-13.322 0-24.179-4.536-32.512-13.634-7.37-8.135-11.083-17.717-11.083-28.714 0-11.961 4.365-22.222 13.124-30.783 8.759-8.56 19.785-12.84 33.135-12.84 12.614 0 23.045 4.365 31.265 13.096 7.625 8.135 11.423 17.886 11.423 29.252h.029zm-41.242 38.238c7.738 0 13.804-3.062 18.226-9.156 3.571-4.902 5.357-11.535 5.357-19.926 0-10.403-2.154-20.04-6.434-28.912-5.584-11.367-13.322-17.064-23.215-17.064-6.179 0-11.537 2.041-16.072 6.094-5.471 4.904-8.22 12.217-8.22 21.911 0 10.885 2.381 20.948 7.143 30.16 5.726 11.253 13.464 16.865 23.215 16.865v.028z"/><path d="M329.672 91.328c0 11.367-3.94 21.316-11.792 29.791-8.561 9.213-19.756 13.833-33.589 13.833-13.322 0-24.178-4.536-32.512-13.634-7.37-8.135-11.083-17.717-11.083-28.714 0-11.961 4.365-22.222 13.124-30.783 8.759-8.56 19.785-12.84 33.136-12.84 12.613 0 23.045 4.365 31.264 13.096 7.625 8.135 11.424 17.886 11.424 29.252h.028zm-41.242 38.238c7.738 0 13.804-3.062 18.226-9.156 3.572-4.902 5.357-11.535 5.357-19.926 0-10.403-2.154-20.04-6.434-28.912-5.584-11.367-13.322-17.064-23.215-17.064-6.18 0-11.537 2.041-16.072 6.094-5.471 4.904-8.22 12.217-8.22 21.911 0 10.885 2.381 20.948 7.143 30.16 5.726 11.253 13.464 16.865 23.215 16.865v.028z"/><path d="M233.667 91.328c0 11.367-3.94 21.316-11.792 29.791-8.56 9.213-19.756 13.833-33.589 13.833-13.322 0-24.179-4.536-32.512-13.634-7.37-8.135-11.083-17.717-11.083-28.714 0-11.961 4.365-22.222 13.124-30.783 8.759-8.56 19.785-12.84 33.135-12.84 12.614 0 23.045 4.365 31.265 13.096 7.625 8.135 11.423 17.886 11.423 29.252h.029zm-41.242 38.238c7.738 0 13.804-3.062 18.226-9.156 3.571-4.902 5.357-11.535 5.357-19.926 0-10.403-2.154-20.04-6.434-28.912-5.584-11.367-13.322-17.064-23.215-17.064-6.179 0-11.537 2.041-16.072 6.094-5.471 4.904-8.22 12.217-8.22 21.911 0 10.885 2.381 20.948 7.143 30.16 5.726 11.253 13.464 16.865 23.215 16.865v.028z"/><path d="M329.672 91.328c0 11.367-3.94 21.316-11.792 29.791-8.561 9.213-19.756 13.833-33.589 13.833-13.322 0-24.178-4.536-32.512-13.634-7.37-8.135-11.083-17.717-11.083-28.714 0-11.961 4.365-22.222 13.124-30.783 8.759-8.56 19.785-12.84 33.136-12.84 12.613 0 23.045 4.365 31.264 13.096 7.625 8.135 11.424 17.886 11.424 29.252h.028zm-41.242 38.238c7.738 0 13.804-3.062 18.226-9.156 3.572-4.902 5.357-11.535 5.357-19.926 0-10.403-2.154-20.04-6.434-28.912-5.584-11.367-13.322-17.064-23.215-17.064-6.18 0-11.537 2.041-16.072 6.094-5.471 4.904-8.22 12.217-8.22 21.911 0 10.885 2.381 20.948 7.143 30.16 5.726 11.253 13.464 16.865 23.215 16.865v.028z"/><path d="M108.948 35.687l17.262-17.999c-56.265-36.169-125.285-4.054-124.236 52.183.935 49.802 43.084 83.589 124.492 58.306l.51-35.262 7.738-7.738h-42.235l-7.738 7.256h24.009v32.994c-43.539 12.273-84.469-9.779-87.247-58.504-2.041-55.103 54.083-72.365 87.445-42.801l.057 11.565h-.057zM397.162 122.99c-1.332-.766-2.352-1.842-3.203-3.033-.85-1.189-1.473-2.494-2.012-3.685-.652-3.714 2.041-8.192 4.678-9.893 20.748-13.266 22.107-33.532 4.307-49.859h9.779l6.746-7.256h-42.12c-42.036-.312-50.511 64.854.878 63.493-2.551 6.52-2.125 12.557 3.998 17.744-74.066 7.285-50.625 56.01-18 56.974 11.311.822 7.852.624 14.994.794 22.932-.709 35.035-10.318 40.053-23.867 4.279-11.565 1.048-29.224-20.098-41.412zm-17.772-15.987l.027-.029c-7.171 0-12.925-3.883-17.29-11.649-3.656-6.434-5.471-13.351-5.471-20.749 0-4.592.907-8.418 2.722-11.451 3.033-5.329 7.682-7.994 14.002-7.994 6.916 0 12.613 3.94 17.092 11.82 3.884 6.803 5.811 14.003 5.811 21.656 0 5.839-1.502 10.262-4.535 13.294-3.373 3.401-7.511 5.102-12.358 5.102zm20.578 67.434c-4.875 3.77-11.564 5.668-20.097 5.668-9.638 0-17.403-2.068-23.3-6.207-5.924-4.139-8.872-9.496-8.872-16.072 0-8.9 5.244-15.164 15.704-18.82 5.725-1.957 12.131-2.92 19.189-2.92 1.813 0 3.23.057 4.195.17 7.681 5.499 12.727 9.553 15.164 12.245 3.174 3.543 4.762 7.483 4.762 11.876.001 5.839-2.237 10.516-6.745 14.06zM430.978 14.853h-11.508l7.512-7.994h29.762l-7.256 8.249v107.995c.482 4.365 4.535 5.896 13.236 6.236l-4.252 5.754h-35.488l7.994-7.512v-112.756.028zM480.751 94.163h.029l54.99-22.251c-2.863-20.805-33.902-28.374-51.76-18.254-53.062 31.463-.766 118.37 54.848 66.752-27.946 11.679-47.505 3.402-58.107-26.247zm14.457-38.55c6.916-1.928 17.715 2.608 21.258 11.253 1.984 4.139.709 6.35-3.004 7.994l-34.07 13.18c-2.07-14.399-.283-26.729 15.816-32.427z"/></svg>