<svg xmlns="http://www.w3.org/2000/svg" width="101" height="121" viewBox="0 0 101 121"><path d="M50.137 71.34c-.953 0-1.905.049-2.66.148-3.581.482-4.923 1.416-6.178 3.791-.816 1.527-2.456 6.173-3.767 12.092-2.752-.1-5.406-.229-7.697-.384-.894-8.307-2.953-42.892-3.006-54.764 1.447-.096 2.987-.219 4.685-.293 1.027 5.486 4.447 24.597 7.243 30.605 1.243 2.679 3.408 3.591 6.061 3.795 2.647.186 7.984.186 10.644 0 2.647-.204 4.812-1.116 6.056-3.795 2.795-6.008 6.216-25.119 7.242-30.605 1.694.074 3.241.198 4.688.293-.056 11.872-2.109 46.457-3.013 54.764-2.294.154-4.941.284-7.693.384-1.312-5.919-2.95-10.564-3.767-12.092-1.256-2.375-2.598-3.309-6.179-3.791-.76-.099-1.706-.148-2.659-.148M50.137 96.352c-7.137 0-23.45-.439-28.821-1.447-5.706-1.07-9.556-4.342-11.445-9.723-1.618-4.59-2.805-13.118-3.538-25.339-.458-7.657-.451-14.535.022-20.423.81-10.022 5.439-14.021 15.122-15.116 6.47-.73 20.93-1.076 28.661-1.076s22.191.346 28.654 1.076c9.686 1.095 14.318 5.093 15.122 15.116.477 5.888.482 12.766.025 20.422-.73 12.221-1.918 20.75-3.532 25.339-1.893 5.381-5.739 8.652-11.454 9.723-5.363 1.008-21.679 1.448-28.816 1.448zm27.999-5.802c4.385-.822 7.119-4.058 8.09-6.834 1.015-2.895 2.412-9.42 3.29-24.14.452-7.453.445-14.117-.019-19.804-.544-6.803-3.977-10.249-11.2-11.064-6.303-.715-20.527-1.045-28.16-1.045-7.632 0-21.86.331-28.163 1.045-7.221.816-10.65 4.261-11.204 11.064-.455 5.687-.458 12.351-.016 19.804.881 14.72 2.279 21.245 3.293 24.14.977 2.776 3.702 6.012 8.083 6.834 4.518.848 19.353 1.373 28.005 1.373 8.655 0 23.486-.526 28.001-1.373"/></svg>