<?xml version="1.0" encoding="utf-8"?>
<!-- Generator: Adobe Illustrator 16.0.0, SVG Export Plug-In . SVG Version: 6.00 Build 0)  -->
<!DOCTYPE svg PUBLIC "-//W3C//DTD SVG 1.1//EN" "http://www.w3.org/Graphics/SVG/1.1/DTD/svg11.dtd">
<svg version="1.1"
	 id="Layer_1" xmlns:dc="http://purl.org/dc/elements/1.1/" xmlns:cc="http://creativecommons.org/ns#" xmlns:rdf="http://www.w3.org/1999/02/22-rdf-syntax-ns#" xmlns:svg="http://www.w3.org/2000/svg"
	 xmlns="http://www.w3.org/2000/svg" xmlns:xlink="http://www.w3.org/1999/xlink" x="0px" y="0px" width="101px" height="121px"
	 viewBox="0 0 101 121" enable-background="new 0 0 101 121" xml:space="preserve">
<path d="M50.137,71.34c-0.953,0-1.905,0.049-2.66,0.148c-3.581,0.482-4.923,1.416-6.178,3.791
	c-0.816,1.527-2.456,6.173-3.767,12.092c-2.752-0.1-5.406-0.229-7.697-0.384c-0.894-8.307-2.953-42.892-3.006-54.764
	c1.447-0.096,2.987-0.219,4.685-0.293c1.027,5.486,4.447,24.597,7.243,30.605c1.243,2.679,3.408,3.591,6.061,3.795
	c2.647,0.186,7.984,0.186,10.644,0c2.647-0.204,4.812-1.116,6.056-3.795c2.795-6.008,6.216-25.119,7.242-30.605
	c1.694,0.074,3.241,0.198,4.688,0.293c-0.056,11.872-2.109,46.457-3.013,54.764c-2.294,0.154-4.941,0.284-7.693,0.384
	c-1.312-5.919-2.95-10.564-3.767-12.092c-1.256-2.375-2.598-3.309-6.179-3.791C52.036,71.389,51.09,71.34,50.137,71.34"/>
<path d="M50.137,96.352c-7.137,0-23.45-0.439-28.821-1.447c-5.706-1.07-9.556-4.342-11.445-9.723
	c-1.618-4.59-2.805-13.118-3.538-25.339C5.875,52.186,5.882,45.308,6.355,39.42c0.81-10.022,5.439-14.021,15.122-15.116
	c6.47-0.73,20.93-1.076,28.661-1.076s22.191,0.346,28.654,1.076c9.686,1.095,14.318,5.093,15.122,15.116
	c0.477,5.888,0.482,12.766,0.025,20.422c-0.73,12.221-1.918,20.75-3.532,25.339c-1.893,5.381-5.739,8.652-11.454,9.723
	C73.59,95.912,57.274,96.352,50.137,96.352z M78.136,90.55c4.385-0.822,7.119-4.058,8.09-6.834c1.015-2.895,2.412-9.42,3.29-24.14
	c0.452-7.453,0.445-14.117-0.019-19.804c-0.544-6.803-3.977-10.249-11.2-11.064c-6.303-0.715-20.527-1.045-28.16-1.045
	c-7.632,0-21.86,0.331-28.163,1.045c-7.221,0.816-10.65,4.261-11.204,11.064c-0.455,5.687-0.458,12.351-0.016,19.804
	c0.881,14.72,2.279,21.245,3.293,24.14c0.977,2.776,3.702,6.012,8.083,6.834c4.518,0.848,19.353,1.373,28.005,1.373
	C58.79,91.923,73.621,91.397,78.136,90.55"/>
</svg>
