<svg xmlns="http://www.w3.org/2000/svg" width="645" height="330" viewBox="0 0 645 330"><path d="M206.469 39.432c6.654-1.291 11.053-1.254 12.617.418.982 1.036 1.254 2.818-.018 5.054-.691 1.182-1.418 2.218-2.763 3.818-56.521 66.593-99.571 164.891-111.806 193.251-.927 1.981-1.854 3.927-2.582 5.2-1.109 1.999-2.636 3.617-5.345 3.817-1.491.054-3.563-.272-6.69-2.146-37.523-23.161-59.775-51.939-59.775-83.227-.001-56.483 72.591-104.969 176.362-126.185m57.921 42.468c5.309-12.326 14.507-38.741 35.578-49.213 6.399-3.2 14.271-4.69 21.325-4.909h3.218c58.975 0 113.842 8.181 159.854 22.18.364.146 1.418.563 1.728.654 4.272 1.436 6.417 3.381 6.417 5.781 0 2.145-1.091 3.708-2.581 5.218-.69.672-1.637 1.491-2.927 2.582-10.599 8.872-42.577 31.978-102.789 54.994-21.125 8.072-47.559 18.125-75.174 23.998-16.234 3.436-76.41 12.598-44.649-61.285m280.878 2.109c1.092-2 2.637-3.654 5.327-3.854 1.545-.055 3.545.309 6.69 2.182 37.486 23.125 59.793 51.958 59.793 83.245 0 56.467-72.61 104.934-176.362 126.132-6.69 1.29-11.054 1.29-12.635-.382-.981-1.109-1.255-2.854.036-5.072.654-1.164 1.399-2.218 2.745-3.818 56.521-66.61 99.607-164.909 111.824-193.251.91-2 1.836-3.909 2.582-5.182m-161.509 165.001c-5.327 12.344-14.489 38.74-35.614 49.248-6.327 3.127-14.235 4.691-21.344 4.854-1.545.091-2.672.055-3.145.055-58.976 0-113.86-8.181-159.892-22.179-.345-.128-1.363-.546-1.69-.691-4.291-1.418-6.454-3.327-6.454-5.745 0-2.127 1.109-3.727 2.654-5.199.618-.673 1.6-1.509 2.891-2.545 10.581-8.908 42.559-32.052 102.771-55.067 21.143-8.071 47.577-18.143 75.192-23.997 16.216-3.418 76.391-12.562 44.631 61.266m-60.157 80.281c176.526 0 319.602-73.282 319.602-163.618-.001-90.481-143.076-163.673-319.602-163.673-176.49 0-319.602 73.192-319.602 163.673 0 90.336 143.112 163.618 319.602 163.618"/></svg>