<?xml version="1.0" encoding="utf-8"?>
<!-- Generator: Adobe Illustrator 16.0.0, SVG Export Plug-In . SVG Version: 6.00 Build 0)  -->
<!DOCTYPE svg PUBLIC "-//W3C//DTD SVG 1.1//EN" "http://www.w3.org/Graphics/SVG/1.1/DTD/svg11.dtd">
<svg version="1.1" id="svg3372" xmlns:svg="http://www.w3.org/2000/svg"
	 xmlns="http://www.w3.org/2000/svg" xmlns:xlink="http://www.w3.org/1999/xlink" x="0px" y="0px" width="645px" height="330px"
	 viewBox="0 0 645 330" enable-background="new 0 0 645 330" xml:space="preserve">
<path id="path337" d="M206.469,39.432c6.654-1.291,11.053-1.254,12.617,0.418c0.982,1.036,1.254,2.818-0.018,5.054
	c-0.691,1.182-1.418,2.218-2.763,3.818c-56.521,66.593-99.571,164.891-111.806,193.251c-0.927,1.981-1.854,3.927-2.582,5.2
	c-1.109,1.999-2.636,3.617-5.345,3.817c-1.491,0.054-3.563-0.272-6.69-2.146c-37.523-23.161-59.775-51.939-59.775-83.227
	C30.106,109.134,102.698,60.648,206.469,39.432 M264.39,81.9c5.309-12.326,14.507-38.741,35.578-49.213
	c6.399-3.2,14.271-4.69,21.325-4.909c1.617,0,2.727,0,3.218,0c58.975,0,113.842,8.181,159.854,22.18
	c0.364,0.146,1.418,0.563,1.728,0.654c4.272,1.436,6.417,3.381,6.417,5.781c0,2.145-1.091,3.708-2.581,5.218
	c-0.69,0.672-1.637,1.491-2.927,2.582c-10.599,8.872-42.577,31.978-102.789,54.994c-21.125,8.072-47.559,18.125-75.174,23.998
	C292.805,146.621,232.629,155.783,264.39,81.9 M545.268,84.009c1.092-2,2.637-3.654,5.327-3.854c1.545-0.055,3.545,0.309,6.69,2.182
	c37.486,23.125,59.793,51.958,59.793,83.245c0,56.467-72.61,104.934-176.362,126.132c-6.69,1.29-11.054,1.29-12.635-0.382
	c-0.981-1.109-1.255-2.854,0.036-5.072c0.654-1.164,1.399-2.218,2.745-3.818c56.521-66.61,99.607-164.909,111.824-193.251
	C543.596,87.191,544.522,85.282,545.268,84.009 M383.759,249.01c-5.327,12.344-14.489,38.74-35.614,49.248
	c-6.327,3.127-14.235,4.691-21.344,4.854c-1.545,0.091-2.672,0.055-3.145,0.055c-58.976,0-113.86-8.181-159.892-22.179
	c-0.345-0.128-1.363-0.546-1.69-0.691c-4.291-1.418-6.454-3.327-6.454-5.745c0-2.127,1.109-3.727,2.654-5.199
	c0.618-0.673,1.6-1.509,2.891-2.545c10.581-8.908,42.559-32.052,102.771-55.067c21.143-8.071,47.577-18.143,75.192-23.997
	C355.344,184.326,415.519,175.182,383.759,249.01 M323.602,329.291c176.526,0,319.602-73.282,319.602-163.618
	C643.203,75.192,500.128,2,323.602,2C147.112,2,4,75.192,4,165.673C4,256.009,147.112,329.291,323.602,329.291"/>
</svg>
