<svg xmlns="http://www.w3.org/2000/svg" width="1000" height="400" viewBox="0 0 1000 400"><path d="M0 0v27.367h194.648v-27.367h-194.648zm222.227 0v27.367h277.383s-28.333-27.367-65.859-27.367h-211.524zm331.796 0v27.367h167.812l-9.96-27.367h-157.852zm288.125 0l-9.961 27.367h166.289v-27.367h-156.328zm-842.148 53.222v27.367h194.648v-27.367h-194.648zm222.227.039v27.329h309.57s-3.615-21.063-9.922-27.329h-299.648zm331.796 0v27.329h186.211l-9.219-27.329h-176.992zm268.204 0l-9.219 27.329h185.469v-27.329h-176.25zm-766.289 53.183v27.406h84.297v-27.406h-84.297zm222.226 0v27.406h84.297v-27.406h-84.297zm166.289 0v27.406h84.297s5.352-14.473 5.352-27.406h-89.649zm165.508 0v27.406h149.453l-9.961-27.406h-139.492zm193.906 0l-10 27.406h150.195v-27.406h-140.195zm-747.929 53.262v27.367h84.297v-27.367h-84.297zm222.226 0v27.367h215.312s18.012-14.042 23.75-27.367h-239.062zm331.797 0v27.367h84.297v-15.234l5.352 15.234h154.414l5.742-15.234v15.234h84.297v-27.367h-158.243l-8.398 23.18-8.438-23.18h-159.023zm-554.023 53.222v27.367h84.297v-27.367h-84.297zm222.226 0v27.367h239.062c-5.74-13.281-23.75-27.367-23.75-27.367h-215.312zm331.797 0v27.367h84.297v-27.367h-84.297zm99.609 0l10.195 27.367h115.781l9.688-27.367h-135.664zm150.196 0v27.367h84.297v-27.367h-84.297zm-803.828 53.222v27.366h84.297v-27.366h-84.297zm222.226 0v27.366h84.297v-27.366h-84.297zm166.289 0v27.366h89.648c0-12.915-5.352-27.366-5.352-27.366h-84.296zm165.508 0v27.366h84.297v-27.366h-84.297zm118.75 0l9.883 27.366h77.617l9.961-27.366h-97.461zm131.055 0v27.366h84.297v-27.366h-84.297zm-858.243 53.222v27.405h194.648v-27.405h-194.648zm220.704 0v27.405h299.648c6.307-6.275 9.922-27.405 9.922-27.405h-309.57zm333.32 0v27.405h138.711v-27.405h-138.711zm192.344 0l10.156 27.405h39.492l9.531-27.405h-59.179zm111.875 0v27.405h140.234v-27.405h-140.234zm-858.243 53.261v27.367h194.648v-27.367h-194.648zm220.704 0v27.328h211.523c37.526 0 65.859-27.328 65.859-27.328h-277.382zm333.32 0v27.367h138.711v-27.367h-138.711zm211.601 0l9.766 27.29 1.68.038 9.922-27.328h-21.368zm92.618 0v27.367h140.234v-27.367h-140.234z"/></svg>