<svg xmlns="http://www.w3.org/2000/svg" width="293" height="194" viewBox="0 0 293 194"><path d="M291.287 55.059c-13.78-67.174-143.762-71.429-227.549-20.25v5.652c83.677-43.192 202.41-42.917 213.215 18.961 3.641 20.499-7.826 41.818-28.387 54.086v16.053c24.75-9.081 50.05-38.473 42.721-74.502m-152.361 117.611c-57.824 5.353-118.073-3.071-126.508-48.434-4.189-22.336 6.009-46.043 19.46-60.752v-7.875c-24.254 21.348-37.429 48.352-29.822 80.235 9.701 40.916 61.407 64.076 140.344 56.364 31.255-3.018 72.157-13.116 100.543-28.782v-22.258c-25.797 15.449-68.464 28.213-104.017 31.502z"/><path d="M238.312 45.348h-15.158v67.812c0 7.965 3.804 14.891 15.158 15.989"/><path d="M57.73 70.13h-15.159v44.292c0 7.967 3.804 14.893 15.159 15.99"/><path d="M42.571 47.408h15.159v14.426h-15.159z"/><path d="M148.571 129.699c-12.291 0-17.473-8.574-17.473-17.036v-58.825h14.993v16.292h11.354v12.2h-11.354v29.426c0 3.461 1.654 5.359 5.235 5.359h6.119v12.584h-8.874"/><path d="M188.426 81.589c-5.125 0-9.094 2.665-10.748 6.264-.992 2.17-1.323 3.819-1.486 6.486h23.206c-.332-6.513-3.255-12.75-10.972-12.75m-12.235 23.024c0 7.722 4.848 13.406 13.337 13.406 6.671 0 9.979-1.868 13.837-5.684l9.262 8.929c-5.954 5.878-12.183 9.45-23.207 9.45-14.387 0-28.168-7.885-28.168-30.855 0-19.645 12.016-30.744 27.837-30.744 16.04 0 25.245 12.996 25.245 30.059v5.44l-38.143-.001"/><path d="M98.576 82.33c4.409 0 6.229 2.171 6.229 5.715v41.736h15.049v-41.791c0-8.49-4.521-17.86-17.694-17.86h-31.035v59.65h14.993v-47.451"/></svg>