<?xml version="1.0" encoding="utf-8"?>
<!-- Generator: Adobe Illustrator 16.0.0, SVG Export Plug-In . SVG Version: 6.00 Build 0)  -->
<!DOCTYPE svg PUBLIC "-//W3C//DTD SVG 1.1//EN" "http://www.w3.org/Graphics/SVG/1.1/DTD/svg11.dtd">
<svg version="1.1" id="Layer_1" xmlns="http://www.w3.org/2000/svg" xmlns:xlink="http://www.w3.org/1999/xlink" x="0px" y="0px"
	 width="145.42px" height="96.682px" viewBox="0 0 145.42 96.682" enable-background="new 0 0 145.42 96.682" xml:space="preserve">
<g>
	<polygon points="74.219,0 74.22,0 74.222,0 	"/>
	<path d="M107.883,7.674C97.054,2.436,85.531,0,74.22,0C62.919,0,51.393,2.436,40.562,7.674c-3.824,9.156-5.565,18.582-5.565,27.781
		c0,9.173,1.719,18.493,5.543,27.734c10.883,5.263,22.363,7.676,33.682,7.676c11.325,0,22.811-2.413,33.682-7.676
		c3.823-9.242,5.547-18.562,5.547-27.734C113.45,26.256,111.704,16.83,107.883,7.674z M105.532,60.984
		c-9.407,4.415-20.129,6.889-31.313,6.889c-11.179,0-21.9-2.474-31.308-6.889h0c-3.161-7.924-4.893-16.536-4.893-25.529
		c0-9.014,1.734-17.636,4.91-25.579c9.409-4.408,20.119-6.881,31.29-6.881c11.175,0,21.892,2.473,31.294,6.881
		c3.175,7.942,4.911,16.565,4.911,25.579C110.424,44.447,108.697,53.06,105.532,60.984z"/>
</g>
<path fill="#020202" d="M103.74,59.329c-1.978-3.255-4.634-5.884-4.663-5.908c-0.032-0.017-0.553-0.178-0.553-0.178
	c-5.637-1.732-9.332-3.035-10.965-3.882c-2.248-1.167-4.609-4.001-4.869-4.319c-2.635-0.199-4.815-0.156-6.912,0.098l-1.337,0.173
	c-2.547,0.329-5.177,0.677-7.755,0.263c-1.716-0.281-3.382-0.827-5.149-1.402c-2.721-0.892-5.509-1.806-8.694-1.801h-0.127
	l0.055,0.112c0.724,1.407,3.583,5.679,7.163,6.853c0.79,0.189,1.361,0.399,1.609,0.594c0,0.009,1.37,2.796,1.744,3.55
	c-2.228-1.011-9.118-4.515-14.676-11.279v-0.01c0-0.09-0.144-1.406-0.174-1.693c3.31-1.235,10.764-1.951,11.604-2.031l0.061-0.005
	l0.026-0.068c0.445-3.921,1.374-7.059,3.114-10.494c0.05-0.104,0.08-0.199,0.08-0.281c0-0.061-0.018-0.122-0.042-0.17
	c-0.098-0.186-0.336-0.222-0.347-0.222c0,0-4.812-0.84-5.072-0.885c-0.027-0.085-0.506-1.554-0.547-1.677
	c3.656-1.359,8.164-2.632,10.744-3.192c0.437-0.696,0.559-1.075,0.559-1.53c0-0.386-0.187-0.715-0.559-0.967
	c-1.829-1.24-7.588-0.494-13.416,1.741c-0.012-0.024-0.012-0.029-0.03-0.054c1.21-0.905,3.373-2.25,4.976-2.995l0.062-0.035
	l-0.019-0.06c-0.435-1.475-3.281-2.602-3.601-2.717c0.006-0.05,0.011-0.084,0.016-0.122c2.894-0.198,4.814,1.156,5.4,2.121
	l0.03,0.047l0.057-0.019c0.372-0.12,1.679-0.535,3.094-0.702l0.083-0.004l-0.022-0.086c-0.465-2.479-2.831-4.134-3.637-4.633
	c0.022-0.04,0.03-0.055,0.052-0.084c2.794,0.217,5.375,2.623,5.956,4.656l0.017,0.056l0.058,0.005
	c0.75,0.026,1.66,0.109,2.269,0.212l0.062,0.01l0.022-0.052c0.228-0.534,0.339-1.104,0.339-1.69c0-1.831-1.035-3.795-2.308-5.036
	c0.025-0.035,0.036-0.067,0.069-0.098c3.67,1.393,4.604,4.038,4.604,6.5c0,1.724-0.458,3.365-0.752,4.411l-0.124,0.434
	c0,0,5.405-0.652,5.77-0.696c-0.55,0.696-1.735,1.937-4.101,3.243c0-0.013-2.439-0.312-2.439-0.312l-0.064-0.01l-0.021,0.062
	c-0.164,0.504-1.591,5.014-1.599,8.329c0,1.229,0.347,2.182,1.034,2.84c1.222,1.176,3.248,1.241,4.663,1.186
	c6.017-0.22,10.711,0.15,13.969,1.114l0.192,0.053l0.03-0.045c0.202-0.312,0.361-0.889,0.361-1.654c0-1.452-0.581-3.617-2.536-6.066
	c0.021-0.018,0.021-0.029,0.046-0.049c0.323,0.179,5.601,3.177,6.306,7.701c-0.123,0.048-2.528,1.029-2.528,1.029l0.077,0.079
	c2.23,2.335,3,5.156,3.618,7.415c0.491,1.789,1.077,2.934,1.854,3.604c0.901,0.777,4.316,2.407,5.342,2.887
	c0.852,1.211,2.317,3.48,3.38,5.238v-0.004c2.308-6.848,3.487-13.984,3.487-21.271c0-8.236-1.502-16.278-4.439-23.927
	c-9.094-4.105-19.275-6.288-29.5-6.288s-20.395,2.183-29.491,6.288c-2.941,7.649-4.442,15.69-4.442,23.927
	c0,8.216,1.499,16.239,4.425,23.885c9.097,4.112,19.279,6.285,29.509,6.285c10.235,0,20.416-2.173,29.513-6.285L103.74,59.329
	L103.74,59.329z"/>
</svg>
