<svg xmlns="http://www.w3.org/2000/svg" width="145.42" height="96.682" viewBox="0 0 145.42 96.682"><path d="M74.219 0h.003zM107.883 7.674c-10.829-5.238-22.352-7.674-33.663-7.674-11.301 0-22.827 2.436-33.658 7.674-3.824 9.156-5.565 18.582-5.565 27.781 0 9.173 1.719 18.493 5.543 27.734 10.883 5.263 22.363 7.676 33.682 7.676 11.325 0 22.811-2.413 33.682-7.676 3.823-9.242 5.547-18.562 5.547-27.734-.001-9.199-1.747-18.625-5.568-27.781zm-2.351 53.31c-9.407 4.415-20.129 6.889-31.313 6.889-11.179 0-21.9-2.474-31.308-6.889-3.161-7.924-4.893-16.536-4.893-25.529 0-9.014 1.734-17.636 4.91-25.579 9.409-4.408 20.119-6.881 31.29-6.881 11.175 0 21.892 2.473 31.294 6.881 3.175 7.942 4.911 16.565 4.911 25.579.001 8.992-1.726 17.605-4.891 25.529z"/><path fill="#020202" d="M103.74 59.329c-1.978-3.255-4.634-5.884-4.663-5.908l-.553-.178c-5.637-1.732-9.332-3.035-10.965-3.882-2.248-1.167-4.609-4.001-4.869-4.319-2.635-.199-4.815-.156-6.912.098l-1.337.173c-2.547.329-5.177.677-7.755.263-1.716-.281-3.382-.827-5.149-1.402-2.721-.892-5.509-1.806-8.694-1.801h-.127l.055.112c.724 1.407 3.583 5.679 7.163 6.853.79.189 1.361.399 1.609.594 0 .009 1.37 2.796 1.744 3.55-2.228-1.011-9.118-4.515-14.676-11.279v-.01c0-.09-.144-1.406-.174-1.693 3.31-1.235 10.764-1.951 11.604-2.031l.061-.005.026-.068c.445-3.921 1.374-7.059 3.114-10.494.05-.104.08-.199.08-.281l-.042-.17c-.098-.186-.336-.222-.347-.222l-5.072-.885-.547-1.677c3.656-1.359 8.164-2.632 10.744-3.192.437-.696.559-1.075.559-1.53 0-.386-.187-.715-.559-.967-1.829-1.24-7.588-.494-13.416 1.741l-.03-.054c1.21-.905 3.373-2.25 4.976-2.995l.062-.035-.019-.06c-.435-1.475-3.281-2.602-3.601-2.717l.016-.122c2.894-.198 4.814 1.156 5.4 2.121l.03.047.057-.019c.372-.12 1.679-.535 3.094-.702l.083-.004-.022-.086c-.465-2.479-2.831-4.134-3.637-4.633l.052-.084c2.794.217 5.375 2.623 5.956 4.656l.017.056.058.005c.75.026 1.66.109 2.269.212l.062.01.022-.052c.228-.534.339-1.104.339-1.69 0-1.831-1.035-3.795-2.308-5.036l.069-.098c3.67 1.393 4.604 4.038 4.604 6.5 0 1.724-.458 3.365-.752 4.411l-.124.434 5.77-.696c-.55.696-1.735 1.937-4.101 3.243 0-.013-2.439-.312-2.439-.312l-.064-.01-.021.062c-.164.504-1.591 5.014-1.599 8.329 0 1.229.347 2.182 1.034 2.84 1.222 1.176 3.248 1.241 4.663 1.186 6.017-.22 10.711.15 13.969 1.114l.192.053.03-.045c.202-.312.361-.889.361-1.654 0-1.452-.581-3.617-2.536-6.066l.046-.049c.323.179 5.601 3.177 6.306 7.701-.123.048-2.528 1.029-2.528 1.029l.077.079c2.23 2.335 3 5.156 3.618 7.415.491 1.789 1.077 2.934 1.854 3.604.901.777 4.316 2.407 5.342 2.887.852 1.211 2.317 3.48 3.38 5.238v-.004c2.308-6.848 3.487-13.984 3.487-21.271 0-8.236-1.502-16.278-4.439-23.927-9.094-4.105-19.275-6.288-29.5-6.288s-20.395 2.183-29.491 6.288c-2.941 7.649-4.442 15.69-4.442 23.927 0 8.216 1.499 16.239 4.425 23.885 9.097 4.112 19.279 6.285 29.509 6.285 10.235 0 20.416-2.173 29.513-6.285l.009-.013z"/></svg>