<?xml version="1.0" encoding="utf-8"?>
<!-- Generator: Adobe Illustrator 16.0.0, SVG Export Plug-In . SVG Version: 6.00 Build 0)  -->
<!DOCTYPE svg PUBLIC "-//W3C//DTD SVG 1.1//EN" "http://www.w3.org/Graphics/SVG/1.1/DTD/svg11.dtd">
<svg version="1.1"
	 id="svg2" xmlns:dc="http://purl.org/dc/elements/1.1/" xmlns:cc="http://creativecommons.org/ns#" xmlns:rdf="http://www.w3.org/1999/02/22-rdf-syntax-ns#" xmlns:svg="http://www.w3.org/2000/svg" xmlns:sodipodi="http://sodipodi.sourceforge.net/DTD/sodipodi-0.dtd" xmlns:inkscape="http://www.inkscape.org/namespaces/inkscape" sodipodi:docname="MAZDA.svg" inkscape:version="0.48.3.1 r9886"
	 xmlns="http://www.w3.org/2000/svg" xmlns:xlink="http://www.w3.org/1999/xlink" x="0px" y="0px" width="707.5px" height="747.5px"
	 viewBox="0 0 707.5 747.5" enable-background="new 0 0 707.5 747.5" xml:space="preserve">
<sodipodi:namedview  inkscape:cy="311.11774" inkscape:cx="121.24328" inkscape:zoom="0.42435952" showgrid="false" guidetolerance="10" gridtolerance="10" objecttolerance="10" borderopacity="1" bordercolor="#666666" pagecolor="#ffffff" id="namedview4" inkscape:current-layer="svg2" inkscape:window-height="480" inkscape:window-width="640" inkscape:pageshadow="2" inkscape:pageopacity="0">
	</sodipodi:namedview>
<path id="path5218" inkscape:connector-curvature="0" fill="#E6E6E6" d="M650.412,162.406c0,0,6.919,9.026,15.506,43.706
	c6.525,26.361,7.943,52.263,7.943,52.263s-5.54-53.902-23.936-94.208L650.412,162.406z"/>
<path d="M706.854,303.397c1.365-22.828,0.32-45.96-2.759-69.087c-11.13-83.583-60.216-142.636-60.282-142.836l-0.117-0.354
	l-0.277-0.25c-10.375-9.308-20.818-19.508-33.733-29.582c-12.969-10.112-28.425-20.101-48.777-28.931
	C520.219,14.705,460.079,1.728,361.335,1.499C187.712-3.205,109.81,48.225,81.004,75.341c-10.022,9.434-21.625,22.745-24.787,26.433
	C33.217,128.599,1.651,190.931,1.1,259.674l-0.003,0.451l-0.002,0.453l-0.002,0.451v0.465c0,14.897,0.614,28.854,1.731,41.91v0
	h1.642c0,0.002,0,0.005,0,0.008H2.823c6.199,72.491,27.874,117.49,45.929,143.179c14.382,20.463,43.8,48.339,75.613,67.504
	c11.764,6.844,25.137,13.357,40.612,19.7c35.125,14.396,77.848,21.03,113.706,24.139c35.848,3.106,64.944,2.695,72.9,2.947
	c7.969,0.253,59.898,2.523,121.087-9.124c61.156-11.643,131.832-37.248,177.034-92.922c36.558-47.142,53.856-100.403,57.148-155.43
	h-1.087c0-0.002,0-0.004,0-0.006H706.854z M625.744,303.403h0.2c0,0.002-0.001,0.003-0.001,0.005h-0.199
	c-1.399,17.135-4.579,34.018-9.382,51.501c-6.684,24.331-18.416,66.809-56.595,102.001
	c-38.146,35.163-102.918,63.242-216.067,58.236c-145.662-6.446-204.928-19.097-255.87-189.464c-1.441-8.336-2.487-15.92-3.242-22.28
	v0h0c-1.431-12.042-1.82-19.677-1.88-19.676c0.503-28.726,3.485-53.028,4.246-54.17c0.209-0.313,0.42-0.655,0.659-0.97
	c0.211-0.278,0.382-0.441,0.526-0.535c0.12-0.079,0.227-0.112,0.377-0.106c0.174,0.006,0.496,0.074,1.009,0.372
	c13.174,7.626,27.147,13.628,40.781,18.384l1.503,0.519c2.02,0.66,5.528,1.802,9.651,3.131c5.938,1.912,13.176,4.216,19.189,6.054
	c12.614,3.855,41.345,10.159,69.375,20.32c15.826,5.737,31.682,14.755,47.11,26.677h2.25c0.002,0.001,0.004,0.003,0.006,0.005
	h-2.256c11.659,9.013,23.071,19.686,34.044,31.861c12.709,14.103,20.617,26.884,25.87,37.475
	c5.278,10.646,7.894,19.112,9.988,24.522c1.604,4.146,3.357,7.313,5.077,8.852c1.672,2.907,6.663,1.613,7.75,0.095
	c0.917-1.279,6.811-9.898,9.909-20.126c2.977-9.825,12.29-29.993,28.572-50.497c9.964-12.547,20.553-23.026,32.783-32.188h-1.856
	c0.001-0.001,0.003-0.002,0.004-0.003h1.852c24.68-18.49,56.037-31.626,102.413-45.6c69.747-21.016,84.147-29.936,84.147-29.936
	s1.546-1.34,1.751-1.554c1.307,5.187,3.113,13.063,4.84,22.911C626.738,268.153,627.17,285.912,625.744,303.403z M525.192,178.801
	c-38.911,14.454-91.571,38.676-113.511,59.241c-22.476,21.066-38.284,43.586-43.49,52.062c-2.356,3.837-4.908,8.52-7.294,12.353
	c-0.202,0.325-0.402,0.642-0.6,0.946h1.992c-0.001,0.002-0.002,0.004-0.004,0.006h-1.988c-0.96,1.498-1.866,2.796-2.698,3.795
	c-1.068,1.285-1.793,1.798-2.418,1.912c-1.054-0.271-2.998-2.276-5.478-5.711H349.7c-0.177-0.246-0.358-0.499-0.541-0.759
	c-2.623-3.728-5.393-8.312-7.741-12.135c-5.18-8.432-19.901-31.377-42.403-52.467c-21.94-20.565-74.6-44.788-113.51-59.241
	c-16.601-6.167-29.585-12.019-39.007-16.696c-2.134-1.268-13.756-8.196-21.511-13.237c-3.833-2.493-5.965-4.733-4.087-9.986
	c0,0,1.901-3.778,3.177-6.409c1.303-2.689,3.383-6.529,6.487-11.138c6.224-9.241,16.585-21.603,33.1-33.98
	c33.016-24.745,90.745-49.639,189.454-49.639c63.72,0,110.781,10.491,145.287,24.659c17.33,7.68,30.565,14.676,39.704,20.986
	c19.669,13.235,32.178,26.881,39.762,37.195c3.787,5.151,6.352,9.48,7.97,12.521c1.587,2.983,2.27,4.755,2.27,4.755
	c0.566,1.178,1.62,3.509,2.552,7.141c-14.211,9.372-30.062,18.739-46.072,26.122C538.787,173.561,532.323,176.15,525.192,178.801z"
	/>
</svg>
