<svg xmlns="http://www.w3.org/2000/svg" width="707.5" height="747.5" viewBox="0 0 707.5 747.5"><path fill="#E6E6E6" d="M650.412 162.406s6.919 9.026 15.506 43.706c6.525 26.361 7.943 52.263 7.943 52.263s-5.54-53.902-23.936-94.208l.487-1.761z"/><path d="M706.854 303.397c1.365-22.828.32-45.96-2.759-69.087-11.13-83.583-60.216-142.636-60.282-142.836l-.117-.354-.277-.25c-10.375-9.308-20.818-19.508-33.733-29.582-12.969-10.112-28.425-20.101-48.777-28.931-40.69-17.652-100.83-30.629-199.574-30.858-173.623-4.704-251.525 46.726-280.331 73.842-10.022 9.434-21.625 22.745-24.787 26.433-23 26.825-54.566 89.157-55.117 157.9l-.003.451-.002.453-.002.451v.465c0 14.897.614 28.854 1.731 41.91h1.642v.008h-1.643c6.199 72.491 27.874 117.49 45.929 143.179 14.382 20.463 43.8 48.339 75.613 67.504 11.764 6.844 25.137 13.357 40.612 19.7 35.125 14.396 77.848 21.03 113.706 24.139 35.848 3.106 64.944 2.695 72.9 2.947 7.969.253 59.898 2.523 121.087-9.124 61.156-11.643 131.832-37.248 177.034-92.922 36.558-47.142 53.856-100.403 57.148-155.43h-1.087v-.006h1.089zm-81.11.006h.2l-.001.005h-.199c-1.399 17.135-4.579 34.018-9.382 51.501-6.684 24.331-18.416 66.809-56.595 102.001-38.146 35.163-102.918 63.242-216.067 58.236-145.662-6.446-204.928-19.097-255.87-189.464-1.441-8.336-2.487-15.92-3.242-22.28-1.431-12.042-1.82-19.677-1.88-19.676.503-28.726 3.485-53.028 4.246-54.17.209-.313.42-.655.659-.97.211-.278.382-.441.526-.535.12-.079.227-.112.377-.106.174.006.496.074 1.009.372 13.174 7.626 27.147 13.628 40.781 18.384l1.503.519c2.02.66 5.528 1.802 9.651 3.131 5.938 1.912 13.176 4.216 19.189 6.054 12.614 3.855 41.345 10.159 69.375 20.32 15.826 5.737 31.682 14.755 47.11 26.677h2.25l.006.005h-2.256c11.659 9.013 23.071 19.686 34.044 31.861 12.709 14.103 20.617 26.884 25.87 37.475 5.278 10.646 7.894 19.112 9.988 24.522 1.604 4.146 3.357 7.313 5.077 8.852 1.672 2.907 6.663 1.613 7.75.095.917-1.279 6.811-9.898 9.909-20.126 2.977-9.825 12.29-29.993 28.572-50.497 9.964-12.547 20.553-23.026 32.783-32.188h-1.856l.004-.003h1.852c24.68-18.49 56.037-31.626 102.413-45.6 69.747-21.016 84.147-29.936 84.147-29.936s1.546-1.34 1.751-1.554c1.307 5.187 3.113 13.063 4.84 22.911 2.46 18.934 2.892 36.693 1.466 54.184zm-100.552-124.602c-38.911 14.454-91.571 38.676-113.511 59.241-22.476 21.066-38.284 43.586-43.49 52.062-2.356 3.837-4.908 8.52-7.294 12.353-.202.325-.402.642-.6.946h1.992l-.004.006h-1.988c-.96 1.498-1.866 2.796-2.698 3.795-1.068 1.285-1.793 1.798-2.418 1.912-1.054-.271-2.998-2.276-5.478-5.711h-.003l-.541-.759c-2.623-3.728-5.393-8.312-7.741-12.135-5.18-8.432-19.901-31.377-42.403-52.467-21.94-20.565-74.6-44.788-113.51-59.241-16.601-6.167-29.585-12.019-39.007-16.696-2.134-1.268-13.756-8.196-21.511-13.237-3.833-2.493-5.965-4.733-4.087-9.986 0 0 1.901-3.778 3.177-6.409 1.303-2.689 3.383-6.529 6.487-11.138 6.224-9.241 16.585-21.603 33.1-33.98 33.016-24.745 90.745-49.639 189.454-49.639 63.72 0 110.781 10.491 145.287 24.659 17.33 7.68 30.565 14.676 39.704 20.986 19.669 13.235 32.178 26.881 39.762 37.195 3.787 5.151 6.352 9.48 7.97 12.521 1.587 2.983 2.27 4.755 2.27 4.755.566 1.178 1.62 3.509 2.552 7.141-14.211 9.372-30.062 18.739-46.072 26.122-5.804 2.464-12.268 5.053-19.399 7.704z"/></svg>