<svg xmlns="http://www.w3.org/2000/svg" width="80" height="80" viewBox="0 0 80 80"><path d="M57.636 6.309c12.098 6.363 20.364 19.049 20.364 33.672 0 14.623-8.266 27.349-20.364 33.673v-4.348c4.628-2.769 8.541-6.642 11.39-11.226l-11.39-4.623v-7.035l12.495 9.763c2.61-4.822 4.073-10.316 4.073-16.206 0-12.41-6.644-23.317-16.568-29.325v-4.345zm-17.596-4.308c6.327 0 12.297 1.542 17.596 4.308v4.348c-4.864-2.926-10.558-4.664-16.567-4.862l4.349 31.104 12.219 9.525v7.035l-17.677-7.154-17.557 7.193v-6.996l12.298-9.604 4.31-31.104c-6.09.198-11.744 1.937-16.608 4.861v-4.346c5.26-2.766 11.27-4.308 17.637-4.308zm17.596 71.653c-5.299 2.766-11.27 4.346-17.596 4.346-6.366 0-12.376-1.58-17.636-4.307v-4.387c5.141 3.12 11.19 4.899 17.636 4.899 6.405 0 12.417-1.779 17.596-4.899v4.348zm-35.232.039c-12.14-6.363-20.404-19.089-20.404-33.712 0-14.623 8.264-27.309 20.404-33.672v4.348c-9.965 6.007-16.608 16.875-16.608 29.324 0 5.888 1.503 11.462 4.113 16.283l12.495-9.762v6.996l-11.349 4.662c2.847 4.547 6.722 8.379 11.349 11.146v4.387z"/></svg>