<?xml version="1.0" encoding="utf-8"?>
<!-- Generator: Adobe Illustrator 16.0.0, SVG Export Plug-In . SVG Version: 6.00 Build 0)  -->
<!DOCTYPE svg PUBLIC "-//W3C//DTD SVG 1.1//EN" "http://www.w3.org/Graphics/SVG/1.1/DTD/svg11.dtd">
<svg version="1.1"
	 id="svg2" xmlns:dc="http://purl.org/dc/elements/1.1/" xmlns:cc="http://web.resource.org/cc/" xmlns:rdf="http://www.w3.org/1999/02/22-rdf-syntax-ns#" xmlns:svg="http://www.w3.org/2000/svg" xmlns:sodipodi="http://sodipodi.sourceforge.net/DTD/sodipodi-0.dtd" xmlns:inkscape="http://www.inkscape.org/namespaces/inkscape" inkscape:output_extension="org.inkscape.output.svg.inkscape" sodipodi:version="0.32" inkscape:version="0.45.1"
	 xmlns="http://www.w3.org/2000/svg" xmlns:xlink="http://www.w3.org/1999/xlink" x="0px" y="0px" width="426px" height="327px"
	 viewBox="0 0 426 327" enable-background="new 0 0 426 327" xml:space="preserve">
<g id="g19319" transform="matrix(13.05826,0,0,-13.05826,148.81408,220.3562)">
	<path id="path19321" d="M-0.964,3.571v-8.693l1.466,1.105V2.09L-0.964,3.571z"/>
</g>
<g id="g19323" transform="matrix(13.05826,0,0,-13.05826,189.94237,246.86316)">
	<path id="path19325" d="M-0.964,3.571l1.909,0.436L1.716,4.64v1.146L-0.964,3.571z"/>
</g>
<g id="g19327" transform="matrix(13.05826,0,0,-13.05826,186.81231,66.34055)">
	<path id="path19329" d="M-0.964,3.571l-2.697,1.243l2.438-2.732L-0.3,2.993L-0.964,3.571z"/>
</g>
<g id="g19391" transform="matrix(13.05826,0,0,-13.05826,430.22093,84.6626)">
	<path id="path19393" d="M-0.964,3.571C-1.21,3.739-1.651,3.823-2.087,3.785C-2.502,3.75-2.778,3.547-3.005,3.359
		c0.003,0.002-0.591-0.586-0.591-0.586l-0.159-0.254c-0.002-0.003-0.53-0.663-0.53-0.663S-4.29,1.85-4.291,1.849v3.66l-1.62,0.974
		l0.001-6.648l-0.021-0.032l-0.388-0.456v7.136h-10.014l-3.562-3.544l-3.164,3.544h-9.877v-21.972h10.045v9.679l2.957-3.05
		l3.631,3.095v-9.724h9.986l-0.001,9.272c0.078,0.133,0.142,0.239,0.142,0.239c0.001,0.003,0.085,0.124,0.085,0.124
		c0.005,0.006,0.09,0.142,0.183,0.29l0.001-9.925l1.616,1.116v11.707C-4.22-2.56-4.114-2.402-4.114-2.402
		c0.015,0.025,0.249,0.375,0.249,0.375c0,0.001,0.372,0.547,0.372,0.547c0.004,0.009,0.142,0.184,0.142,0.184l0.344,0.487
		c0.068,0.157,0.262,0.261,0.336,0.3l0.035,0.019l0.047,0.034l0.179,0.181c0.003,0.004,0.311,0.264,0.311,0.264l0.526,0.245
		l0.491,0.27c0.002,0.001,0.45,0.553,0.45,0.553l0.239,0.742c0.001,0.001,0.07,0.719,0.07,0.719
		C-0.338,2.883-0.614,3.335-0.964,3.571 M-12.998-2.405c0.011-0.07,0.049-0.72,0.047-0.827c-0.002-0.322,0.02-0.677,0.01-0.82
		c-0.008-0.109,0.007-0.485,0.007-0.485c0.027-0.297,0.091-0.622,0.097-0.68c0.013-0.152-0.044-0.729-0.027-0.86
		c0.002-0.027,0.049-0.268,0.039-0.325c-0.026-0.15,0.018-0.331,0.013-0.399c-0.008-0.119-0.013-0.255-0.017-0.4
		c-0.008-0.215-0.015-0.437-0.035-0.631c-0.006-0.049,0.001-0.388,0.001-0.388c-0.039-0.341-0.081-0.693-0.023-1.046
		c0.011-0.071-0.003-0.304,0.003-0.345c0.009-0.053,0.084-0.327,0.095-0.387c0.016-0.09,0.05-0.507,0.095-0.603
		c0.044-0.097,0.223-0.522,0.239-0.573c0.053-0.161,0.134-0.549,0.061-0.747c-0.069-0.187-0.173-0.632-0.246-0.743
		c-0.063-0.097-0.158-0.154-0.203-0.224c-0.043-0.065-0.128-0.125-0.199-0.153c-0.22-0.086-0.61-0.146-0.948-0.043
		c-0.137,0.041-0.344,0.028-0.577,0.169c-0.19,0.115-0.255,0.43-0.282,0.599c-0.013,0.079,0.01,0.29,0.005,0.323
		c-0.006,0.048-0.078,0.36-0.078,0.46c-0.001,0.05,0.017,0.261-0.006,0.4c-0.029,0.179-0.116,0.47-0.116,0.47
		c-0.024,0.119-0.088,0.377-0.091,0.385c-0.069,0.193-0.103,0.381-0.123,0.541c-0.037,0.294,0.036,0.539,0.101,0.756
		c0.037,0.125,0.072,0.242,0.087,0.36c0.01,0.085-0.056,0.488-0.043,0.623c0.004,0.055,0.049,0.23,0.051,0.253
		c0.017,0.114,0.021,0.418,0.022,0.465c0.001,0.061,0.042,0.317,0.037,0.582c-0.002,0.104-0.013,0.212,0,0.321
		c0.013,0.116,0.023,0.412,0.001,0.549c-0.035,0.209-0.021,0.396-0.022,0.405c-0.015,0.219-0.028,0.449-0.015,0.645
		c0.002,0.031-0.036,0.363-0.037,0.466c-0.002,0.065-0.006,0.472-0.01,0.52c-0.087,1.013-0.224,1.207-0.279,1.244
		c-0.055,0.036-0.204,0.034-0.289-0.006c-0.065-0.03-0.234-0.177-0.377-0.254c-0.14-0.074-0.401-0.198-0.49-0.264
		c-0.103-0.078-0.272-0.209-0.601-0.389c-0.083-0.045-0.146-0.122-0.221-0.19c-0.109-0.096-0.313-0.302-0.643-0.469
		c-0.162-0.081-0.306-0.176-0.422-0.289c-0.048-0.048-0.225-0.344-0.339-0.455c-0.111-0.106-0.181-0.255-0.201-0.301
		c-0.058-0.124-0.121-0.263-0.243-0.354c-0.189-0.141-0.601-0.167-0.85-0.063c-0.159,0.066-0.476,0.279-0.614,0.648
		c-0.139,0.368-0.023,0.84,0.252,1.146c0.181,0.201,0.463,0.282,0.737,0.359c0.169,0.048,0.33,0.094,0.454,0.163
		c0.061,0.034,0.256,0.18,0.297,0.207c0.062,0.041,0.283,0.148,0.326,0.176c0.04,0.027,0.273,0.23,0.429,0.318
		c0.258,0.144,0.463,0.26,0.584,0.336c0,0,0.355,0.2,0.585,0.418c0.052,0.05,0.273,0.132,0.515,0.269
		c0.061,0.035,0.314,0.12,0.378,0.148c0.044,0.021,0.22,0.15,0.272,0.177c0.227,0.118,0.341,0.259,0.277,0.61
		c-0.023,0.122-0.06,0.246-0.047,0.393c0.004,0.036,0.056,0.257,0.14,0.409c0.042,0.078,0.108,0.076,0.145,0.148
		c0.037,0.074,0.167,0.136,0.253,0.158c0.06,0.058,0.184,0.12,0.329,0.145c0.318,0.053,0.727-0.18,0.786-0.192
		c0.112-0.025,0.302-0.008,0.402,0.021c0.02,0.004,0.15,0.089,0.198,0.107c0.064,0.024,0.269,0.08,0.311,0.095
		c0.063,0.022,0.355,0.175,0.429,0.203c0.076,0.029,0.252,0.061,0.339,0.081c0.139,0.099,0.4,0.184,0.5,0.27
		c0.113,0.099,0.266,0.336,0.298,0.378c0.059,0.078,0.347,0.272,0.388,0.303c0.094,0.074,0.309,0.225,0.455,0.267
		c0.07,0.02,0.275-0.022,0.4-0.021c0.14,0,0.336-0.008,0.484-0.232c0.074-0.113,0.198-0.228,0.23-0.384
		c0.096-0.487-0.268-0.97-0.544-1.142c-0.028-0.017-0.162-0.056-0.244-0.083c-0.115-0.038-0.232-0.122-0.31-0.143
		c-0.155-0.041-0.231-0.149-0.295-0.183c-0.063-0.033-0.277-0.165-0.346-0.203c-0.053-0.028-0.14-0.152-0.297-0.198
		c-0.106-0.032-0.327-0.095-0.503-0.25c-0.073-0.064-0.37-0.125-0.455-0.144c-0.032-0.008-0.411-0.168-0.449-0.39
		c-0.04-0.233-0.007-0.295-0.051-0.629C-13.028-2.031-13.014-2.276-12.998-2.405 M-0.65,1.853c-0.029-0.136-0.105-0.472-0.213-0.669
		C-0.91,1.097-1.097,0.821-1.239,0.715c-0.138-0.102-0.338-0.203-0.422-0.233c-0.078-0.028-0.46-0.206-0.563-0.261
		c-0.185-0.1-0.284-0.212-0.381-0.319c-0.05-0.056-0.099-0.108-0.158-0.16c-0.023-0.02-0.362-0.159-0.485-0.446
		c-0.075-0.174-0.413-0.535-0.47-0.639C-3.802-1.493-3.926-1.719-4.05-1.84c-0.037-0.036-0.077-0.091-0.119-0.155
		c-0.039-0.058-0.079-0.123-0.122-0.194c-0.012-0.019-0.022-0.035-0.034-0.054c-0.08-0.132-0.17-0.282-0.222-0.337
		c-0.129-0.139-0.204-0.319-0.265-0.466c-0.024-0.057-0.236-0.36-0.316-0.571c-0.035-0.095-0.219-0.403-0.239-0.45
		c-0.039-0.099-0.276-0.329-0.299-0.374C-5.7-4.51-5.731-4.604-5.763-4.702c-0.028-0.089-0.101-0.264-0.126-0.332
		C-5.92-5.085-5.96-5.15-6.002-5.219c-0.002-0.003-0.003-0.005-0.005-0.007c-0.031-0.051-0.062-0.102-0.095-0.155
		C-6.176-5.501-6.251-5.619-6.3-5.695C-6.333-5.737-6.366-5.786-6.395-5.83c-0.047-0.069-0.391-0.656-0.47-0.796
		C-6.9-6.69-6.943-6.753-6.987-6.821C-7.092-6.978-7.2-7.138-7.252-7.338C-7.285-7.462-7.38-7.667-7.387-7.685
		c-0.135-0.332-0.187-0.689-0.201-0.79C-7.609-8.64-7.604-8.806-7.597-8.967C-7.59-9.14-7.584-9.304-7.612-9.449
		c-0.052-0.269-0.157-0.534-0.296-0.746c-0.037-0.058-0.168-0.237-0.323-0.381c-0.113-0.105-0.298-0.148-0.637-0.151
		c-0.459-0.002-0.656,0.168-0.9,0.527c-0.04,0.058-0.118,0.209-0.213,0.412c-0.122,0.259-0.222,0.496-0.309,0.808
		c-0.027,0.094-0.065,0.198-0.1,0.299c-0.04,0.11-0.126,0.42-0.133,0.471c-0.008,0.051-0.116,0.412-0.123,0.447
		c-0.042,0.221-0.1,0.426-0.157,0.624c-0.058,0.204-0.113,0.397-0.147,0.596c-0.033,0.191-0.135,0.5-0.21,0.724
		c0,0-0.144,0.457-0.19,0.62c-0.063,0.221-0.269,0.831-0.269,0.831c-0.077,0.208-0.259,0.696-0.272,0.774
		c-0.108,0.634-0.107,1.145,0.007,1.368c0.051,0.102,0.226,0.199,0.367,0.277c0.047,0.027,0.279,0.177,0.329,0.19
		c0.144,0.039,0.385,0.051,0.588,0.03c0.027-0.003,0.276-0.005,0.366-0.069c0.335-0.233,0.359-0.534,0.403-1.081
		c0,0,0.058-0.588,0.086-0.809c0.02-0.163,0.042-0.332,0.059-0.499c0.011-0.115,0.017-0.241,0.022-0.362
		C-9.656-4.768-9.58-5.186-9.58-5.186c0.075-0.251,0.147-0.49,0.441-0.614c0.08-0.033,0.171-0.027,0.257,0.021
		c0.201,0.107,0.384,0.433,0.454,0.809c0.004,0.021,0.034,0.064,0.063,0.106c0.07,0.097,0.165,0.231,0.214,0.451
		c0.015,0.055,0.15,0.241,0.23,0.352c0.082,0.113,0.158,0.219,0.203,0.299c0.015,0.027,0.349,0.548,0.349,0.548
		S-7.24-2.927-7.185-2.82c0.055,0.109,0.103,0.239,0.108,0.261c0.027,0.112,0.082,0.347,0.192,0.477
		c0.15,0.177,0.313,0.575,0.321,0.592c0.036,0.068,0.134,0.237,0.225,0.386c0.005,0.006,0.014,0.019,0.02,0.027v0.001
		c0.002,0.002,0.005,0.006,0.007,0.008c0.04,0.053,0.092,0.123,0.132,0.171l0.288,0.341c0.059,0.064,0.118,0.13,0.171,0.202
		c0.056,0.074,0.175,0.249,0.28,0.404c0.064,0.097,0.249,0.338,0.306,0.398c0.056,0.058,0.476,0.623,0.541,0.709
		c0.027,0.035,0.199,0.21,0.303,0.315c0,0.001,0.001,0.001,0.001,0.002c0.144,0.145,0.197,0.198,0.216,0.223
		C-3.99,1.81-3.899,1.92-3.811,2.027c0.088,0.107,0.178,0.216,0.264,0.331c0.038,0.048,0.135,0.222,0.161,0.256
		c0.091,0.12,0.536,0.531,0.549,0.542c0.207,0.171,0.436,0.338,0.772,0.367c0.368,0.032,0.76-0.038,0.954-0.17
		c0.278-0.187,0.513-0.567,0.525-0.846C-0.574,2.239-0.594,2.13-0.65,1.853"/>
</g>
</svg>
