<svg xmlns="http://www.w3.org/2000/svg" width="426" height="327" viewBox="0 0 426 327"><path d="M136.226 173.725v113.515l19.143-14.429v-79.747l-19.143-19.339z"/><path d="M177.354 200.232l24.928-5.693 10.068-8.266v-14.965l-34.996 28.924z"/><path d="M174.224 19.71l-35.218-16.231 31.836 35.675 12.053-11.896-8.671-7.548z"/><path d="M417.633 38.032c-3.212-2.194-8.971-3.291-14.664-2.794-5.419.457-9.023 3.108-11.987 5.563.039-.026-7.717 7.652-7.717 7.652l-2.076 3.317c-.026.039-6.921 8.658-6.921 8.658l-.078.091v-47.793l-21.154-12.719.013 86.811-.274.418-5.067 5.955v-93.184h-130.765l-46.514 46.278-41.316-46.278h-128.976v286.916h131.17v-126.391l38.613 39.828 47.415-40.415v126.979h130.4l-.013-121.076c1.019-1.737 1.854-3.121 1.854-3.121.013-.039 1.11-1.619 1.11-1.619.065-.078 1.175-1.854 2.39-3.787l.013 129.603 21.102-14.573v-152.873l2.311-3.447c.196-.326 3.252-4.897 3.252-4.897 0-.013 4.858-7.143 4.858-7.143.052-.118 1.854-2.403 1.854-2.403l4.492-6.359c.888-2.05 3.421-3.408 4.388-3.917l.457-.248.614-.444 2.337-2.364c.039-.052 4.061-3.447 4.061-3.447l6.869-3.199 6.412-3.526c.026-.013 5.876-7.221 5.876-7.221l3.121-9.689c.013-.013.914-9.389.914-9.389-.196-4.766-3.8-10.669-8.37-13.75m-157.143 78.036c.144.914.64 9.402.614 10.799-.026 4.205.261 8.84.131 10.708-.104 1.423.091 6.333.091 6.333.353 3.878 1.188 8.122 1.267 8.88.17 1.985-.575 9.519-.353 11.23.026.353.64 3.5.509 4.244-.34 1.959.235 4.322.17 5.21-.104 1.554-.17 3.33-.222 5.223-.104 2.808-.196 5.706-.457 8.24-.078.64.013 5.067.013 5.067-.509 4.453-1.058 9.049-.3 13.659.144.927-.039 3.97.039 4.505.118.692 1.097 4.27 1.241 5.054.209 1.175.653 6.621 1.241 7.874.575 1.267 2.912 6.816 3.121 7.482.692 2.102 1.75 7.169.797 9.755-.901 2.442-2.259 8.253-3.212 9.702-.823 1.267-2.063 2.011-2.651 2.925-.562.849-1.671 1.632-2.599 1.998-2.873 1.123-7.966 1.907-12.379.562-1.789-.535-4.492-.366-7.535-2.207-2.481-1.502-3.33-5.615-3.682-7.822-.17-1.032.131-3.787.065-4.218-.078-.627-1.019-4.701-1.019-6.007-.013-.653.222-3.408-.078-5.223-.379-2.337-1.515-6.137-1.515-6.137-.313-1.554-1.149-4.923-1.188-5.027-.901-2.52-1.345-4.975-1.606-7.065-.483-3.839.47-7.038 1.319-9.872.483-1.632.94-3.16 1.136-4.701.131-1.11-.731-6.372-.562-8.135.052-.718.64-3.003.666-3.304.222-1.489.274-5.458.287-6.072.013-.797.548-4.139.483-7.6-.026-1.358-.17-2.768 0-4.192.17-1.515.3-5.38.013-7.169-.457-2.729-.274-5.171-.287-5.289-.196-2.86-.366-5.863-.196-8.423.026-.405-.47-4.74-.483-6.085-.026-.849-.078-6.163-.131-6.79-1.136-13.228-2.925-15.761-3.643-16.244-.718-.47-2.664-.444-3.774.078-.849.392-3.056 2.311-4.923 3.317-1.828.966-5.236 2.586-6.399 3.447-1.345 1.019-3.552 2.729-7.848 5.08-1.084.588-1.907 1.593-2.886 2.481-1.423 1.254-4.087 3.944-8.396 6.124-2.115 1.058-3.996 2.298-5.511 3.774-.627.627-2.938 4.492-4.427 5.942-1.449 1.384-2.364 3.33-2.625 3.931-.757 1.619-1.58 3.434-3.173 4.623-2.468 1.841-7.848 2.181-11.1.823-2.076-.862-6.216-3.643-8.018-8.462-1.815-4.805-.3-10.969 3.291-14.965 2.364-2.625 6.046-3.682 9.624-4.688 2.207-.627 4.309-1.227 5.928-2.128.797-.444 3.343-2.35 3.878-2.703.81-.535 3.695-1.933 4.257-2.298.522-.353 3.565-3.003 5.602-4.153 3.369-1.88 6.046-3.395 7.626-4.388 0 0 4.636-2.612 7.639-5.458.679-.653 3.565-1.724 6.725-3.513.797-.457 4.1-1.567 4.936-1.933.575-.274 2.873-1.959 3.552-2.311 2.964-1.541 4.453-3.382 3.617-7.966-.3-1.593-.783-3.212-.614-5.132.052-.47.731-3.356 1.828-5.341.548-1.019 1.41-.992 1.893-1.933.483-.966 2.181-1.776 3.304-2.063.783-.757 2.403-1.567 4.296-1.893 4.153-.692 9.493 2.35 10.264 2.507 1.463.326 3.944.104 5.249-.274.261-.052 1.959-1.162 2.586-1.397.836-.313 3.513-1.045 4.061-1.241.823-.287 4.636-2.285 5.602-2.651.992-.379 3.291-.797 4.427-1.058 1.815-1.293 5.223-2.403 6.529-3.526 1.476-1.293 3.473-4.388 3.891-4.936.77-1.019 4.531-3.552 5.067-3.957 1.227-.966 4.035-2.938 5.942-3.487.914-.261 3.591.287 5.223.274 1.828 0 4.388.104 6.32 3.03.966 1.476 2.586 2.977 3.003 5.014 1.254 6.359-3.5 12.667-7.104 14.913-.366.222-2.115.731-3.186 1.084-1.502.496-3.03 1.593-4.048 1.867-2.024.535-3.016 1.946-3.852 2.39-.823.431-3.617 2.155-4.518 2.651-.692.366-1.828 1.985-3.878 2.586-1.384.418-4.27 1.241-6.568 3.265-.953.836-4.832 1.632-5.942 1.88-.418.104-5.367 2.194-5.863 5.093-.522 3.043-.091 3.852-.666 8.214-.34 2.716-.157 5.915.052 7.6m161.243-55.602c-.379 1.776-1.371 6.163-2.781 8.736-.614 1.136-3.056 4.74-4.91 6.124-1.802 1.332-4.414 2.651-5.511 3.043-1.019.366-6.007 2.69-7.352 3.408-2.416 1.306-3.709 2.768-4.975 4.166-.653.731-1.293 1.41-2.063 2.089-.3.261-4.727 2.076-6.333 5.824-.979 2.272-5.393 6.986-6.137 8.344-1.097 1.959-2.716 4.91-4.335 6.49-.483.47-1.005 1.188-1.554 2.024-.509.757-1.032 1.606-1.593 2.533l-.444.705c-1.045 1.724-2.22 3.682-2.899 4.401-1.685 1.815-2.664 4.166-3.46 6.085-.313.744-3.082 4.701-4.126 7.456-.457 1.241-2.86 5.262-3.121 5.876-.509 1.293-3.604 4.296-3.904 4.884-.444.901-.849 2.128-1.267 3.408-.366 1.162-1.319 3.447-1.645 4.335l-1.476 2.416-.065.091c-.405.666-.81 1.332-1.241 2.024-.966 1.567-1.946 3.108-2.586 4.1-.431.548-.862 1.188-1.241 1.763-.614.901-5.106 8.566-6.137 10.394-.457.836-1.019 1.658-1.593 2.546-1.371 2.05-2.781 4.139-3.46 6.751-.431 1.619-1.671 4.296-1.763 4.531-1.763 4.335-2.442 8.997-2.625 10.316-.274 2.155-.209 4.322-.118 6.425.091 2.259.17 4.401-.196 6.294-.679 3.513-2.05 6.973-3.865 9.741-.483.757-2.194 3.095-4.218 4.975-1.476 1.371-3.891 1.933-8.318 1.972-5.994.026-8.566-2.194-11.752-6.882-.522-.757-1.541-2.729-2.781-5.38-1.593-3.382-2.899-6.477-4.035-10.551-.353-1.227-.849-2.586-1.306-3.904-.522-1.436-1.645-5.484-1.737-6.15-.104-.666-1.515-5.38-1.606-5.837-.548-2.886-1.306-5.563-2.05-8.148-.757-2.664-1.476-5.184-1.92-7.783-.431-2.494-1.763-6.529-2.742-9.454 0 0-1.88-5.968-2.481-8.096-.823-2.886-3.513-10.851-3.513-10.851-1.005-2.716-3.382-9.089-3.552-10.107-1.41-8.279-1.397-14.952.091-17.864.666-1.332 2.951-2.599 4.792-3.617.614-.353 3.643-2.311 4.296-2.481 1.88-.509 5.027-.666 7.678-.392.353.039 3.604.065 4.779.901 4.375 3.043 4.688 6.973 5.262 14.116 0 0 .757 7.678 1.123 10.564.261 2.128.548 4.335.77 6.516.144 1.502.222 3.147.287 4.727.104 2.86 1.097 8.318 1.097 8.318.979 3.278 1.92 6.399 5.759 8.018 1.045.431 2.233.353 3.356-.274 2.625-1.397 5.014-5.654 5.928-10.564.052-.274.444-.836.823-1.384.914-1.267 2.155-3.016 2.794-5.889.196-.718 1.959-3.147 3.003-4.597 1.071-1.476 2.063-2.86 2.651-3.904.196-.353 4.557-7.156 4.557-7.156s1.685-3.748 2.403-5.145c.718-1.423 1.345-3.121 1.41-3.408.353-1.463 1.071-4.531 2.507-6.229 1.959-2.311 4.087-7.508 4.192-7.73.47-.888 1.75-3.095 2.938-5.04l.261-.353v-.013l.091-.104c.522-.692 1.201-1.606 1.724-2.233l3.761-4.453c.77-.836 1.541-1.698 2.233-2.638.731-.966 2.285-3.252 3.656-5.276.836-1.267 3.252-4.414 3.996-5.197.731-.757 6.216-8.135 7.065-9.258.353-.457 2.599-2.742 3.957-4.113l.013-.026c1.88-1.893 2.572-2.586 2.821-2.912 1.097-1.476 2.285-2.912 3.434-4.309 1.149-1.397 2.324-2.821 3.447-4.322.496-.627 1.763-2.899 2.102-3.343 1.188-1.567 6.999-6.934 7.169-7.078 2.703-2.233 5.693-4.414 10.081-4.792 4.805-.418 9.924.496 12.458 2.22 3.63 2.442 6.699 7.404 6.856 11.047.157 3.5-.104 4.923-.836 8.54"/></svg>