<svg xmlns="http://www.w3.org/2000/svg" width="200" height="72" viewBox="0 0 200 72"><path d="M23.621 70.898c-5.84-.231-10.619-1.83-14.354-4.798-.713-.567-2.412-2.267-2.981-2.984-1.516-1.904-2.545-3.759-3.232-5.815-2.114-6.332-1.025-14.642 3.111-23.76 3.543-7.808 9.011-15.551 18.549-26.274 1.404-1.578 5.589-6.193 5.615-6.193.011 0-.217.396-.504.876-2.48 4.154-4.603 9.048-5.759 13.283-1.856 6.797-1.633 12.63.656 17.153 1.579 3.116 4.286 5.814 7.33 7.307 5.329 2.611 13.131 2.827 22.659.632.656-.151 33.162-8.78 72.236-19.176 39.074-10.396 71.049-18.895 71.053-18.888.012.009-90.779 38.859-137.91 59.014-7.465 3.191-9.461 3.997-12.969 5.229-8.971 3.149-17.006 4.652-23.5 4.394z"/></svg>