<?xml version="1.0" encoding="utf-8"?>
<!-- Generator: Adobe Illustrator 16.0.0, SVG Export Plug-In . SVG Version: 6.00 Build 0)  -->
<!DOCTYPE svg PUBLIC "-//W3C//DTD SVG 1.1//EN" "http://www.w3.org/Graphics/SVG/1.1/DTD/svg11.dtd">
<svg version="1.1" id="svg2" xmlns:svg="http://www.w3.org/2000/svg"
	 xmlns="http://www.w3.org/2000/svg" xmlns:xlink="http://www.w3.org/1999/xlink" x="0px" y="0px" width="136px" height="126px"
	 viewBox="0 0 136 126" enable-background="new 0 0 136 126" xml:space="preserve">
<path d="M68.269,2.778c-40.455,0-72.382,38.201-63.549,78.273c1.496,1.496,19.897,14.467,19.897,14.467l2.909,24.551
	c0,0,29.876-0.083,33.699,0.083c0,0,2.391,3.034,7.042,3.034c4.654,0,7.045-3.034,7.045-3.034
	c3.822-0.166,33.699-0.083,33.699-0.083l2.908-24.551c0,0,18.402-12.971,19.898-14.467C140.65,40.979,108.724,2.778,68.269,2.778z
	 M121.153,75.056L101.53,89.227l-2.456,19.359H75.016c0,0-3.937,3.731-6.729,3.731c-2.793,0-6.729-3.731-6.729-3.731H37.5
	l-2.457-19.359L15.42,75.056c-2.945-11.651,1.571-18.53,1.571-18.53l34.74,35.296L17.963,50.488
	c-1.042-1.396,5.489-13.417,8.477-14.528l30.293,52.526L29.775,31.027c0.664-2.221,9.604-9.712,14.035-9.658l18.482,64.756
	L48.743,18.59c4.655-3.474,13.34-4.308,16.745-3.613l2.823,70.87l2.774-70.87c3.404-0.695,12.089,0.139,16.745,3.613L74.281,86.125
	l18.481-64.756c4.431-0.055,13.371,7.437,14.035,9.658L79.84,88.486l30.293-52.526c2.988,1.111,9.519,13.132,8.477,14.528
	L84.842,91.822l34.74-35.296C119.582,56.526,124.098,63.405,121.153,75.056z"/>
</svg>
