<svg xmlns="http://www.w3.org/2000/svg" width="200" height="200.395" viewBox="0 0 200 200.395"><path fill="#fff" d="M44.437 99.808c0-31.435 25.481-56.917 56.915-56.917 31.432 0 56.91 25.482 56.91 56.917 0 31.432-25.479 56.909-56.91 56.909-31.434 0-56.915-25.477-56.915-56.909"/><path fill="#010101" d="M101.107 65.479c1.883 1.085 3.879 2.482 5.398 3.962l-.597.602c-3-.319-6.16.078-9.004.122-.317-.319-.956-.802-.361-1.202l4.564-3.484zm53.047 37.266c.039 1.354.166 2.518-.361 3.902-5.48 1.561-9.081-4.244-14.398-3.369l.602 3.01c4.92.161 7.993 4.88 13.076 4.677-.723 1.441.322 5.242-2.877 3.723-3.321-.798-5.723-3.723-9.361-3.723-.438.806-.161 1.922-.238 2.876 3.84.602 6.602 3.847 10.438 4.445-.361 1.318-.72 2.797-1.8 3.601-3.123-.76-5.562-3.563-8.885-3.484l-.594 2.764c3.159.08 5.2 2.875 8.039 3.715.078 1.165-.963 2.206-1.562 3.246-2.521-.758-4.441-2.923-7.321-2.763-.04-1.086.604-2.316.36-3.478-3.233.962-5.402-2.043-7.799-3.847-.07-5.898-6.279-9.77-6.607-15.295-.063-1.103.104-2.277.607-3.542 2.039-4.72 1.398-10.847-.84-15.245-.68-1.158-1.885-2.072-3.008-2.754 1.645 3.481 3.646 7.597 2.646 11.877-.117 3.305-2.066 6.479-2.088 9.664-.01 1.137.233 2.271.887 3.42 2.603 4.686 7.283 9.121 5.522 14.998-.483 1.806-1.925 3.201-2.284 5.038 3.045 2.521 5.922 5.361 9.961 5.521 1.438-.919.641-4.995 3.601-3.115l4.323 2.162c-.315 1.157-1.284 2.194-2.161 2.991-1.64-.798-3.24-1.755-5.285-1.677-.603.64-1.122 1.356-1.076 2.274 1.438.237 2.761.845 3.961 1.688-.558 1.202-1.646 1.955-2.646 2.876l-3.354-1.199c-.56.801-1.723 1.644-1.313 2.521.757.323 1.596.763 2.152 1.322-1.479 1.602-3.355 2.629-5.16 3.716-1.557-5.082-6.68-8.646-6.238-14.521l-.238-.238c-1.204 1.354-.802 3.521-.725 5.276 1.44 3.681 4.88 6.522 5.399 10.561-.602 1.039-1.959 1.246-3 1.688.121-7.278-10.919-12.798-3.839-20.16 2.361-3.604 6.316-7.045 4.915-12.008-1.438-4.792-6.528-7.762-6.483-13.134l.008-.419c1.16-5.603 4.682-11.562 1.801-17.521-.803-2.396-2.598-5.121-5.037-6.123 3.639 4.164 5.08 10.958 2.999 16.562-1.049 2.229-2.493 4.885-2.638 7.505h-.01c-.076 1.367.201 2.729 1.086 4.019 2.762 4.482 7.56 9.405 4.799 15.246-3.119 4.678-8.561 9.438-5.521 15.599 2.2 3.682 5.604 7.354 4.686 11.876l-3.601 1.199c2.4-8.438-9.36-13.396-4.438-21.837 3.041-4.521 8.478-8.761 5.398-14.76-1.84-3.717-5.642-5.917-5.521-10.562l.132-.779c1.239-6.588 6.247-12.823 2.745-19.863-.92-2.079-2.76-4.198-4.801-5.399l-.123.123c4.082 3.96 5.324 10.478 3.123 15.715-1.026 3.072-3.28 6.134-3.738 9.427-.219 1.554-.034 3.162.863 4.856 2.6 4.117 7.158 8.484 4.312 13.808-2.996 4.396-7.998 8.675-6 14.392 2.201 5.002 6.796 9.768 4.314 15.969l-3.715.839c2.959-6.044-1.479-12.042-4.076-17.283-3.162-7.521 6.793-11.122 6.953-17.998-.039-4.438-4.758-6.958-5.754-11.038-2.041-1.724-4.158.686-6.601.238-1.802.361-4.57-2.48-5.646.602-1.281 4.518-7.118 7.839-4.554 13.197 2.441 4.763 8.315 8.244 6.354 14.406-1.757 5.757-7.562 11.237-3.961 17.876-1.479-.479-4.24.438-4.2-1.924-2.279-8.04 7.44-12.725 4.438-20.76-1.396-4.922-7.762-7.642-6.36-13.562 1.036-4.873 6.504-8.28 5.736-13.618-.062-.446-.172-.903-.328-1.381-2.041-5.761-6.205-11.521-3.724-18.245.682-1.92 2.042-3.561 3.238-5.275-3.96 2.119-5.958 6.602-5.876 11.16-.173 4.958 3.49 9.204 4.011 13.741.205 1.831-.095 3.706-1.373 5.694-2.598 3.525-5.996 7.242-4.438 11.885 1.48 4.683 7.32 7.52 6.961 12.961-.04 6.438-7.521 10.445-5.4 17.646l-3.723-1.208c-1.479-6.397 5.321-9.671 5.398-15.591.962-6.808-7.72-9.333-7.198-15.97-.037-5.042 4.4-8.234 6.36-12.477.336-1.031.448-2.007.403-2.941-.24-4.688-4.465-8.354-3.764-13.627.235-3.88 1.556-7.281 4.076-10.199-3.478 1.396-4.914 5.401-5.876 8.763-1.667 5.39 2.313 10.235 2.713 15.063.177 2.133-.345 4.252-2.351 6.419-2.882 3.396-5.804 7.682-3.724 12.245 2.203 5.036 9.125 8.956 6.123 15.236-1.639 3.961-5.561 6.959-5.399 11.639-1.039-.439-2.117-.879-3-1.678 0-5.959 8.478-9.681 4.438-15.961-.358 1.239-.436 2.924-.716 4.323-1.401 3.643-4.4 6.558-5.522 10.322-1.877-.726-3.839-2.246-5.4-3.847l2.162-1.323c-.24-.802-.879-1.48-1.438-2.16-1.404-.197-2.326.724-3.484 1.085-1-.883-1.965-1.683-2.762-2.763.718-2.044 6.326-.354 3.484-3.715-1.918-1.199-3.843.514-5.522 1.313l-2.277-2.876c1.96-1.199 3.915-2.884 6.354-2.4.601 1.082.643 2.674 1.8 3.238 4.121-.08 7.041-3.197 10.2-5.639-2.202-3.275-3.994-7.799-2.038-11.761 1.566-3.971 5.649-7.313 5.835-11.703.042-.999-.114-2.051-.551-3.182-2.159-5.562-2.922-13.077 1.199-17.999-2.24.603-3.562 3.396-4.322 5.516-2.478 5.431.655 10.461.764 15.665.015.937-.061 1.874-.288 2.818-2.121 4.28-5.557 8.035-6.115 12.96-2.44 1.558-4.444 4.28-7.923 3.361-.122.919.158 2.319.478 3.36-2.759-.116-4.64 1.917-6.961 2.877-1.237-.396-1.56-1.995-2.038-3.114 2.718-.918 4.679-3.644 7.8-3.601.362-1.006-.203-1.927-.362-2.886-3.882-1.723-10.036 8.519-10.553-.36 3.879-.239 6.357-3.842 10.2-4.2l.114-2.875-11.522 3.6-.961-3.838c5.041.314 8.045-4.203 12.846-4.446.638-.839.715-2.078.838-3.237-5.241-.684-8.837 5.125-14.398 3.36 0 0-.192-2.417-.296-3.779h.008c-.038-.533-.074-.903-.074-.903 4.96 1.924 9.318-1.639 13.561-3.478 1.079-.323 2.763.236 3.246-.963-.042-.92 1.637-1.995.239-2.638-6.203-.842-10.324 6.641-16.685 3.238l-.478-.963c1.322-18.078 11.519-35.558 28.438-44.157 6.852-3.916 15.364-5.912 23.951-5.983 10.359-.086 20.828 2.633 28.616 8.146 7.563 4.639 14.798 12.283 18.724 20.045 3.756 6.8 5.482 14.43 6 22.553-6.562 4.958-10.965-4.671-17.646-2.517.359 1.043.561 2.12 1.323 3 5.922-.041 10 6.159 16.198 3.716l.007.903zm-75.374-22.264c-4.161-2.721-9.437-.158-13.314 1.323-.359-3.643-1.839-6.96-4.923-9.36-.299-.147-.713-.462-1.085-.483-.223-.016-.435.075-.6.359 1.397 8.601-4.192 14.601-8.153 21.122 1.319 1.078 3.438.917 5.038.602 4.199-1.681 8.199-4.604 13.199-3.602 1.479-2.52 3.963-4.961 6-6.961 1.246-1.077 2.955-1.761 3.838-3zm12.723 5.4c-.08.518.04 1.439.838 1.084 1.242-1.72 3.441-.359 4.801-.238v-.483c-.746-1.172-2.28-1.76-3.839-1.7-.359.013-.725.063-1.076.146-.522.115-.885.591-.724 1.191zm19.559-5.153c-1.117-2.479-3.678-3.484-6-4.085-1.14-.14-2.32-.234-3.492-.246h-.658c-3.279.066-6.412.908-8.326 3.607-.274.762-1.482 1.832-.36 2.515 2.52-.161 5.396-.477 7.075 1.687 0 1.923 1.241 4.479-.838 5.398-1.723-1.595-3.763.68-5.638-.601-.881-.521-1.439.087-1.8.847-.521 4.959 2.076 10.433 6.715 13.19 1.88.679 4.408 1.322 6.369.36 4.721-2.197 6.676-7.233 7.555-11.876-.118-.883-.076-2.604-1.314-2.646-1.398.885-3.439.361-4.924 0-.877.283-.917 1.564-1.914 1.809l-.607-.483c-.521-2.197-.842-5.318 1.199-6.839 2.281-.921 4.963-1.321 7.321-.601.441-.758-.237-1.357-.363-2.036zm-2.408 3.944l-.469.017c-.838.561-3.281.157-2.398 2.038 1.521-1.203 3.641-.359 5.161.238.562-.279.44-.839.477-1.322-.487-.908-1.654-.993-2.771-.971zm17.416-16.913c-2.961-.157-5.439 1.523-8.16 2.284-.237-2.315 1.521-4.761 1.923-7.084-4.397.282-7.883 2.931-11.521 5.046-.844-2.035-1.688-4.08-2.523-6.123l4.8-4.562.123-.601-6.483-.361c-1.117-1.957-1.558-4.312-2.877-6.112l-2.886 6.235-6.476.362v.477l4.915 4.438c-.602 2.281-1.159 4.76-2.639 6.483-2.88-1.726-5.719-3.603-8.876-4.801-.76-.245-1.843-.644-2.522-.123.999 2.201 2.396 4.568 2.162 6.972-1.321-.243-2.359-1.091-3.601-1.446-1.483-.405-3.245-1.196-4.685-.715 2.401 3.356 4.36 6.873 5.038 10.914 7.964-3.846 17.251-5.958 26.892-4.315 4.52.719 8.674 2.562 12.715 4.076.158-4.236 2.84-7.642 4.681-11.044zm13.677 23.044c4.077 1.079 8.167 5.521 12.483 2.639-3.76-6.238-9.355-12.001-7.799-20.159.161-.558-.197-1.12-.717-1.199-2.438.997-4.326 3.398-5.293 5.762-.396 1.396-.632 2.882-1.189 4.199-2.922-1.521-6.041-2.994-9.602-2.64-1.283.16-3.124.244-3.359 1.562 4.039 2.159 7.36 5.762 9.838 9.599 1.724-.282 3.838-.041 5.638.237zm-42.721 5.639l.115.725c1.562 1.041 2.044 2.806 4.208 2.646 1.918.114 3.357-1.684 4.313-3.123-2.596-.361-5.755.194-8.636-.248zm2.162-3.238c.078.318-.198.8.237.962 1.28-.278 3.601.681 4.314-.84-.499-.56-1.314-.812-2.169-.812s-1.742.249-2.382.69z"/></svg>