<?xml version="1.0" encoding="utf-8"?>
<!-- Generator: Adobe Illustrator 16.0.0, SVG Export Plug-In . SVG Version: 6.00 Build 0)  -->
<!DOCTYPE svg PUBLIC "-//W3C//DTD SVG 1.1//EN" "http://www.w3.org/Graphics/SVG/1.1/DTD/svg11.dtd">
<svg version="1.1"
	 id="svg2" xmlns:dc="http://purl.org/dc/elements/1.1/" xmlns:cc="http://web.resource.org/cc/" xmlns:rdf="http://www.w3.org/1999/02/22-rdf-syntax-ns#" xmlns:svg="http://www.w3.org/2000/svg" xmlns:sodipodi="http://sodipodi.sourceforge.net/DTD/sodipodi-0.dtd" xmlns:inkscape="http://www.inkscape.org/namespaces/inkscape" sodipodi:version="0.32" inkscape:output_extension="org.inkscape.output.svg.inkscape" inkscape:version="0.45.1"
	 xmlns="http://www.w3.org/2000/svg" xmlns:xlink="http://www.w3.org/1999/xlink" x="0px" y="0px" width="285px" height="362px"
	 viewBox="0 0 285 362" enable-background="new 0 0 285 362" xml:space="preserve">
<g id="g4240" transform="matrix(1,0,0,-1,1359.9602,311.60257)">
	<path id="path4242" d="M-1103.077,156.261c-24.062-24.767-59.57-47.305-75.064-55.286c-6.926-3.521-13.91-6.632-20.894-9.39h95.958
		V156.261z"/>
</g>
<g id="g4244" transform="matrix(1,0,0,-1,1359.914,310.67367)">
	<path id="path4246" d="M-1105.75,209.849c-18.664,2.289-26.117,9.743-26.117,9.743c-24.65,25.882-42.668,47.069-65.791,53.056
		c-8.569,2.171-18.43,1.937-27.702,0.469c-3.287,4.167-9.742,10.095-18.722,11.21c8.452,1.702,17.255,2.641,26.293,2.641
		C-1163.618,286.968-1118.251,254.102-1105.75,209.849"/>
</g>
<g id="g4248" transform="matrix(1,0,0,-1,1356.712,311.97407)">
	<path id="path4250" d="M-1290.47,134.83c2.758,9.449,0.235,23.006,0.235,23.006c-0.47,7.512-15.964,63.209,19.016,93.083
		c0,0-4.93,18.077,9.449,28.641c-40.555-15.788-68.667-51.53-68.667-93.082V92.279h21.833c-1.056,5.811,1.702,13.499,7.688,22.127
		C-1300.917,114.406-1293.17,125.38-1290.47,134.83"/>
</g>
<g id="g4256" transform="matrix(1,0,0,-1,1357.3913,311.80217)">
	<path id="path4258" d="M-1251.274,144.746c-15.083-14.966-23.358-30.226-19.133-39.029c7.395-15.377,50.004-9.508,92.73,11.034
		c42.668,20.483,75.886,51.354,68.08,66.496c-8.275,16.022-50.532,9.978-92.555-11.268l-1.408-0.47
		c18.723,11.797,51.236,27.878,84.631,32.749c0,0,28.641,4.46,34.275-8.979c7.806-18.194-31.164-54.406-91.146-83.281
		c-59.981-28.817-111.218-36.271-119.787-18.429c-6.632,13.852,16.551,46.834,51.295,69.665c0,0,47.598,34.686,108.284,43.313
		l-0.411-0.293C-1136.418,206.253-1203.09,192.46-1251.274,144.746"/>
</g>
<path d="M238.84,132.799c-5.459-11.269-41.846-4.93-81.345,14.144c-39.499,19.074-67.142,43.547-61.683,54.817
	c5.399,11.268,41.846,4.93,81.344-14.086C216.596,168.6,244.298,144.067,238.84,132.799z M131.585,194.178
	c-12.09,0.881-19.427-4.226-24.885-9.859l0.117-0.059c0,0,3.287-2.935,4.695-3.992c13.44,14.908,32.28,5.283,32.28,5.283
	c-19.25,3.169-20.424-13.734-20.424-13.734c9.273-5.986,22.067-12.677,37.209-16.961c1.467,3.697,1.644,5.693,1.878,9.743
	C163.277,180.796,148.898,192.828,131.585,194.178z"/>
<g id="g4272" transform="matrix(1,0,0,-1,1357.1105,311.41157)">
	<path id="path4274" d="M-1267.478,167.281c0,0,1.057-5.517,1.702-11.269c-11.386-10.153-17.02-22.713-17.02-22.713
		c3.639,9.214-0.293,26.469-0.293,26.469c-2.583,16.14-16.14,61.331,15.553,90.324c-2.289,8.099-1.174,12.912,0.646,18.135
		c2.054,4.695,6.808,9.918,11.327,11.855c0,0-13.44-6.75-5.811-24.943c8.745,6.28,18.253,10.564,30.167,13.968l-0.705-0.528
		c-45.426-17.313-49.417-42.726-37.62-90.5C-1268.475,173.795-1267.888,170.098-1267.478,167.281"/>
</g>
<g id="g4478" transform="matrix(1,0,0,-1,176.6843,924.48462)">
</g>
<g id="g7362" transform="matrix(1,0,0,-1,233.9344,919.36013)">
</g>
<g id="g7364" transform="matrix(1,0,0,-1,233.9344,919.36013)">
</g>
<g id="g7366" transform="matrix(1,0,0,-1,233.9344,919.36013)">
</g>
<g id="g7368" transform="matrix(1,0,0,-1,233.9344,919.36013)">
</g>
<g id="g7370" transform="matrix(1,0,0,-1,233.9344,919.36013)">
</g>
<g id="g7372" transform="matrix(1,0,0,-1,233.9344,919.36013)">
</g>
<g id="g7402" transform="matrix(1,0,0,-1,233.9344,919.36013)">
</g>
<g id="g7404" transform="matrix(1,0,0,-1,233.9344,919.36013)">
</g>
</svg>
