<svg xmlns="http://www.w3.org/2000/svg" width="285" height="362" viewBox="0 0 285 362"><path d="M256.883 155.342c-24.062 24.767-59.57 47.305-75.064 55.286-6.926 3.521-13.91 6.632-20.894 9.39h95.958v-64.676z"/><path d="M254.164 100.825c-18.664-2.289-26.117-9.743-26.117-9.743-24.65-25.882-42.668-47.069-65.791-53.056-8.569-2.171-18.43-1.937-27.702-.469-3.287-4.167-9.742-10.095-18.722-11.21 8.452-1.702 17.255-2.641 26.293-2.641 54.171 0 99.538 32.866 112.039 77.119"/><path d="M66.242 177.144c2.758-9.449.235-23.006.235-23.006-.47-7.512-15.964-63.209 19.016-93.083 0 0-4.93-18.077 9.449-28.641-40.555 15.788-68.667 51.53-68.667 93.082v94.199h21.833c-1.056-5.811 1.702-13.499 7.688-22.127-.001 0 7.746-10.974 10.446-20.424"/><path d="M106.117 167.056c-15.083 14.966-23.358 30.226-19.133 39.029 7.395 15.377 50.004 9.508 92.73-11.034 42.668-20.483 75.886-51.354 68.08-66.496-8.275-16.022-50.532-9.978-92.555 11.268l-1.408.47c18.723-11.797 51.236-27.878 84.631-32.749 0 0 28.641-4.46 34.275 8.979 7.806 18.194-31.164 54.406-91.146 83.281-59.981 28.817-111.218 36.271-119.787 18.429-6.632-13.852 16.551-46.834 51.295-69.665 0 0 47.598-34.686 108.284-43.313l-.411.293c.001.001-66.671 13.794-114.855 61.508"/><path d="M238.84 132.799c-5.459-11.269-41.846-4.93-81.345 14.144-39.499 19.074-67.142 43.547-61.683 54.817 5.399 11.268 41.846 4.93 81.344-14.086 39.44-19.074 67.142-43.607 61.684-54.875zm-107.255 61.379c-12.09.881-19.427-4.226-24.885-9.859l.117-.059s3.287-2.935 4.695-3.992c13.44 14.908 32.28 5.283 32.28 5.283-19.25 3.169-20.424-13.734-20.424-13.734 9.273-5.986 22.067-12.677 37.209-16.961 1.467 3.697 1.644 5.693 1.878 9.743.822 16.197-13.557 28.229-30.87 29.579z"/><path d="M89.632 144.131s1.057 5.517 1.702 11.269c-11.386 10.153-17.02 22.713-17.02 22.713 3.639-9.214-.293-26.469-.293-26.469-2.583-16.14-16.14-61.331 15.553-90.324-2.289-8.099-1.174-12.912.646-18.135 2.054-4.695 6.808-9.918 11.327-11.855 0 0-13.44 6.75-5.811 24.943 8.745-6.28 18.253-10.564 30.167-13.968l-.705.528c-45.426 17.313-49.417 42.726-37.62 90.5 1.057 4.284 1.644 7.981 2.054 10.798"/></svg>