<svg xmlns="http://www.w3.org/2000/svg" width="432" height="574" viewBox="0 0 432 574"><path d="M217.074 360.93c-71.239 0-129.052-57.721-129.052-128.972 0-71.38 57.813-129.059 129.052-129.059 71.301 0 129.042 57.679 129.042 129.059 0 71.251-57.741 128.972-129.042 128.972m0-322.471c-106.796 0-193.399 86.625-193.399 193.499 0 106.792 86.603 193.39 193.399 193.39 106.842 0 193.581-86.598 193.581-193.39 0-106.874-86.739-193.499-193.581-193.499zM217.074 165.651c-36.607 0-66.268 29.589-66.268 66.307 0 36.597 29.66 66.274 66.268 66.274 36.642 0 66.367-29.678 66.367-66.274 0-36.717-29.725-66.307-66.367-66.307"/></svg>