<svg xmlns="http://www.w3.org/2000/svg" width="48.473" height="34" viewBox="0 0 48.473 34"><path d="M22.723 30.303c-2.541-1.592-4.413-7.085-4.413-13.61l.007-.711.003.003c-7.067-1.11-12.174-4.154-12.305-7.752l-.02.04c-1.73 2.149-2.717 4.634-2.717 7.281 0 7.792 8.552 14.174 19.399 14.739l.046.01zm-22.713-14.18c0-8.717 10.849-15.785 24.231-15.785 13.382 0 24.231 7.068 24.231 15.785 0 8.718-10.849 15.785-24.231 15.785-13.382 0-24.231-7.067-24.231-15.785zm24.232-13.508c2.583 0 4.78 3.918 5.595 9.387l.003-.008c5.026-.782 8.546-2.588 8.546-4.688 0-2.819-6.333-5.101-14.144-5.101s-14.144 2.284-14.144 5.102c0 2.1 3.518 3.904 8.545 4.688l.003.008c.815-5.468 3.013-9.388 5.596-9.388zm1.564 27.678c10.848-.564 19.4-6.947 19.4-14.739 0-2.647-.988-5.132-2.717-7.281l-.021-.042c-.13 3.598-5.236 6.642-12.304 7.752l.003-.003.007.711c0 6.525-1.873 12.019-4.413 13.61l.045-.008zm-1.564-17.884c1.158 0 2.283-.049 3.359-.145l-.001.001c-.536-3.505-1.837-5.979-3.358-5.979-1.521 0-2.821 2.474-3.358 5.979l-.001-.001c1.076.095 2.2.145 3.359.145zm0 12.98c1.945 0 3.531-4.047 3.616-9.124l.01.003c-1.172.108-2.385.166-3.626.166-1.242 0-2.455-.057-3.626-.166l.011-.003c.083 5.077 1.669 9.124 3.615 9.124z"/></svg>