<?xml version="1.0" encoding="utf-8"?>
<!-- Generator: Adobe Illustrator 16.0.0, SVG Export Plug-In . SVG Version: 6.00 Build 0)  -->
<!DOCTYPE svg PUBLIC "-//W3C//DTD SVG 1.1//EN" "http://www.w3.org/Graphics/SVG/1.1/DTD/svg11.dtd">
<svg version="1.1" id="Layer_1" xmlns="http://www.w3.org/2000/svg" xmlns:xlink="http://www.w3.org/1999/xlink" x="0px" y="0px"
	 width="48.473px" height="34px" viewBox="0 0 48.473 34" enable-background="new 0 0 48.473 34" xml:space="preserve">
<path d="M22.723,30.303c-2.541-1.592-4.413-7.085-4.413-13.61c0-0.24,0.001-0.476,0.007-0.711l0.003,0.003
	c-7.067-1.11-12.174-4.154-12.305-7.752L5.995,8.273c-1.73,2.149-2.717,4.634-2.717,7.281c0,7.792,8.552,14.174,19.399,14.739
	L22.723,30.303z M0.01,16.123c0-8.717,10.849-15.785,24.231-15.785c13.382,0,24.231,7.068,24.231,15.785
	c0,8.718-10.849,15.785-24.231,15.785C10.859,31.908,0.01,24.841,0.01,16.123z M24.242,2.615c2.583,0,4.78,3.918,5.595,9.387
	l0.003-0.008c5.026-0.782,8.546-2.588,8.546-4.688c0-2.819-6.333-5.101-14.144-5.101S10.098,4.489,10.098,7.307
	c0,2.1,3.518,3.904,8.545,4.688l0.003,0.008C19.461,6.535,21.659,2.615,24.242,2.615z M25.806,30.293
	c10.848-0.564,19.4-6.947,19.4-14.739c0-2.647-0.988-5.132-2.717-7.281l-0.021-0.042c-0.13,3.598-5.236,6.642-12.304,7.752
	l0.003-0.003c0.005,0.235,0.007,0.472,0.007,0.711c0,6.525-1.873,12.019-4.413,13.61L25.806,30.293z M24.242,12.409
	c1.158,0,2.283-0.049,3.359-0.145L27.6,12.265c-0.536-3.505-1.837-5.979-3.358-5.979c-1.521,0-2.821,2.474-3.358,5.979l-0.001-0.001
	C21.959,12.359,23.083,12.409,24.242,12.409z M24.242,25.389c1.945,0,3.531-4.047,3.616-9.124l0.01,0.003
	c-1.172,0.108-2.385,0.166-3.626,0.166c-1.242,0-2.455-0.057-3.626-0.166l0.011-0.003C20.71,21.342,22.296,25.389,24.242,25.389z"/>
</svg>
