<svg xmlns="http://www.w3.org/2000/svg" width="235.5" height="282.377" viewBox="0 0 235.5 282.377"><path fill-rule="evenodd" clip-rule="evenodd" d="M15.402 42.202c2.921-1.397 5.817-2.85 8.768-4.183 13.076-5.908 26.727-10.012 40.76-12.905 20.134-4.152 40.495-5.776 61.019-5.165 25.79.769 51.057 4.66 75.329 13.721 6.322 2.36 12.38 5.428 18.567 8.151.712.313.962.743.962 1.54-.022 39.102.01 78.204-.041 117.306-.017 12.681-2.481 24.857-8.275 36.234-6.128 12.034-15.005 21.561-26.436 28.726-10.982 6.885-22.534 12.715-34.253 18.202-10.819 5.065-21.756 9.88-32.658 14.765-.539.241-1.349.317-1.87.093-21.074-9.095-41.994-18.515-61.962-29.902-8.202-4.678-15.713-10.208-21.911-17.418-9.452-10.995-14.961-23.747-17.032-38.032-.368-2.542-.515-5.115-.772-7.673-.039-.386-.128-.767-.194-1.15-.001-40.77-.001-81.54-.001-122.31zm203.086 64.092h.013c0-20.462-.006-40.925.02-61.388.001-.91-.252-1.401-1.09-1.83-14.727-7.548-30.354-12.443-46.5-15.784-18.718-3.874-37.65-5.489-56.752-5.222-17.065.239-33.958 2.018-50.654 5.604-15.541 3.338-30.568 8.151-44.758 15.416-.784.401-1.056.853-1.056 1.725.022 38.669.018 77.339.024 116.009.001 5.276.477 10.512 1.466 15.698 2.853 14.953 9.651 27.766 20.661 38.333 6.236 5.985 13.553 10.383 21.05 14.509 18.255 10.045 37.215 18.622 56.326 26.876.498.215 1.253.197 1.756-.02 5.306-2.284 10.605-4.582 15.865-6.969 15.641-7.1 31.159-14.439 46.036-23.071 9.502-5.513 17.788-12.363 24.189-21.361 9.172-12.892 13.254-27.409 13.371-43.072.139-18.484.033-36.969.033-55.453zM210.471 107.225c0 18.167.094 36.335-.032 54.501-.093 13.393-3.438 25.91-10.956 37.149-5.212 7.792-11.935 13.993-19.906 18.887-11.284 6.928-23.141 12.766-35.107 18.379-8.381 3.932-16.864 7.643-25.291 11.476-.738.335-1.349.36-2.115.023-15.765-6.913-31.426-14.046-46.664-22.071-6.757-3.56-13.525-7.138-19.607-11.8-12.944-9.922-20.842-23.018-23.698-39.032-.871-4.882-1.291-9.904-1.322-14.866-.139-21.887-.057-43.774-.075-65.662-.001-.777.225-1.302.82-1.831 21.26-18.883 45.702-31.908 72.991-39.698 16.737-4.777 33.827-7.441 51.176-8.573 19.561-1.276 39.08-.582 58.586 1.084 1.095.094 1.236.538 1.235 1.476-.022 20.186-.018 40.371-.018 60.557l-.017.001zm-95.882 72.557c.612.111 1 .172 1.383.251 4.686.969 9.362.942 13.997-.262 8.189-2.128 13.832-7.385 17.734-14.688 3.478-6.507 5.006-13.559 5.55-20.845.635-8.509.211-16.938-2.437-25.131-4.521-13.993-14.698-21.778-28.972-22.101-8.405-.19-16.479 1.185-23.882 5.462-.762.44-1.114.898-1.113 1.841.028 36.89.027 73.779.005 110.668 0 .961.228 1.297 1.243 1.287 5.105-.05 10.211-.023 15.318-.028.345 0 .691-.041 1.172-.07.002-12.111.002-24.162.002-36.384zm-62.139-81.061h-1.459c-4.907 0-9.814-.001-14.721 0-1.56 0-1.562.003-1.562 1.523 0 17.293-.03 34.587.028 51.88.01 2.957.209 5.939.639 8.863 1.5 10.2 7.317 16.675 17.003 19.048 5.223 1.279 10.526 1.133 15.82.568 6.563-.698 12.807-2.451 18.509-5.886.66-.397 1.15-.771 1.149-1.723-.033-24.377-.03-48.754-.01-73.131 0-.872-.24-1.167-1.137-1.161-5.144.037-10.289.044-15.433-.002-.978-.009-1.193.337-1.187 1.234.034 4.867.016 9.735.016 14.602 0 16.106-.011 32.212.021 48.319.002 1.025-.326 1.572-1.25 1.981-2.407 1.067-4.925 1.435-7.525 1.37-3.994-.098-6.84-2.074-7.949-5.908-.585-2.022-.903-4.194-.911-6.301-.07-17.847-.041-35.695-.042-53.542l.001-1.734zm148.243 18.93c0-4.896-.022-9.403.02-13.909.008-.854-.246-1.394-.974-1.832-9.251-5.574-18.977-6.847-28.932-2.415-13.648 6.074-17.821 23.396-8.63 34.771 2.236 2.767 4.959 5 7.916 6.934 3.111 2.034 6.328 3.905 9.441 5.936 2.065 1.347 3.906 2.967 5.119 5.187 3.358 6.148-.047 13.118-6.96 14.104-1.471.209-3.013.23-4.486.051-5.159-.632-9.676-2.833-13.783-5.945-.301-.228-.611-.442-1.003-.725-.067.275-.132.417-.132.56-.007 4.827-.029 9.655.028 14.481.005.418.451 1.001.85 1.217 6.731 3.648 13.902 5.432 21.578 4.788 6.677-.56 12.457-3.026 17.004-8.133 7.188-8.072 9.224-25.688-3.261-35.53-3.875-3.055-8.127-5.469-12.309-8.029-1.939-1.188-3.844-2.542-5.46-4.13-3.639-3.574-3.456-11.752 3.673-13.82 1.055-.306 2.165-.52 3.26-.571 6.115-.287 11.238 2.13 15.821 5.95.323.264.631.546 1.22 1.06z"/><path fill-rule="evenodd" clip-rule="evenodd" fill="#fff" d="M114.589 179.782v36.385c-.481.029-.827.07-1.172.07-5.106.005-10.212-.021-15.318.028-1.015.01-1.244-.326-1.243-1.287.022-36.89.023-73.779-.005-110.668-.001-.943.352-1.4 1.113-1.841 7.403-4.277 15.477-5.652 23.882-5.462 14.273.323 24.45 8.108 28.972 22.101 2.647 8.193 3.071 16.622 2.437 25.131-.544 7.286-2.072 14.338-5.55 20.845-3.902 7.304-9.545 12.561-17.734 14.688-4.635 1.204-9.312 1.23-13.997.262-.385-.08-.772-.14-1.385-.252zm.031-40.948h.005c0 8.508-.009 17.016.026 25.523.002.448.269 1.152.605 1.302 5.325 2.362 12.142.373 15.433-4.432 1.823-2.663 2.824-5.658 3.453-8.779 1.536-7.635 1.485-15.338.839-23.053-.342-4.08-1.047-8.091-2.909-11.799-1.546-3.079-3.864-5.292-7.282-6.153-2.985-.751-5.955-.593-8.909.259-.923.267-1.296.686-1.29 1.728.052 8.468.029 16.937.029 25.404zM52.45 98.721v1.736c0 17.847-.029 35.695.042 53.542.008 2.106.325 4.278.911 6.301 1.109 3.834 3.955 5.811 7.949 5.908 2.601.064 5.118-.303 7.525-1.37.924-.409 1.252-.956 1.25-1.981-.032-16.106-.021-32.212-.021-48.319 0-4.867.018-9.735-.016-14.602-.006-.896.209-1.243 1.187-1.234 5.144.046 10.289.039 15.433.002.896-.006 1.137.289 1.137 1.161-.021 24.376-.023 48.754.01 73.131.001.952-.489 1.325-1.149 1.723-5.702 3.435-11.946 5.188-18.509 5.886-5.293.564-10.597.711-15.82-.568-9.686-2.373-15.503-8.848-17.003-19.048-.43-2.924-.629-5.906-.639-8.863-.058-17.293-.029-34.586-.028-51.88 0-1.52.003-1.523 1.562-1.523 4.907-.001 9.814 0 14.721 0l1.458-.002zM200.693 117.651c-.589-.515-.897-.796-1.219-1.063-4.583-3.819-9.706-6.236-15.821-5.95-1.095.051-2.205.265-3.26.571-7.129 2.068-7.312 10.247-3.673 13.82 1.616 1.588 3.521 2.942 5.46 4.13 4.182 2.56 8.434 4.974 12.309 8.029 12.484 9.842 10.449 27.458 3.261 35.53-4.547 5.106-10.327 7.573-17.004 8.133-7.676.644-14.847-1.14-21.578-4.788-.398-.216-.845-.799-.85-1.217-.058-4.826-.035-9.654-.028-14.481 0-.143.064-.284.132-.56.392.282.702.497 1.003.725 4.107 3.112 8.624 5.313 13.783 5.945 1.474.18 3.016.158 4.486-.051 6.913-.986 10.318-7.956 6.96-14.104-1.213-2.22-3.054-3.84-5.119-5.187-3.113-2.03-6.33-3.901-9.441-5.936-2.957-1.933-5.68-4.167-7.916-6.934-9.191-11.374-5.019-28.696 8.63-34.771 9.955-4.432 19.681-3.159 28.932 2.415.728.438.981.978.974 1.832-.043 4.51-.021 9.016-.021 13.912z"/><path fill-rule="evenodd" clip-rule="evenodd" d="M114.62 138.834c0-8.468.022-16.937-.028-25.404-.006-1.042.366-1.461 1.29-1.728 2.954-.853 5.923-1.011 8.909-.259 3.418.86 5.736 3.074 7.282 6.153 1.862 3.708 2.567 7.719 2.909 11.799.646 7.715.697 15.418-.839 23.053-.629 3.121-1.63 6.116-3.453 8.779-3.291 4.805-10.107 6.794-15.433 4.432-.337-.149-.604-.854-.605-1.302-.036-8.507-.026-17.015-.026-25.523h-.006z"/></svg>