<svg xmlns="http://www.w3.org/2000/svg" width="216" height="144" viewBox="0 0 216 144"><path d="M66.748 43.725l-14.552 39.23-1.555-7.979c-4.091-11.356-14.263-17.614-19.396-19.428l12.121 45.625 15.729-.038 23.395-57.408h-15.742v-.002zM79.214 101.216l9.283-57.537h14.868l-9.297 57.537zM147.966 45.092c-2.944-1.156-7.573-2.414-13.331-2.414-14.677 0-25.023 7.806-25.107 18.987-.094 8.267 7.374 12.876 13.02 15.628 5.782 2.82 7.736 4.621 7.708 7.14-.042 3.858-4.619 5.617-8.896 5.617-5.949 0-9.107-.866-13.993-3.012l-1.911-.915-2.079 12.868c3.468 1.607 9.887 3.001 16.546 3.078 15.628 0 25.763-7.716 25.883-19.664.046-6.556-3.921-11.524-12.473-15.628-5.211-2.664-8.388-4.432-8.351-7.13 0-2.398 2.687-4.958 8.508-4.958 4.861-.077 8.379 1.046 11.119 2.209l1.331.662 2.026-12.468zM186.067 43.735h-11.482c-3.562 0-6.223 1.016-7.779 4.769l-22.078 52.731h15.609s2.555-7.088 3.125-8.656c1.712 0 16.872.03 19.031.03.446 2.009 1.809 8.626 1.809 8.626h13.781l-12.016-57.5zm-18.332 37.079c1.232-3.311 5.918-16.081 5.918-16.081-.084.152 1.229-3.331 1.974-5.491l1.017 4.962s2.834 13.729 3.43 16.608c-2.316.002-9.427.002-12.339.002zM38.701 43.699h-23.953l-.189 1.191c20.843 5.334 30.69 15.514 36.089 30.099l-5.208-26.438c-.897-3.645-3.506-4.726-6.739-4.852z"/></svg>