<?xml version="1.0" encoding="utf-8"?>
<!-- Generator: Adobe Illustrator 16.0.0, SVG Export Plug-In . SVG Version: 6.00 Build 0)  -->
<!DOCTYPE svg PUBLIC "-//W3C//DTD SVG 1.1//EN" "http://www.w3.org/Graphics/SVG/1.1/DTD/svg11.dtd">
<svg version="1.1" id="Layer_1" xmlns="http://www.w3.org/2000/svg" xmlns:xlink="http://www.w3.org/1999/xlink" x="0px" y="0px"
	 width="216px" height="144px" viewBox="0 0 216 144" enable-background="new 0 0 216 144" xml:space="preserve">
<path d="M66.748,43.725l-14.552,39.23l-1.555-7.979C46.55,63.62,36.378,57.362,31.245,55.548l12.121,45.625l15.729-0.038
	L82.49,43.727H66.748V43.725z"/>
<polygon points="79.214,101.216 88.497,43.679 103.365,43.679 94.068,101.216 "/>
<path d="M147.966,45.092c-2.944-1.156-7.573-2.414-13.331-2.414c-14.677,0-25.023,7.806-25.107,18.987
	c-0.094,8.267,7.374,12.876,13.02,15.628c5.782,2.82,7.736,4.621,7.708,7.14c-0.042,3.858-4.619,5.617-8.896,5.617
	c-5.949,0-9.107-0.866-13.993-3.012l-1.911-0.915l-2.079,12.868c3.468,1.607,9.887,3.001,16.546,3.078
	c15.628,0,25.763-7.716,25.883-19.664c0.046-6.556-3.921-11.524-12.473-15.628c-5.211-2.664-8.388-4.432-8.351-7.13
	c0-2.398,2.687-4.958,8.508-4.958c4.861-0.077,8.379,1.046,11.119,2.209l1.331,0.662L147.966,45.092L147.966,45.092z"/>
<path d="M186.067,43.735h-11.482c-3.562,0-6.223,1.016-7.779,4.769l-22.078,52.731h15.609c0,0,2.555-7.088,3.125-8.656
	c1.712,0,16.872,0.03,19.031,0.03c0.446,2.009,1.809,8.626,1.809,8.626h13.781L186.067,43.735L186.067,43.735z M167.735,80.814
	c1.232-3.311,5.918-16.081,5.918-16.081c-0.084,0.152,1.229-3.331,1.974-5.491l1.017,4.962c0,0,2.834,13.729,3.43,16.608
	C177.758,80.814,170.647,80.814,167.735,80.814L167.735,80.814z"/>
<path d="M38.701,43.699H14.748l-0.189,1.191c20.843,5.334,30.69,15.514,36.089,30.099L45.44,48.551
	C44.543,44.906,41.934,43.825,38.701,43.699L38.701,43.699z"/>
</svg>
