<svg xmlns="http://www.w3.org/2000/svg" width="144" height="144" viewBox="0 0 144 144"><path d="M71.5 15.033c-31.738 0-57.467 25.73-57.467 57.467 0 31.738 25.729 57.468 57.467 57.468 31.737 0 57.467-25.729 57.467-57.468 0-31.737-25.73-57.467-57.467-57.467zm0 109.781c-28.893 0-52.314-23.422-52.314-52.314s23.421-52.314 52.314-52.314c28.892 0 52.314 23.422 52.314 52.314 0 28.893-23.422 52.314-52.314 52.314zM60.046 33.415c3.633-1.062 7.477-1.632 11.454-1.632 3.971 0 7.811.568 11.44 1.629l-11.44 25.359-11.454-25.356zM93.356 38.139c4.291 2.736 8.035 6.252 11.031 10.35l-18.777 41.554-7.246-16.112h-13.729l-7.245 16.112-18.751-41.593c2.992-4.081 6.725-7.583 11.002-10.31l14.994 33.264h13.776l14.945-33.265zM32.158 61.961c-.898 3.362-1.377 6.895-1.377 10.539 0 15.957 9.178 29.77 22.543 36.448l-21.166-46.987zM60.235 111.641c3.577 1.028 7.357 1.578 11.265 1.578 3.902 0 7.678-.549 11.251-1.574l-11.251-24.987-11.265 24.983zM89.675 108.948c13.365-6.679 22.543-20.491 22.543-36.448 0-3.612-.47-7.114-1.353-10.449l-21.19 46.897z"/></svg>