<svg xmlns="http://www.w3.org/2000/svg" width="300" height="300" viewBox="0 0 300 300"><g><path d="M149.999 102.208c-26.287 0-47.599 21.397-47.599 47.791 0 26.395 21.312 47.792 47.599 47.792 26.289 0 47.601-21.397 47.601-47.792 0-26.395-21.312-47.791-47.601-47.791zm-23.377 61.637v-3.957c-2.004 2.279-4.285 3.795-7.647 3.776-7.956-.04-14.405-6.474-14.405-14.459s6.449-14.46 14.405-14.46c7.955 0 14.875 6.424 14.875 14.411l.007 14.638-7.235.051zm23.738.227c-7.957 0-14.877-6.421-14.877-14.412l-.007-24.33h7.227l.009 13.598c2.008-2.278 4.287-3.796 7.651-3.777 7.954.043 14.401 6.475 14.401 14.459-.001 7.985-6.452 14.462-14.404 14.462zm30.966-.339c-7.953 0-14.4-6.475-14.4-14.459s6.447-14.46 14.4-14.46c6.946 0 12.761 5.089 14.121 11.652l-7.242-.024c-1.11-2.633-3.718-4.414-6.745-4.414-4.038 0-7.312 3.287-7.312 7.341 0 4.053 3.275 7.341 7.312 7.341 3.027 0 5.668-1.761 6.778-4.397l7.242-.036c-1.345 6.591-7.192 11.456-14.154 11.456z"/><ellipse cx="150.171" cy="149.225" rx="7.31" ry="7.341"/><ellipse cx="119.063" cy="149.225" rx="7.309" ry="7.341"/></g></svg>