<?xml version="1.0" encoding="utf-8"?>
<!-- Generator: Adobe Illustrator 16.0.0, SVG Export Plug-In . SVG Version: 6.00 Build 0)  -->
<!DOCTYPE svg PUBLIC "-//W3C//DTD SVG 1.1//EN" "http://www.w3.org/Graphics/SVG/1.1/DTD/svg11.dtd">
<svg version="1.1" xmlns="http://www.w3.org/2000/svg" xmlns:xlink="http://www.w3.org/1999/xlink" x="0px" y="0px" width="300px"
	 height="300px" viewBox="0 0 300 300" style="enable-background:new 0 0 300 300;" xml:space="preserve">
<g id="Guides">
</g>
<g id="ABC">
	<g>
		<path d="M149.999,102.208c-26.287,0-47.599,21.397-47.599,47.791c0,26.395,21.312,47.792,47.599,47.792
			c26.289,0,47.601-21.397,47.601-47.792C197.6,123.604,176.288,102.208,149.999,102.208z M126.622,163.845v-3.957
			c-2.004,2.279-4.285,3.795-7.647,3.776c-7.956-0.04-14.405-6.474-14.405-14.459s6.449-14.46,14.405-14.46
			c7.955,0,14.875,6.424,14.875,14.411l0.007,14.638L126.622,163.845z M150.36,164.072c-7.957,0-14.877-6.421-14.877-14.412
			l-0.007-24.33h7.227l0.009,13.598c2.008-2.278,4.287-3.796,7.651-3.777c7.954,0.043,14.401,6.475,14.401,14.459
			C164.763,157.595,158.312,164.072,150.36,164.072z M181.326,163.733c-7.953,0-14.4-6.475-14.4-14.459
			c0-7.984,6.447-14.46,14.4-14.46c6.946,0,12.761,5.089,14.121,11.652l-7.242-0.024c-1.11-2.633-3.718-4.414-6.745-4.414
			c-4.038,0-7.312,3.287-7.312,7.341c0,4.053,3.275,7.341,7.312,7.341c3.027,0,5.668-1.761,6.778-4.397l7.242-0.036
			C194.135,158.868,188.288,163.733,181.326,163.733z"/>
		<ellipse cx="150.171" cy="149.225" rx="7.31" ry="7.341"/>
		<ellipse cx="119.063" cy="149.225" rx="7.309" ry="7.341"/>
	</g>
</g>
<g id="Apple">
</g>
<g id="CBS">
</g>
<g id="CNN">
</g>
<g id="Coke">
</g>
<g id="Dropbox">
</g>
<g id="ESPN">
</g>
<g id="GE">
</g>
<g id="LG">
</g>
<g id="Honda">
</g>
<g id="Hyundai">
</g>
<g id="IBM">
</g>
<g id="Intel">
</g>
<g id="John_Deere">
</g>
<g id="Jumpman">
</g>
<g id="Chase">
</g>
<g id="Girl_Scouts">
</g>
<g id="Mazda">
</g>
<g id="McDonalds">
</g>
<g id="Mercedes">
</g>
<g id="Motorola">
</g>
<g id="MTV">
</g>
<g id="NBC">
</g>
<g id="Nike">
</g>
<g id="PBS">
</g>
<g id="Pepsi">
</g>
<g id="Shell">
</g>
<g id="Starbucks">
</g>
<g id="Taco_Bell">
</g>
<g id="Target">
</g>
<g id="Toyota">
</g>
<g id="Twitter">
</g>
<g id="Univision">
</g>
<g id="UPS">
</g>
<g id="Quicksilver">
</g>
<g id="Volkswagen">
</g>
<g id="KFC">
</g>
<g id="Mitsubishi">
</g>
<g id="Rolex">
</g>
<g id="Puma">
</g>
</svg>
