<svg xmlns="http://www.w3.org/2000/svg" width="300" height="300" viewBox="0 0 300 300"><path d="M149.832 102.675c-26.044 0-47.152 21.109-47.152 47.153 0 26.05 21.108 47.173 47.152 47.173 26.05 0 47.167-21.124 47.167-47.173 0-26.044-21.117-47.153-47.167-47.153zm0 75.27c-20.564 0-37.149-12.524-44.3-28.118 7.15-15.588 23.735-28.119 44.3-28.119 20.566 0 37.159 12.53 44.308 28.119-7.149 15.594-23.742 28.118-44.308 28.118zm.002-49.557c-11.722 0-21.22 9.505-21.22 21.239 0 11.723 9.498 21.229 21.22 21.229 11.729 0 21.232-9.506 21.232-21.229 0-11.734-9.502-21.239-21.232-21.239z"/></svg>