<svg xmlns="http://www.w3.org/2000/svg" width="300" height="300" viewBox="0 0 300 300"><path d="M138.503 119.061c-5.394.386-9.968 4.92-9.968 11.318v30.439c.002 1.099-.819 2.049-2.008 2.049h-9.503c-20.579.024-18.753-26.276-1.235-26.308h10.506v-7.647h-10.894c-6.977 0-12.153 2.604-15.646 6.489-3.492 3.886-5.243 9.114-5.254 14.331-.008 5.218 1.719 10.416 5.295 14.292 3.573 3.879 8.973 6.492 16.376 6.492h17.926c1.182 0 2.163-1.021 2.163-2.203v-37.121c-.008-1.913 1.069-3.391 2.471-3.825 1.405-.434 3.051.118 4.018 1.505l.039.042c5.098 8.342 25.345 40.814 25.379 40.87.554.794 1.218.935 1.699.774.482-.162.97-.683.965-1.972v-37.392c-.005-1.911 1.071-3.391 2.473-3.825 1.401-.431 3.013.117 3.979 1.507v.042h.079c5.097 8.339 25.343 40.812 25.38 40.87.549.784 1.189.937 1.7.771.507-.166 1.007-.652 1.004-1.932v-49.367h-7.688v28.816s-4.583-7.83-12.438-21.323c-7.692-13.215-22.209-7.744-22.212 3.631v17.692s-4.504-7.83-12.359-21.323c-3.366-5.778-8.049-7.986-12.245-7.687v-.005zm-21.749.193c-42.777 0-42.365 60.963.58 60.994h16.803c7.223 0 11.833-4.276 11.82-12.167v-15.45s9.438 15.597 13.134 21.708c6.282 10.386 21.477 8.343 21.44-4.636v-17.073s9.397 15.595 13.094 21.71c6.282 10.385 21.516 8.341 21.478-4.637v-50.448h-7.687v49.368c.007 1.893-.987 3.299-2.356 3.748-1.37.443-2.944-.112-3.901-1.47h-.039v-.073s-20.255-32.388-25.418-40.831h-.038v-.042c-.533-.708-1.218-.868-1.778-.695-.577.18-1.123.676-1.119 1.932v37.392c.006 1.885-.962 3.372-2.318 3.823-1.358.454-2.911-.147-3.863-1.504v-.042h-.039s-20.269-32.448-25.42-40.87c-.534-.767-1.231-.95-1.812-.771-.582.179-1.125.675-1.121 1.932v37.163c0 2.25-1.852 4.133-4.094 4.133h-17.926c-7.864 0-13.828-2.833-17.768-7.107-3.941-4.275-5.883-9.948-5.872-15.607.01-5.657 1.948-11.366 5.794-15.644 3.846-4.281 9.612-7.097 17.074-7.109h10.893v-7.724h-9.541v-.003z"/></svg>