<?xml version="1.0" encoding="utf-8"?>
<!-- Generator: Adobe Illustrator 16.0.0, SVG Export Plug-In . SVG Version: 6.00 Build 0)  -->
<!DOCTYPE svg PUBLIC "-//W3C//DTD SVG 1.1//EN" "http://www.w3.org/Graphics/SVG/1.1/DTD/svg11.dtd">
<svg version="1.1" xmlns="http://www.w3.org/2000/svg" xmlns:xlink="http://www.w3.org/1999/xlink" x="0px" y="0px" width="300px"
	 height="300px" viewBox="0 0 300 300" style="enable-background:new 0 0 300 300;" xml:space="preserve">
<g id="Guides">
</g>
<g id="ABC">
</g>
<g id="Apple">
</g>
<g id="CBS">
</g>
<g id="CNN">
</g>
<g id="Coke">
</g>
<g id="Dropbox">
</g>
<g id="ESPN">
	<path d="M68.986,128.682h37.189l-1.576,12.166H67.474L68.986,128.682z M66.804,145.32h37.233l-1.146,9.897H79.618l-0.605,4.732
		h23.317l-1.448,11.301H63.562L66.804,145.32L66.804,145.32z M106.781,140.848c0,0,0.259-4.149,1.297-6.311
		c0.972-2.031,2.269-3.501,4.451-4.732c1.297-0.691,3.609-1.123,3.609-1.123h66.989c0,0,2.809,0.043,4.021,0.539
		c1.296,0.541,3.176,1.341,4.169,3.761c0.973,2.312,0.778,3.068,0.778,5.381c0,2.269-0.064,2.485-0.064,2.485H106.781
		L106.781,140.848z M106.176,145.429h34.273c0,0,3.047,0,4.451,0.843c1.47,0.973,2.139,2.161,2.572,4.041
		c0.409,1.88-0.735,11.366-1.406,13.679c-0.733,2.269-1.598,4.408-5.142,6.181c-3.177,1.62-7.996,1.079-7.996,1.079h-29.604
		l1.75-11.301H132.8l0.561-4.798h-19.124c0,0-3.112,0.433-6.029-2.095c-1.771-1.514-1.966-3.825-2.074-4.842
		C106.004,147.633,106.176,145.429,106.176,145.429L106.176,145.429z M150.756,145.429h40.433c0,0-0.367,4.668-1.47,6.332
		c-1.102,1.729-2.075,2.658-3.912,3.068c-1.879,0.432-4.688,0.432-4.688,0.432h-17.59l-1.837,15.99H147.58L150.756,145.429z
		 M193.932,140.955h42.009c0,0,0.801-3.673,0.368-5.984c-0.432-2.313-1.47-3.869-3.176-4.992c-2.248-1.578-6.354-1.297-6.289-1.297
		H195.64L193.932,140.955L193.932,140.955z M193.392,145.429h13.917l-3.177,25.822h-13.808L193.392,145.429z M221.354,145.536
		h13.787l-3.176,25.715h-13.723L221.354,145.536z"/>
</g>
<g id="GE">
</g>
<g id="LG">
</g>
<g id="Honda">
</g>
<g id="Hyundai">
</g>
<g id="IBM">
</g>
<g id="Intel">
</g>
<g id="John_Deere">
</g>
<g id="Jumpman">
</g>
<g id="Chase">
</g>
<g id="Girl_Scouts">
</g>
<g id="Mazda">
</g>
<g id="McDonalds">
</g>
<g id="Mercedes">
</g>
<g id="Motorola">
</g>
<g id="MTV">
</g>
<g id="NBC">
</g>
<g id="Nike">
</g>
<g id="PBS">
</g>
<g id="Pepsi">
</g>
<g id="Shell">
</g>
<g id="Starbucks">
</g>
<g id="Taco_Bell">
</g>
<g id="Target">
</g>
<g id="Toyota">
</g>
<g id="Twitter">
</g>
<g id="Univision">
</g>
<g id="UPS">
</g>
<g id="Quicksilver">
</g>
<g id="Volkswagen">
</g>
<g id="KFC">
</g>
<g id="Mitsubishi">
</g>
<g id="Rolex">
</g>
<g id="Puma">
</g>
</svg>
