<?xml version="1.0" encoding="utf-8"?>
<!-- Generator: Adobe Illustrator 16.0.0, SVG Export Plug-In . SVG Version: 6.00 Build 0)  -->
<!DOCTYPE svg PUBLIC "-//W3C//DTD SVG 1.1//EN" "http://www.w3.org/Graphics/SVG/1.1/DTD/svg11.dtd">
<svg version="1.1" xmlns="http://www.w3.org/2000/svg" xmlns:xlink="http://www.w3.org/1999/xlink" x="0px" y="0px" width="300px"
	 height="300px" viewBox="0 0 300 300" style="enable-background:new 0 0 300 300;" xml:space="preserve">
<g id="Guides">
</g>
<g id="ABC">
</g>
<g id="Apple">
</g>
<g id="CBS">
</g>
<g id="CNN">
</g>
<g id="Coke">
</g>
<g id="Dropbox">
</g>
<g id="ESPN">
</g>
<g id="GE">
	<g>
		<path d="M148.189,105.296c8.982-0.684,18.149,1.415,25.945,5.924c6.236,3.596,11.629,8.669,15.532,14.724
			c4.848,7.402,7.41,16.264,7.337,25.111c-0.058,9.246-3,18.459-8.379,25.988c-5.456,7.723-13.387,13.669-22.339,16.712
			c-7.949,2.75-16.662,3.183-24.867,1.346c-8.601-1.919-16.593-6.442-22.705-12.789c-6.479-6.71-10.864-15.445-12.204-24.685
			c-1.318-8.232-0.229-16.817,2.986-24.499c2.986-7.145,7.848-13.477,13.932-18.255
			C130.481,109.311,139.225,105.918,148.189,105.296 M148.179,107.481c-5.337,0.381-10.586,1.81-15.41,4.117
			c-7.764,3.742-14.402,9.821-18.707,17.293c-6.413,10.779-7.65,24.418-3.447,36.218c2.696,7.672,7.62,14.517,13.986,19.566
			c7.396,5.869,16.754,9.249,26.203,9.33c6.899,0.15,13.831-1.416,19.992-4.523c7.848-3.884,14.442-10.235,18.656-17.906
			c4.211-7.615,6.061-16.536,5.123-25.193c-1.247-14.049-10.023-27.067-22.407-33.74
			C164.904,108.64,156.448,106.807,148.179,107.481L148.179,107.481z M140.518,111.599c7.564-2.111,15.752-2.021,23.234,0.394
			c0.325,0.103,0.575,0.343,0.831,0.556c-1.235-0.091-2.367-0.648-3.581-0.857c-3.06-0.611-6.229-0.913-9.329-0.452
			c-1.943,0.351-3.98,1.101-5.213,2.725c-0.927,1.204-1.026,3.098,0.05,4.241c1.193,1.263,3.311,1.194,4.636,0.175
			c1.562-1.148,3.076-2.517,5.028-2.942c3.964-0.982,8.121-0.193,11.96,0.949c4.611,1.257,8.972,3.533,12.51,6.76
			c5.895,5.206,9.438,12.684,10.782,20.352c1.173,6.542,0.82,13.378-1.209,19.716c-0.072,0.298-0.261,0.471-0.568,0.519
			c1.177-4.317,2.051-8.897,1.171-13.354c-0.462-2.151-1.521-4.577-3.785-5.312c-1.733-0.614-3.843,0.578-3.983,2.462
			c-0.331,2.016,1.317,3.469,2.345,4.979c2.203,3.164,1.931,7.266,1.393,10.895c-1.013,4.914-2.653,9.806-5.63,13.897
			c-4.594,6.595-11.912,10.947-19.646,12.807c-6.72,1.606-13.842,1.597-20.551-0.058c-0.883-0.264-1.889-0.383-2.572-1.059
			c1.278-0.003,2.464,0.552,3.716,0.75c3.42,0.623,6.993,1.007,10.409,0.151c1.55-0.427,3.117-1.164,4.091-2.489
			c0.902-1.238,0.884-3.133-0.225-4.238c-0.961-1.014-2.56-1.224-3.786-0.584c-1.458,0.789-2.571,2.087-4.061,2.833
			c-3.001,1.458-6.483,1.244-9.687,0.704c-5.309-1.042-10.555-2.968-14.836-6.354c-5.684-4.369-9.621-10.739-11.549-17.601
			c-2.041-7.183-2.055-14.902-0.193-22.123c0.323-0.748,0.199-1.93,1.051-2.284c-1.088,4.127-1.949,8.451-1.287,12.727
			c0.337,1.897,1.003,3.908,2.573,5.141c1.089,0.9,2.792,1.229,3.997,0.367c1.284-0.752,1.708-2.534,1.111-3.853
			c-0.627-1.484-1.901-2.566-2.631-3.997c-1.575-2.88-1.403-6.318-0.984-9.472c0.88-5.051,2.595-10.041,5.574-14.255
			C126.097,118,133.059,113.613,140.518,111.599 M141.541,126.936c-2.466,1.328-4.159,3.703-5.4,6.152
			c-1.317,2.516-1.862,5.328-2.12,8.128c-1.217-0.162-2.196-1.105-2.476-2.288c-0.568-1.729,0.032-3.506,0.341-5.213
			c0.137-0.496-0.24-0.9-0.441-1.307c-1.034-0.063-2.091,0.445-2.562,1.395c-1.408,2.633-1.284,6.184,0.664,8.52
			c1.116,1.413,2.88,2.113,4.633,2.301c0.592,1.821,1.747,3.598,3.604,4.312c2.271,0.917,4.768-0.044,6.742-1.238
			c-0.072,0.733-0.109,1.483-0.366,2.182c-0.693,0.559-1.538,0.886-2.313,1.318c-3.811,2.007-7.691,4.03-10.893,6.955
			c-2.334,2.189-4.168,5.102-4.52,8.329c-0.173,2.537,0.839,5.319,3.062,6.715c2.32,1.537,5.384,1.452,7.914,0.499
			c3.191-1.216,5.57-3.924,7.145-6.878c2.327-4.182,2.727-9.06,3.064-13.738c0.094-0.547-0.022-1.323,0.621-1.561
			c3.802-2.138,7.496-4.465,11.029-7.026c0.417,0.516,0.83,1.032,1.224,1.562c-1.818,1.085-3.631,2.254-5.003,3.896
			c-5.135,5.614-5.22,15.252,0.162,20.73c2.75,2.903,6.979,4.144,10.894,3.562c3.599-0.511,6.872-2.774,8.688-5.911
			c2.42-3.995,2.024-9.581-1.122-13.067c-2.944-3.251-8.675-3.188-11.551,0.114c-2.265,2.382-2.339,6.593,0.023,8.926
			c0.958,0.955,2.625,1.531,3.827,0.709c0.775-0.559,0.701-1.751,0.076-2.398c-0.808-0.977-1.766-2.108-1.523-3.472
			c0.241-1.774,2.226-2.86,3.896-2.483c1.431,0.223,2.572,1.34,3.103,2.648c1.253,2.979,0.542,6.671-1.705,8.991
			c-2.383,2.483-6.525,2.874-9.4,1.034c-2.553-1.571-4.005-4.485-4.454-7.376c-0.47-3.485,0.199-7.246,2.36-10.089
			c1.393-1.798,3.335-3.275,5.568-3.81c1.876,0.144,3.821,0.481,5.659-0.118c0.863-0.295,1.705-1.263,1.266-2.208
			c-0.476-0.973-1.646-1.264-2.62-1.467c-1.454-0.289-2.902,0.099-4.324,0.37c-0.993-0.341-1.519-1.383-1.887-2.302
			c2.762-2.063,5.49-4.306,7.367-7.241c1.09-1.763,1.8-3.928,1.287-5.999c-0.404-1.373-1.529-2.539-2.965-2.801
			c-2.394-0.604-4.842,0.605-6.469,2.319c-2.612,2.836-3.939,6.767-3.818,10.602c-0.035,0.793,0.273,1.624,0.048,2.385
			c-1.959,1.58-4.148,2.851-6.259,4.215c-1.214,0.705-2.369,1.517-3.656,2.085c0.021-1.221,0.085-2.459,0.436-3.635
			c0.927-1.27,2.092-2.372,2.83-3.78c0.539-0.973,1.048-2.202,0.487-3.274c-0.516-0.796-1.654-0.719-2.399-0.322
			c-1.59,0.799-2.462,2.482-3.103,4.061c-0.44,1.009-0.49,2.262-1.432,2.977c-1.309,1.144-2.889,2.296-4.709,2.229
			c-1.04,0.006-1.733-0.974-1.953-1.893c2.877-1.117,5.279-3.201,7.226-5.557c1.804-2.317,3.235-5.052,3.479-8.017
			c0.135-1.493-0.398-3.186-1.763-3.967C145.351,125.791,143.213,126.056,141.541,126.936L141.541,126.936z M143.189,129.677
			c0.669-0.507,1.771-0.292,2.088,0.525c0.244,1.006-0.127,2.026-0.557,2.926c-1.218,2.487-3.037,4.646-5.116,6.455
			c-0.515,0.47-1.115,0.835-1.75,1.116c0.086-2.211,0.845-4.345,1.785-6.328C140.515,132.614,141.527,130.807,143.189,129.677
			L143.189,129.677z M164.693,130.54c0.592-0.682,1.609-1.364,2.511-0.899c0.991,0.585,0.474,1.897,0.083,2.701
			c-1.362,2.512-3.38,4.63-5.57,6.438C161.685,135.8,162.752,132.801,164.693,130.54z M135.243,159.439
			c2.568-2.16,5.415-4.014,8.463-5.423c-0.322,3.37-1.111,6.71-2.385,9.846c-1.093,2.526-2.713,5.125-5.398,6.159
			c-1.393,0.522-3.207,0.851-4.412-0.25c-1.142-1.012-1.064-2.729-0.731-4.088C131.472,163.15,133.335,161.153,135.243,159.439
			L135.243,159.439z"/>
	</g>
</g>
<g id="LG">
</g>
<g id="Honda">
</g>
<g id="Hyundai">
</g>
<g id="IBM">
</g>
<g id="Intel">
</g>
<g id="John_Deere">
</g>
<g id="Jumpman">
</g>
<g id="Chase">
</g>
<g id="Girl_Scouts">
</g>
<g id="Mazda">
</g>
<g id="McDonalds">
</g>
<g id="Mercedes">
</g>
<g id="Motorola">
</g>
<g id="MTV">
</g>
<g id="NBC">
</g>
<g id="Nike">
</g>
<g id="PBS">
</g>
<g id="Pepsi">
</g>
<g id="Shell">
</g>
<g id="Starbucks">
</g>
<g id="Taco_Bell">
</g>
<g id="Target">
</g>
<g id="Toyota">
</g>
<g id="Twitter">
</g>
<g id="Univision">
</g>
<g id="UPS">
</g>
<g id="Quicksilver">
</g>
<g id="Volkswagen">
</g>
<g id="KFC">
</g>
<g id="Mitsubishi">
</g>
<g id="Rolex">
</g>
<g id="Puma">
</g>
</svg>
