<svg xmlns="http://www.w3.org/2000/svg" width="300" height="300" viewBox="0 0 300 300"><g><path d="M179.895 117.925c1.384 4.657-.377 10.577 1.947 14.856l3.338 5.916c-.188 2.082-4.785 2.016-2.392 4.721.377 2.396-2.328 2.582-3.652 3.465.881.379 2.519-.254 2.706 1.196.19 1.951-2.579 1.762-2.894 3.648.569 2.077-.062 4.283-2.077 5.165-4.976 2.016-11.079-2.329-15.486 1.951-10.641 9.819-17.188 22.098-24.551 33.679-1.95.061-3.652-1.764-5.039-3.211-2.197-2.205-4.09-5.165-2.829-8.308 3.838-8.309 9.44-15.865 16.363-22.915 4.976-5.226 13.538-1.824 19.708-4.092 3.021-1.951-1.199-6.485 3.461-7.114.311-.694.25-1.887-.754-1.95h-1.828v-.629c1.445-.38 3.366-.833 3.777-2.396-.314-1.006-.881-1.857-.201-3.061 0 0 2.168-1.286 2.43-2.025.433-1.238-4.849-6-4.493-12.354.149-2.709-1.637-11.705-5.289-16.361-1.323 21.337-17.753 35.312-32.738 50.924-5.348 6.487-9.881 13.283-13.656 20.458-6.862-.562-12.842-4.596-16.493-10.636-4.284-7.931-3.966-18.886-2.582-28.014 1.573-6.989 6.103-15.233 13.914-16.684 2.706-.628 5.412-1.255 8.372-1.192 1.193-1.7.69-4.093 1.638-5.918 5.729-13.158 20.019-15.737 33.239-15.169 10.572.819 22.282 5.222 26.061 16.05"/><path d="M192.654 126.343c-1.198 5.598 2.329 10.068 4.53 14.665-.187.568-.819.878-1.319 1.07-3.97.755.755 4.028-2.27 5.475-.753.759-2.578.189-2.578 1.511.815.126 2.012-.374 2.578.567.191.441.319 1.199-.187 1.577-4.22.814-.505 5.476-3.778 7.236-4.529 1.573-9.504-.692-13.785 1.387-10.955 8.368-17.565 20.209-24.428 31.036-1.006 2.266-2.325 4.591-2.138 7.176 11.392.628 19.641-8.689 25.812-17.439 6.289.124 12.274-.444 17.436-3.021 6.985-3.341 10.387-10.577 11.329-17.626.568-12.404 1.387-27.949-11.202-33.614"/></g></svg>