<svg xmlns="http://www.w3.org/2000/svg" width="300" height="300" viewBox="0 0 300 300"><g><path d="M212.962 182.646c-.891-.291-2.074-.789-2.631-1.105-.95-.542-.807-.59 2.377-.797 3.063-.199 3.481-.328 4.352-1.339 1.737-2.021.937-3.869-2.276-5.252-2.43-1.046-.577-.732 3.447.582 4.79 1.565 8.235 1.523 12.335-.149 3.032-1.237 2.149-.336-1.214 1.24-1.632.765-3.093 1.088-5.479 1.214l-3.252.172.156 1.332c.125 1.071-.113 1.626-1.213 2.826-1.108 1.21-1.714 1.523-3.177 1.651-.992.085-2.534-.083-3.425-.375zM201.227 176.072c-5.057-2.789-6.324-3.079-14.974-3.411-8.723-.334-10.792-.839-15.265-3.722-3.141-2.023-7.336-6.312-9.219-9.422-3.307-5.466-4.783-6.037-14.567-5.635-7.505.307-14.422-.272-18.979-1.593l-3.274-.948-2.126 1.052c-1.827.903-2.639 1.048-5.769 1.033-3.043-.017-4.208-.227-7.081-1.28-8.914-3.27-9.354-3.398-11.251-3.275-1.78.115-1.91.199-2.033 1.337-.158 1.45-.879 2.386-.879 1.141 0-.462-.283-1.073-.627-1.359-.883-.732-.569-2.091.627-2.727 1.499-.798 5.625-.36 10.116 1.073 5.333 1.701 7.469 2.134 10.573 2.139 3.162.008 4.894-.743 6.035-2.614.965-1.582 1.04-4.79.186-7.972-.329-1.225-.6-2.26-.603-2.303s1.498.716 3.334 1.684c1.837.969 4.796 2.277 6.577 2.909l3.236 1.148-2.711.12c-1.494.065-3.733-.148-4.989-.476-2.109-.552-2.256-.545-1.987.083.16.372.379 1.733.487 3.023.192 2.324.211 2.354 2.067 3.271 5.954 2.946 9.079 3.448 20.921 3.355l8.932-.069 1.609 1.064c1.256.831 1.984 1.841 3.323 4.603 2.805 5.791 7.584 9.838 13.131 11.117.939.218 4.349.402 7.574.412 9.428.027 14.141 1.482 18.817 5.811 1.336 1.237 2.338 2.241 2.228 2.231-.111-.006-1.658-.817-3.439-1.8zM207.678 170.82c-2.727-1.636-4.726-3.435-5.875-5.289-1.036-1.671-2.201-2.087-7.094-2.534-4.157-.38-7.706-1.513-8.746-2.794-.446-.547-.41-.597.241-.352 1.881.706 4.452 1.117 9.029 1.443 5.879.419 6.943.924 9.241 4.388.849 1.281 2.523 3.286 3.719 4.455 1.196 1.168 2.11 2.125 2.031 2.125s-1.224-.649-2.546-1.442zM220.448 171.409c-2.755-.832-11.22-5.124-18.412-9.336-12.352-7.233-32.841-17.914-32.517-16.95.079.231 2.478 2.883 5.332 5.89 2.853 3.007 5.077 5.468 4.939 5.468-.551 0-5.048-3.569-7.904-6.271-3.708-3.512-6.002-5.108-10.045-6.994-2.784-1.298-3.47-1.451-6.618-1.477-4-.033-3.805-.434.51-1.045 1.624-.231 3.015-.48 3.089-.555.309-.308-22.53-8.59-30.235-10.965-5.17-1.593-10.087-2.804-10.345-2.545-.104.104.166.986.602 1.96.437.974.721 1.843.632 1.932-.089.088-.994-.573-2.013-1.471-3.887-3.421-11.405-6.446-18.671-7.514-4.047-.595-5.678-.341-7.722 1.202l-1.299.979 2.96 2.926c3.833 3.791 4.837 5.517 1.819 3.132-2.746-2.172-5.406-3.508-8.562-4.299-2.491-.627-4.343-1.517-4.345-2.087 0-.163.956-.238 2.125-.171 1.694.101 2.571-.104 4.333-1.011 3.913-2.016 3.404-2.271-4.08-2.052-5.278.156-7.171.37-9.301 1.06-2.864.925-4.979 2.294-4.568 2.956.143.233.715-.04 1.34-.64 1.15-1.102 3.317-1.405 4.486-.629.934.62-1.808 2.958-4.487 3.83-4.457 1.449-5.992 3.659-3.508 5.048 1.443.808 2.09.402 4.052-2.538 2.242-3.358 3.668-3.794 5.86-1.788 2.17 1.985 1.201 5.88-2.163 8.692-1.994 1.665-2.118 1.96-.982 2.319 1.139.362 2.237-.358 3.629-2.382.941-1.368 1.552-1.831 2.707-2.047 2.22-.416 3.796-2.186 3.796-4.263 0-.921-.194-2.039-.433-2.482-.421-.788-.398-.791.844-.148.702.362 1.827 1.546 2.5 2.629 1.119 1.801 1.457 2.04 3.936 2.793 1.491.453 3.52 1.398 4.509 2.1 2.064 1.464 5.235 4.431 5.235 4.896 0 .175-.984-.314-2.188-1.084-8.527-5.454-14.639-5.379-21.152.258-3.071 2.659-5.435 1.728-5.275-2.079.084-1.989.118-2.042 1.153-1.815.834.184 1.251-.001 1.921-.854.964-1.224 1.075-2.236.392-3.535-.999-1.896-2.489-1.997-3.405-.228-.442.856-.566 1.72-.386 2.683.262 1.393.244 1.415-.875 1.147-.628-.151-1.869-.431-2.761-.624-1.846-.399-4.248-2.818-4.248-4.279 0-.542.771-1.609 1.971-2.732 1.084-1.015 2.09-2.313 2.233-2.888.874-3.484 11.198-6.271 21.29-5.746 7.838.407 13.631 1.392 24.078 4.092 16.813 4.35 36.184 12.203 62.522 25.354 10.932 5.458 16.716 8.595 30.057 16.297 2.62 1.513 6.625 3.579 8.902 4.593 3.605 1.605 4.58 1.865 7.577 2.019l3.441.178 3.532-1.871c2.676-1.416 3.788-1.806 4.585-1.605 1.446.362 2.081 1.849 1.41 3.296-.511 1.102-.519 1.104-.856.215-.566-1.493-2.016-1.525-5.215-.122-3.222 1.415-7.304 1.909-9.728 1.178zM69.91 125.459c0-.076-.15-.139-.332-.139-.509 0-3.716 2.842-3.716 3.293 0 .218.91-.371 2.024-1.31 1.114-.937 2.024-1.768 2.024-1.844zM73.777 124.3c.75-.589.732-.611-.396-.507-.65.062-1.258.338-1.349.617-.229.698.797.634 1.745-.11zM89.236 153.344c-2.184-2.295-1.777-5.531 1.046-8.354 2.027-2.029 4.923-2.988 10.107-3.354l3.38-.238-.563-1.637c-.618-1.793-.18-4.764.918-6.212.505-.666.563-.544.575 1.194.014 2.071.825 4.437 1.95 5.682.948 1.05 4.17 2.65 7.572 3.763 3.357 1.098 2.952 1.154-2.661.38-7.716-1.065-12.428-1.209-15.327-.466-4.19 1.074-6.495 3.366-6.495 6.463 0 1.645 1.482 3.08 3.191 3.09.832.006.929.09.451.398-1.188.767-3.04.451-4.144-.709zM82.013 122.06c-.855-.528-.396-.661 3.072-.888 2.853-.187 3.093-.151 2.023.295-1.636.682-4.424 1.007-5.095.593z"/></g></svg>