<?xml version="1.0" encoding="utf-8"?>
<!-- Generator: Adobe Illustrator 16.0.0, SVG Export Plug-In . SVG Version: 6.00 Build 0)  -->
<!DOCTYPE svg PUBLIC "-//W3C//DTD SVG 1.1//EN" "http://www.w3.org/Graphics/SVG/1.1/DTD/svg11.dtd">
<svg version="1.1" xmlns="http://www.w3.org/2000/svg" xmlns:xlink="http://www.w3.org/1999/xlink" x="0px" y="0px" width="300px"
	 height="300px" viewBox="0 0 300 300" style="enable-background:new 0 0 300 300;" xml:space="preserve">
<g id="Guides">
</g>
<g id="ABC">
</g>
<g id="Apple">
</g>
<g id="CBS">
</g>
<g id="CNN">
</g>
<g id="Coke">
</g>
<g id="Dropbox">
</g>
<g id="ESPN">
</g>
<g id="GE">
</g>
<g id="LG">
</g>
<g id="Honda">
</g>
<g id="Hyundai">
</g>
<g id="IBM">
</g>
<g id="Intel">
</g>
<g id="John_Deere">
	<path d="M149.994,104.632h0.002H149.994z M193.096,114.458c-13.865-6.707-28.617-9.826-43.102-9.826
		c-14.469,0-29.227,3.119-43.094,9.826c-4.896,11.724-7.127,23.792-7.127,35.57c0,11.745,2.201,23.679,7.098,35.51
		c13.934,6.74,28.633,9.83,43.125,9.83c14.502,0,29.209-3.09,43.127-9.83c4.896-11.832,7.104-23.766,7.104-35.51
		C200.225,138.25,197.988,126.182,193.096,114.458z M190.086,182.715c-12.045,5.653-25.771,8.821-40.092,8.821
		c-14.314,0-28.043-3.168-40.088-8.821c-4.047-10.146-6.266-21.171-6.266-32.687c0-11.542,2.221-22.581,6.287-32.751
		c12.049-5.645,25.762-8.811,40.064-8.811c14.309,0,28.031,3.166,40.07,8.811c4.062,10.168,6.285,21.209,6.285,32.751
		C196.35,161.541,194.139,172.569,190.086,182.715z"/>
	<path style="fill:#020202;" d="M187.798,180.594c-2.532-4.167-5.934-7.534-5.971-7.564l-0.708-0.228
		c-7.217-2.219-11.948-3.887-14.039-4.972c-2.879-1.494-5.902-5.123-6.234-5.529c-3.374-0.255-6.166-0.2-8.851,0.125l-1.713,0.222
		c-3.26,0.421-6.628,0.867-9.929,0.337c-2.196-0.359-4.329-1.059-6.593-1.795c-3.483-1.142-7.055-2.312-11.132-2.306h-0.162
		l0.07,0.143c0.927,1.802,4.587,7.272,9.171,8.775c1.013,0.241,1.743,0.51,2.061,0.76c0,0.012,1.754,3.58,2.233,4.545
		c-2.854-1.294-11.675-5.78-18.791-14.44v-0.014c0-0.115-0.186-1.8-0.223-2.167c4.237-1.582,13.782-2.498,14.857-2.601l0.077-0.007
		l0.034-0.087c0.57-5.021,1.759-9.038,3.987-13.437c0.063-0.133,0.103-0.254,0.103-0.359l-0.055-0.218
		c-0.125-0.238-0.431-0.285-0.443-0.285l-6.494-1.133l-0.7-2.146c4.682-1.74,10.453-3.37,13.757-4.088
		c0.559-0.892,0.715-1.376,0.715-1.959c0-0.494-0.24-0.915-0.715-1.238c-2.344-1.588-9.716-0.633-17.178,2.229l-0.04-0.068
		c1.55-1.159,4.318-2.881,6.372-3.835l0.08-0.045l-0.025-0.076c-0.558-1.89-4.201-3.332-4.611-3.48l0.021-0.156
		c3.705-0.252,6.163,1.48,6.913,2.716l0.04,0.061l0.072-0.024c0.476-0.153,2.149-0.685,3.961-0.898l0.106-0.005l-0.028-0.11
		c-0.596-3.174-3.624-5.293-4.656-5.932l0.067-0.107c3.576,0.277,6.882,3.358,7.625,5.962l0.022,0.071l0.073,0.006
		c0.961,0.034,2.126,0.141,2.905,0.271l0.08,0.013l0.027-0.066c0.292-0.685,0.435-1.413,0.435-2.163c0-2.345-1.325-4.86-2.956-6.448
		l0.089-0.126c4.699,1.784,5.896,5.17,5.896,8.322c0,2.208-0.587,4.309-0.963,5.647l-0.159,0.557l7.388-0.892
		c-0.703,0.892-2.221,2.479-5.25,4.152c0-0.018-3.123-0.399-3.123-0.399l-0.083-0.013l-0.026,0.078
		c-0.21,0.646-2.037,6.421-2.047,10.665c0,1.574,0.444,2.795,1.323,3.638c1.565,1.505,4.159,1.588,5.971,1.518
		c7.705-0.281,13.714,0.192,17.886,1.427l0.246,0.067l0.039-0.058c0.258-0.399,0.462-1.138,0.462-2.118
		c0-1.859-0.745-4.631-3.248-7.766l0.06-0.064c0.413,0.23,7.173,4.069,8.074,9.861c-0.158,0.061-3.237,1.317-3.237,1.317l0.1,0.102
		c2.854,2.989,3.842,6.602,4.632,9.494c0.629,2.291,1.379,3.756,2.373,4.614c1.155,0.995,5.526,3.082,6.841,3.697
		c1.092,1.55,2.967,4.455,4.327,6.705v-0.005c2.956-8.768,4.465-17.904,4.465-27.234c0-10.546-1.924-20.843-5.684-30.636
		c-11.644-5.257-24.679-8.051-37.771-8.051c-13.092,0-26.113,2.794-37.759,8.051c-3.767,9.793-5.688,20.089-5.688,30.636
		c0,10.52,1.92,20.791,5.666,30.582c11.648,5.266,24.685,8.048,37.782,8.048c13.105,0,26.141-2.782,37.789-8.048L187.798,180.594
		L187.798,180.594z"/>
</g>
<g id="Jumpman">
</g>
<g id="Chase">
</g>
<g id="Girl_Scouts">
</g>
<g id="Mazda">
</g>
<g id="McDonalds">
</g>
<g id="Mercedes">
</g>
<g id="Motorola">
</g>
<g id="MTV">
</g>
<g id="NBC">
</g>
<g id="Nike">
</g>
<g id="PBS">
</g>
<g id="Pepsi">
</g>
<g id="Shell">
</g>
<g id="Starbucks">
</g>
<g id="Taco_Bell">
</g>
<g id="Target">
</g>
<g id="Toyota">
</g>
<g id="Twitter">
</g>
<g id="Univision">
</g>
<g id="UPS">
</g>
<g id="Quicksilver">
</g>
<g id="Volkswagen">
</g>
<g id="KFC">
</g>
<g id="Mitsubishi">
</g>
<g id="Rolex">
</g>
<g id="Puma">
</g>
</svg>
