<svg xmlns="http://www.w3.org/2000/svg" width="300" height="300" viewBox="0 0 300 300"><g><path d="M149.994 104.632h.002-.002zm43.102 9.826c-13.865-6.707-28.617-9.826-43.102-9.826-14.469 0-29.227 3.119-43.094 9.826-4.896 11.724-7.127 23.792-7.127 35.57 0 11.745 2.201 23.679 7.098 35.51 13.934 6.74 28.633 9.83 43.125 9.83 14.502 0 29.209-3.09 43.127-9.83 4.896-11.832 7.104-23.766 7.104-35.51-.002-11.778-2.239-23.846-7.131-35.57zm-3.01 68.257c-12.045 5.653-25.771 8.821-40.092 8.821-14.314 0-28.043-3.168-40.088-8.821-4.047-10.146-6.266-21.171-6.266-32.687 0-11.542 2.221-22.581 6.287-32.751 12.049-5.645 25.762-8.811 40.064-8.811 14.309 0 28.031 3.166 40.07 8.811 4.062 10.168 6.285 21.209 6.285 32.751.004 11.513-2.207 22.541-6.26 32.687z"/><path d="M187.798 180.594c-2.532-4.167-5.934-7.534-5.971-7.564l-.708-.228c-7.217-2.219-11.948-3.887-14.039-4.972-2.879-1.494-5.902-5.123-6.234-5.529-3.374-.255-6.166-.2-8.851.125l-1.713.222c-3.26.421-6.628.867-9.929.337-2.196-.359-4.329-1.059-6.593-1.795-3.483-1.142-7.055-2.312-11.132-2.306h-.162l.07.143c.927 1.802 4.587 7.272 9.171 8.775 1.013.241 1.743.51 2.061.76 0 .012 1.754 3.58 2.233 4.545-2.854-1.294-11.675-5.78-18.791-14.44v-.014c0-.115-.186-1.8-.223-2.167 4.237-1.582 13.782-2.498 14.857-2.601l.077-.007.034-.087c.57-5.021 1.759-9.038 3.987-13.437.063-.133.103-.254.103-.359l-.055-.218c-.125-.238-.431-.285-.443-.285l-6.494-1.133-.7-2.146c4.682-1.74 10.453-3.37 13.757-4.088.559-.892.715-1.376.715-1.959 0-.494-.24-.915-.715-1.238-2.344-1.588-9.716-.633-17.178 2.229l-.04-.068c1.55-1.159 4.318-2.881 6.372-3.835l.08-.045-.025-.076c-.558-1.89-4.201-3.332-4.611-3.48l.021-.156c3.705-.252 6.163 1.48 6.913 2.716l.04.061.072-.024c.476-.153 2.149-.685 3.961-.898l.106-.005-.028-.11c-.596-3.174-3.624-5.293-4.656-5.932l.067-.107c3.576.277 6.882 3.358 7.625 5.962l.022.071.073.006c.961.034 2.126.141 2.905.271l.08.013.027-.066c.292-.685.435-1.413.435-2.163 0-2.345-1.325-4.86-2.956-6.448l.089-.126c4.699 1.784 5.896 5.17 5.896 8.322 0 2.208-.587 4.309-.963 5.647l-.159.557 7.388-.892c-.703.892-2.221 2.479-5.25 4.152 0-.018-3.123-.399-3.123-.399l-.083-.013-.026.078c-.21.646-2.037 6.421-2.047 10.665 0 1.574.444 2.795 1.323 3.638 1.565 1.505 4.159 1.588 5.971 1.518 7.705-.281 13.714.192 17.886 1.427l.246.067.039-.058c.258-.399.462-1.138.462-2.118 0-1.859-.745-4.631-3.248-7.766l.06-.064c.413.23 7.173 4.069 8.074 9.861-.158.061-3.237 1.317-3.237 1.317l.1.102c2.854 2.989 3.842 6.602 4.632 9.494.629 2.291 1.379 3.756 2.373 4.614 1.155.995 5.526 3.082 6.841 3.697 1.092 1.55 2.967 4.455 4.327 6.705v-.005c2.956-8.768 4.465-17.904 4.465-27.234 0-10.546-1.924-20.843-5.684-30.636-11.644-5.257-24.679-8.051-37.771-8.051-13.092 0-26.113 2.794-37.759 8.051-3.767 9.793-5.688 20.089-5.688 30.636 0 10.52 1.92 20.791 5.666 30.582 11.648 5.266 24.685 8.048 37.782 8.048 13.105 0 26.141-2.782 37.789-8.048l.012-.018z" fill="#020202"/></g></svg>