<svg xmlns="http://www.w3.org/2000/svg" width="300" height="300" viewBox="0 0 300 300"><path d="M154.629 106.866c-.041-.218-.068-.443-.084-.671-.221-3.16 2.158-5.9 5.318-6.123 3.162-.22 5.902 2.162 6.123 5.321.221 3.161-2.16 5.9-5.319 6.123-.198.015-.397.019-.591.011-.129.032-.205.048-.315.146-.324.507.827.412.044 2.627 0 0-.006.243-.092.487-.062.85-.389 3.369-.436 4.712.166.194.213.288.195.761-.075.638-.222 2.2-.456 3.201-.2.857-.55 1.021-.833 1.23-.397 1.778-.502 3.251-1.52 5.409-.093 1.636-.208 2.082-.551 2.882-.039 2.409.127 2.768-1.498 6.584-.42 1.783-.021 3.018.422 4.872.453 1.906 1.711 2.702 1.897 4.653.44 4.596.33 7.726-.655 11.328l.859 2.038c1.068.49 3.719 1.829 2.25 3.949 2.068 1.088 5.196 2.242 7.774 4.448 1.036.863 2.133 1.806 3.116 2.911 1.872.292 1.672.44 3.06 1.293 4.08 2.502 10.622 7.464 14.415 10.978.653.382.919.656 1.447.934.081.157.105.194.086.237-.181.459-.174.472-.338.837.205.226.586.438.814.636.213.066.213-.036.579-.126.476.445 1.066.806 1.277.784.646-.164.535-.03 1.08-.641.197-.202.526.002.526.002.205-.239.644-.719 1.231-1.065.468-.275 1.362-.307 1.362-.307.3.003.243.311.218.41-.338.174-1.055.366-1.457.662-.877.906-1.562 2.13-1.562 2.13 1.764-.241 2.847.196 4.316.027.802-.046 1.394.005 2.235-.604 0 0 .81-.576 1.535-.882.704-.307 1.372-.143 1.991.308.438.494.701.497.036 1.194-.241.271-.589.572-1.032 1.01-.778.77-1.826 1.796-2.912 2.644-1.098.858-2.345 1.628-3.124 1.982-1.964 1.41-1.5 1.042-3.044 2.439-.195.175-.712.487-.963.653-.609.4-.799.066-1.196-.666 0 0-.182-.273-.481-.857-.327-.637-.572-1.366-.474-1.354-.366-.047-2.014-1.977-2.017-2.392-.35-.08-1.835-1.519-1.888-1.793l-1.316-1.055c-1.506.312-1.852-.623-5.828-3.444-.454-.008-1.154-.253-2.159-.999-1.795-1.437-6.1-4.688-6.83-5.06-.783-.399-1.72-.776-2.295-1.25-.86-.158-1.331-.248-1.762-.369-.439-.12-.84-.275-1.953-.425-1.813-.226-3.692-.976-5.482-1.871-.849-.402-1.586-.606-2.315-.92-1.637-.691-3.04-1.314-4.127-1.565-.415-.041-2.387-.632-3.422-1.235-.357-.186-.565-.361-.802-.416-.542-.125-.891.09-1.135.173-1.326.69-2.569 1.287-3.717 1.904-1.067.571-2.052 1.165-3.094 1.765-.939.543-2.025 1.055-3.142 1.588 0 0-3.184 1.596-4.922 2.216-1.508 1.23-4.592 3.362-6.474 4.417-.933.443-2.743 1.59-3.577 1.846-.478.384-2.174 1.596-3.503 2.595-1.028.769-1.804 1.416-1.804 1.416-.597.535-.556.788-1.689.307-.315.258-.559.42-.762.568-.818.595-.888.451-1.187.435-.572.495-.644.239-1.143.809-.328.507.008.386-.685.632-.146.057-.215.232-.327.33-.557.459-.558 1.752-1.89 1.845-.771.55-.574 1.213-1.163 1.186.037.57-1.043 1.402-1.237 1.4-1.697.585-1.815-.662-3.853.269-.266.121-.651.454-1.161.551-.896.169-1.979-.008-2.64-.521-1.041-.801-1.998-2.348-1.998-2.348-.33-.781-.139-1.275.894-2.014.43-.273.51-.479 1.233-.527.357-.135.26.072.9-.158.371-.134.371-.039 1.119-.102.171-.116.412-.157.734-.263.592-.194 1.168-.412 1.168-.412s.151-.15.72-.097c.481-.197.977-.489 1.23-.58-.065-.762.017-.726.37-1.033.44-.38.52-.318.848-.082.139-.08.205-.107.189-.223-.055-.397-.395-.585-.291-1.46-.152-.351-.375-.783-.326-1.045.072-.282.142-.418.312-.507.182-.097.241.033.338.143.175.202.315.802.315.802.062.677.271 1.552.939 1.059.395-.399.472-1.465 1.275-1.237l.573.499c.486-.458.51-.458.802-.643 0 0-.455-.46-.057-.819.274-.243.605-.418 1.19-1.068 1.611-1.778 2.438-2.565 4.181-4 3.475-2.857 7.429-4.863 9.941-5.859.818-1.039 1.615-1.73 3.434-1.905 2.161-3.648 6.299-6.908 7.249-7.429.773-1.4 1.108-1.252 2.121-1.533.8-.643.982-.643 1.342-1.313.348-1.385-.805-5.086 2.138-5.272.624-.884.468-.671 1.165-1.506-.471-1.162-.665-2.136-.794-2.973-.022-.098-1.167-.904-.844-1.957-.485-.579-1.394-1.93-1.679-2.562-.131.003-.238-.046-.382-.067l-.539-.032c-.459 1.183-.959 1.27-1.773 1.53-1.454 3.101-1.967 4.412-6.081 6.975-1.634 1.829-2.156 3.867-2.149 3.837-.28.604-.181 1.45-.032 1.903-.216.67-.159.737-.159.737.089.253.323.589.609.66.495.131.989.109.96.66-.067.688-.97.577-1.398.5-1.646-.262-1.126-1.335-2.179-.977-.807.527-1.109 2.085-2.426 1.882-.174-.114-.12-.455-.003-.701.185-.384.512-.701.318-.846-.855.27-2.571.838-2.571.838-.807.221-1.69-.182-.896-.712.368-.144.896-.323 1.547-.739 0 0 .334-.457-.309-.229-.701.251-1.736.407-2.479.325 0 0-1.539-.202-1.736-.323-.199-.121-.381-.596.1-.594.61.006 2.136-.175 3.318-.488.572-.224 1.658-.865 2.267-1.169 0 0 .661-.963 1.025-1.151.606-.699 1.118-1.112 1.656-1.826.524-1.084 1.067-2.8 2.807-5.455.804-1.224 1.803-2.649 3.061-3.925 0 0 .324-2.04 1.961-3.493.362-.851.909-1.851 1.449-2.777l.61-1.004c.507-.797 1.039-2.279 3.017-2.513 0 0 .846-.625 1.17-1.067.507-.434.392-1.106.804-1.581-.63-.614-2.24-1.77-2.397-3.375-.166-1.703.44-3.104 1.471-4.141 1.142-1.143 2.346-1.713 3.807-1.626 1.827.271 2.173.876 2.753 1.475.559.568.766.203 1.001.868 1.532.407 1.448.229 1.435 1.355.235.316.63.611.625 1.271.515-1.068.617-1.266 1.992-2.44.325-.956.547-1.896.832-2.851.268-.884.601-1.793.859-2.477-.273-1.931.289-2.251 1.039-3.943-.132-.233-.104-.3-.048-.682.292-1.118.748-2.599 1.019-3.564 0 0 .09-.384.487-.412.343-1.222.858-3.495.944-3.96.354-1.276.125-1.687-.146-2.406-.087-.235-.046-.571-.197-.833-.427-.745-.889-1.713-1.2-2.405-.203-.439-.522-2.1-.522-2.1-.262-.849-.024-.002-.024-.002"/></svg>