<?xml version="1.0" encoding="utf-8"?>
<!-- Generator: Adobe Illustrator 16.0.0, SVG Export Plug-In . SVG Version: 6.00 Build 0)  -->
<!DOCTYPE svg PUBLIC "-//W3C//DTD SVG 1.1//EN" "http://www.w3.org/Graphics/SVG/1.1/DTD/svg11.dtd">
<svg version="1.1" xmlns="http://www.w3.org/2000/svg" xmlns:xlink="http://www.w3.org/1999/xlink" x="0px" y="0px" width="300px"
	 height="300px" viewBox="0 0 300 300" style="enable-background:new 0 0 300 300;" xml:space="preserve">
<g id="Guides">
</g>
<g id="ABC">
</g>
<g id="Apple">
</g>
<g id="CBS">
</g>
<g id="CNN">
</g>
<g id="Coke">
</g>
<g id="Dropbox">
</g>
<g id="ESPN">
</g>
<g id="GE">
</g>
<g id="LG">
</g>
<g id="Honda">
</g>
<g id="Hyundai">
</g>
<g id="IBM">
</g>
<g id="Intel">
</g>
<g id="John_Deere">
</g>
<g id="Jumpman">
	<path d="M154.629,106.866c-0.041-0.218-0.068-0.443-0.084-0.671c-0.221-3.16,2.158-5.9,5.318-6.123
		c3.162-0.22,5.902,2.162,6.123,5.321c0.221,3.161-2.16,5.9-5.319,6.123c-0.198,0.015-0.397,0.019-0.591,0.011
		c-0.129,0.032-0.205,0.048-0.315,0.146c-0.324,0.507,0.827,0.412,0.044,2.627c0,0-0.006,0.243-0.092,0.487
		c-0.062,0.85-0.389,3.369-0.436,4.712c0.166,0.194,0.213,0.288,0.195,0.761c-0.075,0.638-0.222,2.2-0.456,3.201
		c-0.2,0.857-0.55,1.021-0.833,1.23c-0.397,1.778-0.502,3.251-1.52,5.409c-0.093,1.636-0.208,2.082-0.551,2.882
		c-0.039,2.409,0.127,2.768-1.498,6.584c-0.42,1.783-0.021,3.018,0.422,4.872c0.453,1.906,1.711,2.702,1.897,4.653
		c0.44,4.596,0.33,7.726-0.655,11.328l0.859,2.038c1.068,0.49,3.719,1.829,2.25,3.949c2.068,1.088,5.196,2.242,7.774,4.448
		c1.036,0.863,2.133,1.806,3.116,2.911c1.872,0.292,1.672,0.44,3.06,1.293c4.08,2.502,10.622,7.464,14.415,10.978
		c0.653,0.382,0.919,0.656,1.447,0.934c0.081,0.157,0.105,0.194,0.086,0.237c-0.181,0.459-0.174,0.472-0.338,0.837
		c0.205,0.226,0.586,0.438,0.814,0.636c0.213,0.066,0.213-0.036,0.579-0.126c0.476,0.445,1.066,0.806,1.277,0.784
		c0.646-0.164,0.535-0.03,1.08-0.641c0.197-0.202,0.526,0.002,0.526,0.002c0.205-0.239,0.644-0.719,1.231-1.065
		c0.468-0.275,1.362-0.307,1.362-0.307c0.3,0.003,0.243,0.311,0.218,0.41c-0.338,0.174-1.055,0.366-1.457,0.662
		c-0.877,0.906-1.562,2.13-1.562,2.13c1.764-0.241,2.847,0.196,4.316,0.027c0.802-0.046,1.394,0.005,2.235-0.604
		c0,0,0.81-0.576,1.535-0.882c0.704-0.307,1.372-0.143,1.991,0.308c0.438,0.494,0.701,0.497,0.036,1.194
		c-0.241,0.271-0.589,0.572-1.032,1.01c-0.778,0.77-1.826,1.796-2.912,2.644c-1.098,0.858-2.345,1.628-3.124,1.982
		c-1.964,1.41-1.5,1.042-3.044,2.439c-0.195,0.175-0.712,0.487-0.963,0.653c-0.609,0.4-0.799,0.066-1.196-0.666
		c0,0-0.182-0.273-0.481-0.857c-0.327-0.637-0.572-1.366-0.474-1.354c-0.366-0.047-2.014-1.977-2.017-2.392
		c-0.35-0.08-1.835-1.519-1.888-1.793l-1.316-1.055c-1.506,0.312-1.852-0.623-5.828-3.444c-0.454-0.008-1.154-0.253-2.159-0.999
		c-1.795-1.437-6.1-4.688-6.83-5.06c-0.783-0.399-1.72-0.776-2.295-1.25c-0.86-0.158-1.331-0.248-1.762-0.369
		c-0.439-0.12-0.84-0.275-1.953-0.425c-1.813-0.226-3.692-0.976-5.482-1.871c-0.849-0.402-1.586-0.606-2.315-0.92
		c-1.637-0.691-3.04-1.314-4.127-1.565c-0.415-0.041-2.387-0.632-3.422-1.235c-0.357-0.186-0.565-0.361-0.802-0.416
		c-0.542-0.125-0.891,0.09-1.135,0.173c-1.326,0.69-2.569,1.287-3.717,1.904c-1.067,0.571-2.052,1.165-3.094,1.765
		c-0.939,0.543-2.025,1.055-3.142,1.588c0,0-3.184,1.596-4.922,2.216c-1.508,1.23-4.592,3.362-6.474,4.417
		c-0.933,0.443-2.743,1.59-3.577,1.846c-0.478,0.384-2.174,1.596-3.503,2.595c-1.028,0.769-1.804,1.416-1.804,1.416
		c-0.597,0.535-0.556,0.788-1.689,0.307c-0.315,0.258-0.559,0.42-0.762,0.568c-0.818,0.595-0.888,0.451-1.187,0.435
		c-0.572,0.495-0.644,0.239-1.143,0.809c-0.328,0.507,0.008,0.386-0.685,0.632c-0.146,0.057-0.215,0.232-0.327,0.33
		c-0.557,0.459-0.558,1.752-1.89,1.845c-0.771,0.55-0.574,1.213-1.163,1.186c0.037,0.57-1.043,1.402-1.237,1.4
		c-1.697,0.585-1.815-0.662-3.853,0.269c-0.266,0.121-0.651,0.454-1.161,0.551c-0.896,0.169-1.979-0.008-2.64-0.521
		c-1.041-0.801-1.998-2.348-1.998-2.348c-0.33-0.781-0.139-1.275,0.894-2.014c0.43-0.273,0.51-0.479,1.233-0.527
		c0.357-0.135,0.26,0.072,0.9-0.158c0.371-0.134,0.371-0.039,1.119-0.102c0.171-0.116,0.412-0.157,0.734-0.263
		c0.592-0.194,1.168-0.412,1.168-0.412s0.151-0.15,0.72-0.097c0.481-0.197,0.977-0.489,1.23-0.58
		c-0.065-0.762,0.017-0.726,0.37-1.033c0.44-0.38,0.52-0.318,0.848-0.082c0.139-0.08,0.205-0.107,0.189-0.223
		c-0.055-0.397-0.395-0.585-0.291-1.46c-0.152-0.351-0.375-0.783-0.326-1.045c0.072-0.282,0.142-0.418,0.312-0.507
		c0.182-0.097,0.241,0.033,0.338,0.143c0.175,0.202,0.315,0.802,0.315,0.802c0.062,0.677,0.271,1.552,0.939,1.059
		c0.395-0.399,0.472-1.465,1.275-1.237l0.573,0.499c0.486-0.458,0.51-0.458,0.802-0.643c0,0-0.455-0.46-0.057-0.819
		c0.274-0.243,0.605-0.418,1.19-1.068c1.611-1.778,2.438-2.565,4.181-4c3.475-2.857,7.429-4.863,9.941-5.859
		c0.818-1.039,1.615-1.73,3.434-1.905c2.161-3.648,6.299-6.908,7.249-7.429c0.773-1.4,1.108-1.252,2.121-1.533
		c0.8-0.643,0.982-0.643,1.342-1.313c0.348-1.385-0.805-5.086,2.138-5.272c0.624-0.884,0.468-0.671,1.165-1.506
		c-0.471-1.162-0.665-2.136-0.794-2.973c-0.022-0.098-1.167-0.904-0.844-1.957c-0.485-0.579-1.394-1.93-1.679-2.562
		c-0.131,0.003-0.238-0.046-0.382-0.067c-0.147-0.022-0.332-0.014-0.539-0.032c-0.459,1.183-0.959,1.27-1.773,1.53
		c-1.454,3.101-1.967,4.412-6.081,6.975c-1.634,1.829-2.156,3.867-2.149,3.837c-0.28,0.604-0.181,1.45-0.032,1.903
		c-0.216,0.67-0.159,0.737-0.159,0.737c0.089,0.253,0.323,0.589,0.609,0.66c0.495,0.131,0.989,0.109,0.96,0.66
		c-0.067,0.688-0.97,0.577-1.398,0.5c-1.646-0.262-1.126-1.335-2.179-0.977c-0.807,0.527-1.109,2.085-2.426,1.882
		c-0.174-0.114-0.12-0.455-0.003-0.701c0.185-0.384,0.512-0.701,0.318-0.846c-0.855,0.27-2.571,0.838-2.571,0.838
		c-0.807,0.221-1.69-0.182-0.896-0.712c0.368-0.144,0.896-0.323,1.547-0.739c0,0,0.334-0.457-0.309-0.229
		c-0.701,0.251-1.736,0.407-2.479,0.325c0,0-1.539-0.202-1.736-0.323c-0.199-0.121-0.381-0.596,0.1-0.594
		c0.61,0.006,2.136-0.175,3.318-0.488c0.572-0.224,1.658-0.865,2.267-1.169c0,0,0.661-0.963,1.025-1.151
		c0.606-0.699,1.118-1.112,1.656-1.826c0.524-1.084,1.067-2.8,2.807-5.455c0.804-1.224,1.803-2.649,3.061-3.925
		c0,0,0.324-2.04,1.961-3.493c0.362-0.851,0.909-1.851,1.449-2.777l0.61-1.004c0.507-0.797,1.039-2.279,3.017-2.513
		c0,0,0.846-0.625,1.17-1.067c0.507-0.434,0.392-1.106,0.804-1.581c-0.63-0.614-2.24-1.77-2.397-3.375
		c-0.166-1.703,0.44-3.104,1.471-4.141c1.142-1.143,2.346-1.713,3.807-1.626c1.827,0.271,2.173,0.876,2.753,1.475
		c0.559,0.568,0.766,0.203,1.001,0.868c1.532,0.407,1.448,0.229,1.435,1.355c0.235,0.316,0.63,0.611,0.625,1.271
		c0.515-1.068,0.617-1.266,1.992-2.44c0.325-0.956,0.547-1.896,0.832-2.851c0.268-0.884,0.601-1.793,0.859-2.477
		c-0.273-1.931,0.289-2.251,1.039-3.943c-0.132-0.233-0.104-0.3-0.048-0.682c0.292-1.118,0.748-2.599,1.019-3.564
		c0,0,0.09-0.384,0.487-0.412c0.343-1.222,0.858-3.495,0.944-3.96c0.354-1.276,0.125-1.687-0.146-2.406
		c-0.087-0.235-0.046-0.571-0.197-0.833c-0.427-0.745-0.889-1.713-1.2-2.405c-0.203-0.439-0.522-2.1-0.522-2.1
		C154.391,106.019,154.629,106.866,154.629,106.866"/>
</g>
<g id="Chase">
</g>
<g id="Girl_Scouts">
</g>
<g id="Mazda">
</g>
<g id="McDonalds">
</g>
<g id="Mercedes">
</g>
<g id="Motorola">
</g>
<g id="MTV">
</g>
<g id="NBC">
</g>
<g id="Nike">
</g>
<g id="PBS">
</g>
<g id="Pepsi">
</g>
<g id="Shell">
</g>
<g id="Starbucks">
</g>
<g id="Taco_Bell">
</g>
<g id="Target">
</g>
<g id="Toyota">
</g>
<g id="Twitter">
</g>
<g id="Univision">
</g>
<g id="UPS">
</g>
<g id="Quicksilver">
</g>
<g id="Volkswagen">
</g>
<g id="KFC">
</g>
<g id="Mitsubishi">
</g>
<g id="Rolex">
</g>
<g id="Puma">
</g>
</svg>
