<svg xmlns="http://www.w3.org/2000/svg" width="300" height="300" viewBox="0 0 300 300"><g><path d="M205.238 149.351l.002.011.002.008-.002-.008-.002-.011" fill="#A3080C"/><path d="M197.634 170.963c-1.866-.412-6.283-1.299-12.24-1.846-5.953-.542-10.827-1.006-11.497-1.08-.611-.061-.834-.622-1.391-.902-2.018-1.012-5.832-1.949-8.222-2.792-.592-.205-.98-.729-1.796-1.725-.497-.606-.832-.879-1.257-1.264-.255-.233-.808-.701-.957-.813-.144-.117-.245-.453-.12-1.105.126-.654.517-3.207.484-6.178-.01-.797.343-1.309.715-1.495.202-.103 1.51-.684 1.422-1.968-.093-1.303-.495-3.116.553-5.67 1.012-2.475 2.277-6.893 2.43-9.807.162-3.096-.615-5.091-1.838-6.173-.475-.417-1.037-1.05-.578-2.397.49-1.449 1.38-5.408.506-8.028-.196-.581-.418-.586-.552-.657-.134-.066-.768-.553-1.007-1.622-.321-1.409-1.351-6.417-5.234-11.509-2.06-2.701-4.256-4.309-5.133-4.959-.602-.39-1.657-1.126-2.921-1.797-1.808-.957-3.241-1.686-6.126-2.618-.273-.086-.891-.276-1.707-.493h-.01s-2.459-.657-5.116-.968c-.454-.043-1.075-.1-1.781-.147-2.736-.16-3.734.008-5.157.149l-.461.06-.884.131c-4.229.723-8.529 2.705-10.623 3.704-1.181.561-2.225 1.146-3.187 1.691l-.077.048c-.249.151-.637.366-1.015.574-.592.333-1.156.646-1.705.915-1.692.822-3.182 1.244-4.271 1.621l-.492.182c-.785.305-1.286.621-1.377 1.142-.168.936.933 1.804.54 3.294-.968 3.667-5.106 7.188-5.771 7.594-1.923 1.174-1.802 1.991-1.876 2.407 0 .389.08.82.301 1.285.641 1.356 1.825 2.521 2.404 3.748.582 1.227.914 3.379.479 5.895-.415 2.431-.545 2.972-.761 3.417-.215.448-.648 1.317-.05 2.352.6 1.037 1.864 2.096 2.658 2.703.421.327.641.622.326 1.211-.515.961-.384 3.227.104 4.495.737 1.936 1.604 3.781 2.406 4.965.804 1.186 2.237 3.201 3.082 3.932.841.734.955 2.008.938 2.796-.018.785-.128 3.013 2.161 4.406 1.128.693 1.229.52 1.643.86.413.332.607.506.894 1.407.285.898 1.586 4.05 3.378 6.265.523.645.812 1.102.875 1.207.063.105.16.223-.065.754-.227.53-1.13 3.555-1.851 6.678-.132.572-.326 1.327-1.046 1.68-.719.349-2.328 1.236-2.912 1.561-.59.323-.881.5-1.559 1.343-.302.374-.521.594-.711.822-.109.134-.158.217-.731.515-.495.259-7.857 2.849-15.665 7.625l-.554.32c.461.719.93 1.429 1.418 2.124 1.753-.887 5.935-3.006 6.592-3.334.519-.262 1.163-.362 1.687-.376.312-.005.583.021.754.064.351.085.953.218 1.515.346l.156.035.105.026.617.154.026.007.22.063c.497.162.762 1.097.492 1.944l-.431 1.497-.383 1.37-.462 1.672c-.575 2.093-1.251 4.603-1.833 6.869 1.559 1.42 3.193 2.758 4.893 4.014.19-1.471.391-3.004.546-4.117.406-2.907 2.729-13.679 3.385-16.127.477-1.783.724-2.595 1.352-2.875.188-.082.402-.207.525-.268.125-.057.396-.123.312.349-.097.562-.58 2.845-1.291 10.262-.494 5.146-.505 9.702-.327 12.444.076 1.165.096 2.815 1.882 2.101 2.086-.833 9.199-3.384 12.997-4.554 6.118-1.889 17.586-4.408 28.637-6.04l3.091-.438 11.233-1.441 3.304-.427c.979-.124 2.224-.28 2.595-.298.775-.032 1.116-.472.523-.65-.429-.124-1.417-.224-1.917-.235l-.747-.012c-.766-.012-.982-.163-1.15-1.291-.478-3.307-2.318-11.501-3.642-15.823-1.28-4.168-1.597-5.369-1.905-6.287-.27-.792.254-.839.503-.827.934.044 2.226.528 2.597 1.326.82 1.778 6.43 16.47 8.681 21.946 1.42 3.451 3.076 7.605 4.639 11.305 1.002-.822 1.968-1.69 2.915-2.575-2.909-6.397-9.388-20.891-12.804-28.225-.122-.265-.289-.692-.371-.942l-.043-.226c.005-.468.624-.533.93-.503 1.205.12 12.159.843 15.149 1.127 1.974.188 3.942.489 5.258.723l.801.152c.28.056.49.102.628.139.976.254 2.697.935 4.29 1.789.658.352 1.408.864 2.212 1.48.244-.688.483-1.377.704-2.073-.573-.397-1.218-.804-1.85-1.144-1.822-.973-3.358-1.589-5.023-1.961m-37.508 24.951-51.681-61.273c-.299.128-.568.163-.774-.243-.499-.987-.878-2.747-1.023-3.89-.148-1.141-.377-4.549-.304-6.411.079-1.863-.286-2.905-.95-3.795-.668-.891-1.098-1.509-1.262-1.808-.206-.374-.067-.63.325-.916.192-.134.582-.054.885-.115.597-.122 2.591-.843 4.076-2.008 1.483-1.167 3.845-3.421 5.448-4.289 1.599-.867 2.308-1.262 4.18-1.486.332-.039.828.138.267.566-.561.428-2.361 1.064-4.461 4.232-1.288 1.938-1.498 3.058-1.907 3.928-.41.869-.801 1.115-1.451 1.819-.314.334-.959 1.04-1.19 2.063-.227 1.024-1.159 4.63-.61 10.086.063.635.325 1.48-.271 1.786-.368.193-.683.354-.978.481m2.57 7.35c-.316-.226-1.612-1.98-2.245-3.932-.067-.204-.144-.729.197-.879.28-.119.652-.336.845-.428.197-.099.685-.227.752.478.067.705.13 1.537.934 3.618.146.372.176.487.213.637.103.433-.401.714-.696.506m2.641-6.627c-.087.014-.976.121-1.455.21-.297.057-.605.166-.639-.121-.04-.324-.136-.754-.164-.87-.026-.121.032-.237.176-.271.354-.081 1.72-.311 1.853-.318.131-.001.264.043.321.316l.134.686c.015.121.05.326-.226.368m.485-4.456c-.081-.414-.196-1.127-.159-1.569.012-.177.066-.619.276-.856.301-.34.699-.647.957-.857.469-.385.372-1.379.405-1.949.104-1.659-.043-6.898 3.355-11.91.132-.191.265-.367.397-.531l.119-.145.296-.328.128-.132.363-.334.05-.044.413-.308.148-.094.288-.173.162-.088.319-.15.119-.055.421-.158.177-.056.281-.083.094-.028v.003c.693-.184 1.402-.287 2.118-.409 2.024-.344 4.383-.021 5.596.364.965.306 1.453.539 1.776.234l1.527-1.601.114-.151.024-.055.03-.105.007-.061-.011-.106-.012-.055-.064-.145c-.08-.129-.204-.247-.359-.339-.394-.23-4.343-3.13-9.667-3.259-5.202-.131-9.425 1.709-10.545 2.096-.227.075-.343.115-.475.118-.133.003-.587-.152-.419-.48.185-.351.646-.891 1.126-1.326.504-.454 2.964-2.771 5.396-3.845l.848-.392c.367-.139.585-.968-.229-.971-.833-.005-1.165.088-1.605.156-.441.073-.683-.123-.404-.502.275-.376.818-.795 1.8-1.326 2.131-1.161 6.027-2.385 7.87-2.789 2.403-.525 2.696-.56 4.291-.657 1.49-.086 2.684.021 3.249.042 4.776.183 10.278 1.764 14.537 4.566 4.048 2.979 9.878 7.943 11.032 20.199.139 1.471.041 2.305-.016 2.67-.051.37-.468 1.048-.835.277-1.209-2.531-3.076-5.846-5.185-8.987-.124-.187-.251-.275-.354-.29l-.117.015-.024.022-.058.061-.024.059-.02.085-.009.079.022.205c.054.223.725 3.546.749 4.009.029.461-.196 1.595 1.523 3.685.703.858 1.328 1.591 1.648 2.856.316 1.262.424 1.801.425 1.935.005.132.156.507-.452.51-.605.003-2.915-.164-3.906-.142-.989.022-7.819.693-10.36 1.233-2.542.54-3.908 1.18-5.214 2.551-.313.33-.754.639-.853.666-.095.025-.427.02-1.074-.024-.646-.043-1.765.116-2.352.381-.591.266-1.013.512-1.725.22-1.019-.41-2.765-2.291-7.299-2.069-2.729.134-4.126.208-6.021.488l-.337.052-.221.036-.124.019c-.771.125-1.642.287-2.716.497l-.451.088c-.413.084-.703-.104-.78-.543m41.745-1.169c0 .145-.175.294-.354.325-.178.026-1.397.139-1.592.153-.192.015-.38-.091-.396-.271l-.065-.71c-.02-.104-.024-.248.225-.28.144-.019 1.416-.132 1.885-.187.176-.021.291.138.295.291l.002.679m-5.704 1.369c-.378-.264-1.04-.684-1.442-.829-.276-.1-.181-.446.214-.502 1.375-.2 2.257-.2 2.94.227.499.31.831.911.678 1.44-.179.608-.416.477-.716.471-.298-.005-1.301-.54-1.674-.807m.795 2.681c-.242.164-1.031.019-1.32-.094-.588-.232-1.007-.391-1.827-.912-.534-.338-1.465-.506-2.279-.26-.535.161-.968.297-1.44.479-.474.18-.569-.251-.446-.436.123-.184.872-1.061 1.865-1.435.208-.079.634-.122.844-.128.641-.019 1.435.294 2.036.734.606.442 1.569 1.162 2.202 1.433.293.13.938.225.365.619m-19.757 21.332c-2.397.84-3.07-.003-3.283-.253s.05-.494.303-.612c.57-.266 1.334-.844 1.719-1.22.388-.375 1.14-1.682 1.684-2.143.258-.22 1.65-.691 2.696-.192 1.245.592 3.186.654 4.376.5 1.189-.161 1.643-1.03 1.901-1.544.257-.519.889-.706 1.221-.844.914-.373 2.122-1.627 2.247-1.754.122-.132.5-.317 1.1.033 1.091.642 1.645 1.49 2.657 2.64 1.014 1.151 2.213 1.331 2.562 1.354.352.022.571.43.587.541.02.113-.274.503-.491.666-.22.164-.342.455-2.28.5-9.732.24-14.113 1.318-16.999 2.328m13.199 1.172c-.579.3-2.296.945-3.15 1.11-.857.165-3.579.717-4.039.755-.572.043-1.374-.129-2.069-.604-.14-.096-.329-.47.177-.545.943-.14 2.464-.847 7.993-1.13l1.017-.044c.14-.003.652.159.071.458m-12.814 12.279c-1.931.317-7.073-1.19-10.416-9.441-.861-2.122.083-4.234.912-4.659.492-.252.759-.352.926-.394.182-.047 1.057-.161 1.156.823.08.796 1.626 7.335 3.703 9.497.514.536.919.503 1.051-.049.114-.509.338-1.177.403-1.431.046-.184.548-.737.831-.031.611 1.501 1.351 3.463 1.834 4.251.476.767.323 1.313-.4 1.434m.381-21.573c.183.253.295.71.28.913-.019.232-.816.656-1.646-.274-.829-.933-.666-2.222-.323-2.77.546-.874 1.622-.438 1.519-.127-.36 1.078-.013 2.004.17 2.258m-6.164-12.08c-.619-.021-1.287-.098-2.42.321-1.267.469-2.082 1.08-2.672 1.443-.606.377-1.248.539-1.462.555-.214.018-.992-.084-.456-.647.142-.153.483-.271 1.002-.647.371-.274.646-.468 1.067-.822.752-.641 2.282-1.566 2.95-1.648.49-.059 1.355.034 1.87.456.538.438.743 1.008.121.989m-10.665 1.099c.064-.406.509-1.477 1.443-1.786.127-.038.592-.191.981-.29.461-.116.955-.218 1.205-.264.677-.117.82.397.395.731-.279.223-.726.513-1.12.833-.599.489-1.174 1.035-1.619 1.405-.542.453-1.42.205-1.285-.629m3.178 11.658l-.004-.004-.01-.015c-.168-.236-.324-.483-.471-.735l-.093-.169c-.146-.269-.283-.543-.391-.831-.21-.557.142-.639.377-.518.232.126.917.524 1.647.678.446.093.712-.121.815-.444l.059-.171.031-.09.019-.059.025-.104.012-.058.017-.111.005-.056-.008-.111-.01-.05-.042-.117-.017-.032-.102-.124-.209-.125c-.638-.255-2.44-.825-3.796-3.345-.196-.356-.011-.659.121-.767.133-.105.604-.404.831-.546.228-.14.535-.123.859.1.309.222.981.712 1.521.664.501-.05.551-.255.64-.385.354-.516 1.312-2.388 3.818-2.419 1.035-.014 2.006.082 2.354.061.343-.021 1.565-.133 2.288-.622.709-.487 1.013-.138.604.396l-.17.222-.053.071-.146.212c-.156.265-.177.494.116.808.457.486.576.574.726.689.064.052.145.083.237.085l.121-.02.057-.013.203-.129c.261-.231.438-.368.666-.664.169-.219.312.002.271.343-.033.266.085 1.968-1.771 4.062-.061.072-.2.188-.376.336l-.128.108-.068.062-.176.16-.145.145-.148.149-.092.105-.188.22-.056.078-.199.282c-.079.126-.152.257-.216.396-.517 1.102-.449 1.465-.505 1.867-.052.397-.361.557-.708.717-.211.096-.765.417-1.383.884l.005-.003c-.185.138-.373.293-.559.451l-.104.096c-.187.164-.371.336-.54.519-.112.118-.229.223-.345.316l-.117.085-.249.163-.134.067-.255.107-.135.047-.064.021-.162.021-.199.028-.227-.005-.195-.014-.231-.059-.197-.053-.22-.104-.205-.104-.02-.009c-.124-.08-.25-.171-.376-.274-.326-.279-.684-.604-1.036-.962l-.026-.026-.029-.033c-.182-.185-.363-.38-.54-.584-.013-.018-.424-.513-.599-.757m22.305 39.13c-.113.592-.598 2.591-2.373 6.703l-.351.802-.082.18-.134.293-.009.023-.197.41-.003.008-.029.051-.07.137-.097.18-.004.01-.023.041-.076.132-.015.023v.005l-.062.098-.017.032-.013.015-.083.133-.017.019-.096.136-.012.011-.085.11-.019.021-.097.113-.012.011-.056.055h-.002l-.032.031-.021.02-.102.084-.011.008-.094.066-.025.016-.016.008-.018.01-.073.043-.008.002-.101.04-.027.013-.114.032c-.369.079-.763.136-.993.176l-.291.05-.312.048v-.002c-2.666.449-9.919 1.698-13.283 2.378-2.231.445-2.012-.679-2.573-2.707-.234-.854-1.063-8.398-.633-13.135.145-1.571.215-2.033.496-2.207s.714-.454.843-.492c.127-.033.512-.134.691.189.176.32 3.432 6.929 5.561 9.322 1.89 2.133 3.217 3.68 4.81 4.719.104.07.196.114.277.142l.027.011.104.021h.09l.023-.004.126-.07.015-.015.062-.135.002-.026c.045-.246-.073-.618-.306-.871-.352-.379-1.807-1.877-3.723-4.603-2.481-3.519-4.159-8.714-4.611-10.376-.296-1.09-.462-2.807-.435-4.178h-.004l.008-.171.006-.13.013-.271.034-.372.021-.145.036-.233.026-.123.076-.287c.386-1.102.709-.984 1.049-.614.343.373 3.419 3.165 8.494 5.44 1.077.48 1.721.703 1.868.862.146.153.377.48-.085.59-.455.105-1.809.154-3.226.714l-.228.098c-.496.223-.729.447-.833.686l-.048.146-.021.106-.005.164.001.109.02.215.046.396c.076.769.208 1.317.307 2.347.096 1.032.036 1.964.539 2.4.502.43 1.186.685 3.016.329 1.734-.338 2.312-.486 2.519-.491.201-.008.688-.088.391.479l-.109.2c-.399.714-1.369 2.317-1.698 3.388-.366 1.178-.44 1.505-.472 1.705-.03.203.11.594.47.157.358-.438 1.07-2.067 2.857-4.143.239-.276.459-.521.665-.745l.009-.008.455-.477.117-.115.343-.331.084-.077c.267-.24.494-.428.694-.573l.058-.036.224-.151.059-.038.198-.113.036-.022.02-.011.193-.098c.502-.25.637.092.486.884m2.958 9.079c-.286.064-1.521.253-1.714.256-.188.006-.348-.171-.268-.306.079-.133.931-1.241 1.398-3.169.079-.314.276-.534.404-.082.098.33.48 1.969.567 2.585.014.108.081.605-.387.716m.518-15.727c-.812.303-1.716-.61-2.446-1.098-1.645-1.123-3.157-2.209-4.399-3.723-1.899-2.322-1.722-3.94-1.171-6.938.384-2.13-.312-4.133-.464-4.415-.149-.282.02-.569.47-.358.449.211.88.866 1.341 1.428.457.563.56.163.598-.218.087-.883-.111-1.59-.222-1.999h-.002l-.016-.065c-.064-.244-.292-.789-.771-.889-.641-.134-1.271-.19-1.612-.438-.159-.114-.341-.348-.161-.521.327-.316.8-.735 1.251-.89.613-.211 1.202-.531 1.979-.526 5.237.033 6.65-1.179 8.653-2.01.392-.166.628-.238.964-.133.337.102 1.253.445 1.484.853.231.408.274 2.109.722 3.338.439 1.232 1.191-.045 1.356-.572.157-.528.22-1.787.229-2.105.008-.319.1-1.662.521-2.113.837-.894 1.035-1.952 1.137-2.365.089-.372.16-1.409-.023-2.883l-.079-.567c-.284-1.776-.642-1.928-1.123-2.249-.483-.323-.989-.184-2.219-1.026-1.102-.757-2.101-2.08-2.935-2.888-.831-.807-2.143-1.616-3.527-1.759l-.234-.011h-.016l-.17.02-.026.008-.118.032-.029.018-.074.047-.027.031-.042.052-.025.045-.018.046-.016.075-.003.028.003.104h-.003c.029.344.276.761.339.934.088.232.31.947-.084 1.362-.396.415-2.711 2.486-4.878 2.436-.979-.022-1.797-.226-2.482-.518l.009.011-.085-.042c-.163-.071-.319-.149-.467-.232l-.078-.041c-.166-.094-.318-.195-.465-.298l-.128-.097-.314-.257-.092-.079-.329-.332-.074-.086-.219-.268-.062-.082-.211-.318-.021-.033-.141-.262-.029-.062-.099-.24c-.316-.951.471-3.199.441-4.81-.009-.706-.154-2.06-.263-2.998-.108-.939.388-2.204.618-2.511.051-.068.129-.133.219-.196l.072-.046.287-.153.05-.023.343-.132v.008c.201-.07.419-.135.658-.189.771-.172 1.674.211 1.905.848.809 2.224 1.702 2.693 2.002 2.838.304.149.781-.291.969-.454.188-.157.642-.753.441-1.014-.312-.397-.482-.642-.571-.89-.152-.42.396-.428.525-.37 1.652.7 2.444.848 4.043.794 1.598-.05 4.08-1.103 4.389-1.107.249-.006.745.147.932.406l.111.166c.159.24.374.559.565.626l.021.007c.237.059.802.016 1.1.029.403.013 1.104-.127 1.084.615-.043 1.979-1.609 3.215-1.75 3.334l-.115.18-.026.053-.016.107.011.098c.038.117.207.544.28.66l.097.121.036.027.097.062.063.019.108.013.075-.013.176-.062c1.326-.794 1.866-1.73 2.443-2.91.575-1.173.879-5.048.911-5.684.032-.641.235-1.033.549-1.29.312-.26 1.862-1.252 2.08-1.302.223-.054.477-.073.728.503.255.582.807 4.155.912 4.703.119.585.423.515.574.403.332-.242.572-.54.867-1.047.305-.507.081-1.207-.215-1.534-.293-.326-.757-.852-.559-1.37.448-1.181 1.393-1.122 1.645-1.08.25.043 1.204.474 1.377 3.046.251 3.812-1.305 7.753-1.675 8.753-.819 2.223-.992 3.735-1.118 4.455-.123.717-.668.587-.799.471-.132-.115-.303-.671-.386-.753-.086-.083-.302-.04-.442.571-.14.61-.607 1.46-.882 1.922-.184.299-.15.729-.104 1.062.081.647.418 3.128.315 5.947-.187 5.016-1.864 8.175-3.115 9.829-2.942 3.892-5.704 5.518-6.033 5.748-.426.299-1.14.252-1.377.173-.243-.068-.455-.319-.908-.643l-.105-.06c-.358-.167-.413.339-.409.472l.345 1.166c.235.953-.294 2.104-.839 3.013-.777 1.286-1.645 2.698-1.464 4.251-.002.133-.002.234-.12.28m24.941 1.481c.444 2.551.942 5.657 1.507 9.467l.065.532.009.06.023.401-.002.031-.003.149-.022.116-.005.044-.081.201-.02.027-.111.114-.042.03-.184.086-.066.02-.179.051-.124.027-.274.054c-.181.037-.443.075-.627.089l-1.086.1c-3.885.354-11.487 1.125-17.575 1.892l-.358.045c-.474.065-.749-.01-.787-.476-.027-.427-.741-4.654-2.893-8.256-.198-.332-.406-.66-.627-.979-.245-.352.119-.621.466-.498.975.343 3.678 1.578 7.53 4.336.984.703 1.24.92 1.459 1.108l.116.07.052.021.094.027.053.009.107.005h.042l.123-.043c.09-.057.131-.166.062-.354-.241-.676-1.528-2.003-4.825-5.061-.471-.437-.479-.619.009-.671.486-.046 1.808.014 2.51-.016.706-.03 2.278-.074 1.97-2.133-.236-1.595-.422-3.243-.45-3.737-.025-.492-.113-1.41-1.265-1.542-1.146-.132-3.062.134-4.782.737-.476.166-.644-.055-.292-.374.35-.318 3.37-2.285 5.945-5.241 2.831-3.254 4.075-5.65 4.781-7.827.129-.388.292-.256.449-.167.155.093 1.219.95 1.595 3.062.369 2.116 1.101 5.052-.188 12.762-.709 4.223-1.575 6.717-1.777 7.312-.202.591.145.923.534.394.911-1.241 2.112-4.684 3.128-8.642 1-3.905 1.362-7.254 1.516-9.399v-.003l.039-.56.006-.072.028-.49.027-.23.018-.052.027-.086.006-.008.063-.093.018-.021.055-.033.04-.021.031-.004.062-.008.025.004h.03l.014.006.206.068c.202.078 1.091.336 1.555 2.472l.062.271.02.098.062.265.005.018c.381 1.678 1.079 4.582 2.101 10.516"/><path d="M152.636 185.278h.432v1.105h.261v-1.105h.433v-.222h-1.126zM154.7 186.004l-.334-.948h-.377v1.327h.241v-1.069l.371 1.069h.213l.362-1.069v1.069h.242v-1.327h-.377z"/></g></svg>