<?xml version="1.0" encoding="utf-8"?>
<!-- Generator: Adobe Illustrator 16.0.0, SVG Export Plug-In . SVG Version: 6.00 Build 0)  -->
<!DOCTYPE svg PUBLIC "-//W3C//DTD SVG 1.1//EN" "http://www.w3.org/Graphics/SVG/1.1/DTD/svg11.dtd">
<svg version="1.1" xmlns="http://www.w3.org/2000/svg" xmlns:xlink="http://www.w3.org/1999/xlink" x="0px" y="0px" width="300px"
	 height="300px" viewBox="0 0 300 300" style="enable-background:new 0 0 300 300;" xml:space="preserve">
<g id="Guides">
</g>
<g id="ABC">
</g>
<g id="Apple">
</g>
<g id="CBS">
</g>
<g id="CNN">
</g>
<g id="Coke">
</g>
<g id="Dropbox">
</g>
<g id="ESPN">
</g>
<g id="GE">
</g>
<g id="LG">
</g>
<g id="Honda">
</g>
<g id="Hyundai">
</g>
<g id="IBM">
</g>
<g id="Intel">
</g>
<g id="John_Deere">
</g>
<g id="Jumpman">
</g>
<g id="Chase">
</g>
<g id="Girl_Scouts">
</g>
<g id="Mazda">
</g>
<g id="McDonalds">
</g>
<g id="Mercedes">
</g>
<g id="Motorola">
</g>
<g id="MTV">
</g>
<g id="NBC">
</g>
<g id="Nike">
</g>
<g id="PBS">
</g>
<g id="Pepsi">
</g>
<g id="Shell">
</g>
<g id="Starbucks">
</g>
<g id="Taco_Bell">
</g>
<g id="Target">
</g>
<g id="Toyota">
</g>
<g id="Twitter">
</g>
<g id="Univision">
</g>
<g id="UPS">
</g>
<g id="Quicksilver">
</g>
<g id="Volkswagen">
</g>
<g id="KFC">
	<g id="Layer_1_1_">
		<g>
			<path style="fill:#A3080C;" d="M205.238,149.351c0,0.004,0.002,0.008,0.002,0.011c0,0,0,0.003,0.002,0.008
				c-0.002-0.005-0.002-0.008-0.002-0.008C205.24,149.358,205.238,149.354,205.238,149.351"/>
			<path d="M197.634,170.963c-1.866-0.412-6.283-1.299-12.24-1.846c-5.953-0.542-10.827-1.006-11.497-1.08
				c-0.611-0.061-0.834-0.622-1.391-0.902c-2.018-1.012-5.832-1.949-8.222-2.792c-0.592-0.205-0.98-0.729-1.796-1.725
				c-0.497-0.606-0.832-0.879-1.257-1.264c-0.255-0.233-0.808-0.701-0.957-0.813c-0.144-0.117-0.245-0.453-0.12-1.105
				c0.126-0.654,0.517-3.207,0.484-6.178c-0.01-0.797,0.343-1.309,0.715-1.495c0.202-0.103,1.51-0.684,1.422-1.968
				c-0.093-1.303-0.495-3.116,0.553-5.67c1.012-2.475,2.277-6.893,2.43-9.807c0.162-3.096-0.615-5.091-1.838-6.173
				c-0.475-0.417-1.037-1.05-0.578-2.397c0.49-1.449,1.38-5.408,0.506-8.028c-0.196-0.581-0.418-0.586-0.552-0.657
				c-0.134-0.066-0.768-0.553-1.007-1.622c-0.321-1.409-1.351-6.417-5.234-11.509c-2.06-2.701-4.256-4.309-5.133-4.959
				c-0.602-0.39-1.657-1.126-2.921-1.797c-1.808-0.957-3.241-1.686-6.126-2.618c-0.273-0.086-0.891-0.276-1.707-0.493
				c-0.002,0-0.01,0-0.01,0s-2.459-0.657-5.116-0.968c-0.454-0.043-1.075-0.1-1.781-0.147c-2.736-0.16-3.734,0.008-5.157,0.149
				c-0.152,0.016-0.309,0.039-0.461,0.06c-0.283,0.038-0.577,0.082-0.884,0.131c-4.229,0.723-8.529,2.705-10.623,3.704
				c-1.181,0.561-2.225,1.146-3.187,1.691c-0.026,0.018-0.06,0.036-0.077,0.048c-0.249,0.151-0.637,0.366-1.015,0.574
				c-0.592,0.333-1.156,0.646-1.705,0.915c-1.692,0.822-3.182,1.244-4.271,1.621c-0.199,0.075-0.363,0.138-0.492,0.182
				c-0.785,0.305-1.286,0.621-1.377,1.142c-0.168,0.936,0.933,1.804,0.54,3.294c-0.968,3.667-5.106,7.188-5.771,7.594
				c-1.923,1.174-1.802,1.991-1.876,2.407c0,0.389,0.08,0.82,0.301,1.285c0.641,1.356,1.825,2.521,2.404,3.748
				c0.582,1.227,0.914,3.379,0.479,5.895c-0.415,2.431-0.545,2.972-0.761,3.417c-0.215,0.448-0.648,1.317-0.05,2.352
				c0.6,1.037,1.864,2.096,2.658,2.703c0.421,0.327,0.641,0.622,0.326,1.211c-0.515,0.961-0.384,3.227,0.104,4.495
				c0.737,1.936,1.604,3.781,2.406,4.965c0.804,1.186,2.237,3.201,3.082,3.932c0.841,0.734,0.955,2.008,0.938,2.796
				c-0.018,0.785-0.128,3.013,2.161,4.406c1.128,0.693,1.229,0.52,1.643,0.86c0.413,0.332,0.607,0.506,0.894,1.407
				c0.285,0.898,1.586,4.05,3.378,6.265c0.523,0.645,0.812,1.102,0.875,1.207c0.063,0.105,0.16,0.223-0.065,0.754
				c-0.227,0.53-1.13,3.555-1.851,6.678c-0.132,0.572-0.326,1.327-1.046,1.68c-0.719,0.349-2.328,1.236-2.912,1.561
				c-0.59,0.323-0.881,0.5-1.559,1.343c-0.302,0.374-0.521,0.594-0.711,0.822c-0.109,0.134-0.158,0.217-0.731,0.515
				c-0.495,0.259-7.857,2.849-15.665,7.625c-0.194,0.116-0.373,0.221-0.554,0.32c0.461,0.719,0.93,1.429,1.418,2.124
				c1.753-0.887,5.935-3.006,6.592-3.334c0.519-0.262,1.163-0.362,1.687-0.376c0.312-0.005,0.583,0.021,0.754,0.064
				c0.351,0.085,0.953,0.218,1.515,0.346c0.051,0.012,0.103,0.023,0.156,0.035c0.036,0.008,0.069,0.016,0.105,0.026
				c0.23,0.058,0.445,0.106,0.617,0.154c0.009,0.003,0.018,0.003,0.026,0.007c0.085,0.025,0.16,0.046,0.22,0.063
				c0.497,0.162,0.762,1.097,0.492,1.944c-0.048,0.161-0.202,0.699-0.431,1.497c-0.112,0.399-0.241,0.858-0.383,1.37
				c-0.143,0.513-0.297,1.074-0.462,1.672c-0.575,2.093-1.251,4.603-1.833,6.869c1.559,1.42,3.193,2.758,4.893,4.014
				c0.19-1.471,0.391-3.004,0.546-4.117c0.406-2.907,2.729-13.679,3.385-16.127c0.477-1.783,0.724-2.595,1.352-2.875
				c0.188-0.082,0.402-0.207,0.525-0.268c0.125-0.057,0.396-0.123,0.312,0.349c-0.097,0.562-0.58,2.845-1.291,10.262
				c-0.494,5.146-0.505,9.702-0.327,12.444c0.076,1.165,0.096,2.815,1.882,2.101c2.086-0.833,9.199-3.384,12.997-4.554
				c6.118-1.889,17.586-4.408,28.637-6.04l3.091-0.438l11.233-1.441l3.304-0.427c0.979-0.124,2.224-0.28,2.595-0.298
				c0.775-0.032,1.116-0.472,0.523-0.65c-0.429-0.124-1.417-0.224-1.917-0.235c-0.192-0.003-0.539-0.007-0.747-0.012
				c-0.766-0.012-0.982-0.163-1.15-1.291c-0.478-3.307-2.318-11.501-3.642-15.823c-1.28-4.168-1.597-5.369-1.905-6.287
				c-0.27-0.792,0.254-0.839,0.503-0.827c0.934,0.044,2.226,0.528,2.597,1.326c0.82,1.778,6.43,16.47,8.681,21.946
				c1.42,3.451,3.076,7.605,4.639,11.305c1.002-0.822,1.968-1.69,2.915-2.575c-2.909-6.397-9.388-20.891-12.804-28.225
				c-0.122-0.265-0.289-0.692-0.371-0.942c-0.03-0.084-0.043-0.16-0.043-0.226c0.005-0.468,0.624-0.533,0.93-0.503
				c1.205,0.12,12.159,0.843,15.149,1.127c1.974,0.188,3.942,0.489,5.258,0.723c0.305,0.057,0.573,0.108,0.801,0.152
				c0.28,0.056,0.49,0.102,0.628,0.139c0.976,0.254,2.697,0.935,4.29,1.789c0.658,0.352,1.408,0.864,2.212,1.48
				c0.244-0.688,0.483-1.377,0.704-2.073c-0.573-0.397-1.218-0.804-1.85-1.144C200.835,171.951,199.299,171.335,197.634,170.963
				 M160.126,195.914 M108.445,134.641c-0.299,0.128-0.568,0.163-0.774-0.243c-0.499-0.987-0.878-2.747-1.023-3.89
				c-0.148-1.141-0.377-4.549-0.304-6.411c0.079-1.863-0.286-2.905-0.95-3.795c-0.668-0.891-1.098-1.509-1.262-1.808
				c-0.206-0.374-0.067-0.63,0.325-0.916c0.192-0.134,0.582-0.054,0.885-0.115c0.597-0.122,2.591-0.843,4.076-2.008
				c1.483-1.167,3.845-3.421,5.448-4.289c1.599-0.867,2.308-1.262,4.18-1.486c0.332-0.039,0.828,0.138,0.267,0.566
				c-0.561,0.428-2.361,1.064-4.461,4.232c-1.288,1.938-1.498,3.058-1.907,3.928c-0.41,0.869-0.801,1.115-1.451,1.819
				c-0.314,0.334-0.959,1.04-1.19,2.063c-0.227,1.024-1.159,4.63-0.61,10.086c0.063,0.635,0.325,1.48-0.271,1.786
				C109.055,134.353,108.74,134.514,108.445,134.641 M111.015,141.991c-0.316-0.226-1.612-1.98-2.245-3.932
				c-0.067-0.204-0.144-0.729,0.197-0.879c0.28-0.119,0.652-0.336,0.845-0.428c0.197-0.099,0.685-0.227,0.752,0.478
				c0.067,0.705,0.13,1.537,0.934,3.618c0.146,0.372,0.176,0.487,0.213,0.637C111.814,141.918,111.31,142.199,111.015,141.991
				 M113.656,135.364c-0.087,0.014-0.976,0.121-1.455,0.21c-0.297,0.057-0.605,0.166-0.639-0.121
				c-0.04-0.324-0.136-0.754-0.164-0.87c-0.026-0.121,0.032-0.237,0.176-0.271c0.354-0.081,1.72-0.311,1.853-0.318
				c0.131-0.001,0.264,0.043,0.321,0.316c0.053,0.274,0.117,0.566,0.134,0.686C113.897,135.117,113.932,135.322,113.656,135.364
				 M114.141,130.908c-0.081-0.414-0.196-1.127-0.159-1.569c0.012-0.177,0.066-0.619,0.276-0.856
				c0.301-0.34,0.699-0.647,0.957-0.857c0.469-0.385,0.372-1.379,0.405-1.949c0.104-1.659-0.043-6.898,3.355-11.91
				c0.132-0.191,0.265-0.367,0.397-0.531c0.04-0.051,0.079-0.097,0.119-0.145c0.098-0.116,0.194-0.228,0.296-0.328
				c0.041-0.046,0.084-0.091,0.128-0.132c0.119-0.118,0.241-0.232,0.363-0.334c0.018-0.015,0.033-0.03,0.05-0.044
				c0.138-0.11,0.276-0.212,0.413-0.308c0.05-0.032,0.1-0.064,0.148-0.094c0.095-0.062,0.19-0.118,0.288-0.173
				c0.052-0.029,0.106-0.059,0.162-0.088c0.104-0.054,0.213-0.104,0.319-0.15c0.04-0.018,0.079-0.036,0.119-0.055
				c0.137-0.059,0.279-0.109,0.421-0.158c0.059-0.02,0.116-0.038,0.177-0.056c0.094-0.03,0.188-0.058,0.281-0.083
				c0.032-0.008,0.062-0.021,0.094-0.028c0,0.002,0,0.002,0,0.003c0.693-0.184,1.402-0.287,2.118-0.409
				c2.024-0.344,4.383-0.021,5.596,0.364c0.965,0.306,1.453,0.539,1.776,0.234c0.324-0.304,1.17-1.261,1.527-1.601
				c0.049-0.048,0.089-0.099,0.114-0.151c0.011-0.018,0.017-0.035,0.024-0.055c0.014-0.033,0.025-0.069,0.03-0.105
				c0.002-0.02,0.007-0.04,0.007-0.061c0-0.035-0.005-0.069-0.011-0.106c-0.003-0.017-0.003-0.038-0.012-0.055
				c-0.014-0.049-0.036-0.097-0.064-0.145c-0.08-0.129-0.204-0.247-0.359-0.339c-0.394-0.23-4.343-3.13-9.667-3.259
				c-5.202-0.131-9.425,1.709-10.545,2.096c-0.227,0.075-0.343,0.115-0.475,0.118c-0.133,0.003-0.587-0.152-0.419-0.48
				c0.185-0.351,0.646-0.891,1.126-1.326c0.504-0.454,2.964-2.771,5.396-3.845c0.449-0.196,0.559-0.278,0.848-0.392
				c0.367-0.139,0.585-0.968-0.229-0.971c-0.833-0.005-1.165,0.088-1.605,0.156c-0.441,0.073-0.683-0.123-0.404-0.502
				c0.275-0.376,0.818-0.795,1.8-1.326c2.131-1.161,6.027-2.385,7.87-2.789c2.403-0.525,2.696-0.56,4.291-0.657
				c1.49-0.086,2.684,0.021,3.249,0.042c4.776,0.183,10.278,1.764,14.537,4.566c4.048,2.979,9.878,7.943,11.032,20.199
				c0.139,1.471,0.041,2.305-0.016,2.67c-0.051,0.37-0.468,1.048-0.835,0.277c-1.209-2.531-3.076-5.846-5.185-8.987
				c-0.124-0.187-0.251-0.275-0.354-0.29c-0.044-0.008-0.08-0.001-0.117,0.015c-0.009,0.005-0.016,0.016-0.024,0.022
				c-0.02,0.016-0.042,0.035-0.058,0.061c-0.009,0.021-0.018,0.038-0.024,0.059c-0.009,0.026-0.016,0.057-0.02,0.085
				s-0.009,0.052-0.009,0.079c0,0.062,0.005,0.131,0.022,0.205c0.054,0.223,0.725,3.546,0.749,4.009
				c0.029,0.461-0.196,1.595,1.523,3.685c0.703,0.858,1.328,1.591,1.648,2.856c0.316,1.262,0.424,1.801,0.425,1.935
				c0.005,0.132,0.156,0.507-0.452,0.51c-0.605,0.003-2.915-0.164-3.906-0.142c-0.989,0.022-7.819,0.693-10.36,1.233
				c-2.542,0.54-3.908,1.18-5.214,2.551c-0.313,0.33-0.754,0.639-0.853,0.666c-0.095,0.025-0.427,0.02-1.074-0.024
				c-0.646-0.043-1.765,0.116-2.352,0.381c-0.591,0.266-1.013,0.512-1.725,0.22c-1.019-0.41-2.765-2.291-7.299-2.069
				c-2.729,0.134-4.126,0.208-6.021,0.488c-0.11,0.017-0.224,0.033-0.337,0.052c-0.072,0.011-0.146,0.023-0.221,0.036
				c-0.04,0.005-0.081,0.013-0.124,0.019c-0.771,0.125-1.642,0.287-2.716,0.497c-0.149,0.028-0.295,0.06-0.451,0.088
				C114.508,131.535,114.218,131.347,114.141,130.908 M155.886,129.739c0,0.145-0.175,0.294-0.354,0.325
				c-0.178,0.026-1.397,0.139-1.592,0.153c-0.192,0.015-0.38-0.091-0.396-0.271c-0.015-0.178-0.056-0.6-0.065-0.71
				c-0.02-0.104-0.024-0.248,0.225-0.28c0.144-0.019,1.416-0.132,1.885-0.187c0.176-0.021,0.291,0.138,0.295,0.291
				C155.883,129.214,155.883,129.597,155.886,129.739 M150.182,131.108c-0.378-0.264-1.04-0.684-1.442-0.829
				c-0.276-0.1-0.181-0.446,0.214-0.502c1.375-0.2,2.257-0.2,2.94,0.227c0.499,0.31,0.831,0.911,0.678,1.44
				c-0.179,0.608-0.416,0.477-0.716,0.471C151.558,131.91,150.555,131.375,150.182,131.108 M150.977,133.789
				c-0.242,0.164-1.031,0.019-1.32-0.094c-0.588-0.232-1.007-0.391-1.827-0.912c-0.534-0.338-1.465-0.506-2.279-0.26
				c-0.535,0.161-0.968,0.297-1.44,0.479c-0.474,0.18-0.569-0.251-0.446-0.436c0.123-0.184,0.872-1.061,1.865-1.435
				c0.208-0.079,0.634-0.122,0.844-0.128c0.641-0.019,1.435,0.294,2.036,0.734c0.606,0.442,1.569,1.162,2.202,1.433
				C150.905,133.3,151.55,133.395,150.977,133.789 M131.22,155.121c-2.397,0.84-3.07-0.003-3.283-0.253s0.05-0.494,0.303-0.612
				c0.57-0.266,1.334-0.844,1.719-1.22c0.388-0.375,1.14-1.682,1.684-2.143c0.258-0.22,1.65-0.691,2.696-0.192
				c1.245,0.592,3.186,0.654,4.376,0.5c1.189-0.161,1.643-1.03,1.901-1.544c0.257-0.519,0.889-0.706,1.221-0.844
				c0.914-0.373,2.122-1.627,2.247-1.754c0.122-0.132,0.5-0.317,1.1,0.033c1.091,0.642,1.645,1.49,2.657,2.64
				c1.014,1.151,2.213,1.331,2.562,1.354c0.352,0.022,0.571,0.43,0.587,0.541c0.02,0.113-0.274,0.503-0.491,0.666
				c-0.22,0.164-0.342,0.455-2.28,0.5C138.487,153.033,134.106,154.111,131.22,155.121 M144.419,156.293
				c-0.579,0.3-2.296,0.945-3.15,1.11c-0.857,0.165-3.579,0.717-4.039,0.755c-0.572,0.043-1.374-0.129-2.069-0.604
				c-0.14-0.096-0.329-0.47,0.177-0.545c0.943-0.14,2.464-0.847,7.993-1.13c0.595-0.029,0.873-0.042,1.017-0.044
				C144.488,155.832,145,155.994,144.419,156.293 M131.605,168.572c-1.931,0.317-7.073-1.19-10.416-9.441
				c-0.861-2.122,0.083-4.234,0.912-4.659c0.492-0.252,0.759-0.352,0.926-0.394c0.182-0.047,1.057-0.161,1.156,0.823
				c0.08,0.796,1.626,7.335,3.703,9.497c0.514,0.536,0.919,0.503,1.051-0.049c0.114-0.509,0.338-1.177,0.403-1.431
				c0.046-0.184,0.548-0.737,0.831-0.031c0.611,1.501,1.351,3.463,1.834,4.251C132.481,167.905,132.328,168.451,131.605,168.572
				 M131.986,146.999c0.183,0.253,0.295,0.71,0.28,0.913c-0.019,0.232-0.816,0.656-1.646-0.274c-0.829-0.933-0.666-2.222-0.323-2.77
				c0.546-0.874,1.622-0.438,1.519-0.127C131.456,145.819,131.803,146.745,131.986,146.999 M125.822,134.919
				c-0.619-0.021-1.287-0.098-2.42,0.321c-1.267,0.469-2.082,1.08-2.672,1.443c-0.606,0.377-1.248,0.539-1.462,0.555
				c-0.214,0.018-0.992-0.084-0.456-0.647c0.142-0.153,0.483-0.271,1.002-0.647c0.371-0.274,0.646-0.468,1.067-0.822
				c0.752-0.641,2.282-1.566,2.95-1.648c0.49-0.059,1.355,0.034,1.87,0.456C126.239,134.368,126.444,134.938,125.822,134.919
				 M115.157,136.018c0.064-0.406,0.509-1.477,1.443-1.786c0.127-0.038,0.592-0.191,0.981-0.29c0.461-0.116,0.955-0.218,1.205-0.264
				c0.677-0.117,0.82,0.397,0.395,0.731c-0.279,0.223-0.726,0.513-1.12,0.833c-0.599,0.489-1.174,1.035-1.619,1.405
				C115.9,137.1,115.022,136.852,115.157,136.018 M118.335,147.676c-0.003-0.002-0.004-0.004-0.004-0.004
				c-0.004-0.005-0.008-0.011-0.01-0.015c-0.168-0.236-0.324-0.483-0.471-0.735c-0.031-0.057-0.062-0.113-0.093-0.169
				c-0.146-0.269-0.283-0.543-0.391-0.831c-0.21-0.557,0.142-0.639,0.377-0.518c0.232,0.126,0.917,0.524,1.647,0.678
				c0.446,0.093,0.712-0.121,0.815-0.444c0.017-0.046,0.036-0.107,0.059-0.171c0.013-0.028,0.022-0.059,0.031-0.09
				c0.007-0.02,0.012-0.038,0.019-0.059c0.011-0.035,0.019-0.068,0.025-0.104c0.007-0.02,0.008-0.038,0.012-0.058
				c0.01-0.035,0.014-0.073,0.017-0.111c0.002-0.018,0.002-0.035,0.005-0.056c0-0.038-0.005-0.073-0.008-0.111
				c-0.003-0.016-0.005-0.033-0.01-0.05c-0.009-0.041-0.024-0.079-0.042-0.117c-0.007-0.012-0.01-0.023-0.017-0.032
				c-0.025-0.044-0.06-0.086-0.102-0.124c-0.053-0.047-0.122-0.091-0.209-0.125c-0.638-0.255-2.44-0.825-3.796-3.345
				c-0.196-0.356-0.011-0.659,0.121-0.767c0.133-0.105,0.604-0.404,0.831-0.546c0.228-0.14,0.535-0.123,0.859,0.1
				c0.309,0.222,0.981,0.712,1.521,0.664c0.501-0.05,0.551-0.255,0.64-0.385c0.354-0.516,1.312-2.388,3.818-2.419
				c1.035-0.014,2.006,0.082,2.354,0.061c0.343-0.021,1.565-0.133,2.288-0.622c0.709-0.487,1.013-0.138,0.604,0.396
				c-0.062,0.082-0.118,0.15-0.17,0.222c-0.02,0.024-0.034,0.048-0.053,0.071c-0.056,0.074-0.104,0.145-0.146,0.212
				c-0.156,0.265-0.177,0.494,0.116,0.808c0.457,0.486,0.576,0.574,0.726,0.689c0.064,0.052,0.145,0.083,0.237,0.085
				c0.037,0,0.08-0.007,0.121-0.02c0.019-0.006,0.035-0.006,0.057-0.013c0.063-0.028,0.129-0.066,0.203-0.129
				c0.261-0.231,0.438-0.368,0.666-0.664c0.169-0.219,0.312,0.002,0.271,0.343c-0.033,0.266,0.085,1.968-1.771,4.062
				c-0.061,0.072-0.2,0.188-0.376,0.336c-0.043,0.035-0.082,0.068-0.128,0.108c-0.022,0.02-0.046,0.042-0.068,0.062
				c-0.059,0.051-0.117,0.104-0.176,0.16c-0.047,0.043-0.096,0.097-0.145,0.145c-0.049,0.049-0.098,0.096-0.148,0.149
				c-0.029,0.031-0.06,0.069-0.092,0.105c-0.062,0.07-0.125,0.143-0.188,0.22c-0.019,0.026-0.038,0.055-0.056,0.078
				c-0.069,0.092-0.138,0.185-0.199,0.282c-0.079,0.126-0.152,0.257-0.216,0.396c-0.517,1.102-0.449,1.465-0.505,1.867
				c-0.052,0.397-0.361,0.557-0.708,0.717c-0.211,0.096-0.765,0.417-1.383,0.884l0.005-0.003c-0.185,0.138-0.373,0.293-0.559,0.451
				c-0.036,0.032-0.07,0.063-0.104,0.096c-0.187,0.164-0.371,0.336-0.54,0.519c-0.112,0.118-0.229,0.223-0.345,0.316
				c-0.04,0.031-0.077,0.056-0.117,0.085c-0.081,0.059-0.166,0.114-0.249,0.163c-0.044,0.025-0.092,0.049-0.134,0.067
				c-0.085,0.044-0.169,0.078-0.255,0.107c-0.046,0.017-0.09,0.035-0.135,0.047c-0.024,0.006-0.044,0.016-0.064,0.021
				c-0.054,0.012-0.108,0.014-0.162,0.021c-0.066,0.013-0.132,0.023-0.199,0.028c-0.075,0.004-0.15,0-0.227-0.005
				c-0.065-0.007-0.132-0.007-0.195-0.014c-0.078-0.012-0.155-0.037-0.231-0.059c-0.066-0.015-0.132-0.029-0.197-0.053
				c-0.073-0.028-0.146-0.068-0.22-0.104c-0.069-0.033-0.137-0.062-0.205-0.104c-0.007-0.004-0.014-0.006-0.02-0.009
				c-0.124-0.08-0.25-0.171-0.376-0.274c-0.326-0.279-0.684-0.604-1.036-0.962c-0.009-0.009-0.018-0.019-0.026-0.026
				c-0.011-0.012-0.021-0.021-0.029-0.033c-0.182-0.185-0.363-0.38-0.54-0.584C118.921,148.415,118.51,147.92,118.335,147.676
				 M140.64,186.806c-0.113,0.592-0.598,2.591-2.373,6.703c-0.121,0.277-0.237,0.544-0.351,0.802
				c-0.027,0.061-0.056,0.118-0.082,0.18c-0.044,0.1-0.09,0.199-0.134,0.293c-0.003,0.008-0.006,0.014-0.009,0.023
				c-0.064,0.144-0.131,0.277-0.197,0.41c0,0-0.003,0.004-0.003,0.008c-0.008,0.016-0.019,0.033-0.029,0.051
				c-0.023,0.047-0.048,0.092-0.07,0.137c-0.032,0.059-0.063,0.123-0.097,0.18c0,0.005-0.002,0.008-0.004,0.01
				c-0.007,0.013-0.016,0.025-0.023,0.041c-0.03,0.051-0.074,0.129-0.076,0.132c-0.003,0.008-0.01,0.016-0.015,0.023
				c0,0,0,0,0,0.005c-0.022,0.033-0.042,0.066-0.062,0.098c-0.005,0.01-0.011,0.023-0.017,0.032
				c-0.004,0.003-0.008,0.01-0.013,0.015c-0.027,0.045-0.056,0.088-0.083,0.133c-0.008,0.008-0.012,0.012-0.017,0.019
				c-0.032,0.047-0.064,0.093-0.096,0.136c-0.001,0-0.007,0.009-0.012,0.011c-0.027,0.038-0.056,0.075-0.085,0.11
				c-0.008,0.008-0.012,0.016-0.019,0.021c-0.031,0.043-0.066,0.075-0.097,0.113c-0.004,0-0.008,0.005-0.012,0.011
				c-0.018,0.018-0.038,0.036-0.056,0.055h-0.002c-0.009,0.012-0.021,0.022-0.032,0.031c-0.007,0.006-0.016,0.012-0.021,0.02
				c-0.034,0.03-0.066,0.062-0.102,0.084c-0.003,0.004-0.005,0.006-0.011,0.008c-0.03,0.026-0.062,0.047-0.094,0.066
				c-0.01,0.006-0.017,0.012-0.025,0.016c-0.006,0.004-0.011,0.006-0.016,0.008c-0.007,0.007-0.012,0.01-0.018,0.01
				c-0.024,0.016-0.048,0.028-0.073,0.043c0,0-0.004,0-0.008,0.002c-0.031,0.017-0.064,0.029-0.101,0.04
				c-0.01,0.006-0.018,0.011-0.027,0.013c-0.038,0.012-0.074,0.021-0.114,0.032c-0.369,0.079-0.763,0.136-0.993,0.176
				c-0.035,0.002-0.271,0.042-0.291,0.05c-0.096,0.014-0.2,0.028-0.312,0.048c0,0,0,0,0-0.002
				c-2.666,0.449-9.919,1.698-13.283,2.378c-2.231,0.445-2.012-0.679-2.573-2.707c-0.234-0.854-1.063-8.398-0.633-13.135
				c0.145-1.571,0.215-2.033,0.496-2.207s0.714-0.454,0.843-0.492c0.127-0.033,0.512-0.134,0.691,0.189
				c0.176,0.32,3.432,6.929,5.561,9.322c1.89,2.133,3.217,3.68,4.81,4.719c0.104,0.07,0.196,0.114,0.277,0.142
				c0.009,0.003,0.018,0.008,0.027,0.011c0.038,0.012,0.072,0.018,0.104,0.021c0.031,0.005,0.062,0.002,0.09,0
				c0.009-0.001,0.017-0.001,0.023-0.004c0.053-0.012,0.094-0.038,0.126-0.07c0.005-0.004,0.01-0.01,0.015-0.015
				c0.03-0.038,0.053-0.085,0.062-0.135c0.002-0.009,0.002-0.018,0.002-0.026c0.045-0.246-0.073-0.618-0.306-0.871
				c-0.352-0.379-1.807-1.877-3.723-4.603c-2.481-3.519-4.159-8.714-4.611-10.376c-0.296-1.09-0.462-2.807-0.435-4.178
				c-0.002,0-0.004,0-0.004,0c0.002-0.06,0.004-0.113,0.008-0.171c0.001-0.042,0.003-0.086,0.006-0.13
				c0.003-0.093,0.008-0.186,0.013-0.271c0.01-0.129,0.021-0.256,0.034-0.372c0.008-0.05,0.014-0.096,0.021-0.145
				c0.012-0.081,0.024-0.16,0.036-0.233c0.008-0.043,0.017-0.083,0.026-0.123c0.021-0.104,0.046-0.201,0.076-0.287
				c0.386-1.102,0.709-0.984,1.049-0.614c0.343,0.373,3.419,3.165,8.494,5.44c1.077,0.48,1.721,0.703,1.868,0.862
				c0.146,0.153,0.377,0.48-0.085,0.59c-0.455,0.105-1.809,0.154-3.226,0.714c-0.083,0.034-0.159,0.067-0.228,0.098
				c-0.496,0.223-0.729,0.447-0.833,0.686c-0.022,0.047-0.036,0.096-0.048,0.146c-0.009,0.033-0.018,0.071-0.021,0.106
				c-0.005,0.055-0.009,0.109-0.005,0.164c0,0.035-0.004,0.073,0.001,0.109c0.004,0.07,0.011,0.141,0.02,0.215
				c0.018,0.125,0.035,0.256,0.046,0.396c0.076,0.769,0.208,1.317,0.307,2.347c0.096,1.032,0.036,1.964,0.539,2.4
				c0.502,0.43,1.186,0.685,3.016,0.329c1.734-0.338,2.312-0.486,2.519-0.491c0.201-0.008,0.688-0.088,0.391,0.479
				c-0.028,0.056-0.064,0.121-0.109,0.2c-0.399,0.714-1.369,2.317-1.698,3.388c-0.366,1.178-0.44,1.505-0.472,1.705
				c-0.03,0.203,0.11,0.594,0.47,0.157c0.358-0.438,1.07-2.067,2.857-4.143c0.239-0.276,0.459-0.521,0.665-0.745
				c0.003,0,0.005-0.005,0.009-0.008c0.162-0.175,0.312-0.332,0.455-0.477c0.041-0.041,0.079-0.078,0.117-0.115
				c0.121-0.119,0.235-0.228,0.343-0.331c0.028-0.023,0.059-0.053,0.084-0.077c0.267-0.24,0.494-0.428,0.694-0.573
				c0.021-0.012,0.038-0.024,0.058-0.036c0.076-0.057,0.152-0.109,0.224-0.151c0.019-0.012,0.04-0.024,0.059-0.038
				c0.071-0.045,0.138-0.08,0.198-0.113c0.011-0.01,0.025-0.018,0.036-0.022c0.008-0.003,0.015-0.008,0.02-0.011
				c0.072-0.034,0.133-0.069,0.193-0.098C140.656,185.672,140.791,186.014,140.64,186.806 M143.598,195.885
				c-0.286,0.064-1.521,0.253-1.714,0.256c-0.188,0.006-0.348-0.171-0.268-0.306c0.079-0.133,0.931-1.241,1.398-3.169
				c0.079-0.314,0.276-0.534,0.404-0.082c0.098,0.33,0.48,1.969,0.567,2.585C143.999,195.277,144.066,195.774,143.598,195.885
				 M144.116,180.158c-0.812,0.303-1.716-0.61-2.446-1.098c-1.645-1.123-3.157-2.209-4.399-3.723
				c-1.899-2.322-1.722-3.94-1.171-6.938c0.384-2.13-0.312-4.133-0.464-4.415c-0.149-0.282,0.02-0.569,0.47-0.358
				c0.449,0.211,0.88,0.866,1.341,1.428c0.457,0.563,0.56,0.163,0.598-0.218c0.087-0.883-0.111-1.59-0.222-1.999h-0.002
				c-0.007-0.021-0.011-0.044-0.016-0.065c-0.064-0.244-0.292-0.789-0.771-0.889c-0.641-0.134-1.271-0.19-1.612-0.438
				c-0.159-0.114-0.341-0.348-0.161-0.521c0.327-0.316,0.8-0.735,1.251-0.89c0.613-0.211,1.202-0.531,1.979-0.526
				c5.237,0.033,6.65-1.179,8.653-2.01c0.392-0.166,0.628-0.238,0.964-0.133c0.337,0.102,1.253,0.445,1.484,0.853
				c0.231,0.408,0.274,2.109,0.722,3.338c0.439,1.232,1.191-0.045,1.356-0.572c0.157-0.528,0.22-1.787,0.229-2.105
				c0.008-0.319,0.1-1.662,0.521-2.113c0.837-0.894,1.035-1.952,1.137-2.365c0.089-0.372,0.16-1.409-0.023-2.883
				c-0.021-0.182-0.048-0.371-0.079-0.567c-0.284-1.776-0.642-1.928-1.123-2.249c-0.483-0.323-0.989-0.184-2.219-1.026
				c-1.102-0.757-2.101-2.08-2.935-2.888c-0.831-0.807-2.143-1.616-3.527-1.759c-0.087-0.009-0.165-0.011-0.234-0.011
				c-0.007,0-0.01,0-0.016,0c-0.063,0.004-0.121,0.008-0.17,0.02c-0.01,0-0.016,0.006-0.026,0.008
				c-0.044,0.007-0.084,0.019-0.118,0.032c-0.009,0.008-0.017,0.014-0.029,0.018c-0.025,0.016-0.054,0.03-0.074,0.047
				c-0.009,0.009-0.018,0.019-0.027,0.031c-0.017,0.016-0.032,0.033-0.042,0.052c-0.01,0.013-0.016,0.029-0.025,0.045
				c-0.005,0.018-0.014,0.03-0.018,0.046c-0.008,0.025-0.012,0.049-0.016,0.075c0,0.01-0.003,0.018-0.003,0.028
				c-0.002,0.033-0.002,0.069,0.003,0.104h-0.003c0.029,0.344,0.276,0.761,0.339,0.934c0.088,0.232,0.31,0.947-0.084,1.362
				c-0.396,0.415-2.711,2.486-4.878,2.436c-0.979-0.022-1.797-0.226-2.482-0.518c0.003,0.003,0.005,0.006,0.009,0.011
				c-0.03-0.013-0.054-0.028-0.085-0.042c-0.163-0.071-0.319-0.149-0.467-0.232c-0.023-0.014-0.053-0.026-0.078-0.041
				c-0.166-0.094-0.318-0.195-0.465-0.298c-0.044-0.033-0.086-0.065-0.128-0.097c-0.109-0.084-0.216-0.169-0.314-0.257
				c-0.029-0.028-0.062-0.054-0.092-0.079c-0.117-0.111-0.227-0.223-0.329-0.332c-0.025-0.031-0.048-0.058-0.074-0.086
				c-0.078-0.091-0.149-0.182-0.219-0.268c-0.021-0.029-0.042-0.054-0.062-0.082c-0.077-0.111-0.149-0.217-0.211-0.318
				c-0.009-0.012-0.014-0.021-0.021-0.033c-0.054-0.093-0.1-0.182-0.141-0.262c-0.009-0.021-0.021-0.041-0.029-0.062
				c-0.041-0.086-0.074-0.17-0.099-0.24c-0.316-0.951,0.471-3.199,0.441-4.81c-0.009-0.706-0.154-2.06-0.263-2.998
				c-0.108-0.939,0.388-2.204,0.618-2.511c0.051-0.068,0.129-0.133,0.219-0.196c0.022-0.016,0.05-0.029,0.072-0.046
				c0.084-0.055,0.181-0.106,0.287-0.153c0.018-0.008,0.031-0.016,0.05-0.023c0.106-0.044,0.22-0.091,0.343-0.132v0.008
				c0.201-0.07,0.419-0.135,0.658-0.189c0.771-0.172,1.674,0.211,1.905,0.848c0.809,2.224,1.702,2.693,2.002,2.838
				c0.304,0.149,0.781-0.291,0.969-0.454c0.188-0.157,0.642-0.753,0.441-1.014c-0.312-0.397-0.482-0.642-0.571-0.89
				c-0.152-0.42,0.396-0.428,0.525-0.37c1.652,0.7,2.444,0.848,4.043,0.794c1.598-0.05,4.08-1.103,4.389-1.107
				c0.249-0.006,0.745,0.147,0.932,0.406c0.031,0.044,0.072,0.106,0.111,0.166c0.159,0.24,0.374,0.559,0.565,0.626
				c0.009,0.001,0.013,0.005,0.021,0.007c0.237,0.059,0.802,0.016,1.1,0.029c0.403,0.013,1.104-0.127,1.084,0.615
				c-0.043,1.979-1.609,3.215-1.75,3.334c-0.056,0.051-0.087,0.113-0.115,0.18c-0.009,0.018-0.024,0.035-0.026,0.053
				c-0.009,0.038-0.016,0.074-0.016,0.107c0,0.036,0.005,0.068,0.011,0.098c0.038,0.117,0.207,0.544,0.28,0.66
				c0.024,0.042,0.057,0.083,0.097,0.121c0.01,0.009,0.026,0.016,0.036,0.027c0.031,0.023,0.063,0.046,0.097,0.062
				c0.019,0.011,0.043,0.013,0.063,0.019c0.032,0.008,0.069,0.016,0.108,0.013c0.023,0,0.051-0.007,0.075-0.013
				c0.06-0.013,0.114-0.025,0.176-0.062c1.326-0.794,1.866-1.73,2.443-2.91c0.575-1.173,0.879-5.048,0.911-5.684
				c0.032-0.641,0.235-1.033,0.549-1.29c0.312-0.26,1.862-1.252,2.08-1.302c0.223-0.054,0.477-0.073,0.728,0.503
				c0.255,0.582,0.807,4.155,0.912,4.703c0.119,0.585,0.423,0.515,0.574,0.403c0.332-0.242,0.572-0.54,0.867-1.047
				c0.305-0.507,0.081-1.207-0.215-1.534c-0.293-0.326-0.757-0.852-0.559-1.37c0.448-1.181,1.393-1.122,1.645-1.08
				c0.25,0.043,1.204,0.474,1.377,3.046c0.251,3.812-1.305,7.753-1.675,8.753c-0.819,2.223-0.992,3.735-1.118,4.455
				c-0.123,0.717-0.668,0.587-0.799,0.471c-0.132-0.115-0.303-0.671-0.386-0.753c-0.086-0.083-0.302-0.04-0.442,0.571
				c-0.14,0.61-0.607,1.46-0.882,1.922c-0.184,0.299-0.15,0.729-0.104,1.062c0.081,0.647,0.418,3.128,0.315,5.947
				c-0.187,5.016-1.864,8.175-3.115,9.829c-2.942,3.892-5.704,5.518-6.033,5.748c-0.426,0.299-1.14,0.252-1.377,0.173
				c-0.243-0.068-0.455-0.319-0.908-0.643c-0.036-0.028-0.073-0.044-0.105-0.06c-0.358-0.167-0.413,0.339-0.409,0.472
				c0.003,0.14,0.222,0.661,0.345,1.166c0.235,0.953-0.294,2.104-0.839,3.013c-0.777,1.286-1.645,2.698-1.464,4.251
				C144.234,180.011,144.234,180.112,144.116,180.158 M169.057,181.639c0.444,2.551,0.942,5.657,1.507,9.467
				c0.029,0.201,0.05,0.372,0.065,0.532c0.005,0.021,0.009,0.042,0.009,0.06c0.016,0.152,0.023,0.289,0.023,0.401
				c0,0.013-0.002,0.022-0.002,0.031c0,0.051,0,0.104-0.003,0.149c-0.007,0.043-0.015,0.078-0.022,0.116
				c0,0.015-0.005,0.031-0.005,0.044c-0.02,0.078-0.045,0.146-0.081,0.201c-0.003,0.009-0.012,0.016-0.02,0.027
				c-0.031,0.043-0.07,0.082-0.111,0.114c-0.014,0.009-0.027,0.02-0.042,0.03c-0.052,0.033-0.11,0.062-0.184,0.086
				c-0.018,0.008-0.044,0.012-0.066,0.02c-0.056,0.018-0.114,0.033-0.179,0.051c-0.043,0.009-0.083,0.017-0.124,0.027
				c-0.086,0.018-0.178,0.035-0.274,0.054c-0.181,0.037-0.443,0.075-0.627,0.089c-0.316,0.033-0.685,0.064-1.086,0.1
				c-3.885,0.354-11.487,1.125-17.575,1.892c-0.114,0.013-0.232,0.024-0.358,0.045c-0.474,0.065-0.749-0.01-0.787-0.476
				c-0.027-0.427-0.741-4.654-2.893-8.256c-0.198-0.332-0.406-0.66-0.627-0.979c-0.245-0.352,0.119-0.621,0.466-0.498
				c0.975,0.343,3.678,1.578,7.53,4.336c0.984,0.703,1.24,0.92,1.459,1.108c0.03,0.025,0.075,0.05,0.116,0.07
				c0.015,0.008,0.032,0.013,0.052,0.021c0.027,0.01,0.062,0.019,0.094,0.027c0.018,0.004,0.036,0.007,0.053,0.009
				c0.037,0.005,0.074,0.007,0.107,0.005c0.017,0,0.03,0,0.042,0c0.045-0.008,0.089-0.021,0.123-0.043
				c0.09-0.057,0.131-0.166,0.062-0.354c-0.241-0.676-1.528-2.003-4.825-5.061c-0.471-0.437-0.479-0.619,0.009-0.671
				c0.486-0.046,1.808,0.014,2.51-0.016c0.706-0.03,2.278-0.074,1.97-2.133c-0.236-1.595-0.422-3.243-0.45-3.737
				c-0.025-0.492-0.113-1.41-1.265-1.542c-1.146-0.132-3.062,0.134-4.782,0.737c-0.476,0.166-0.644-0.055-0.292-0.374
				c0.35-0.318,3.37-2.285,5.945-5.241c2.831-3.254,4.075-5.65,4.781-7.827c0.129-0.388,0.292-0.256,0.449-0.167
				c0.155,0.093,1.219,0.95,1.595,3.062c0.369,2.116,1.101,5.052-0.188,12.762c-0.709,4.223-1.575,6.717-1.777,7.312
				c-0.202,0.591,0.145,0.923,0.534,0.394c0.911-1.241,2.112-4.684,3.128-8.642c1-3.905,1.362-7.254,1.516-9.399v-0.003
				c0.015-0.198,0.029-0.383,0.039-0.56l0.006-0.072c0.008-0.174,0.018-0.34,0.028-0.49c0-0.091,0.012-0.163,0.027-0.23
				c0.004-0.02,0.012-0.034,0.018-0.052c0.009-0.028,0.018-0.062,0.027-0.086c0-0.005,0.006-0.005,0.006-0.008
				c0.021-0.038,0.043-0.067,0.063-0.093c0.008-0.008,0.013-0.016,0.018-0.021c0.02-0.016,0.037-0.024,0.055-0.033
				c0.015-0.007,0.026-0.016,0.04-0.021c0.011-0.002,0.019-0.002,0.031-0.004c0.021-0.004,0.042-0.008,0.062-0.008
				c0.009,0,0.016,0,0.025,0.004c0.01,0,0.023,0,0.03,0c0.008,0,0.011,0.006,0.014,0.006c0.079,0.014,0.15,0.045,0.206,0.068
				c0.202,0.078,1.091,0.336,1.555,2.472c0.021,0.085,0.039,0.178,0.062,0.271c0.004,0.031,0.012,0.066,0.02,0.098
				c0.021,0.085,0.041,0.172,0.062,0.265l0.005,0.018C167.337,172.801,168.035,175.705,169.057,181.639"/>
			<polygon points="152.636,185.278 153.068,185.278 153.068,186.383 153.329,186.383 153.329,185.278 153.762,185.278 
				153.762,185.056 152.636,185.056 			"/>
			<polygon points="154.7,186.004 154.366,185.056 153.989,185.056 153.989,186.383 154.23,186.383 154.23,185.314 154.601,186.383 
				154.814,186.383 155.176,185.314 155.176,186.383 155.418,186.383 155.418,185.056 155.041,185.056 			"/>
		</g>
	</g>
</g>
<g id="Mitsubishi">
</g>
<g id="Rolex">
</g>
<g id="Puma">
</g>
</svg>
