<svg xmlns="http://www.w3.org/2000/svg" width="300" height="300" viewBox="0 0 300 300"><path d="M214.931 165.805c-.5-.652-1.307-.913-1.864-1.163-.546-.258-.468-.79-.923-.944-.468-.15-1.284.801-1.918.604-.635-.208-.588-1.392-1.117-1.567-.542-.171-1.484.717-1.978.559-.496-.144-.594-1.389-1.072-1.547-.474-.144-1.479.741-1.97.589-.493-.166-.524-1.377-1.071-1.558-.545-.167-1.502.739-1.978.575-.491-.151-.539-1.361-1.062-1.537-.527-.167-1.495.721-1.982.56-.502-.162-.639-1.404-1.097-1.554-.467-.143-1.378.591-2.119.548-5.145-.479-7.113-3.716-7.464-2.759-.344.938 1.073 3.221 2.853 3.991 1.42.618 16.745 4.86 17.146 5.049.392.194 1.36.625 1.015 1.184-.533.715-2.029.007-2.41-.308-.386-.32-.298-.437-.659-.534-.822-.196-1.277 1.302-2.146 1.101-.79-.177-.734-1.766-1.537-1.951-.888-.215-1.288 1.291-2.131 1.094-.699-.157-.795-1.775-1.546-1.957-.862-.208-1.254 1.301-2.152 1.092-.772-.181-.729-1.759-1.537-1.953-.808-.191-1.37 1.271-2.132 1.099-.766-.177-.877-1.79-1.556-1.95-.695-.154-1.242.665-2.176.787 0 0-2.681.725-6.919-3.703-4.248-4.419-5.989-5.278-8.405-3.477-3.947 2.939-6.398.996-7.111.122-.859-1.002.039-1.923.039-1.923s1.253 1.935 2.831 1.97c2.543.076 4.46-3.394 8.817-3.455 5.519-.199 6.957 1.762 8.466 1.918 1.397.137 1.864-.089 2.831-.65h-.006c.782-.279 1.463 1.233 2.282.928.867-.327.233-1.851 1.167-2.202.873-.312 1.442 1.22 2.277.909.877-.321.318-1.887 1.161-2.192.868-.313 1.376 1.234 2.276.904.904-.322.32-1.872 1.144-2.184.85-.31 1.465 1.213 2.3.916.791-.283.338-1.904 1.162-2.199.854-.307 1.407 1.221 2.317.886.749-.261.334-1.884 1.11-2.178.776-.29 1.496 1.215 2.304.913.757-.279.314-1.893 1.12-2.194.854-.308 1.512 1.196 2.318.913.797-.287.192-1.588 1.232-2.105 0 0 1.441-.474 1.351-1.531-.012-.178-.31-2.438-2.683-2.918-2.282-.459-20.308 4.526-20.541 4.239-1.659-3.278-3.786-2.367-4.109-2.294-.33.083-2.342.94-4.571.083-4.377-1.981-7.871 3.058-10.269 2.395-2.208-.621-3.896-.263-4.822.052-.848.293-2.22 1.397-5.134.396-22.506-7.685-40.095-.966-40.095-.966-9.918 3.313-11.187 0-11.187 0s-3.264-4.434 19.716-9.722c33.031-7.588 34.027-20.144 33.636-20.938-.542-1.152-.748.205-1.837 1.454-.912 1.038-1.973.524-1.973.524-1.039-.499-1.704.688-1.704.688s-1.337 2.075-2.52.895c-1.137-1.135-2.645 1.428-3.209 1.53-.674.12-1.004-.21-1.909-.626-1.357-.599-2.813 1.873-3.559 2.048-1.142.261-1.943-1.345-2.925-.667-2.935 2.026-3.397 2.308-4.188 1.519-.584-.596-.671-1.243-2.631.634-1.668 1.6-2.468 1.899-3.137.882-.69-1.024-.513-2.422-3.38.33-1.368 1.314-2.068 1.339-2.853.749-.591-.444-.587-2.56-2.644-.644-1.863 1.726-3.218 2.48-3.745.949-.583-1.72-2.78.317-3.288.796-.527.479-1.656 1.748-2.447.439-.791-1.317-2.686.649-3.812 1.896-.87.969-1.572.221-2.489-.394-1.043-.714-4.162 3.641-4.445 3.902-.285.248-.503 0-1.218-.607-1.099-.93-4.062 4.244-4.541 4.582 0 0-.202.445-1.011-.326-1.15-1.094-7.253 6.94-9.556 16.03-2.947 11.653 1.747 20.588 1.747 20.588s1.41.043 2.012-.91l.914-2.06c.74-1.717 1.954-1.177 1.954-1.177l-2.877 8.566c-.454 1.129-.18 2.725.826 4.234.947 1.517 1.6 2.541 2.359 3.246 2.336 2.2 2.099-.403 2.158-.728.274-1.393 1.816-.322 3.028.345 2.197 1.233 1.953-1.49 2.435-2.377.335-.638 1.415-.666 2.588.316.913.763 1.821-1.822 1.821-1.822 1.139-5.508-1.537-6.146-2.985-6.227l-2.93-.135s.192-.838.497-1.622l.131-.557c3.196-7.964-2.145-9.501-3.743-9.375-1.763.158-1.64-.966-1.64-.966s9.653-1.9 7.854 8.336c0 0-.356 1.784-.569 2.713l2.652.309c2.283.286 2.689 2.986 2.689 2.986s8.395 2.22 13.157 1.332c0 0 2.129-.507 2.72-1.832 0 0 3.085-7.267 12.089-7.574 0 0 .316.941-1.122 1.431-1.725.582-7.472 1.038-8.666 7.64v.026c-.131 1.083.16 3.39 2.51 4.458 2.003.904 2.708 4.548 3.123 5.533 1.166 2.794 2.911.123 2.911.123s1.106-2.254 2.056-1.003c1.604 2.11 2.349 1.046 2.713-.297.397-1.451.979-2.083 2.658-.319.717.765 2.125.174 2.265-1.136.297-2.883 2.245-.59 2.523-.479.334.127 2.374-.332 1.232-3.584 0 0-1.542-3.099-8.495-4.436-1.631-.31-1.371-1.491-1.371-1.491l1.531.215c.456.075 4.5.523 4.931.592 16.959 1.673 29.826-4.079 30.214-4.49 13.174 2.524 31.087 1.664 34.448.452 3.388-1.19 3.639-3.163 3.251-3.69zm-27.201-21.022c.275-.444.535-.695.773-.816 1.023-.582 1.676 1.238 1.552 1.305l-.039.015-.003.011c-.161.078-2.135.637-2.328.509-.39-.27.045-1.024.045-1.024zm-7.491.575s.256-.321.749-.484c.485-.177 1.221-.207 2.193.421 1.119.711 1.091 1.267 1.091 1.267l-.143.057c-.812.314-4.14.722-4.14.722-.646-1.194.25-1.983.25-1.983zm-62.088-16.108c.56.432.022 2.914-.375 2.548l-2.876-1.521s2.678-1.446 3.251-1.027zm-4.676 1.585c.566.421.037 2.91-.364 2.539l-2.866-1.523s2.663-1.447 3.23-1.016zm-1.617 4.855c.568.425.035 2.917-.37 2.557l-2.872-1.542s2.671-1.436 3.242-1.015zm-2.736 6.518l-2.874-1.527s2.673-1.449 3.24-1.022c.574.424.026 2.915-.366 2.549zm-.541 4.917l-2.866-1.527s2.668-1.442 3.236-1.025c.569.42.039 2.902-.37 2.552zm-.052-14.559c.57.423.031 2.901-.369 2.549l-2.877-1.533c.001 0 2.679-1.446 3.246-1.016zm-2.494 3.784c.562.423.029 2.901-.367 2.549l-2.871-1.527c-.001 0 2.671-1.451 3.238-1.022zm-5.125 5.939s2.679-1.454 3.24-1.023c.57.421.033 2.904-.368 2.544l-2.872-1.521zm2.2 6.218l-2.864-1.533s2.673-1.438 3.236-1.013c.571.423.038 2.904-.372 2.546zm-2.043-10.433c.566.414.031 2.901-.37 2.542l-2.861-1.532s2.658-1.438 3.231-1.01zm-2.582 5.008c.568.421.037 2.919-.375 2.551l-2.863-1.525s2.672-1.435 3.238-1.026zm-3.774 5.932s2.672-1.437 3.238-1.013c.573.418.027 2.909-.366 2.547l-2.872-1.534zm5.121 5.611l-2.867-1.528s2.673-1.447 3.241-1.023c.567.425.025 2.906-.374 2.551zm4.115 3.332l-2.869-1.521s2.675-1.448 3.242-1.027c.563.416.02 2.916-.373 2.548zm1.287-5.202l-2.872-1.534s2.674-1.436 3.241-1.025c.569.426.03 2.908-.369 2.559zm3.815 7.448l-2.863-1.526s2.658-1.444 3.231-1.021c.566.426.04 2.897-.368 2.547zm1.379-4.792l-2.867-1.526s2.669-1.436 3.233-1.012c.567.417.04 2.903-.366 2.538zm.949-4.53l-2.867-1.53s2.669-1.436 3.241-1.014c.568.428.025 2.901-.374 2.544zm4.033 8.743l-2.868-1.537s2.669-1.433 3.242-1.017c.574.423.03 2.917-.374 2.554zm1.241-4.771l-2.865-1.523s2.672-1.453 3.241-1.023c.558.41.02 2.901-.376 2.546zm1.04-5.056l-2.867-1.527s2.67-1.433 3.242-1.017c.565.425.027 2.905-.375 2.544zm4.03 8.932l-2.877-1.527s2.674-1.446 3.246-1.025c.563.434.02 2.92-.369 2.552zm.962-5.104l-2.866-1.534s2.674-1.44 3.239-1.021c.569.428.03 2.9-.373 2.555zm1.001-5.24l-2.868-1.53s2.669-1.438 3.24-1.02c.565.434.03 2.91-.372 2.55zm4.316 8.326l-2.871-1.513s2.674-1.446 3.233-1.025c.576.421.038 2.901-.362 2.538zm.784-5.027l-2.874-1.519s2.671-1.443 3.235-1.027c.582.426.036 2.92-.361 2.546zm.996-4.927l-2.876-1.519s2.677-1.452 3.24-1.033c.568.428.031 2.92-.364 2.552zm4.394 8.892l-2.869-1.529s2.666-1.445 3.239-1.022c.574.426.032 2.903-.37 2.551zm.782-4.693l-2.87-1.523s2.676-1.456 3.238-1.021c.568.409.031 2.906-.368 2.544zm.946-5.008l-2.875-1.524s2.674-1.458 3.247-1.024c.566.425.036 2.902-.372 2.548zm3.976 9.789l-2.862-1.527s2.668-1.451 3.234-1.018c.568.419.031 2.901-.372 2.545zm.946-5.039l-2.875-1.524s2.677-1.453 3.246-1.022c.563.425.025 2.904-.371 2.546zm1.074-5.017l-2.871-1.524s2.674-1.454 3.242-1.021c.574.42.031 2.908-.371 2.545zm3.958 10.056l-2.872-1.535s2.67-1.442 3.238-1.009c.567.418.039 2.9-.366 2.544zm.919-4.76l-2.865-1.532s2.667-1.43 3.233-1.022c.571.428.036 2.917-.368 2.554zm1.086-4.871l-2.862-1.525s2.668-1.44 3.238-1.025c.561.423.025 2.909-.376 2.55zm3.616 10.35l-2.87-1.542s2.673-1.43 3.241-1.004c.572.413.037 2.902-.371 2.546zm1.014-4.616l-2.868-1.523s2.676-1.442 3.239-1.021c.574.432.02 2.911-.371 2.544zm1.096-4.715l-2.876-1.52s2.675-1.445 3.247-1.032c.565.42.02 2.902-.371 2.552zm4.473 5.711l-2.864-1.511s2.667-1.449 3.239-1.033c.564.426.027 2.909-.375 2.544z"/></svg>