<svg xmlns="http://www.w3.org/2000/svg" width="300" height="300" viewBox="0 0 300 300"><path d="M149.907 106.014c-24.804 0-44.902 20.105-44.902 44.918 0 24.769 20.099 44.91 44.902 44.91 24.806 0 44.915-20.142 44.915-44.909-.001-24.814-20.109-44.919-44.915-44.919zm10.698 61.058v3.541h-12.508v-39.418h3.616v35.877h8.892zm15.888 10.424c-7.108 7.106-16.541 11.056-26.586 11.056-10.066 0-19.485-3.949-26.599-11.056-7.08-7.09-11-16.54-11-26.571 0-20.742 16.866-37.574 37.599-37.574.462 0 1.314 0 1.807.014l.001 3.503c-.446-.009-1.403-.029-1.807-.029-9.088 0-17.681 3.549-24.104 9.993-6.431 6.43-9.993 14.992-9.993 24.091 0 9.106 3.562 17.686 9.993 24.117 6.423 6.418 15.016 9.945 24.104 9.945 17.996 0 32.842-14.008 33.987-31.756l.016-.533h-23.27v-3.488h26.83v1.718c0 10.03-3.899 19.48-10.978 26.57zm-35.528-40.907c0 2.974-2.441 5.382-5.406 5.382-2.966 0-5.392-2.408-5.392-5.382 0-2.99 2.426-5.404 5.392-5.404 2.964 0 5.406 2.413 5.406 5.404z"/></svg>