<?xml version="1.0" encoding="utf-8"?>
<!-- Generator: Adobe Illustrator 16.0.0, SVG Export Plug-In . SVG Version: 6.00 Build 0)  -->
<!DOCTYPE svg PUBLIC "-//W3C//DTD SVG 1.1//EN" "http://www.w3.org/Graphics/SVG/1.1/DTD/svg11.dtd">
<svg version="1.1" xmlns="http://www.w3.org/2000/svg" xmlns:xlink="http://www.w3.org/1999/xlink" x="0px" y="0px" width="300px"
	 height="300px" viewBox="0 0 300 300" style="enable-background:new 0 0 300 300;" xml:space="preserve">
<g id="Guides">
</g>
<g id="ABC">
</g>
<g id="Apple">
</g>
<g id="CBS">
</g>
<g id="CNN">
</g>
<g id="Coke">
</g>
<g id="Dropbox">
</g>
<g id="ESPN">
</g>
<g id="GE">
</g>
<g id="LG">
	<path d="M149.907,106.014c-24.804,0-44.902,20.105-44.902,44.918c0,24.769,20.099,44.91,44.902,44.91
		c24.806,0,44.915-20.142,44.915-44.909C194.821,126.119,174.713,106.014,149.907,106.014z M160.605,167.072v3.541h-12.508v-39.418
		h3.616v35.877H160.605z M176.493,177.496c-7.108,7.106-16.541,11.056-26.586,11.056c-10.066,0-19.485-3.949-26.599-11.056
		c-7.08-7.09-11-16.54-11-26.571c0-20.742,16.866-37.574,37.599-37.574c0.462,0,1.314,0,1.807,0.014l0.001,3.503
		c-0.446-0.009-1.403-0.029-1.807-0.029c-9.088,0-17.681,3.549-24.104,9.993c-6.431,6.43-9.993,14.992-9.993,24.091
		c0,9.106,3.562,17.686,9.993,24.117c6.423,6.418,15.016,9.945,24.104,9.945c17.996,0,32.842-14.008,33.987-31.756
		c0-0.078,0.016-0.462,0.016-0.533h-23.27v-3.488h26.83v1.718C187.471,160.956,183.572,170.406,176.493,177.496z M140.965,136.589
		c0,2.974-2.441,5.382-5.406,5.382c-2.966,0-5.392-2.408-5.392-5.382c0-2.99,2.426-5.404,5.392-5.404
		C138.523,131.185,140.965,133.598,140.965,136.589z"/>
</g>
<g id="Honda">
</g>
<g id="Hyundai">
</g>
<g id="IBM">
</g>
<g id="Intel">
</g>
<g id="John_Deere">
</g>
<g id="Jumpman">
</g>
<g id="Chase">
</g>
<g id="Girl_Scouts">
</g>
<g id="Mazda">
</g>
<g id="McDonalds">
</g>
<g id="Mercedes">
</g>
<g id="Motorola">
</g>
<g id="MTV">
</g>
<g id="NBC">
</g>
<g id="Nike">
</g>
<g id="PBS">
</g>
<g id="Pepsi">
</g>
<g id="Shell">
</g>
<g id="Starbucks">
</g>
<g id="Taco_Bell">
</g>
<g id="Target">
</g>
<g id="Toyota">
</g>
<g id="Twitter">
</g>
<g id="Univision">
</g>
<g id="UPS">
</g>
<g id="Quicksilver">
</g>
<g id="Volkswagen">
</g>
<g id="KFC">
</g>
<g id="Mitsubishi">
</g>
<g id="Rolex">
</g>
<g id="Puma">
</g>
</svg>
