<?xml version="1.0" encoding="utf-8"?>
<!-- Generator: Adobe Illustrator 16.0.0, SVG Export Plug-In . SVG Version: 6.00 Build 0)  -->
<!DOCTYPE svg PUBLIC "-//W3C//DTD SVG 1.1//EN" "http://www.w3.org/Graphics/SVG/1.1/DTD/svg11.dtd">
<svg version="1.1" xmlns="http://www.w3.org/2000/svg" xmlns:xlink="http://www.w3.org/1999/xlink" x="0px" y="0px" width="300px"
	 height="300px" viewBox="0 0 300 300" style="enable-background:new 0 0 300 300;" xml:space="preserve">
<g id="Guides">
</g>
<g id="ABC">
</g>
<g id="Apple">
</g>
<g id="CBS">
</g>
<g id="CNN">
</g>
<g id="Coke">
</g>
<g id="Dropbox">
</g>
<g id="ESPN">
</g>
<g id="GE">
</g>
<g id="LG">
</g>
<g id="Honda">
</g>
<g id="Hyundai">
</g>
<g id="IBM">
</g>
<g id="Intel">
</g>
<g id="John_Deere">
</g>
<g id="Jumpman">
</g>
<g id="Chase">
</g>
<g id="Girl_Scouts">
</g>
<g id="Mazda">
</g>
<g id="McDonalds">
</g>
<g id="Mercedes">
	<path d="M169.493,113.763C182.864,120.795,192,134.815,192,150.979c0,16.162-9.136,30.229-22.507,37.219v-4.806
		c5.114-3.062,9.438-7.342,12.587-12.408l-12.587-5.11v-7.775l13.81,10.791c2.885-5.329,4.502-11.402,4.502-17.913
		c0-13.716-7.343-25.771-18.312-32.41V113.763z M150.045,109.001c6.993,0,13.591,1.704,19.448,4.762v4.806
		c-5.378-3.235-11.67-5.154-18.312-5.374l4.808,34.377l13.505,10.528v7.776l-19.538-7.907l-19.405,7.95v-7.732l13.594-10.615
		l4.765-34.378c-6.732,0.219-12.98,2.14-18.358,5.373v-4.804C136.364,110.705,143.007,109.001,150.045,109.001z M169.493,188.197
		c-5.857,3.056-12.457,4.803-19.448,4.803c-7.037,0-13.68-1.747-19.492-4.76v-4.849c5.682,3.447,12.367,5.414,19.492,5.414
		c7.079,0,13.724-1.967,19.448-5.414V188.197z M130.553,188.24c-13.42-7.033-22.553-21.1-22.553-37.262
		c0-16.163,9.133-30.184,22.553-37.216v4.806c-11.015,6.639-18.357,18.651-18.357,32.41c0,6.508,1.661,12.67,4.547,17.997
		l13.811-10.789v7.732l-12.545,5.153c3.147,5.025,7.43,9.26,12.545,12.319V188.24z"/>
</g>
<g id="Motorola">
</g>
<g id="MTV">
</g>
<g id="NBC">
</g>
<g id="Nike">
</g>
<g id="PBS">
</g>
<g id="Pepsi">
</g>
<g id="Shell">
</g>
<g id="Starbucks">
</g>
<g id="Taco_Bell">
</g>
<g id="Target">
</g>
<g id="Toyota">
</g>
<g id="Twitter">
</g>
<g id="Univision">
</g>
<g id="UPS">
</g>
<g id="Quicksilver">
</g>
<g id="Volkswagen">
</g>
<g id="KFC">
</g>
<g id="Mitsubishi">
</g>
<g id="Rolex">
</g>
<g id="Puma">
</g>
</svg>
