<svg xmlns="http://www.w3.org/2000/svg" width="300" height="300" viewBox="0 0 300 300"><path d="M169.493 113.763c13.371 7.032 22.507 21.052 22.507 37.216 0 16.162-9.136 30.229-22.507 37.219v-4.806c5.114-3.062 9.438-7.342 12.587-12.408l-12.587-5.11v-7.775l13.81 10.791c2.885-5.329 4.502-11.402 4.502-17.913 0-13.716-7.343-25.771-18.312-32.41v-4.804zm-19.448-4.762c6.993 0 13.591 1.704 19.448 4.762v4.806c-5.378-3.235-11.67-5.154-18.312-5.374l4.808 34.377 13.505 10.528v7.776l-19.538-7.907-19.405 7.95v-7.732l13.594-10.615 4.765-34.378c-6.732.219-12.98 2.14-18.358 5.373v-4.804c5.812-3.058 12.455-4.762 19.493-4.762zm19.448 79.196c-5.857 3.056-12.457 4.803-19.448 4.803-7.037 0-13.68-1.747-19.492-4.76v-4.849c5.682 3.447 12.367 5.414 19.492 5.414 7.079 0 13.724-1.967 19.448-5.414v4.806zm-38.94.043c-13.42-7.033-22.553-21.1-22.553-37.262 0-16.163 9.133-30.184 22.553-37.216v4.806c-11.015 6.639-18.357 18.651-18.357 32.41 0 6.508 1.661 12.67 4.547 17.997l13.811-10.789v7.732l-12.545 5.153c3.147 5.025 7.43 9.26 12.545 12.319v4.85z"/></svg>