<svg xmlns="http://www.w3.org/2000/svg" width="300" height="300" viewBox="0 0 300 300"><path d="M149.993 105.522c24.891 0 44.484 20.053 44.484 44.476 0 24.57-19.92 44.479-44.484 44.479-24.561.002-44.471-19.909-44.471-44.476 0-24.571 19.911-44.479 44.471-44.479m-.099 53.803l-12.439-41.278-16.109 52.852h3.021s2.032-9.191 5.337-14.684c1.798-2.984 4.57-5.42 8.277-5.354 2.61.053 4.873 1.479 7.695 5.43 1.698 2.362 4.312 8.395 4.312 8.395s2.616-6.024 4.319-8.395c2.816-3.95 5.078-5.377 7.696-5.43 3.702-.066 6.48 2.369 8.272 5.359 3.306 5.481 5.336 14.678 5.336 14.678h3.03l-16.119-52.852-12.439 41.278-.089.073-.1-.072z"/></svg>