<?xml version="1.0" encoding="utf-8"?>
<!-- Generator: Adobe Illustrator 16.0.0, SVG Export Plug-In . SVG Version: 6.00 Build 0)  -->
<!DOCTYPE svg PUBLIC "-//W3C//DTD SVG 1.1//EN" "http://www.w3.org/Graphics/SVG/1.1/DTD/svg11.dtd">
<svg version="1.1" xmlns="http://www.w3.org/2000/svg" xmlns:xlink="http://www.w3.org/1999/xlink" x="0px" y="0px" width="300px"
	 height="300px" viewBox="0 0 300 300" style="enable-background:new 0 0 300 300;" xml:space="preserve">
<g id="Guides">
</g>
<g id="ABC">
</g>
<g id="Apple">
</g>
<g id="CBS">
</g>
<g id="CNN">
</g>
<g id="Coke">
</g>
<g id="Dropbox">
</g>
<g id="ESPN">
</g>
<g id="GE">
</g>
<g id="LG">
</g>
<g id="Honda">
</g>
<g id="Hyundai">
</g>
<g id="IBM">
</g>
<g id="Intel">
</g>
<g id="John_Deere">
</g>
<g id="Jumpman">
</g>
<g id="Chase">
</g>
<g id="Girl_Scouts">
</g>
<g id="Mazda">
</g>
<g id="McDonalds">
</g>
<g id="Mercedes">
</g>
<g id="Motorola">
	<path id="path7" d="M149.993,105.522c24.891,0,44.484,20.053,44.484,44.476c0,24.57-19.92,44.479-44.484,44.479
		c-24.561,0.002-44.471-19.909-44.471-44.476C105.522,125.43,125.433,105.522,149.993,105.522 M149.894,159.325l-12.439-41.278
		l-16.109,52.852h3.021c0,0,2.032-9.191,5.337-14.684c1.798-2.984,4.57-5.42,8.277-5.354c2.61,0.053,4.873,1.479,7.695,5.43
		c1.698,2.362,4.312,8.395,4.312,8.395s2.616-6.024,4.319-8.395c2.816-3.95,5.078-5.377,7.696-5.43
		c3.702-0.066,6.48,2.369,8.272,5.359c3.306,5.481,5.336,14.678,5.336,14.678h3.03l-16.119-52.852l-12.439,41.278l-0.089,0.073
		L149.894,159.325z"/>
</g>
<g id="MTV">
</g>
<g id="NBC">
</g>
<g id="Nike">
</g>
<g id="PBS">
</g>
<g id="Pepsi">
</g>
<g id="Shell">
</g>
<g id="Starbucks">
</g>
<g id="Taco_Bell">
</g>
<g id="Target">
</g>
<g id="Toyota">
</g>
<g id="Twitter">
</g>
<g id="Univision">
</g>
<g id="UPS">
</g>
<g id="Quicksilver">
</g>
<g id="Volkswagen">
</g>
<g id="KFC">
</g>
<g id="Mitsubishi">
</g>
<g id="Rolex">
</g>
<g id="Puma">
</g>
</svg>
