<?xml version="1.0" encoding="utf-8"?>
<!-- Generator: Adobe Illustrator 16.0.0, SVG Export Plug-In . SVG Version: 6.00 Build 0)  -->
<!DOCTYPE svg PUBLIC "-//W3C//DTD SVG 1.1//EN" "http://www.w3.org/Graphics/SVG/1.1/DTD/svg11.dtd">
<svg version="1.1" xmlns="http://www.w3.org/2000/svg" xmlns:xlink="http://www.w3.org/1999/xlink" x="0px" y="0px" width="300px"
	 height="300px" viewBox="0 0 300 300" style="enable-background:new 0 0 300 300;" xml:space="preserve">
<g id="Guides">
</g>
<g id="ABC">
</g>
<g id="Apple">
</g>
<g id="CBS">
</g>
<g id="CNN">
</g>
<g id="Coke">
</g>
<g id="Dropbox">
</g>
<g id="ESPN">
</g>
<g id="GE">
</g>
<g id="LG">
</g>
<g id="Honda">
</g>
<g id="Hyundai">
</g>
<g id="IBM">
</g>
<g id="Intel">
</g>
<g id="John_Deere">
</g>
<g id="Jumpman">
</g>
<g id="Chase">
</g>
<g id="Girl_Scouts">
</g>
<g id="Mazda">
</g>
<g id="McDonalds">
</g>
<g id="Mercedes">
</g>
<g id="Motorola">
</g>
<g id="MTV">
</g>
<g id="NBC">
	<path d="M104.195,135.72c-5.02,4.533-6.848,14.805,2.202,20.81l36.1,24.706l-17.504-40.004
		C121.325,131.793,111.292,129.733,104.195,135.72"/>
	<path d="M135.27,116.27c-5.868,0.119-14.68,7.09-10.758,17.735l18.104,42.592l6.36-44.799
		C150.448,120.667,142.005,115.527,135.27,116.27"/>
	<path d="M151.801,130.089h3.424c0,0,1.828,0,2.076,0.86c-1.347,1.098-5.014,1.235-4.527,7.098l5.755,38.544l17.979-42.704
		c3.679-9.535-4.042-17.498-10.889-17.742c-0.32-0.023-0.641-0.041-0.973-0.041C158.5,116.104,151.457,120.56,151.801,130.089"/>
	<path d="M175.785,141.595l-17.006,39.524l36.088-24.838c8.319-5.887,6.978-15.297,2.32-19.949
		c-1.952-2.189-5.536-3.881-9.332-3.881C183.368,132.45,178.568,134.824,175.785,141.595"/>
	<path d="M190.827,161.905l-33.893,23.616h41.73c8.562,0,14.063-8.807,11.618-16.888c-1.638-5.079-6.485-9.066-12.11-9.072
		C195.805,159.562,193.295,160.273,190.827,161.905"/>
	<path d="M103.223,185.521h41.114l-33.899-23.616c-7.832-5.021-16.638-2.083-19.817,6.247
		C87.925,177.689,94.654,185.521,103.223,185.521"/>
</g>
<g id="Nike">
</g>
<g id="PBS">
</g>
<g id="Pepsi">
</g>
<g id="Shell">
</g>
<g id="Starbucks">
</g>
<g id="Taco_Bell">
</g>
<g id="Target">
</g>
<g id="Toyota">
</g>
<g id="Twitter">
</g>
<g id="Univision">
</g>
<g id="UPS">
</g>
<g id="Quicksilver">
</g>
<g id="Volkswagen">
</g>
<g id="KFC">
</g>
<g id="Mitsubishi">
</g>
<g id="Rolex">
</g>
<g id="Puma">
</g>
</svg>
