<?xml version="1.0" encoding="utf-8"?>
<!-- Generator: Adobe Illustrator 16.0.0, SVG Export Plug-In . SVG Version: 6.00 Build 0)  -->
<!DOCTYPE svg PUBLIC "-//W3C//DTD SVG 1.1//EN" "http://www.w3.org/Graphics/SVG/1.1/DTD/svg11.dtd">
<svg version="1.1" xmlns="http://www.w3.org/2000/svg" xmlns:xlink="http://www.w3.org/1999/xlink" x="0px" y="0px" width="300px"
	 height="300px" viewBox="0 0 300 300" style="enable-background:new 0 0 300 300;" xml:space="preserve">
<g id="Guides">
</g>
<g id="ABC">
</g>
<g id="Apple">
</g>
<g id="CBS">
</g>
<g id="CNN">
</g>
<g id="Coke">
</g>
<g id="Dropbox">
</g>
<g id="ESPN">
</g>
<g id="GE">
</g>
<g id="LG">
</g>
<g id="Honda">
</g>
<g id="Hyundai">
</g>
<g id="IBM">
</g>
<g id="Intel">
</g>
<g id="John_Deere">
</g>
<g id="Jumpman">
</g>
<g id="Chase">
</g>
<g id="Girl_Scouts">
</g>
<g id="Mazda">
</g>
<g id="McDonalds">
</g>
<g id="Mercedes">
</g>
<g id="Motorola">
</g>
<g id="MTV">
</g>
<g id="NBC">
</g>
<g id="Nike">
</g>
<g id="PBS">
</g>
<g id="Pepsi">
</g>
<g id="Shell">
</g>
<g id="Starbucks">
</g>
<g id="Taco_Bell">
</g>
<g id="Target">
</g>
<g id="Toyota">
</g>
<g id="Twitter">
</g>
<g id="Univision">
</g>
<g id="UPS">
</g>
<g id="Quicksilver">
</g>
<g id="Volkswagen">
</g>
<g id="KFC">
</g>
<g id="Mitsubishi">
</g>
<g id="Rolex">
</g>
<g id="Puma">
	<path id="path100" d="M103.23,107.308c-0.734,0.107-1.442,2.815-2.863,4.228
		c-1.037,1.017-2.337,0.955-3.023,2.213c-0.264,0.469-0.178,1.272-0.474,2.041c-0.582,1.541-2.623,1.679-2.623,3.357
		c-0.007,1.813,1.701,2.158,3.184,3.448c1.156,1.033,1.268,1.747,2.667,2.251c1.197,0.404,2.975-0.922,4.575-0.444
		c1.312,0.39,2.571,0.671,2.869,2.021c0.263,1.247-0.02,3.173-1.612,2.951c-0.537-0.062-2.869-0.845-5.728-0.54
		c-3.455,0.394-7.394,1.52-7.78,5.371c-0.213,2.148,2.45,4.687,5.021,4.171c1.775-0.347,0.937-2.444,1.901-3.461
		c1.271-1.306,8.461,4.552,15.142,4.552c2.813,0,4.906-0.712,6.985-2.889c0.192-0.167,0.431-0.521,0.73-0.545
		c0.283,0.023,0.777,0.303,0.94,0.421c5.38,4.324,9.449,13.003,29.229,13.103c2.784,0.017,5.95,1.346,8.539,3.705
		c2.309,2.133,3.656,5.456,4.969,8.822c1.981,5.055,5.525,9.971,10.906,15.439c0.293,0.293,4.721,3.735,5.076,3.992
		c0.055,0.039,0.381,0.814,0.268,1.248c-0.131,3.281-0.608,12.818,6.503,13.251c1.737,0.088,1.283-1.134,1.283-1.974
		c-0.004-1.662-0.307-3.313,0.568-5.016c1.196-2.339-2.54-3.414-2.431-8.473c0.077-3.771-3.092-3.129-4.697-6.002
		c-0.926-1.665-1.749-2.547-1.69-4.582c0.362-11.457-2.438-18.986-3.832-20.836c-1.092-1.395-1.991-1.948-0.996-2.594
		c5.935-3.923,7.28-7.566,7.28-7.566c3.157-7.418,5.994-14.193,9.908-17.178c0.786-0.616,2.809-2.125,4.048-2.717
		c3.653-1.721,5.574-2.767,6.636-3.798c1.677-1.634,3.005-5.046,1.395-7.112c-2-2.553-5.46-0.527-6.984,0.379
		c-10.91,6.474-12.519,17.895-16.298,24.454c-3.015,5.24-7.917,9.091-12.301,9.405c-3.282,0.243-6.827-0.422-10.353-1.971
		c-8.577-3.76-13.268-8.614-14.38-9.473c-2.303-1.778-20.189-19.34-34.686-20.057c0,0-1.799-3.604-2.251-3.66
		c-1.06-0.138-2.145,2.148-2.922,2.416C105.197,109.903,103.969,107.186,103.23,107.308"/>
</g>
</svg>
