<svg xmlns="http://www.w3.org/2000/svg" width="300" height="300" viewBox="0 0 300 300"><g><path d="M97.281 182.346c-3.818 0-6.535-3.222-6.561-6.301v-25.113c4.804.01 9.086-2.325 10.65-3.447 9.931-7.141 18.188-21.055 28.773-25.571 3.101-1.332 9.11-3.497 16.71-1.498l9.082 9.095s-4.743-2.254-11.775-2.254c-7.877 0-23.13 6.54-23.13 23.637 0 13.801 9.438 23.471 24.917 23.471h54.8l7.955 7.982h-111.421"/><path d="M170.376 152.543h-6.021l-4.586 4.352c-.629.802-1.688.802-1.665-.385v-7.49c0-.99-.897-1.164-1.816-.242l-4.434 3.764h-6.264c-.767.02-1.07-.635-.499-1.212 0 0 11.114-10.56 11.381-10.83.77-.769 2.435-.772 3.204 0l10.878 10.77c.638.636.298 1.261-.178 1.273zm-7.363-15.925c-2.39-2.739-7.289-2.741-10.029 0-1.12 1.115-24.069 24.665-24.069 24.665 2.326 5.424 10.077 8.205 15.864 8.205h51.067l-32.833-32.87"/></g></svg>