<?xml version="1.0" encoding="utf-8"?>
<!-- Generator: Adobe Illustrator 16.0.0, SVG Export Plug-In . SVG Version: 6.00 Build 0)  -->
<!DOCTYPE svg PUBLIC "-//W3C//DTD SVG 1.1//EN" "http://www.w3.org/Graphics/SVG/1.1/DTD/svg11.dtd">
<svg version="1.1" xmlns="http://www.w3.org/2000/svg" xmlns:xlink="http://www.w3.org/1999/xlink" x="0px" y="0px" width="300px"
	 height="300px" viewBox="0 0 300 300" style="enable-background:new 0 0 300 300;" xml:space="preserve">
<g id="Guides">
</g>
<g id="ABC">
</g>
<g id="Apple">
</g>
<g id="CBS">
</g>
<g id="CNN">
</g>
<g id="Coke">
</g>
<g id="Dropbox">
</g>
<g id="ESPN">
</g>
<g id="GE">
</g>
<g id="LG">
</g>
<g id="Honda">
</g>
<g id="Hyundai">
</g>
<g id="IBM">
</g>
<g id="Intel">
</g>
<g id="John_Deere">
</g>
<g id="Jumpman">
</g>
<g id="Chase">
</g>
<g id="Girl_Scouts">
</g>
<g id="Mazda">
</g>
<g id="McDonalds">
</g>
<g id="Mercedes">
</g>
<g id="Motorola">
</g>
<g id="MTV">
</g>
<g id="NBC">
</g>
<g id="Nike">
</g>
<g id="PBS">
</g>
<g id="Pepsi">
</g>
<g id="Shell">
</g>
<g id="Starbucks">
</g>
<g id="Taco_Bell">
</g>
<g id="Target">
</g>
<g id="Toyota">
</g>
<g id="Twitter">
</g>
<g id="Univision">
</g>
<g id="UPS">
</g>
<g id="Quicksilver">
	<path id="path2462" d="M97.281,182.346c-3.818,0-6.535-3.222-6.561-6.301v-25.113c4.804,0.01,9.086-2.325,10.65-3.447
		c9.931-7.141,18.188-21.055,28.773-25.571c3.101-1.332,9.11-3.497,16.71-1.498l9.082,9.095c0,0-4.743-2.254-11.775-2.254
		c-7.877,0-23.13,6.54-23.13,23.637c0,13.801,9.438,23.471,24.917,23.471h54.8l7.955,7.982H97.281"/>
	<path id="path2464" d="M170.376,152.543h-6.021l-4.586,4.352c-0.629,0.802-1.688,0.802-1.665-0.385v-7.49
		c0-0.99-0.897-1.164-1.816-0.242l-4.434,3.764h-6.264c-0.767,0.02-1.07-0.635-0.499-1.212c0,0,11.114-10.56,11.381-10.83
		c0.77-0.769,2.435-0.772,3.204,0l10.878,10.77C171.192,151.906,170.852,152.531,170.376,152.543z M163.013,136.618
		c-2.39-2.739-7.289-2.741-10.029,0c-1.12,1.115-24.069,24.665-24.069,24.665c2.326,5.424,10.077,8.205,15.864,8.205h51.067
		L163.013,136.618"/>
</g>
<g id="Volkswagen">
</g>
<g id="KFC">
</g>
<g id="Mitsubishi">
</g>
<g id="Rolex">
</g>
<g id="Puma">
</g>
</svg>
