<?xml version="1.0" encoding="utf-8"?>
<!-- Generator: Adobe Illustrator 16.0.0, SVG Export Plug-In . SVG Version: 6.00 Build 0)  -->
<!DOCTYPE svg PUBLIC "-//W3C//DTD SVG 1.1//EN" "http://www.w3.org/Graphics/SVG/1.1/DTD/svg11.dtd">
<svg version="1.1" xmlns="http://www.w3.org/2000/svg" xmlns:xlink="http://www.w3.org/1999/xlink" x="0px" y="0px" width="300px"
	 height="300px" viewBox="0 0 300 300" style="enable-background:new 0 0 300 300;" xml:space="preserve">
<g id="Guides">
</g>
<g id="ABC">
</g>
<g id="Apple">
</g>
<g id="CBS">
</g>
<g id="CNN">
</g>
<g id="Coke">
</g>
<g id="Dropbox">
</g>
<g id="ESPN">
</g>
<g id="GE">
</g>
<g id="LG">
</g>
<g id="Honda">
</g>
<g id="Hyundai">
</g>
<g id="IBM">
</g>
<g id="Intel">
</g>
<g id="John_Deere">
</g>
<g id="Jumpman">
</g>
<g id="Chase">
</g>
<g id="Girl_Scouts">
</g>
<g id="Mazda">
</g>
<g id="McDonalds">
</g>
<g id="Mercedes">
</g>
<g id="Motorola">
</g>
<g id="MTV">
</g>
<g id="NBC">
</g>
<g id="Nike">
</g>
<g id="PBS">
</g>
<g id="Pepsi">
</g>
<g id="Shell">
</g>
<g id="Starbucks">
</g>
<g id="Taco_Bell">
</g>
<g id="Target">
</g>
<g id="Toyota">
</g>
<g id="Twitter">
</g>
<g id="Univision">
</g>
<g id="UPS">
</g>
<g id="Quicksilver">
</g>
<g id="Volkswagen">
</g>
<g id="KFC">
</g>
<g id="Mitsubishi">
</g>
<g id="Rolex">
	<path d="M114.005,134.892c0.438,0,0.883-0.071,1.295-0.168l14.852,50.467h0.013c1.649,5.632,9.851,9.91,19.721,9.91
		c9.877,0,18.061-4.277,19.729-9.91h0.007l14.838-50.435c0.348,0.072,0.733,0.137,1.134,0.137c2.887,0,5.219-2.333,5.219-5.231
		c0-2.868-2.326-5.214-5.219-5.214c-2.873,0-5.219,2.34-5.219,5.214c0,2.094,1.212,3.872,2.977,4.709l-17.203,36.872l2.758-49.682
		c0.039,0,0.078,0,0.116,0c2.874,0,5.226-2.332,5.226-5.212s-2.345-5.231-5.226-5.231c-2.868,0-5.226,2.352-5.226,5.231
		c0,2.377,1.604,4.368,3.769,5.005l-11.437,48.555l-5.521-53.514c2.538-0.374,4.472-2.545,4.472-5.175
		c0-2.874-2.326-5.219-5.213-5.219c-2.893,0-5.227,2.34-5.227,5.219c0,2.63,1.959,4.82,4.491,5.175l-5.502,53.41l-11.423-48.457
		c2.197-0.617,3.82-2.617,3.82-5.006c0-2.879-2.344-5.23-5.219-5.23c-2.893,0-5.231,2.352-5.231,5.23
		c0,2.874,2.339,5.213,5.231,5.213c0.026,0,0.039,0,0.072,0l2.764,49.653l-17.241-36.911c1.688-0.869,2.828-2.616,2.828-4.652
		c0-2.865-2.325-5.212-5.227-5.212c-2.879,0-5.212,2.339-5.212,5.212C108.791,132.558,111.118,134.892,114.005,134.892z
		 M149.788,180.938c9.032,0,16.345,2.312,16.345,5.147c0,2.848-7.312,5.142-16.345,5.142s-16.354-2.287-16.354-5.142
		C133.437,183.25,140.756,180.938,149.788,180.938z"/>
</g>
<g id="Puma">
</g>
</svg>
