<svg xmlns="http://www.w3.org/2000/svg" width="300" height="300" viewBox="0 0 300 300"><path d="M114.005 134.892c.438 0 .883-.071 1.295-.168l14.852 50.467h.013c1.649 5.632 9.851 9.91 19.721 9.91 9.877 0 18.061-4.277 19.729-9.91h.007l14.838-50.435c.348.072.733.137 1.134.137 2.887 0 5.219-2.333 5.219-5.231 0-2.868-2.326-5.214-5.219-5.214-2.873 0-5.219 2.34-5.219 5.214 0 2.094 1.212 3.872 2.977 4.709l-17.203 36.872 2.758-49.682h.116c2.874 0 5.226-2.332 5.226-5.212s-2.345-5.231-5.226-5.231c-2.868 0-5.226 2.352-5.226 5.231 0 2.377 1.604 4.368 3.769 5.005l-11.437 48.555-5.521-53.514c2.538-.374 4.472-2.545 4.472-5.175 0-2.874-2.326-5.219-5.213-5.219-2.893 0-5.227 2.34-5.227 5.219 0 2.63 1.959 4.82 4.491 5.175l-5.502 53.41-11.423-48.457c2.197-.617 3.82-2.617 3.82-5.006 0-2.879-2.344-5.23-5.219-5.23-2.893 0-5.231 2.352-5.231 5.23 0 2.874 2.339 5.213 5.231 5.213h.072l2.764 49.653-17.241-36.911c1.688-.869 2.828-2.616 2.828-4.652 0-2.865-2.325-5.212-5.227-5.212-2.879 0-5.212 2.339-5.212 5.212 0 2.913 2.327 5.247 5.214 5.247zm35.783 46.046c9.032 0 16.345 2.312 16.345 5.147 0 2.848-7.312 5.142-16.345 5.142s-16.354-2.287-16.354-5.142c.003-2.835 7.322-5.147 16.354-5.147z"/></svg>