<svg xmlns="http://www.w3.org/2000/svg" width="300" height="300" viewBox="0 0 300 300"><path d="M150.27 106.442c-29.257 0-52.348 27.627-45.959 56.606 1.082 1.082 14.39 10.463 14.39 10.463l2.104 17.755s21.606-.06 24.371.061c0 0 1.729 2.193 5.093 2.193 3.365 0 5.095-2.193 5.095-2.193 2.764-.12 24.371-.061 24.371-.061l2.103-17.755s13.309-9.381 14.391-10.463c6.386-28.979-16.703-56.606-45.959-56.606zm38.244 52.272l-14.191 10.248-1.775 14.001h-17.398s-2.848 2.697-4.866 2.697c-2.021 0-4.866-2.697-4.866-2.697h-17.399l-1.776-14.001-14.191-10.248c-2.13-8.427 1.136-13.401 1.136-13.401l25.124 25.526-24.421-29.893c-.754-1.01 3.97-9.704 6.13-10.507l21.908 37.987-19.495-41.555c.48-1.605 6.945-7.024 10.15-6.984l13.365 46.831-9.799-48.841c3.367-2.513 9.647-3.115 12.11-2.613l2.041 51.254 2.007-51.254c2.461-.502 8.742.101 12.109 2.613l-9.798 48.841 13.364-46.831c3.205-.04 9.67 5.379 10.15 6.984l-19.495 41.555 21.908-37.987c2.161.803 6.884 9.497 6.13 10.507l-24.421 29.893 25.124-25.526c-.001-.001 3.265 4.974 1.135 13.401z"/></svg>