<?xml version="1.0" encoding="utf-8"?>
<!-- Generator: Adobe Illustrator 16.0.0, SVG Export Plug-In . SVG Version: 6.00 Build 0)  -->
<!DOCTYPE svg PUBLIC "-//W3C//DTD SVG 1.1//EN" "http://www.w3.org/Graphics/SVG/1.1/DTD/svg11.dtd">
<svg version="1.1" xmlns="http://www.w3.org/2000/svg" xmlns:xlink="http://www.w3.org/1999/xlink" x="0px" y="0px" width="300px"
	 height="300px" viewBox="0 0 300 300" style="enable-background:new 0 0 300 300;" xml:space="preserve">
<g id="Guides">
</g>
<g id="ABC">
</g>
<g id="Apple">
</g>
<g id="CBS">
</g>
<g id="CNN">
</g>
<g id="Coke">
</g>
<g id="Dropbox">
</g>
<g id="ESPN">
</g>
<g id="GE">
</g>
<g id="LG">
</g>
<g id="Honda">
</g>
<g id="Hyundai">
</g>
<g id="IBM">
</g>
<g id="Intel">
</g>
<g id="John_Deere">
</g>
<g id="Jumpman">
</g>
<g id="Chase">
</g>
<g id="Girl_Scouts">
</g>
<g id="Mazda">
</g>
<g id="McDonalds">
</g>
<g id="Mercedes">
</g>
<g id="Motorola">
</g>
<g id="MTV">
</g>
<g id="NBC">
</g>
<g id="Nike">
</g>
<g id="PBS">
</g>
<g id="Pepsi">
</g>
<g id="Shell">
	<path d="M150.27,106.442c-29.257,0-52.348,27.627-45.959,56.606c1.082,1.082,14.39,10.463,14.39,10.463l2.104,17.755
		c0,0,21.606-0.06,24.371,0.061c0,0,1.729,2.193,5.093,2.193c3.365,0,5.095-2.193,5.095-2.193c2.764-0.12,24.371-0.061,24.371-0.061
		l2.103-17.755c0,0,13.309-9.381,14.391-10.463C202.615,134.069,179.526,106.442,150.27,106.442z M188.514,158.714l-14.191,10.248
		l-1.775,14.001h-17.398c0,0-2.848,2.697-4.866,2.697c-2.021,0-4.866-2.697-4.866-2.697h-17.399l-1.776-14.001l-14.191-10.248
		c-2.13-8.427,1.136-13.401,1.136-13.401l25.124,25.526l-24.421-29.893c-0.754-1.01,3.97-9.704,6.13-10.507l21.908,37.987
		l-19.495-41.555c0.48-1.605,6.945-7.024,10.15-6.984l13.365,46.831l-9.799-48.841c3.367-2.513,9.647-3.115,12.11-2.613
		l2.041,51.254l2.007-51.254c2.461-0.502,8.742,0.101,12.109,2.613l-9.798,48.841l13.364-46.831c3.205-0.04,9.67,5.379,10.15,6.984
		l-19.495,41.555l21.908-37.987c2.161,0.803,6.884,9.497,6.13,10.507l-24.421,29.893l25.124-25.526
		C187.378,145.312,190.644,150.287,188.514,158.714L188.514,158.714z"/>
</g>
<g id="Starbucks">
</g>
<g id="Taco_Bell">
</g>
<g id="Target">
</g>
<g id="Toyota">
</g>
<g id="Twitter">
</g>
<g id="Univision">
</g>
<g id="UPS">
</g>
<g id="Quicksilver">
</g>
<g id="Volkswagen">
</g>
<g id="KFC">
</g>
<g id="Mitsubishi">
</g>
<g id="Rolex">
</g>
<g id="Puma">
</g>
</svg>
