<svg xmlns="http://www.w3.org/2000/svg" width="300" height="300" viewBox="0 0 300 300"><g><path d="M189.329 161.635c-9.529 9.809-23.591 18.734-29.728 21.895-2.742 1.394-5.508 2.627-8.274 3.719h38.002v-25.614zM188.252 140.045c-7.391-.906-10.343-3.858-10.343-3.858-9.763-10.249-16.897-18.64-26.055-21.011-3.393-.859-7.299-.767-10.97-.187-1.302-1.649-3.858-3.998-7.414-4.438 3.347-.675 6.832-1.046 10.412-1.046 21.454 0 39.42 13.015 44.37 30.54M113.832 170.27c1.092-3.742.093-9.111.093-9.111-.187-2.975-6.322-25.032 7.53-36.863 0 0-1.953-7.158 3.742-11.342-16.061 6.252-27.193 20.406-27.193 36.862v37.305h8.646c-.419-2.302.674-5.346 3.044-8.763 0-.001 3.068-4.347 4.138-8.088M129.623 166.274c-5.974 5.926-9.251 11.97-7.577 15.456 2.929 6.089 19.802 3.765 36.723-4.37 16.897-8.112 30.052-20.338 26.961-26.334-3.277-6.345-20.012-3.951-36.654 4.462l-.557.188c7.415-4.673 20.29-11.041 33.516-12.97 0 0 11.343-1.767 13.573 3.556 3.091 7.205-12.342 21.547-36.096 32.981-23.754 11.412-44.045 14.363-47.438 7.298-2.627-5.485 6.555-18.548 20.313-27.589 0 0 18.85-13.736 42.882-17.152l-.162.115s-26.403 5.464-45.484 24.359"/><path d="M182.184 152.707c-2.162-4.463-16.572-1.952-32.214 5.602-15.643 7.554-26.59 17.246-24.428 21.708 2.138 4.463 16.571 1.953 32.214-5.577 15.619-7.555 26.589-17.271 24.428-21.733zm-42.475 24.308c-4.788.349-7.693-1.673-9.855-3.904l.046-.023s1.302-1.162 1.859-1.581c5.323 5.903 12.784 2.093 12.784 2.093-7.623 1.255-8.089-5.439-8.089-5.439 3.673-2.37 8.74-5.02 14.736-6.717.581 1.464.65 2.255.743 3.858.326 6.413-5.369 11.178-12.224 11.713zM123.094 157.195s.42 2.185.675 4.463c-4.509 4.021-6.74 8.995-6.74 8.995 1.441-3.65-.116-10.482-.116-10.482-1.023-6.393-6.392-24.289 6.159-35.771-.906-3.208-.465-5.113.257-7.182.812-1.859 2.695-3.928 4.484-4.695 0 0-5.321 2.674-2.301 9.879 3.463-2.488 7.229-4.185 11.946-5.532l-.278.209c-17.99 6.856-19.57 16.921-14.899 35.84.418 1.696.651 3.161.813 4.276"/></g></svg>