<?xml version="1.0" encoding="utf-8"?>
<!-- Generator: Adobe Illustrator 16.0.0, SVG Export Plug-In . SVG Version: 6.00 Build 0)  -->
<!DOCTYPE svg PUBLIC "-//W3C//DTD SVG 1.1//EN" "http://www.w3.org/Graphics/SVG/1.1/DTD/svg11.dtd">
<svg version="1.1" xmlns="http://www.w3.org/2000/svg" xmlns:xlink="http://www.w3.org/1999/xlink" x="0px" y="0px" width="300px"
	 height="300px" viewBox="0 0 300 300" style="enable-background:new 0 0 300 300;" xml:space="preserve">
<g id="Guides">
</g>
<g id="ABC">
</g>
<g id="Apple">
</g>
<g id="CBS">
</g>
<g id="CNN">
</g>
<g id="Coke">
</g>
<g id="Dropbox">
</g>
<g id="ESPN">
</g>
<g id="GE">
</g>
<g id="LG">
</g>
<g id="Honda">
</g>
<g id="Hyundai">
</g>
<g id="IBM">
</g>
<g id="Intel">
</g>
<g id="John_Deere">
</g>
<g id="Jumpman">
</g>
<g id="Chase">
</g>
<g id="Girl_Scouts">
</g>
<g id="Mazda">
</g>
<g id="McDonalds">
</g>
<g id="Mercedes">
</g>
<g id="Motorola">
</g>
<g id="MTV">
</g>
<g id="NBC">
</g>
<g id="Nike">
</g>
<g id="PBS">
</g>
<g id="Pepsi">
</g>
<g id="Shell">
</g>
<g id="Starbucks">
</g>
<g id="Taco_Bell">
</g>
<g id="Target">
</g>
<g id="Toyota">
	<path d="M146.718,183.028c-5.897-3.694-10.241-16.441-10.241-31.581l0.016-1.65l0.007,0.004
		c-16.398-2.574-28.251-9.639-28.555-17.988l-0.045,0.095c-4.016,4.985-6.307,10.753-6.307,16.896
		c0,18.08,19.848,32.892,45.019,34.203L146.718,183.028z M94.01,150.123c0-20.229,25.175-36.631,56.232-36.631
		c31.055,0,56.23,16.402,56.23,36.631c0,20.23-25.175,36.631-56.23,36.631C119.185,186.754,94.01,170.354,94.01,150.123z
		 M150.244,118.777c5.994,0,11.091,9.091,12.983,21.781l0.007-0.018c11.664-1.814,19.832-6.006,19.832-10.877
		c0-6.546-14.696-11.84-32.822-11.84c-18.128,0-32.824,5.301-32.824,11.84c0,4.874,8.166,9.061,19.83,10.88l0.007,0.017
		C139.148,127.874,144.25,118.777,150.244,118.777z M153.873,183.007c25.173-1.312,45.021-16.123,45.021-34.203
		c0-6.144-2.293-11.911-6.307-16.896l-0.047-0.101c-0.301,8.352-12.152,15.416-28.553,17.99l0.007-0.005l0.016,1.649
		c0,15.142-4.347,27.891-10.241,31.584L153.873,183.007z M150.244,141.505c2.686,0,5.296-0.116,7.793-0.339l-0.002,0.006
		c-1.244-8.137-4.263-13.876-7.791-13.876c-3.531,0-6.547,5.739-7.793,13.876l-0.002-0.006
		C144.945,141.389,147.554,141.505,150.244,141.505z M150.244,171.625c4.512,0,8.192-9.391,8.39-21.171l0.025,0.005
		c-2.722,0.251-5.537,0.385-8.415,0.385c-2.883,0-5.697-0.132-8.415-0.385l0.025-0.005
		C142.047,162.234,145.728,171.625,150.244,171.625z"/>
</g>
<g id="Twitter">
</g>
<g id="Univision">
</g>
<g id="UPS">
</g>
<g id="Quicksilver">
</g>
<g id="Volkswagen">
</g>
<g id="KFC">
</g>
<g id="Mitsubishi">
</g>
<g id="Rolex">
</g>
<g id="Puma">
</g>
</svg>
