<?xml version="1.0" encoding="utf-8"?>
<!-- Generator: Adobe Illustrator 16.0.0, SVG Export Plug-In . SVG Version: 6.00 Build 0)  -->
<!DOCTYPE svg PUBLIC "-//W3C//DTD SVG 1.1//EN" "http://www.w3.org/Graphics/SVG/1.1/DTD/svg11.dtd">
<svg version="1.1" xmlns="http://www.w3.org/2000/svg" xmlns:xlink="http://www.w3.org/1999/xlink" x="0px" y="0px" width="300px"
	 height="300px" viewBox="0 0 300 300" style="enable-background:new 0 0 300 300;" xml:space="preserve">
<g id="Guides">
</g>
<g id="ABC">
</g>
<g id="Apple">
</g>
<g id="CBS">
</g>
<g id="CNN">
</g>
<g id="Coke">
</g>
<g id="Dropbox">
</g>
<g id="ESPN">
</g>
<g id="GE">
</g>
<g id="LG">
</g>
<g id="Honda">
</g>
<g id="Hyundai">
</g>
<g id="IBM">
</g>
<g id="Intel">
</g>
<g id="John_Deere">
</g>
<g id="Jumpman">
</g>
<g id="Chase">
</g>
<g id="Girl_Scouts">
</g>
<g id="Mazda">
</g>
<g id="McDonalds">
</g>
<g id="Mercedes">
</g>
<g id="Motorola">
</g>
<g id="MTV">
</g>
<g id="NBC">
</g>
<g id="Nike">
</g>
<g id="PBS">
</g>
<g id="Pepsi">
</g>
<g id="Shell">
</g>
<g id="Starbucks">
</g>
<g id="Taco_Bell">
</g>
<g id="Target">
</g>
<g id="Toyota">
</g>
<g id="Twitter">
	<path d="M195.59,121.258c-3.373,1.495-6.999,2.506-10.803,2.961c3.885-2.326,6.867-6.013,8.27-10.405
		c-3.635,2.155-7.659,3.72-11.943,4.564c-3.431-3.656-8.318-5.94-13.729-5.94c-10.387,0-18.809,8.422-18.809,18.809
		c0,1.474,0.167,2.909,0.487,4.287c-15.631-0.785-29.49-8.273-38.767-19.652c-1.619,2.777-2.548,6.009-2.548,9.455
		c0,6.525,3.321,12.282,8.367,15.654c-3.083-0.098-5.982-0.943-8.52-2.353l-0.002,0.237c0,9.112,6.483,16.715,15.088,18.443
		c-1.577,0.43-3.239,0.659-4.955,0.659c-1.213,0-2.391-0.118-3.539-0.338c2.395,7.472,9.34,12.909,17.57,13.062
		c-6.438,5.045-14.546,8.051-23.358,8.051c-1.518,0-3.016-0.088-4.487-0.262c8.323,5.336,18.211,8.451,28.833,8.451
		c34.594,0,53.513-28.66,53.513-53.515c0-0.815-0.017-1.626-0.054-2.434C189.881,128.342,193.067,125.029,195.59,121.258
		L195.59,121.258z"/>
</g>
<g id="Univision">
</g>
<g id="UPS">
</g>
<g id="Quicksilver">
</g>
<g id="Volkswagen">
</g>
<g id="KFC">
</g>
<g id="Mitsubishi">
</g>
<g id="Rolex">
</g>
<g id="Puma">
</g>
</svg>
