<?xml version="1.0" encoding="utf-8"?>
<!-- Generator: Adobe Illustrator 16.0.0, SVG Export Plug-In . SVG Version: 6.00 Build 0)  -->
<!DOCTYPE svg PUBLIC "-//W3C//DTD SVG 1.1//EN" "http://www.w3.org/Graphics/SVG/1.1/DTD/svg11.dtd">
<svg version="1.1" xmlns="http://www.w3.org/2000/svg" xmlns:xlink="http://www.w3.org/1999/xlink" x="0px" y="0px" width="300px"
	 height="300px" viewBox="0 0 300 300" style="enable-background:new 0 0 300 300;" xml:space="preserve">
<g id="Guides">
</g>
<g id="ABC">
</g>
<g id="Apple">
</g>
<g id="CBS">
</g>
<g id="CNN">
</g>
<g id="Coke">
</g>
<g id="Dropbox">
</g>
<g id="ESPN">
</g>
<g id="GE">
</g>
<g id="LG">
</g>
<g id="Honda">
</g>
<g id="Hyundai">
</g>
<g id="IBM">
</g>
<g id="Intel">
</g>
<g id="John_Deere">
</g>
<g id="Jumpman">
</g>
<g id="Chase">
</g>
<g id="Girl_Scouts">
</g>
<g id="Mazda">
</g>
<g id="McDonalds">
</g>
<g id="Mercedes">
</g>
<g id="Motorola">
</g>
<g id="MTV">
</g>
<g id="NBC">
</g>
<g id="Nike">
</g>
<g id="PBS">
</g>
<g id="Pepsi">
</g>
<g id="Shell">
</g>
<g id="Starbucks">
</g>
<g id="Taco_Bell">
</g>
<g id="Target">
</g>
<g id="Toyota">
</g>
<g id="Twitter">
</g>
<g id="Univision">
</g>
<g id="UPS">
	<path d="M108.423,110.906c1.186-0.567,2.36-1.157,3.559-1.697c5.308-2.397,10.847-4.064,16.542-5.237
		c8.172-1.686,16.435-2.345,24.765-2.097c10.467,0.312,20.721,1.892,30.572,5.568c2.565,0.959,5.023,2.204,7.535,3.309
		c0.289,0.127,0.39,0.303,0.39,0.625c-0.008,15.869,0.005,31.738-0.016,47.607c-0.008,5.147-1.007,10.09-3.358,14.707
		c-2.487,4.883-6.09,8.75-10.729,11.657c-4.456,2.795-9.145,5.161-13.901,7.388c-4.392,2.056-8.83,4.01-13.254,5.992
		c-0.219,0.098-0.548,0.129-0.759,0.037c-8.554-3.69-17.043-7.514-25.146-12.135c-3.33-1.898-6.378-4.143-8.894-7.068
		c-3.836-4.463-6.071-9.639-6.912-15.436c-0.149-1.032-0.21-2.076-0.313-3.114c-0.016-0.156-0.052-0.312-0.079-0.468
		C108.423,144,108.423,127.453,108.423,110.906L108.423,110.906z M190.845,136.918h0.005c0-8.305-0.002-16.609,0.009-24.914
		c0-0.369-0.103-0.568-0.442-0.743c-5.977-3.063-12.319-5.05-18.872-6.405c-7.597-1.572-15.28-2.228-23.032-2.119
		c-6.926,0.097-13.783,0.818-20.559,2.274c-6.307,1.354-12.406,3.308-18.164,6.257c-0.319,0.162-0.429,0.346-0.429,0.7
		c0.009,15.692,0.006,31.388,0.01,47.081c0,2.142,0.193,4.267,0.595,6.371c1.158,6.069,3.917,11.269,8.385,15.558
		c2.531,2.429,5.501,4.213,8.544,5.888c7.408,4.076,15.103,7.559,22.858,10.908c0.202,0.087,0.509,0.079,0.713-0.009
		c2.153-0.927,4.305-1.858,6.439-2.828c6.348-2.881,12.646-5.859,18.683-9.363c3.856-2.237,7.22-5.017,9.817-8.669
		c3.723-5.232,5.38-11.123,5.428-17.48C190.887,151.922,190.845,144.42,190.845,136.918L190.845,136.918z M187.591,137.296
		c0,7.374,0.038,14.746-0.013,22.119c-0.037,5.436-1.396,10.516-4.447,15.076c-2.114,3.163-4.844,5.68-8.078,7.666
		c-4.58,2.812-9.392,5.181-14.248,7.458c-3.402,1.598-6.844,3.104-10.264,4.658c-0.301,0.137-0.548,0.146-0.859,0.01
		c-6.397-2.806-12.754-5.701-18.938-8.958c-2.743-1.444-5.49-2.897-7.958-4.788c-5.253-4.027-8.459-9.343-9.618-15.842
		c-0.353-1.982-0.523-4.02-0.536-6.033c-0.056-8.883-0.023-17.766-0.03-26.648c0-0.315,0.091-0.528,0.333-0.743
		c8.627-7.663,18.548-12.95,29.623-16.112c6.792-1.938,13.729-3.02,20.77-3.479c7.938-0.518,15.86-0.236,23.777,0.439
		c0.443,0.039,0.501,0.219,0.5,0.6c-0.009,8.192-0.006,16.385-0.006,24.577H187.591L187.591,137.296z M148.678,166.743
		c0.248,0.044,0.406,0.07,0.562,0.103c1.902,0.393,3.8,0.382,5.681-0.107c3.323-0.863,5.613-2.997,7.197-5.961
		c1.412-2.641,2.031-5.503,2.252-8.461c0.259-3.452,0.086-6.873-0.989-10.198c-1.835-5.679-5.964-8.838-11.758-8.97
		c-3.411-0.077-6.688,0.48-9.692,2.217c-0.309,0.179-0.453,0.365-0.451,0.747c0.01,14.972,0.01,29.943,0.002,44.914
		c0,0.391,0.092,0.527,0.504,0.522c2.071-0.02,4.145-0.01,6.217-0.012c0.14,0,0.28-0.017,0.477-0.027
		C148.678,176.595,148.678,171.703,148.678,166.743L148.678,166.743z M123.459,133.844h-0.592c-1.992,0-3.984,0-5.976,0
		c-0.632,0-0.634,0.002-0.634,0.619c0,7.018-0.013,14.037,0.012,21.056c0.004,1.199,0.084,2.409,0.259,3.598
		c0.609,4.138,2.97,6.767,6.9,7.729c2.12,0.519,4.272,0.459,6.421,0.23c2.664-0.283,5.197-0.995,7.513-2.39
		c0.267-0.161,0.466-0.312,0.465-0.698c-0.013-9.895-0.012-19.787-0.003-29.68c0-0.354-0.098-0.475-0.462-0.471
		c-2.087,0.015-4.176,0.017-6.264-0.002c-0.396-0.004-0.483,0.137-0.481,0.501c0.014,1.976,0.007,3.95,0.007,5.927
		c0,6.535-0.005,13.072,0.009,19.609c0,0.416-0.133,0.639-0.507,0.805c-0.978,0.433-1.999,0.582-3.055,0.555
		c-1.621-0.039-2.776-0.842-3.227-2.397c-0.237-0.819-0.366-1.701-0.369-2.557c-0.028-7.243-0.017-14.487-0.017-21.729V133.844z
		 M183.623,141.526c0-1.986-0.01-3.815,0.008-5.644c0.003-0.347-0.101-0.565-0.396-0.744c-3.754-2.262-7.701-2.778-11.741-0.979
		c-5.539,2.465-7.232,9.495-3.503,14.111c0.907,1.124,2.013,2.028,3.212,2.813c1.264,0.826,2.569,1.585,3.833,2.41
		c0.837,0.547,1.585,1.203,2.076,2.105c1.363,2.494-0.02,5.323-2.823,5.724c-0.598,0.084-1.224,0.094-1.821,0.021
		c-2.094-0.257-3.928-1.149-5.595-2.413c-0.121-0.092-0.248-0.179-0.406-0.294c-0.027,0.111-0.054,0.17-0.054,0.227
		c-0.003,1.96-0.013,3.918,0.011,5.878c0.002,0.169,0.184,0.406,0.346,0.493c2.731,1.48,5.642,2.205,8.757,1.943
		c2.71-0.228,5.056-1.228,6.901-3.3c2.917-3.276,3.743-10.427-1.323-14.42c-1.573-1.241-3.298-2.22-4.996-3.259
		c-0.786-0.482-1.56-1.031-2.216-1.677c-1.477-1.45-1.401-4.77,1.491-5.608c0.428-0.124,0.878-0.211,1.323-0.231
		c2.481-0.117,4.561,0.864,6.42,2.414C183.259,141.205,183.384,141.318,183.623,141.526L183.623,141.526z"/>
	<path style="fill:#FFFFFF;" d="M148.678,166.743v14.767c-0.195,0.012-0.336,0.029-0.476,0.029c-2.073,0-4.145-0.01-6.217,0.01
		c-0.411,0.005-0.505-0.132-0.505-0.522c0.01-14.971,0.01-29.942-0.002-44.913c0-0.383,0.144-0.568,0.452-0.747
		c3.004-1.737,6.281-2.295,9.691-2.218c5.794,0.132,9.923,3.291,11.759,8.97c1.074,3.325,1.247,6.746,0.989,10.2
		c-0.221,2.956-0.841,5.818-2.252,8.46c-1.584,2.963-3.875,5.097-7.197,5.96c-1.882,0.489-3.779,0.5-5.681,0.107
		C149.084,166.813,148.926,166.787,148.678,166.743z M148.689,150.124h0.003c0,3.453-0.003,6.907,0.011,10.358
		c0,0.182,0.108,0.469,0.245,0.529c2.161,0.958,4.929,0.15,6.264-1.799c0.739-1.082,1.146-2.296,1.401-3.563
		c0.623-3.099,0.603-6.226,0.34-9.355c-0.138-1.656-0.424-3.284-1.18-4.789c-0.628-1.249-1.569-2.147-2.956-2.497
		c-1.211-0.305-2.417-0.241-3.615,0.104c-0.375,0.108-0.526,0.279-0.523,0.702C148.699,143.251,148.689,146.688,148.689,150.124
		L148.689,150.124z M123.459,133.844v0.705c0,7.244-0.012,14.488,0.017,21.729c0.003,0.855,0.132,1.737,0.369,2.558
		c0.45,1.557,1.605,2.358,3.227,2.398c1.056,0.025,2.077-0.124,3.055-0.557c0.374-0.166,0.507-0.388,0.507-0.804
		c-0.014-6.536-0.009-13.073-0.009-19.61c0-1.975,0.007-3.95-0.007-5.926c-0.002-0.364,0.085-0.505,0.482-0.5
		c2.087,0.018,4.176,0.015,6.264,0c0.363-0.002,0.462,0.117,0.462,0.471c-0.01,9.894-0.01,19.787,0.003,29.68
		c0,0.388-0.197,0.539-0.466,0.699c-2.314,1.395-4.849,2.106-7.513,2.39c-2.147,0.229-4.301,0.288-6.42-0.231
		c-3.931-0.963-6.291-3.591-6.9-7.729c-0.176-1.187-0.255-2.397-0.26-3.598c-0.023-7.019-0.012-14.037-0.012-21.056
		c0-0.617,0.002-0.618,0.635-0.618c1.991,0,3.982,0,5.975,0L123.459,133.844z M183.623,141.526c-0.239-0.208-0.364-0.321-0.495-0.43
		c-1.86-1.55-3.939-2.531-6.421-2.415c-0.444,0.02-0.896,0.107-1.323,0.23c-2.893,0.84-2.968,4.16-1.49,5.609
		c0.656,0.645,1.429,1.194,2.215,1.677c1.698,1.038,3.425,2.019,4.996,3.258c5.066,3.995,4.24,11.144,1.323,14.42
		c-1.845,2.073-4.19,3.073-6.9,3.302c-3.115,0.26-6.026-0.463-8.758-1.944c-0.161-0.087-0.342-0.323-0.345-0.493
		c-0.024-1.959-0.015-3.918-0.012-5.878c0-0.058,0.026-0.114,0.054-0.227c0.159,0.114,0.285,0.201,0.407,0.294
		c1.667,1.264,3.5,2.156,5.594,2.413c0.598,0.072,1.225,0.063,1.821-0.021c2.805-0.4,4.187-3.229,2.824-5.724
		c-0.492-0.9-1.24-1.559-2.077-2.105c-1.264-0.824-2.569-1.583-3.832-2.409c-1.2-0.784-2.306-1.69-3.213-2.812
		c-3.729-4.617-2.036-11.647,3.504-14.113c4.04-1.798,7.986-1.282,11.741,0.981c0.295,0.178,0.397,0.396,0.396,0.742
		C183.613,137.712,183.623,139.54,183.623,141.526L183.623,141.526z"/>
	<path d="M148.689,150.124c0-3.437,0.01-6.873-0.011-10.31c-0.003-0.423,0.148-0.594,0.523-0.702
		c1.199-0.346,2.404-0.409,3.615-0.104c1.388,0.35,2.329,1.248,2.956,2.497c0.756,1.505,1.042,3.133,1.18,4.789
		c0.264,3.13,0.283,6.257-0.34,9.355c-0.256,1.268-0.661,2.481-1.401,3.563c-1.335,1.949-4.102,2.757-6.264,1.799
		c-0.137-0.061-0.245-0.348-0.245-0.529c-0.014-3.451-0.011-6.905-0.011-10.358H148.689L148.689,150.124z"/>
</g>
<g id="Quicksilver">
</g>
<g id="Volkswagen">
</g>
<g id="KFC">
</g>
<g id="Mitsubishi">
</g>
<g id="Rolex">
</g>
<g id="Puma">
</g>
</svg>
