<svg xmlns="http://www.w3.org/2000/svg" width="300" height="300" viewBox="0 0 300 300"><g><path d="M108.423 110.906c1.186-.567 2.36-1.157 3.559-1.697 5.308-2.397 10.847-4.064 16.542-5.237 8.172-1.686 16.435-2.345 24.765-2.097 10.467.312 20.721 1.892 30.572 5.568 2.565.959 5.023 2.204 7.535 3.309.289.127.39.303.39.625-.008 15.869.005 31.738-.016 47.607-.008 5.147-1.007 10.09-3.358 14.707-2.487 4.883-6.09 8.75-10.729 11.657-4.456 2.795-9.145 5.161-13.901 7.388-4.392 2.056-8.83 4.01-13.254 5.992-.219.098-.548.129-.759.037-8.554-3.69-17.043-7.514-25.146-12.135-3.33-1.898-6.378-4.143-8.894-7.068-3.836-4.463-6.071-9.639-6.912-15.436-.149-1.032-.21-2.076-.313-3.114l-.079-.468c-.002-16.544-.002-33.091-.002-49.638zm82.422 26.012h.005c0-8.305-.002-16.609.009-24.914 0-.369-.103-.568-.442-.743-5.977-3.063-12.319-5.05-18.872-6.405-7.597-1.572-15.28-2.228-23.032-2.119-6.926.097-13.783.818-20.559 2.274-6.307 1.354-12.406 3.308-18.164 6.257-.319.162-.429.346-.429.7.009 15.692.006 31.388.01 47.081 0 2.142.193 4.267.595 6.371 1.158 6.069 3.917 11.269 8.385 15.558 2.531 2.429 5.501 4.213 8.544 5.888 7.408 4.076 15.103 7.559 22.858 10.908.202.087.509.079.713-.009 2.153-.927 4.305-1.858 6.439-2.828 6.348-2.881 12.646-5.859 18.683-9.363 3.856-2.237 7.22-5.017 9.817-8.669 3.723-5.232 5.38-11.123 5.428-17.48.054-7.503.012-15.005.012-22.507zm-3.254.378c0 7.374.038 14.746-.013 22.119-.037 5.436-1.396 10.516-4.447 15.076-2.114 3.163-4.844 5.68-8.078 7.666-4.58 2.812-9.392 5.181-14.248 7.458-3.402 1.598-6.844 3.104-10.264 4.658-.301.137-.548.146-.859.01-6.397-2.806-12.754-5.701-18.938-8.958-2.743-1.444-5.49-2.897-7.958-4.788-5.253-4.027-8.459-9.343-9.618-15.842-.353-1.982-.523-4.02-.536-6.033-.056-8.883-.023-17.766-.03-26.648 0-.315.091-.528.333-.743 8.627-7.663 18.548-12.95 29.623-16.112 6.792-1.938 13.729-3.02 20.77-3.479 7.938-.518 15.86-.236 23.777.439.443.039.501.219.5.6-.009 8.192-.006 16.385-.006 24.577h-.008zm-38.913 29.447l.562.103c1.902.393 3.8.382 5.681-.107 3.323-.863 5.613-2.997 7.197-5.961 1.412-2.641 2.031-5.503 2.252-8.461.259-3.452.086-6.873-.989-10.198-1.835-5.679-5.964-8.838-11.758-8.97-3.411-.077-6.688.48-9.692 2.217-.309.179-.453.365-.451.747.01 14.972.01 29.943.002 44.914 0 .391.092.527.504.522 2.071-.02 4.145-.01 6.217-.012l.477-.027c-.002-4.915-.002-9.807-.002-14.767zm-25.219-32.899h-6.568c-.632 0-.634.002-.634.619 0 7.018-.013 14.037.012 21.056.004 1.199.084 2.409.259 3.598.609 4.138 2.97 6.767 6.9 7.729 2.12.519 4.272.459 6.421.23 2.664-.283 5.197-.995 7.513-2.39.267-.161.466-.312.465-.698-.013-9.895-.012-19.787-.003-29.68 0-.354-.098-.475-.462-.471-2.087.015-4.176.017-6.264-.002-.396-.004-.483.137-.481.501.014 1.976.007 3.95.007 5.927 0 6.535-.005 13.072.009 19.609 0 .416-.133.639-.507.805-.978.433-1.999.582-3.055.555-1.621-.039-2.776-.842-3.227-2.397-.237-.819-.366-1.701-.369-2.557-.028-7.243-.017-14.487-.017-21.729v-.705zm60.164 7.682c0-1.986-.01-3.815.008-5.644.003-.347-.101-.565-.396-.744-3.754-2.262-7.701-2.778-11.741-.979-5.539 2.465-7.232 9.495-3.503 14.111.907 1.124 2.013 2.028 3.212 2.813l3.833 2.41c.837.547 1.585 1.203 2.076 2.105 1.363 2.494-.02 5.323-2.823 5.724-.598.084-1.224.094-1.821.021-2.094-.257-3.928-1.149-5.595-2.413l-.406-.294-.054.227c-.003 1.96-.013 3.918.011 5.878.002.169.184.406.346.493 2.731 1.48 5.642 2.205 8.757 1.943 2.71-.228 5.056-1.228 6.901-3.3 2.917-3.276 3.743-10.427-1.323-14.42-1.573-1.241-3.298-2.22-4.996-3.259-.786-.482-1.56-1.031-2.216-1.677-1.477-1.45-1.401-4.77 1.491-5.608.428-.124.878-.211 1.323-.231 2.481-.117 4.561.864 6.42 2.414l.496.43z"/><path d="M148.678 166.743v14.767l-.476.029c-2.073 0-4.145-.01-6.217.01-.411.005-.505-.132-.505-.522.01-14.971.01-29.942-.002-44.913 0-.383.144-.568.452-.747 3.004-1.737 6.281-2.295 9.691-2.218 5.794.132 9.923 3.291 11.759 8.97 1.074 3.325 1.247 6.746.989 10.2-.221 2.956-.841 5.818-2.252 8.46-1.584 2.963-3.875 5.097-7.197 5.96-1.882.489-3.779.5-5.681.107l-.561-.103zm.011-16.619h.003c0 3.453-.003 6.907.011 10.358 0 .182.108.469.245.529 2.161.958 4.929.15 6.264-1.799.739-1.082 1.146-2.296 1.401-3.563.623-3.099.603-6.226.34-9.355-.138-1.656-.424-3.284-1.18-4.789-.628-1.249-1.569-2.147-2.956-2.497-1.211-.305-2.417-.241-3.615.104-.375.108-.526.279-.523.702.02 3.437.01 6.874.01 10.31zm-25.23-16.28v.705c0 7.244-.012 14.488.017 21.729.003.855.132 1.737.369 2.558.45 1.557 1.605 2.358 3.227 2.398 1.056.025 2.077-.124 3.055-.557.374-.166.507-.388.507-.804-.014-6.536-.009-13.073-.009-19.61 0-1.975.007-3.95-.007-5.926-.002-.364.085-.505.482-.5 2.087.018 4.176.015 6.264 0 .363-.002.462.117.462.471-.01 9.894-.01 19.787.003 29.68 0 .388-.197.539-.466.699-2.314 1.395-4.849 2.106-7.513 2.39-2.147.229-4.301.288-6.42-.231-3.931-.963-6.291-3.591-6.9-7.729-.176-1.187-.255-2.397-.26-3.598-.023-7.019-.012-14.037-.012-21.056 0-.617.002-.618.635-.618h5.975l.591-.001zm60.164 7.682l-.495-.43c-1.86-1.55-3.939-2.531-6.421-2.415-.444.02-.896.107-1.323.23-2.893.84-2.968 4.16-1.49 5.609.656.645 1.429 1.194 2.215 1.677 1.698 1.038 3.425 2.019 4.996 3.258 5.066 3.995 4.24 11.144 1.323 14.42-1.845 2.073-4.19 3.073-6.9 3.302-3.115.26-6.026-.463-8.758-1.944-.161-.087-.342-.323-.345-.493-.024-1.959-.015-3.918-.012-5.878l.054-.227.407.294c1.667 1.264 3.5 2.156 5.594 2.413.598.072 1.225.063 1.821-.021 2.805-.4 4.187-3.229 2.824-5.724-.492-.9-1.24-1.559-2.077-2.105-1.264-.824-2.569-1.583-3.832-2.409-1.2-.784-2.306-1.69-3.213-2.812-3.729-4.617-2.036-11.647 3.504-14.113 4.04-1.798 7.986-1.282 11.741.981.295.178.397.396.396.742-.019 1.831-.009 3.659-.009 5.645z" fill="#fff"/><path d="M148.689 150.124c0-3.437.01-6.873-.011-10.31-.003-.423.148-.594.523-.702 1.199-.346 2.404-.409 3.615-.104 1.388.35 2.329 1.248 2.956 2.497.756 1.505 1.042 3.133 1.18 4.789.264 3.13.283 6.257-.34 9.355-.256 1.268-.661 2.481-1.401 3.563-1.335 1.949-4.102 2.757-6.264 1.799-.137-.061-.245-.348-.245-.529-.014-3.451-.011-6.905-.011-10.358h-.002z"/></g></svg>