<?xml version="1.0" encoding="utf-8"?>
<!-- Generator: Adobe Illustrator 16.0.0, SVG Export Plug-In . SVG Version: 6.00 Build 0)  -->
<!DOCTYPE svg PUBLIC "-//W3C//DTD SVG 1.1//EN" "http://www.w3.org/Graphics/SVG/1.1/DTD/svg11.dtd">
<svg version="1.1" xmlns="http://www.w3.org/2000/svg" xmlns:xlink="http://www.w3.org/1999/xlink" x="0px" y="0px" width="300px"
	 height="300px" viewBox="0 0 300 300" style="enable-background:new 0 0 300 300;" xml:space="preserve">
<g id="Guides">
</g>
<g id="ABC">
</g>
<g id="Apple">
</g>
<g id="CBS">
</g>
<g id="CNN">
</g>
<g id="Coke">
</g>
<g id="Dropbox">
</g>
<g id="ESPN">
</g>
<g id="GE">
</g>
<g id="LG">
</g>
<g id="Honda">
</g>
<g id="Hyundai">
</g>
<g id="IBM">
</g>
<g id="Intel">
</g>
<g id="John_Deere">
</g>
<g id="Jumpman">
</g>
<g id="Chase">
</g>
<g id="Girl_Scouts">
</g>
<g id="Mazda">
</g>
<g id="McDonalds">
</g>
<g id="Mercedes">
</g>
<g id="Motorola">
</g>
<g id="MTV">
</g>
<g id="NBC">
</g>
<g id="Nike">
</g>
<g id="PBS">
</g>
<g id="Pepsi">
</g>
<g id="Shell">
</g>
<g id="Starbucks">
</g>
<g id="Taco_Bell">
</g>
<g id="Target">
</g>
<g id="Toyota">
</g>
<g id="Twitter">
</g>
<g id="Univision">
</g>
<g id="UPS">
</g>
<g id="Quicksilver">
</g>
<g id="Volkswagen">
	<path d="M149.5,103.033c-25.662,0-46.467,20.805-46.467,46.467s20.805,46.468,46.467,46.468s46.467-20.804,46.467-46.468
		C195.967,123.838,175.162,103.033,149.5,103.033z M149.5,191.801c-23.362,0-42.301-18.938-42.301-42.301
		s18.938-42.301,42.301-42.301c23.361,0,42.301,18.938,42.301,42.301S172.861,191.801,149.5,191.801z M140.238,117.896
		c2.938-0.858,6.046-1.318,9.262-1.318c3.211,0,6.315,0.458,9.25,1.316l-9.25,20.504L140.238,117.896z M167.172,121.716
		c3.47,2.214,6.498,5.056,8.92,8.37l-15.184,33.599l-5.859-13.026h-11.1l-5.858,13.026l-15.161-33.632
		c2.418-3.299,5.437-6.131,8.896-8.336l12.124,26.898h11.139L167.172,121.716z M117.689,140.979
		c-0.727,2.719-1.114,5.575-1.114,8.521c0,12.902,7.421,24.072,18.228,29.471L117.689,140.979z M140.391,181.148
		c2.893,0.832,5.949,1.275,9.109,1.275c3.155,0,6.208-0.443,9.098-1.271l-9.098-20.204L140.391,181.148z M164.195,178.971
		c10.808-5.398,18.229-16.568,18.229-29.471c0-2.92-0.38-5.752-1.094-8.449L164.195,178.971z"/>
</g>
<g id="KFC">
</g>
<g id="Mitsubishi">
</g>
<g id="Rolex">
</g>
<g id="Puma">
</g>
</svg>
