<svg xmlns="http://www.w3.org/2000/svg" width="300" height="300" viewBox="0 0 300 300"><path d="M149.5 103.033c-25.662 0-46.467 20.805-46.467 46.467s20.805 46.468 46.467 46.468 46.467-20.804 46.467-46.468c0-25.662-20.805-46.467-46.467-46.467zm0 88.768c-23.362 0-42.301-18.938-42.301-42.301s18.938-42.301 42.301-42.301c23.361 0 42.301 18.938 42.301 42.301s-18.94 42.301-42.301 42.301zm-9.262-73.905c2.938-.858 6.046-1.318 9.262-1.318 3.211 0 6.315.458 9.25 1.316l-9.25 20.504-9.262-20.502zm26.934 3.82c3.47 2.214 6.498 5.056 8.92 8.37l-15.184 33.599-5.859-13.026h-11.1l-5.858 13.026-15.161-33.632c2.418-3.299 5.437-6.131 8.896-8.336l12.124 26.898h11.139l12.083-26.899zm-49.483 19.263c-.727 2.719-1.114 5.575-1.114 8.521 0 12.902 7.421 24.072 18.228 29.471l-17.114-37.992zm22.702 40.169c2.893.832 5.949 1.275 9.109 1.275 3.155 0 6.208-.443 9.098-1.271l-9.098-20.204-9.109 20.2zm23.804-2.177c10.808-5.398 18.229-16.568 18.229-29.471 0-2.92-.38-5.752-1.094-8.449l-17.135 37.92z"/></svg>